%TF.GenerationSoftware,KiCad,Pcbnew,5.1.9-73d0e3b20d~88~ubuntu20.04.1*%
%TF.CreationDate,2021-02-15T14:30:30+00:00*%
%TF.ProjectId,daughter_board,64617567-6874-4657-925f-626f6172642e,rev?*%
%TF.SameCoordinates,Original*%
%TF.FileFunction,Legend,Top*%
%TF.FilePolarity,Positive*%
%FSLAX46Y46*%
G04 Gerber Fmt 4.6, Leading zero omitted, Abs format (unit mm)*
G04 Created by KiCad (PCBNEW 5.1.9-73d0e3b20d~88~ubuntu20.04.1) date 2021-02-15 14:30:30*
%MOMM*%
%LPD*%
G01*
G04 APERTURE LIST*
%ADD10C,0.120000*%
%ADD11C,0.150000*%
G04 APERTURE END LIST*
D10*
%TO.C,D3*%
X126125000Y-121000000D02*
X126375000Y-121000000D01*
X126125000Y-119900000D02*
X126375000Y-119900000D01*
X123725000Y-120750000D02*
G75*
G03*
X123725000Y-120750000I-125000J0D01*
G01*
%TO.C,D2*%
X117700000Y-121775000D02*
X117700000Y-122025000D01*
X118800000Y-121775000D02*
X118800000Y-122025000D01*
X118075000Y-119250000D02*
G75*
G03*
X118075000Y-119250000I-125000J0D01*
G01*
%TO.C,D1*%
X118150000Y-117675000D02*
X118150000Y-117425000D01*
X117050000Y-117675000D02*
X117050000Y-117425000D01*
X118025000Y-120200000D02*
G75*
G03*
X118025000Y-120200000I-125000J0D01*
G01*
%TO.C,STEMMA1*%
X108915000Y-109865000D02*
X108915000Y-105985000D01*
X112035000Y-104815000D02*
X112035000Y-105865000D01*
X110885000Y-104815000D02*
X112035000Y-104815000D01*
X112035000Y-109985000D02*
X113025000Y-109985000D01*
X112035000Y-111035000D02*
X112035000Y-109985000D01*
X110885000Y-111035000D02*
X112035000Y-111035000D01*
%TO.C,J2*%
X108445000Y-117070000D02*
X109775000Y-117070000D01*
X108445000Y-118400000D02*
X108445000Y-117070000D01*
X111045000Y-117070000D02*
X113645000Y-117070000D01*
X111045000Y-119670000D02*
X111045000Y-117070000D01*
X108445000Y-119670000D02*
X111045000Y-119670000D01*
X113645000Y-117070000D02*
X113645000Y-122270000D01*
X108445000Y-119670000D02*
X108445000Y-122270000D01*
X108445000Y-122270000D02*
X113645000Y-122270000D01*
%TO.C,APDS9930*%
X124430000Y-126070000D02*
X124430000Y-127400000D01*
X123100000Y-126070000D02*
X124430000Y-126070000D01*
X121830000Y-126070000D02*
X121830000Y-128730000D01*
X121830000Y-128730000D02*
X114150000Y-128730000D01*
X121830000Y-126070000D02*
X114150000Y-126070000D01*
X114150000Y-126070000D02*
X114150000Y-128730000D01*
%TO.C,R1*%
X150177064Y-106335000D02*
X149722936Y-106335000D01*
X150177064Y-104865000D02*
X149722936Y-104865000D01*
%TO.C,C3*%
X150161252Y-108510000D02*
X149638748Y-108510000D01*
X150161252Y-107040000D02*
X149638748Y-107040000D01*
%TO.C,SW2*%
X154875000Y-106075000D02*
G75*
G03*
X154875000Y-106075000I-125000J0D01*
G01*
X157675000Y-102050000D02*
X157675000Y-103950000D01*
X157100000Y-102050000D02*
X157675000Y-102050000D01*
X157100000Y-103950000D02*
X157675000Y-103950000D01*
X157100000Y-102050000D02*
X157100000Y-101150000D01*
X157100000Y-104850000D02*
X157100000Y-103950000D01*
X153850000Y-101150000D02*
X153850000Y-104850000D01*
%TO.C,SW1*%
X154875000Y-114600000D02*
G75*
G03*
X154875000Y-114600000I-125000J0D01*
G01*
X157675000Y-110575000D02*
X157675000Y-112475000D01*
X157100000Y-110575000D02*
X157675000Y-110575000D01*
X157100000Y-112475000D02*
X157675000Y-112475000D01*
X157100000Y-110575000D02*
X157100000Y-109675000D01*
X157100000Y-113375000D02*
X157100000Y-112475000D01*
X153850000Y-109675000D02*
X153850000Y-113375000D01*
%TO.C,FB1*%
X149404724Y-102672500D02*
X148895276Y-102672500D01*
X149404724Y-101627500D02*
X148895276Y-101627500D01*
%TO.C,AHT10*%
X145570000Y-128730000D02*
X145570000Y-127400000D01*
X146900000Y-128730000D02*
X145570000Y-128730000D01*
X148170000Y-128730000D02*
X148170000Y-126070000D01*
X148170000Y-126070000D02*
X155850000Y-126070000D01*
X148170000Y-128730000D02*
X155850000Y-128730000D01*
X155850000Y-128730000D02*
X155850000Y-126070000D01*
%TO.C,J3*%
X132015000Y-128130000D02*
X132015000Y-127000000D01*
X132775000Y-128130000D02*
X132015000Y-128130000D01*
X132080000Y-125422470D02*
X132080000Y-124600000D01*
X132080000Y-126240000D02*
X132080000Y-126037530D01*
X132211529Y-126240000D02*
X132080000Y-126240000D01*
X133481529Y-126240000D02*
X133338471Y-126240000D01*
X133535000Y-126436529D02*
X133535000Y-126293471D01*
X133535000Y-128130000D02*
X133535000Y-127563471D01*
X132080000Y-124600000D02*
X138550000Y-124600000D01*
X133535000Y-128130000D02*
X138550000Y-128130000D01*
X138550000Y-126692470D02*
X138550000Y-126037530D01*
X138550000Y-125422470D02*
X138550000Y-124600000D01*
X138550000Y-128130000D02*
X138550000Y-127307530D01*
%TO.C,R7*%
X130122936Y-121460000D02*
X130577064Y-121460000D01*
X130122936Y-119990000D02*
X130577064Y-119990000D01*
%TO.C,R6*%
X116035000Y-121627064D02*
X116035000Y-121172936D01*
X114565000Y-121627064D02*
X114565000Y-121172936D01*
%TO.C,R5*%
X114515000Y-117472936D02*
X114515000Y-117927064D01*
X115985000Y-117472936D02*
X115985000Y-117927064D01*
%TO.C,R4*%
X150177064Y-98740000D02*
X149722936Y-98740000D01*
X150177064Y-100210000D02*
X149722936Y-100210000D01*
%TO.C,J1*%
X108695000Y-101230000D02*
X108695000Y-99900000D01*
X110025000Y-101230000D02*
X108695000Y-101230000D01*
X111295000Y-101230000D02*
X111295000Y-98570000D01*
X111295000Y-98570000D02*
X118975000Y-98570000D01*
X111295000Y-101230000D02*
X118975000Y-101230000D01*
X118975000Y-101230000D02*
X118975000Y-98570000D01*
%TO.C,C2*%
X147110000Y-101511252D02*
X147110000Y-100988748D01*
X145640000Y-101511252D02*
X145640000Y-100988748D01*
%TO.C,U3*%
X141330000Y-115310000D02*
X141350000Y-90750000D01*
X124330000Y-115310000D02*
X141330000Y-115310000D01*
X124330000Y-114710000D02*
X124330000Y-115310000D01*
X124350000Y-90750000D02*
X141350000Y-90750000D01*
X124330000Y-114710000D02*
X124350000Y-90750000D01*
%TO.C,D3*%
D11*
X123770952Y-121107261D02*
X122950952Y-121107261D01*
X122950952Y-120912023D01*
X122990000Y-120794880D01*
X123068095Y-120716785D01*
X123146190Y-120677738D01*
X123302380Y-120638690D01*
X123419523Y-120638690D01*
X123575714Y-120677738D01*
X123653809Y-120716785D01*
X123731904Y-120794880D01*
X123770952Y-120912023D01*
X123770952Y-121107261D01*
X122950952Y-120365357D02*
X122950952Y-119857738D01*
X123263333Y-120131071D01*
X123263333Y-120013928D01*
X123302380Y-119935833D01*
X123341428Y-119896785D01*
X123419523Y-119857738D01*
X123614761Y-119857738D01*
X123692857Y-119896785D01*
X123731904Y-119935833D01*
X123770952Y-120013928D01*
X123770952Y-120248214D01*
X123731904Y-120326309D01*
X123692857Y-120365357D01*
%TO.C,D2*%
X119670952Y-122803214D02*
X118850952Y-122803214D01*
X118850952Y-122607976D01*
X118890000Y-122490833D01*
X118968095Y-122412738D01*
X119046190Y-122373690D01*
X119202380Y-122334642D01*
X119319523Y-122334642D01*
X119475714Y-122373690D01*
X119553809Y-122412738D01*
X119631904Y-122490833D01*
X119670952Y-122607976D01*
X119670952Y-122803214D01*
X118929047Y-122022261D02*
X118890000Y-121983214D01*
X118850952Y-121905119D01*
X118850952Y-121709880D01*
X118890000Y-121631785D01*
X118929047Y-121592738D01*
X119007142Y-121553690D01*
X119085238Y-121553690D01*
X119202380Y-121592738D01*
X119670952Y-122061309D01*
X119670952Y-121553690D01*
%TO.C,D1*%
X119770952Y-117807261D02*
X118950952Y-117807261D01*
X118950952Y-117612023D01*
X118990000Y-117494880D01*
X119068095Y-117416785D01*
X119146190Y-117377738D01*
X119302380Y-117338690D01*
X119419523Y-117338690D01*
X119575714Y-117377738D01*
X119653809Y-117416785D01*
X119731904Y-117494880D01*
X119770952Y-117612023D01*
X119770952Y-117807261D01*
X119770952Y-116557738D02*
X119770952Y-117026309D01*
X119770952Y-116792023D02*
X118950952Y-116792023D01*
X119068095Y-116870119D01*
X119146190Y-116948214D01*
X119185238Y-117026309D01*
%TO.C,STEMMA1*%
X115006904Y-110271666D02*
X115045952Y-110154523D01*
X115045952Y-109959285D01*
X115006904Y-109881190D01*
X114967857Y-109842142D01*
X114889761Y-109803095D01*
X114811666Y-109803095D01*
X114733571Y-109842142D01*
X114694523Y-109881190D01*
X114655476Y-109959285D01*
X114616428Y-110115476D01*
X114577380Y-110193571D01*
X114538333Y-110232619D01*
X114460238Y-110271666D01*
X114382142Y-110271666D01*
X114304047Y-110232619D01*
X114265000Y-110193571D01*
X114225952Y-110115476D01*
X114225952Y-109920238D01*
X114265000Y-109803095D01*
X114225952Y-109568809D02*
X114225952Y-109100238D01*
X115045952Y-109334523D02*
X114225952Y-109334523D01*
X114616428Y-108826904D02*
X114616428Y-108553571D01*
X115045952Y-108436428D02*
X115045952Y-108826904D01*
X114225952Y-108826904D01*
X114225952Y-108436428D01*
X115045952Y-108085000D02*
X114225952Y-108085000D01*
X114811666Y-107811666D01*
X114225952Y-107538333D01*
X115045952Y-107538333D01*
X115045952Y-107147857D02*
X114225952Y-107147857D01*
X114811666Y-106874523D01*
X114225952Y-106601190D01*
X115045952Y-106601190D01*
X114811666Y-106249761D02*
X114811666Y-105859285D01*
X115045952Y-106327857D02*
X114225952Y-106054523D01*
X115045952Y-105781190D01*
X115045952Y-105078333D02*
X115045952Y-105546904D01*
X115045952Y-105312619D02*
X114225952Y-105312619D01*
X114343095Y-105390714D01*
X114421190Y-105468809D01*
X114460238Y-105546904D01*
%TO.C,J2*%
X110771666Y-115620952D02*
X110771666Y-116206666D01*
X110732619Y-116323809D01*
X110654523Y-116401904D01*
X110537380Y-116440952D01*
X110459285Y-116440952D01*
X111123095Y-115699047D02*
X111162142Y-115660000D01*
X111240238Y-115620952D01*
X111435476Y-115620952D01*
X111513571Y-115660000D01*
X111552619Y-115699047D01*
X111591666Y-115777142D01*
X111591666Y-115855238D01*
X111552619Y-115972380D01*
X111084047Y-116440952D01*
X111591666Y-116440952D01*
%TO.C,APDS9930*%
X115832380Y-125311666D02*
X116222857Y-125311666D01*
X115754285Y-125545952D02*
X116027619Y-124725952D01*
X116300952Y-125545952D01*
X116574285Y-125545952D02*
X116574285Y-124725952D01*
X116886666Y-124725952D01*
X116964761Y-124765000D01*
X117003809Y-124804047D01*
X117042857Y-124882142D01*
X117042857Y-124999285D01*
X117003809Y-125077380D01*
X116964761Y-125116428D01*
X116886666Y-125155476D01*
X116574285Y-125155476D01*
X117394285Y-125545952D02*
X117394285Y-124725952D01*
X117589523Y-124725952D01*
X117706666Y-124765000D01*
X117784761Y-124843095D01*
X117823809Y-124921190D01*
X117862857Y-125077380D01*
X117862857Y-125194523D01*
X117823809Y-125350714D01*
X117784761Y-125428809D01*
X117706666Y-125506904D01*
X117589523Y-125545952D01*
X117394285Y-125545952D01*
X118175238Y-125506904D02*
X118292380Y-125545952D01*
X118487619Y-125545952D01*
X118565714Y-125506904D01*
X118604761Y-125467857D01*
X118643809Y-125389761D01*
X118643809Y-125311666D01*
X118604761Y-125233571D01*
X118565714Y-125194523D01*
X118487619Y-125155476D01*
X118331428Y-125116428D01*
X118253333Y-125077380D01*
X118214285Y-125038333D01*
X118175238Y-124960238D01*
X118175238Y-124882142D01*
X118214285Y-124804047D01*
X118253333Y-124765000D01*
X118331428Y-124725952D01*
X118526666Y-124725952D01*
X118643809Y-124765000D01*
X119034285Y-125545952D02*
X119190476Y-125545952D01*
X119268571Y-125506904D01*
X119307619Y-125467857D01*
X119385714Y-125350714D01*
X119424761Y-125194523D01*
X119424761Y-124882142D01*
X119385714Y-124804047D01*
X119346666Y-124765000D01*
X119268571Y-124725952D01*
X119112380Y-124725952D01*
X119034285Y-124765000D01*
X118995238Y-124804047D01*
X118956190Y-124882142D01*
X118956190Y-125077380D01*
X118995238Y-125155476D01*
X119034285Y-125194523D01*
X119112380Y-125233571D01*
X119268571Y-125233571D01*
X119346666Y-125194523D01*
X119385714Y-125155476D01*
X119424761Y-125077380D01*
X119815238Y-125545952D02*
X119971428Y-125545952D01*
X120049523Y-125506904D01*
X120088571Y-125467857D01*
X120166666Y-125350714D01*
X120205714Y-125194523D01*
X120205714Y-124882142D01*
X120166666Y-124804047D01*
X120127619Y-124765000D01*
X120049523Y-124725952D01*
X119893333Y-124725952D01*
X119815238Y-124765000D01*
X119776190Y-124804047D01*
X119737142Y-124882142D01*
X119737142Y-125077380D01*
X119776190Y-125155476D01*
X119815238Y-125194523D01*
X119893333Y-125233571D01*
X120049523Y-125233571D01*
X120127619Y-125194523D01*
X120166666Y-125155476D01*
X120205714Y-125077380D01*
X120479047Y-124725952D02*
X120986666Y-124725952D01*
X120713333Y-125038333D01*
X120830476Y-125038333D01*
X120908571Y-125077380D01*
X120947619Y-125116428D01*
X120986666Y-125194523D01*
X120986666Y-125389761D01*
X120947619Y-125467857D01*
X120908571Y-125506904D01*
X120830476Y-125545952D01*
X120596190Y-125545952D01*
X120518095Y-125506904D01*
X120479047Y-125467857D01*
X121494285Y-124725952D02*
X121572380Y-124725952D01*
X121650476Y-124765000D01*
X121689523Y-124804047D01*
X121728571Y-124882142D01*
X121767619Y-125038333D01*
X121767619Y-125233571D01*
X121728571Y-125389761D01*
X121689523Y-125467857D01*
X121650476Y-125506904D01*
X121572380Y-125545952D01*
X121494285Y-125545952D01*
X121416190Y-125506904D01*
X121377142Y-125467857D01*
X121338095Y-125389761D01*
X121299047Y-125233571D01*
X121299047Y-125038333D01*
X121338095Y-124882142D01*
X121377142Y-124804047D01*
X121416190Y-124765000D01*
X121494285Y-124725952D01*
%TO.C,R1*%
X148220952Y-105661666D02*
X147830476Y-105935000D01*
X148220952Y-106130238D02*
X147400952Y-106130238D01*
X147400952Y-105817857D01*
X147440000Y-105739761D01*
X147479047Y-105700714D01*
X147557142Y-105661666D01*
X147674285Y-105661666D01*
X147752380Y-105700714D01*
X147791428Y-105739761D01*
X147830476Y-105817857D01*
X147830476Y-106130238D01*
X148220952Y-104880714D02*
X148220952Y-105349285D01*
X148220952Y-105115000D02*
X147400952Y-105115000D01*
X147518095Y-105193095D01*
X147596190Y-105271190D01*
X147635238Y-105349285D01*
%TO.C,C3*%
X148017857Y-107911666D02*
X148056904Y-107950714D01*
X148095952Y-108067857D01*
X148095952Y-108145952D01*
X148056904Y-108263095D01*
X147978809Y-108341190D01*
X147900714Y-108380238D01*
X147744523Y-108419285D01*
X147627380Y-108419285D01*
X147471190Y-108380238D01*
X147393095Y-108341190D01*
X147315000Y-108263095D01*
X147275952Y-108145952D01*
X147275952Y-108067857D01*
X147315000Y-107950714D01*
X147354047Y-107911666D01*
X147275952Y-107638333D02*
X147275952Y-107130714D01*
X147588333Y-107404047D01*
X147588333Y-107286904D01*
X147627380Y-107208809D01*
X147666428Y-107169761D01*
X147744523Y-107130714D01*
X147939761Y-107130714D01*
X148017857Y-107169761D01*
X148056904Y-107208809D01*
X148095952Y-107286904D01*
X148095952Y-107521190D01*
X148056904Y-107599285D01*
X148017857Y-107638333D01*
%TO.C,SW2*%
X153206904Y-104246309D02*
X153245952Y-104129166D01*
X153245952Y-103933928D01*
X153206904Y-103855833D01*
X153167857Y-103816785D01*
X153089761Y-103777738D01*
X153011666Y-103777738D01*
X152933571Y-103816785D01*
X152894523Y-103855833D01*
X152855476Y-103933928D01*
X152816428Y-104090119D01*
X152777380Y-104168214D01*
X152738333Y-104207261D01*
X152660238Y-104246309D01*
X152582142Y-104246309D01*
X152504047Y-104207261D01*
X152465000Y-104168214D01*
X152425952Y-104090119D01*
X152425952Y-103894880D01*
X152465000Y-103777738D01*
X152425952Y-103504404D02*
X153245952Y-103309166D01*
X152660238Y-103152976D01*
X153245952Y-102996785D01*
X152425952Y-102801547D01*
X152504047Y-102528214D02*
X152465000Y-102489166D01*
X152425952Y-102411071D01*
X152425952Y-102215833D01*
X152465000Y-102137738D01*
X152504047Y-102098690D01*
X152582142Y-102059642D01*
X152660238Y-102059642D01*
X152777380Y-102098690D01*
X153245952Y-102567261D01*
X153245952Y-102059642D01*
%TO.C,SW1*%
X153281904Y-112571309D02*
X153320952Y-112454166D01*
X153320952Y-112258928D01*
X153281904Y-112180833D01*
X153242857Y-112141785D01*
X153164761Y-112102738D01*
X153086666Y-112102738D01*
X153008571Y-112141785D01*
X152969523Y-112180833D01*
X152930476Y-112258928D01*
X152891428Y-112415119D01*
X152852380Y-112493214D01*
X152813333Y-112532261D01*
X152735238Y-112571309D01*
X152657142Y-112571309D01*
X152579047Y-112532261D01*
X152540000Y-112493214D01*
X152500952Y-112415119D01*
X152500952Y-112219880D01*
X152540000Y-112102738D01*
X152500952Y-111829404D02*
X153320952Y-111634166D01*
X152735238Y-111477976D01*
X153320952Y-111321785D01*
X152500952Y-111126547D01*
X153320952Y-110384642D02*
X153320952Y-110853214D01*
X153320952Y-110618928D02*
X152500952Y-110618928D01*
X152618095Y-110697023D01*
X152696190Y-110775119D01*
X152735238Y-110853214D01*
%TO.C,FB1*%
X148466666Y-100966428D02*
X148193333Y-100966428D01*
X148193333Y-101395952D02*
X148193333Y-100575952D01*
X148583809Y-100575952D01*
X149169523Y-100966428D02*
X149286666Y-101005476D01*
X149325714Y-101044523D01*
X149364761Y-101122619D01*
X149364761Y-101239761D01*
X149325714Y-101317857D01*
X149286666Y-101356904D01*
X149208571Y-101395952D01*
X148896190Y-101395952D01*
X148896190Y-100575952D01*
X149169523Y-100575952D01*
X149247619Y-100615000D01*
X149286666Y-100654047D01*
X149325714Y-100732142D01*
X149325714Y-100810238D01*
X149286666Y-100888333D01*
X149247619Y-100927380D01*
X149169523Y-100966428D01*
X148896190Y-100966428D01*
X150145714Y-101395952D02*
X149677142Y-101395952D01*
X149911428Y-101395952D02*
X149911428Y-100575952D01*
X149833333Y-100693095D01*
X149755238Y-100771190D01*
X149677142Y-100810238D01*
%TO.C,D4*%
X126270952Y-123305238D02*
X125450952Y-123305238D01*
X125450952Y-123110000D01*
X125490000Y-122992857D01*
X125568095Y-122914761D01*
X125646190Y-122875714D01*
X125802380Y-122836666D01*
X125919523Y-122836666D01*
X126075714Y-122875714D01*
X126153809Y-122914761D01*
X126231904Y-122992857D01*
X126270952Y-123110000D01*
X126270952Y-123305238D01*
X125724285Y-122133809D02*
X126270952Y-122133809D01*
X125411904Y-122329047D02*
X125997619Y-122524285D01*
X125997619Y-122016666D01*
%TO.C,AHT10*%
X150131904Y-125386666D02*
X150522380Y-125386666D01*
X150053809Y-125620952D02*
X150327142Y-124800952D01*
X150600476Y-125620952D01*
X150873809Y-125620952D02*
X150873809Y-124800952D01*
X150873809Y-125191428D02*
X151342380Y-125191428D01*
X151342380Y-125620952D02*
X151342380Y-124800952D01*
X151615714Y-124800952D02*
X152084285Y-124800952D01*
X151850000Y-125620952D02*
X151850000Y-124800952D01*
X152787142Y-125620952D02*
X152318571Y-125620952D01*
X152552857Y-125620952D02*
X152552857Y-124800952D01*
X152474761Y-124918095D01*
X152396666Y-124996190D01*
X152318571Y-125035238D01*
X153294761Y-124800952D02*
X153372857Y-124800952D01*
X153450952Y-124840000D01*
X153490000Y-124879047D01*
X153529047Y-124957142D01*
X153568095Y-125113333D01*
X153568095Y-125308571D01*
X153529047Y-125464761D01*
X153490000Y-125542857D01*
X153450952Y-125581904D01*
X153372857Y-125620952D01*
X153294761Y-125620952D01*
X153216666Y-125581904D01*
X153177619Y-125542857D01*
X153138571Y-125464761D01*
X153099523Y-125308571D01*
X153099523Y-125113333D01*
X153138571Y-124957142D01*
X153177619Y-124879047D01*
X153216666Y-124840000D01*
X153294761Y-124800952D01*
%TO.C,J3*%
X130630952Y-126638333D02*
X131216666Y-126638333D01*
X131333809Y-126677380D01*
X131411904Y-126755476D01*
X131450952Y-126872619D01*
X131450952Y-126950714D01*
X130630952Y-126325952D02*
X130630952Y-125818333D01*
X130943333Y-126091666D01*
X130943333Y-125974523D01*
X130982380Y-125896428D01*
X131021428Y-125857380D01*
X131099523Y-125818333D01*
X131294761Y-125818333D01*
X131372857Y-125857380D01*
X131411904Y-125896428D01*
X131450952Y-125974523D01*
X131450952Y-126208809D01*
X131411904Y-126286904D01*
X131372857Y-126325952D01*
%TO.C,R7*%
X132970952Y-120761666D02*
X132580476Y-121035000D01*
X132970952Y-121230238D02*
X132150952Y-121230238D01*
X132150952Y-120917857D01*
X132190000Y-120839761D01*
X132229047Y-120800714D01*
X132307142Y-120761666D01*
X132424285Y-120761666D01*
X132502380Y-120800714D01*
X132541428Y-120839761D01*
X132580476Y-120917857D01*
X132580476Y-121230238D01*
X132150952Y-120488333D02*
X132150952Y-119941666D01*
X132970952Y-120293095D01*
%TO.C,R6*%
X114195952Y-123311666D02*
X113805476Y-123585000D01*
X114195952Y-123780238D02*
X113375952Y-123780238D01*
X113375952Y-123467857D01*
X113415000Y-123389761D01*
X113454047Y-123350714D01*
X113532142Y-123311666D01*
X113649285Y-123311666D01*
X113727380Y-123350714D01*
X113766428Y-123389761D01*
X113805476Y-123467857D01*
X113805476Y-123780238D01*
X113375952Y-122608809D02*
X113375952Y-122765000D01*
X113415000Y-122843095D01*
X113454047Y-122882142D01*
X113571190Y-122960238D01*
X113727380Y-122999285D01*
X114039761Y-122999285D01*
X114117857Y-122960238D01*
X114156904Y-122921190D01*
X114195952Y-122843095D01*
X114195952Y-122686904D01*
X114156904Y-122608809D01*
X114117857Y-122569761D01*
X114039761Y-122530714D01*
X113844523Y-122530714D01*
X113766428Y-122569761D01*
X113727380Y-122608809D01*
X113688333Y-122686904D01*
X113688333Y-122843095D01*
X113727380Y-122921190D01*
X113766428Y-122960238D01*
X113844523Y-122999285D01*
%TO.C,R5*%
X114120952Y-116286666D02*
X113730476Y-116560000D01*
X114120952Y-116755238D02*
X113300952Y-116755238D01*
X113300952Y-116442857D01*
X113340000Y-116364761D01*
X113379047Y-116325714D01*
X113457142Y-116286666D01*
X113574285Y-116286666D01*
X113652380Y-116325714D01*
X113691428Y-116364761D01*
X113730476Y-116442857D01*
X113730476Y-116755238D01*
X113300952Y-115544761D02*
X113300952Y-115935238D01*
X113691428Y-115974285D01*
X113652380Y-115935238D01*
X113613333Y-115857142D01*
X113613333Y-115661904D01*
X113652380Y-115583809D01*
X113691428Y-115544761D01*
X113769523Y-115505714D01*
X113964761Y-115505714D01*
X114042857Y-115544761D01*
X114081904Y-115583809D01*
X114120952Y-115661904D01*
X114120952Y-115857142D01*
X114081904Y-115935238D01*
X114042857Y-115974285D01*
%TO.C,R4*%
X152670952Y-99661666D02*
X152280476Y-99935000D01*
X152670952Y-100130238D02*
X151850952Y-100130238D01*
X151850952Y-99817857D01*
X151890000Y-99739761D01*
X151929047Y-99700714D01*
X152007142Y-99661666D01*
X152124285Y-99661666D01*
X152202380Y-99700714D01*
X152241428Y-99739761D01*
X152280476Y-99817857D01*
X152280476Y-100130238D01*
X152124285Y-98958809D02*
X152670952Y-98958809D01*
X151811904Y-99154047D02*
X152397619Y-99349285D01*
X152397619Y-98841666D01*
%TO.C,J1*%
X109626666Y-101725952D02*
X109626666Y-102311666D01*
X109587619Y-102428809D01*
X109509523Y-102506904D01*
X109392380Y-102545952D01*
X109314285Y-102545952D01*
X110446666Y-102545952D02*
X109978095Y-102545952D01*
X110212380Y-102545952D02*
X110212380Y-101725952D01*
X110134285Y-101843095D01*
X110056190Y-101921190D01*
X109978095Y-101960238D01*
%TO.C,C2*%
X145117857Y-100436666D02*
X145156904Y-100475714D01*
X145195952Y-100592857D01*
X145195952Y-100670952D01*
X145156904Y-100788095D01*
X145078809Y-100866190D01*
X145000714Y-100905238D01*
X144844523Y-100944285D01*
X144727380Y-100944285D01*
X144571190Y-100905238D01*
X144493095Y-100866190D01*
X144415000Y-100788095D01*
X144375952Y-100670952D01*
X144375952Y-100592857D01*
X144415000Y-100475714D01*
X144454047Y-100436666D01*
X144454047Y-100124285D02*
X144415000Y-100085238D01*
X144375952Y-100007142D01*
X144375952Y-99811904D01*
X144415000Y-99733809D01*
X144454047Y-99694761D01*
X144532142Y-99655714D01*
X144610238Y-99655714D01*
X144727380Y-99694761D01*
X145195952Y-100163333D01*
X145195952Y-99655714D01*
%TO.C,U3*%
X132195238Y-101020952D02*
X132195238Y-101684761D01*
X132234285Y-101762857D01*
X132273333Y-101801904D01*
X132351428Y-101840952D01*
X132507619Y-101840952D01*
X132585714Y-101801904D01*
X132624761Y-101762857D01*
X132663809Y-101684761D01*
X132663809Y-101020952D01*
X132976190Y-101020952D02*
X133483809Y-101020952D01*
X133210476Y-101333333D01*
X133327619Y-101333333D01*
X133405714Y-101372380D01*
X133444761Y-101411428D01*
X133483809Y-101489523D01*
X133483809Y-101684761D01*
X133444761Y-101762857D01*
X133405714Y-101801904D01*
X133327619Y-101840952D01*
X133093333Y-101840952D01*
X133015238Y-101801904D01*
X132976190Y-101762857D01*
%TD*%
M02*
