%TF.GenerationSoftware,KiCad,Pcbnew,5.1.9-73d0e3b20d~88~ubuntu20.04.1*%
%TF.CreationDate,2021-02-15T14:30:30+00:00*%
%TF.ProjectId,daughter_board,64617567-6874-4657-925f-626f6172642e,rev?*%
%TF.SameCoordinates,Original*%
%TF.FileFunction,Copper,L3,Inr*%
%TF.FilePolarity,Positive*%
%FSLAX46Y46*%
G04 Gerber Fmt 4.6, Leading zero omitted, Abs format (unit mm)*
G04 Created by KiCad (PCBNEW 5.1.9-73d0e3b20d~88~ubuntu20.04.1) date 2021-02-15 14:30:30*
%MOMM*%
%LPD*%
G01*
G04 APERTURE LIST*
%TA.AperFunction,ComponentPad*%
%ADD10O,1.700000X1.700000*%
%TD*%
%TA.AperFunction,ComponentPad*%
%ADD11R,1.700000X1.700000*%
%TD*%
%TA.AperFunction,ComponentPad*%
%ADD12O,1.000000X1.000000*%
%TD*%
%TA.AperFunction,ComponentPad*%
%ADD13R,1.000000X1.000000*%
%TD*%
%TA.AperFunction,ViaPad*%
%ADD14C,0.800000*%
%TD*%
%TA.AperFunction,Conductor*%
%ADD15C,0.254000*%
%TD*%
%TA.AperFunction,Conductor*%
%ADD16C,0.150000*%
%TD*%
G04 APERTURE END LIST*
D10*
%TO.N,GND*%
%TO.C,J5*%
X154735000Y-121590000D03*
%TO.N,Net-(J5-Pad11)*%
X154735000Y-119050000D03*
%TO.N,GND*%
X152195000Y-121590000D03*
%TO.N,Net-(J5-Pad9)*%
X152195000Y-119050000D03*
%TO.N,GND*%
X149655000Y-121590000D03*
%TO.N,Net-(J5-Pad7)*%
X149655000Y-119050000D03*
%TO.N,VDD*%
X147115000Y-121590000D03*
%TO.N,Net-(J5-Pad5)*%
X147115000Y-119050000D03*
%TO.N,VDD*%
X144575000Y-121590000D03*
%TO.N,Net-(J5-Pad3)*%
X144575000Y-119050000D03*
%TO.N,VDD*%
X142035000Y-121590000D03*
D11*
%TO.N,Net-(J5-Pad1)*%
X142035000Y-119050000D03*
%TD*%
D10*
%TO.N,Net-(J2-Pad4)*%
%TO.C,J2*%
X112315000Y-120940000D03*
%TO.N,/RLED*%
X109775000Y-120940000D03*
%TO.N,Net-(J2-Pad2)*%
X112315000Y-118400000D03*
D11*
%TO.N,/GLED*%
X109775000Y-118400000D03*
%TD*%
D10*
%TO.N,/SDA*%
%TO.C,APDS9930*%
X115480000Y-127400000D03*
%TO.N,/SCL*%
X118020000Y-127400000D03*
%TO.N,GND*%
X120560000Y-127400000D03*
D11*
%TO.N,VDD*%
X123100000Y-127400000D03*
%TD*%
D10*
%TO.N,/SDA*%
%TO.C,AHT10*%
X154520000Y-127400000D03*
%TO.N,/SCL*%
X151980000Y-127400000D03*
%TO.N,GND*%
X149440000Y-127400000D03*
D11*
%TO.N,VDD*%
X146900000Y-127400000D03*
%TD*%
D12*
%TO.N,/XDS_RESET*%
%TO.C,J3*%
X137855000Y-125730000D03*
%TO.N,GND*%
X137855000Y-127000000D03*
%TO.N,/XDS_TDI*%
X136585000Y-125730000D03*
%TO.N,N/C*%
X136585000Y-127000000D03*
%TO.N,/XDS_TDO*%
X135315000Y-125730000D03*
%TO.N,GND*%
X135315000Y-127000000D03*
%TO.N,/XDS_TCK*%
X134045000Y-125730000D03*
%TO.N,GND*%
X134045000Y-127000000D03*
%TO.N,/XDS-TMS*%
X132775000Y-125730000D03*
D13*
%TO.N,VCC*%
X132775000Y-127000000D03*
%TD*%
D10*
%TO.N,VDD*%
%TO.C,J1*%
X117645000Y-99900000D03*
%TO.N,/UART_RXD*%
X115105000Y-99900000D03*
%TO.N,/UART_TXD*%
X112565000Y-99900000D03*
D11*
%TO.N,GND*%
X110025000Y-99900000D03*
%TD*%
D14*
%TO.N,/XDS_RESET*%
X150850000Y-113000000D03*
%TO.N,GND*%
X149450000Y-111325000D03*
X119600000Y-119500000D03*
X109775000Y-126775000D03*
X113050000Y-123325000D03*
X127475000Y-126150000D03*
X142175000Y-126125000D03*
X152450000Y-100575000D03*
X152475000Y-111725000D03*
X138250000Y-123025000D03*
X127400000Y-100650000D03*
X112500000Y-103300000D03*
X135600000Y-101350000D03*
X129175000Y-111075000D03*
X136450000Y-111075000D03*
X144900000Y-103275000D03*
X152425000Y-103125000D03*
X132250000Y-105400000D03*
X139250000Y-104800000D03*
X118430000Y-109770000D03*
X109400000Y-114000000D03*
X154900000Y-124700000D03*
X139000000Y-108600000D03*
X128800000Y-107700000D03*
X126300000Y-103200000D03*
X120300000Y-99700000D03*
X147900000Y-100800000D03*
X139800000Y-100300000D03*
%TO.N,Net-(R2-Pad2)*%
X126450000Y-119100000D03*
%TO.N,/SPI_SCLK*%
X120775000Y-111800000D03*
%TO.N,/SPI_MOSI*%
X120175000Y-110550000D03*
%TO.N,/SPI_MISO*%
X120805000Y-109220000D03*
%TO.N,/FLASH_CS*%
X119625000Y-116350000D03*
X124860000Y-116375000D03*
X138575000Y-118525000D03*
%TO.N,/SDA*%
X119475000Y-106000000D03*
%TO.N,/SCL*%
X118825000Y-104125000D03*
%TO.N,VDD*%
X155175000Y-108050000D03*
X114800000Y-115250000D03*
X110500000Y-108400000D03*
X152738300Y-106836700D03*
X149125000Y-103825000D03*
X127111700Y-124188300D03*
%TO.N,Net-(R2-Pad1)*%
X155675000Y-115375000D03*
%TD*%
D15*
%TO.N,VDD*%
X108723815Y-98598815D02*
X108644463Y-98695506D01*
X108585498Y-98805820D01*
X108549188Y-98925518D01*
X108536928Y-99050000D01*
X108536928Y-100750000D01*
X108549188Y-100874482D01*
X108585498Y-100994180D01*
X108644463Y-101104494D01*
X108723815Y-101201185D01*
X108820506Y-101280537D01*
X108930820Y-101339502D01*
X109050518Y-101375812D01*
X109175000Y-101388072D01*
X110875000Y-101388072D01*
X110999482Y-101375812D01*
X111119180Y-101339502D01*
X111229494Y-101280537D01*
X111326185Y-101201185D01*
X111405537Y-101104494D01*
X111464502Y-100994180D01*
X111486513Y-100921620D01*
X111618368Y-101053475D01*
X111861589Y-101215990D01*
X112131842Y-101327932D01*
X112418740Y-101385000D01*
X112711260Y-101385000D01*
X112998158Y-101327932D01*
X113268411Y-101215990D01*
X113511632Y-101053475D01*
X113718475Y-100846632D01*
X113835000Y-100672240D01*
X113951525Y-100846632D01*
X114158368Y-101053475D01*
X114401589Y-101215990D01*
X114671842Y-101327932D01*
X114958740Y-101385000D01*
X115251260Y-101385000D01*
X115538158Y-101327932D01*
X115808411Y-101215990D01*
X116051632Y-101053475D01*
X116258475Y-100846632D01*
X116380195Y-100664466D01*
X116449822Y-100781355D01*
X116644731Y-100997588D01*
X116878080Y-101171641D01*
X117140901Y-101296825D01*
X117288110Y-101341476D01*
X117518000Y-101220155D01*
X117518000Y-100027000D01*
X117772000Y-100027000D01*
X117772000Y-101220155D01*
X118001890Y-101341476D01*
X118149099Y-101296825D01*
X118411920Y-101171641D01*
X118645269Y-100997588D01*
X118840178Y-100781355D01*
X118989157Y-100531252D01*
X119086481Y-100256891D01*
X118965814Y-100027000D01*
X117772000Y-100027000D01*
X117518000Y-100027000D01*
X117498000Y-100027000D01*
X117498000Y-99773000D01*
X117518000Y-99773000D01*
X117518000Y-99753000D01*
X117772000Y-99753000D01*
X117772000Y-99773000D01*
X118965814Y-99773000D01*
X119057637Y-99598061D01*
X119265000Y-99598061D01*
X119265000Y-99801939D01*
X119304774Y-100001898D01*
X119382795Y-100190256D01*
X119496063Y-100359774D01*
X119640226Y-100503937D01*
X119809744Y-100617205D01*
X119998102Y-100695226D01*
X120198061Y-100735000D01*
X120401939Y-100735000D01*
X120601898Y-100695226D01*
X120790256Y-100617205D01*
X120893737Y-100548061D01*
X126365000Y-100548061D01*
X126365000Y-100751939D01*
X126404774Y-100951898D01*
X126482795Y-101140256D01*
X126596063Y-101309774D01*
X126740226Y-101453937D01*
X126909744Y-101567205D01*
X127098102Y-101645226D01*
X127298061Y-101685000D01*
X127501939Y-101685000D01*
X127701898Y-101645226D01*
X127890256Y-101567205D01*
X128059774Y-101453937D01*
X128203937Y-101309774D01*
X128245172Y-101248061D01*
X134565000Y-101248061D01*
X134565000Y-101451939D01*
X134604774Y-101651898D01*
X134682795Y-101840256D01*
X134796063Y-102009774D01*
X134940226Y-102153937D01*
X135109744Y-102267205D01*
X135298102Y-102345226D01*
X135498061Y-102385000D01*
X135701939Y-102385000D01*
X135901898Y-102345226D01*
X136090256Y-102267205D01*
X136259774Y-102153937D01*
X136403937Y-102009774D01*
X136517205Y-101840256D01*
X136595226Y-101651898D01*
X136635000Y-101451939D01*
X136635000Y-101248061D01*
X136595226Y-101048102D01*
X136517205Y-100859744D01*
X136403937Y-100690226D01*
X136259774Y-100546063D01*
X136090256Y-100432795D01*
X135901898Y-100354774D01*
X135701939Y-100315000D01*
X135498061Y-100315000D01*
X135298102Y-100354774D01*
X135109744Y-100432795D01*
X134940226Y-100546063D01*
X134796063Y-100690226D01*
X134682795Y-100859744D01*
X134604774Y-101048102D01*
X134565000Y-101248061D01*
X128245172Y-101248061D01*
X128317205Y-101140256D01*
X128395226Y-100951898D01*
X128435000Y-100751939D01*
X128435000Y-100548061D01*
X128395226Y-100348102D01*
X128333077Y-100198061D01*
X138765000Y-100198061D01*
X138765000Y-100401939D01*
X138804774Y-100601898D01*
X138882795Y-100790256D01*
X138996063Y-100959774D01*
X139140226Y-101103937D01*
X139309744Y-101217205D01*
X139498102Y-101295226D01*
X139698061Y-101335000D01*
X139901939Y-101335000D01*
X140101898Y-101295226D01*
X140290256Y-101217205D01*
X140459774Y-101103937D01*
X140603937Y-100959774D01*
X140717205Y-100790256D01*
X140755393Y-100698061D01*
X146865000Y-100698061D01*
X146865000Y-100901939D01*
X146904774Y-101101898D01*
X146982795Y-101290256D01*
X147096063Y-101459774D01*
X147240226Y-101603937D01*
X147409744Y-101717205D01*
X147598102Y-101795226D01*
X147798061Y-101835000D01*
X148001939Y-101835000D01*
X148201898Y-101795226D01*
X148390256Y-101717205D01*
X148559774Y-101603937D01*
X148703937Y-101459774D01*
X148817205Y-101290256D01*
X148895226Y-101101898D01*
X148935000Y-100901939D01*
X148935000Y-100698061D01*
X148895226Y-100498102D01*
X148884854Y-100473061D01*
X151415000Y-100473061D01*
X151415000Y-100676939D01*
X151454774Y-100876898D01*
X151532795Y-101065256D01*
X151646063Y-101234774D01*
X151790226Y-101378937D01*
X151959744Y-101492205D01*
X152148102Y-101570226D01*
X152348061Y-101610000D01*
X152551939Y-101610000D01*
X152751898Y-101570226D01*
X152940256Y-101492205D01*
X153109774Y-101378937D01*
X153253937Y-101234774D01*
X153367205Y-101065256D01*
X153445226Y-100876898D01*
X153485000Y-100676939D01*
X153485000Y-100473061D01*
X153445226Y-100273102D01*
X153367205Y-100084744D01*
X153253937Y-99915226D01*
X153109774Y-99771063D01*
X152940256Y-99657795D01*
X152751898Y-99579774D01*
X152551939Y-99540000D01*
X152348061Y-99540000D01*
X152148102Y-99579774D01*
X151959744Y-99657795D01*
X151790226Y-99771063D01*
X151646063Y-99915226D01*
X151532795Y-100084744D01*
X151454774Y-100273102D01*
X151415000Y-100473061D01*
X148884854Y-100473061D01*
X148817205Y-100309744D01*
X148703937Y-100140226D01*
X148559774Y-99996063D01*
X148390256Y-99882795D01*
X148201898Y-99804774D01*
X148001939Y-99765000D01*
X147798061Y-99765000D01*
X147598102Y-99804774D01*
X147409744Y-99882795D01*
X147240226Y-99996063D01*
X147096063Y-100140226D01*
X146982795Y-100309744D01*
X146904774Y-100498102D01*
X146865000Y-100698061D01*
X140755393Y-100698061D01*
X140795226Y-100601898D01*
X140835000Y-100401939D01*
X140835000Y-100198061D01*
X140795226Y-99998102D01*
X140717205Y-99809744D01*
X140603937Y-99640226D01*
X140459774Y-99496063D01*
X140290256Y-99382795D01*
X140101898Y-99304774D01*
X139901939Y-99265000D01*
X139698061Y-99265000D01*
X139498102Y-99304774D01*
X139309744Y-99382795D01*
X139140226Y-99496063D01*
X138996063Y-99640226D01*
X138882795Y-99809744D01*
X138804774Y-99998102D01*
X138765000Y-100198061D01*
X128333077Y-100198061D01*
X128317205Y-100159744D01*
X128203937Y-99990226D01*
X128059774Y-99846063D01*
X127890256Y-99732795D01*
X127701898Y-99654774D01*
X127501939Y-99615000D01*
X127298061Y-99615000D01*
X127098102Y-99654774D01*
X126909744Y-99732795D01*
X126740226Y-99846063D01*
X126596063Y-99990226D01*
X126482795Y-100159744D01*
X126404774Y-100348102D01*
X126365000Y-100548061D01*
X120893737Y-100548061D01*
X120959774Y-100503937D01*
X121103937Y-100359774D01*
X121217205Y-100190256D01*
X121295226Y-100001898D01*
X121335000Y-99801939D01*
X121335000Y-99598061D01*
X121295226Y-99398102D01*
X121217205Y-99209744D01*
X121103937Y-99040226D01*
X120959774Y-98896063D01*
X120790256Y-98782795D01*
X120601898Y-98704774D01*
X120401939Y-98665000D01*
X120198061Y-98665000D01*
X119998102Y-98704774D01*
X119809744Y-98782795D01*
X119640226Y-98896063D01*
X119496063Y-99040226D01*
X119382795Y-99209744D01*
X119304774Y-99398102D01*
X119265000Y-99598061D01*
X119057637Y-99598061D01*
X119086481Y-99543109D01*
X118989157Y-99268748D01*
X118840178Y-99018645D01*
X118645269Y-98802412D01*
X118411920Y-98628359D01*
X118268402Y-98560000D01*
X156440001Y-98560000D01*
X156440000Y-114676289D01*
X156334774Y-114571063D01*
X156165256Y-114457795D01*
X155976898Y-114379774D01*
X155776939Y-114340000D01*
X155573061Y-114340000D01*
X155373102Y-114379774D01*
X155184744Y-114457795D01*
X155015226Y-114571063D01*
X154871063Y-114715226D01*
X154757795Y-114884744D01*
X154679774Y-115073102D01*
X154640000Y-115273061D01*
X154640000Y-115476939D01*
X154679774Y-115676898D01*
X154757795Y-115865256D01*
X154871063Y-116034774D01*
X155015226Y-116178937D01*
X155184744Y-116292205D01*
X155373102Y-116370226D01*
X155573061Y-116410000D01*
X155776939Y-116410000D01*
X155976898Y-116370226D01*
X156165256Y-116292205D01*
X156334774Y-116178937D01*
X156440000Y-116073711D01*
X156440000Y-119932418D01*
X156440001Y-119932428D01*
X156440000Y-129340000D01*
X108160000Y-129340000D01*
X108160000Y-126673061D01*
X108740000Y-126673061D01*
X108740000Y-126876939D01*
X108779774Y-127076898D01*
X108857795Y-127265256D01*
X108971063Y-127434774D01*
X109115226Y-127578937D01*
X109284744Y-127692205D01*
X109473102Y-127770226D01*
X109673061Y-127810000D01*
X109876939Y-127810000D01*
X110076898Y-127770226D01*
X110265256Y-127692205D01*
X110434774Y-127578937D01*
X110578937Y-127434774D01*
X110692205Y-127265256D01*
X110696975Y-127253740D01*
X113995000Y-127253740D01*
X113995000Y-127546260D01*
X114052068Y-127833158D01*
X114164010Y-128103411D01*
X114326525Y-128346632D01*
X114533368Y-128553475D01*
X114776589Y-128715990D01*
X115046842Y-128827932D01*
X115333740Y-128885000D01*
X115626260Y-128885000D01*
X115913158Y-128827932D01*
X116183411Y-128715990D01*
X116426632Y-128553475D01*
X116633475Y-128346632D01*
X116750000Y-128172240D01*
X116866525Y-128346632D01*
X117073368Y-128553475D01*
X117316589Y-128715990D01*
X117586842Y-128827932D01*
X117873740Y-128885000D01*
X118166260Y-128885000D01*
X118453158Y-128827932D01*
X118723411Y-128715990D01*
X118966632Y-128553475D01*
X119173475Y-128346632D01*
X119290000Y-128172240D01*
X119406525Y-128346632D01*
X119613368Y-128553475D01*
X119856589Y-128715990D01*
X120126842Y-128827932D01*
X120413740Y-128885000D01*
X120706260Y-128885000D01*
X120993158Y-128827932D01*
X121263411Y-128715990D01*
X121506632Y-128553475D01*
X121638487Y-128421620D01*
X121660498Y-128494180D01*
X121719463Y-128604494D01*
X121798815Y-128701185D01*
X121895506Y-128780537D01*
X122005820Y-128839502D01*
X122125518Y-128875812D01*
X122250000Y-128888072D01*
X122814250Y-128885000D01*
X122973000Y-128726250D01*
X122973000Y-127527000D01*
X123227000Y-127527000D01*
X123227000Y-128726250D01*
X123385750Y-128885000D01*
X123950000Y-128888072D01*
X124074482Y-128875812D01*
X124194180Y-128839502D01*
X124304494Y-128780537D01*
X124401185Y-128701185D01*
X124480537Y-128604494D01*
X124539502Y-128494180D01*
X124575812Y-128374482D01*
X124588072Y-128250000D01*
X145411928Y-128250000D01*
X145424188Y-128374482D01*
X145460498Y-128494180D01*
X145519463Y-128604494D01*
X145598815Y-128701185D01*
X145695506Y-128780537D01*
X145805820Y-128839502D01*
X145925518Y-128875812D01*
X146050000Y-128888072D01*
X146614250Y-128885000D01*
X146773000Y-128726250D01*
X146773000Y-127527000D01*
X145573750Y-127527000D01*
X145415000Y-127685750D01*
X145411928Y-128250000D01*
X124588072Y-128250000D01*
X124585000Y-127685750D01*
X124426250Y-127527000D01*
X123227000Y-127527000D01*
X122973000Y-127527000D01*
X122953000Y-127527000D01*
X122953000Y-127273000D01*
X122973000Y-127273000D01*
X122973000Y-126073750D01*
X123227000Y-126073750D01*
X123227000Y-127273000D01*
X124426250Y-127273000D01*
X124585000Y-127114250D01*
X124588072Y-126550000D01*
X124575812Y-126425518D01*
X124539502Y-126305820D01*
X124480537Y-126195506D01*
X124401185Y-126098815D01*
X124339341Y-126048061D01*
X126440000Y-126048061D01*
X126440000Y-126251939D01*
X126479774Y-126451898D01*
X126557795Y-126640256D01*
X126671063Y-126809774D01*
X126815226Y-126953937D01*
X126984744Y-127067205D01*
X127173102Y-127145226D01*
X127373061Y-127185000D01*
X127576939Y-127185000D01*
X127776898Y-127145226D01*
X127965256Y-127067205D01*
X128134774Y-126953937D01*
X128278937Y-126809774D01*
X128392205Y-126640256D01*
X128450301Y-126500000D01*
X131636928Y-126500000D01*
X131636928Y-127500000D01*
X131649188Y-127624482D01*
X131685498Y-127744180D01*
X131744463Y-127854494D01*
X131823815Y-127951185D01*
X131920506Y-128030537D01*
X132030820Y-128089502D01*
X132150518Y-128125812D01*
X132275000Y-128138072D01*
X133275000Y-128138072D01*
X133399482Y-128125812D01*
X133519180Y-128089502D01*
X133602226Y-128045112D01*
X133713933Y-128091383D01*
X133933212Y-128135000D01*
X134156788Y-128135000D01*
X134376067Y-128091383D01*
X134582624Y-128005824D01*
X134680000Y-127940759D01*
X134777376Y-128005824D01*
X134983933Y-128091383D01*
X135203212Y-128135000D01*
X135426788Y-128135000D01*
X135646067Y-128091383D01*
X135852624Y-128005824D01*
X135950000Y-127940759D01*
X136047376Y-128005824D01*
X136253933Y-128091383D01*
X136473212Y-128135000D01*
X136696788Y-128135000D01*
X136916067Y-128091383D01*
X137122624Y-128005824D01*
X137220000Y-127940759D01*
X137317376Y-128005824D01*
X137523933Y-128091383D01*
X137743212Y-128135000D01*
X137966788Y-128135000D01*
X138186067Y-128091383D01*
X138392624Y-128005824D01*
X138578520Y-127881612D01*
X138736612Y-127723520D01*
X138860824Y-127537624D01*
X138946383Y-127331067D01*
X138990000Y-127111788D01*
X138990000Y-126888212D01*
X138946383Y-126668933D01*
X138860824Y-126462376D01*
X138795759Y-126365000D01*
X138860824Y-126267624D01*
X138946383Y-126061067D01*
X138953942Y-126023061D01*
X141140000Y-126023061D01*
X141140000Y-126226939D01*
X141179774Y-126426898D01*
X141257795Y-126615256D01*
X141371063Y-126784774D01*
X141515226Y-126928937D01*
X141684744Y-127042205D01*
X141873102Y-127120226D01*
X142073061Y-127160000D01*
X142276939Y-127160000D01*
X142476898Y-127120226D01*
X142665256Y-127042205D01*
X142834774Y-126928937D01*
X142978937Y-126784774D01*
X143092205Y-126615256D01*
X143119235Y-126550000D01*
X145411928Y-126550000D01*
X145415000Y-127114250D01*
X145573750Y-127273000D01*
X146773000Y-127273000D01*
X146773000Y-126073750D01*
X147027000Y-126073750D01*
X147027000Y-127273000D01*
X147047000Y-127273000D01*
X147047000Y-127527000D01*
X147027000Y-127527000D01*
X147027000Y-128726250D01*
X147185750Y-128885000D01*
X147750000Y-128888072D01*
X147874482Y-128875812D01*
X147994180Y-128839502D01*
X148104494Y-128780537D01*
X148201185Y-128701185D01*
X148280537Y-128604494D01*
X148339502Y-128494180D01*
X148361513Y-128421620D01*
X148493368Y-128553475D01*
X148736589Y-128715990D01*
X149006842Y-128827932D01*
X149293740Y-128885000D01*
X149586260Y-128885000D01*
X149873158Y-128827932D01*
X150143411Y-128715990D01*
X150386632Y-128553475D01*
X150593475Y-128346632D01*
X150710000Y-128172240D01*
X150826525Y-128346632D01*
X151033368Y-128553475D01*
X151276589Y-128715990D01*
X151546842Y-128827932D01*
X151833740Y-128885000D01*
X152126260Y-128885000D01*
X152413158Y-128827932D01*
X152683411Y-128715990D01*
X152926632Y-128553475D01*
X153133475Y-128346632D01*
X153250000Y-128172240D01*
X153366525Y-128346632D01*
X153573368Y-128553475D01*
X153816589Y-128715990D01*
X154086842Y-128827932D01*
X154373740Y-128885000D01*
X154666260Y-128885000D01*
X154953158Y-128827932D01*
X155223411Y-128715990D01*
X155466632Y-128553475D01*
X155673475Y-128346632D01*
X155835990Y-128103411D01*
X155947932Y-127833158D01*
X156005000Y-127546260D01*
X156005000Y-127253740D01*
X155947932Y-126966842D01*
X155835990Y-126696589D01*
X155673475Y-126453368D01*
X155466632Y-126246525D01*
X155223411Y-126084010D01*
X154953158Y-125972068D01*
X154666260Y-125915000D01*
X154373740Y-125915000D01*
X154086842Y-125972068D01*
X153816589Y-126084010D01*
X153573368Y-126246525D01*
X153366525Y-126453368D01*
X153250000Y-126627760D01*
X153133475Y-126453368D01*
X152926632Y-126246525D01*
X152683411Y-126084010D01*
X152413158Y-125972068D01*
X152126260Y-125915000D01*
X151833740Y-125915000D01*
X151546842Y-125972068D01*
X151276589Y-126084010D01*
X151033368Y-126246525D01*
X150826525Y-126453368D01*
X150710000Y-126627760D01*
X150593475Y-126453368D01*
X150386632Y-126246525D01*
X150143411Y-126084010D01*
X149873158Y-125972068D01*
X149586260Y-125915000D01*
X149293740Y-125915000D01*
X149006842Y-125972068D01*
X148736589Y-126084010D01*
X148493368Y-126246525D01*
X148361513Y-126378380D01*
X148339502Y-126305820D01*
X148280537Y-126195506D01*
X148201185Y-126098815D01*
X148104494Y-126019463D01*
X147994180Y-125960498D01*
X147874482Y-125924188D01*
X147750000Y-125911928D01*
X147185750Y-125915000D01*
X147027000Y-126073750D01*
X146773000Y-126073750D01*
X146614250Y-125915000D01*
X146050000Y-125911928D01*
X145925518Y-125924188D01*
X145805820Y-125960498D01*
X145695506Y-126019463D01*
X145598815Y-126098815D01*
X145519463Y-126195506D01*
X145460498Y-126305820D01*
X145424188Y-126425518D01*
X145411928Y-126550000D01*
X143119235Y-126550000D01*
X143170226Y-126426898D01*
X143210000Y-126226939D01*
X143210000Y-126023061D01*
X143170226Y-125823102D01*
X143092205Y-125634744D01*
X142978937Y-125465226D01*
X142834774Y-125321063D01*
X142665256Y-125207795D01*
X142476898Y-125129774D01*
X142276939Y-125090000D01*
X142073061Y-125090000D01*
X141873102Y-125129774D01*
X141684744Y-125207795D01*
X141515226Y-125321063D01*
X141371063Y-125465226D01*
X141257795Y-125634744D01*
X141179774Y-125823102D01*
X141140000Y-126023061D01*
X138953942Y-126023061D01*
X138990000Y-125841788D01*
X138990000Y-125618212D01*
X138946383Y-125398933D01*
X138860824Y-125192376D01*
X138736612Y-125006480D01*
X138578520Y-124848388D01*
X138392624Y-124724176D01*
X138186067Y-124638617D01*
X137982177Y-124598061D01*
X153865000Y-124598061D01*
X153865000Y-124801939D01*
X153904774Y-125001898D01*
X153982795Y-125190256D01*
X154096063Y-125359774D01*
X154240226Y-125503937D01*
X154409744Y-125617205D01*
X154598102Y-125695226D01*
X154798061Y-125735000D01*
X155001939Y-125735000D01*
X155201898Y-125695226D01*
X155390256Y-125617205D01*
X155559774Y-125503937D01*
X155703937Y-125359774D01*
X155817205Y-125190256D01*
X155895226Y-125001898D01*
X155935000Y-124801939D01*
X155935000Y-124598061D01*
X155895226Y-124398102D01*
X155817205Y-124209744D01*
X155703937Y-124040226D01*
X155559774Y-123896063D01*
X155390256Y-123782795D01*
X155201898Y-123704774D01*
X155001939Y-123665000D01*
X154798061Y-123665000D01*
X154598102Y-123704774D01*
X154409744Y-123782795D01*
X154240226Y-123896063D01*
X154096063Y-124040226D01*
X153982795Y-124209744D01*
X153904774Y-124398102D01*
X153865000Y-124598061D01*
X137982177Y-124598061D01*
X137966788Y-124595000D01*
X137743212Y-124595000D01*
X137523933Y-124638617D01*
X137317376Y-124724176D01*
X137220000Y-124789241D01*
X137122624Y-124724176D01*
X136916067Y-124638617D01*
X136696788Y-124595000D01*
X136473212Y-124595000D01*
X136253933Y-124638617D01*
X136047376Y-124724176D01*
X135950000Y-124789241D01*
X135852624Y-124724176D01*
X135646067Y-124638617D01*
X135426788Y-124595000D01*
X135203212Y-124595000D01*
X134983933Y-124638617D01*
X134777376Y-124724176D01*
X134680000Y-124789241D01*
X134582624Y-124724176D01*
X134376067Y-124638617D01*
X134156788Y-124595000D01*
X133933212Y-124595000D01*
X133713933Y-124638617D01*
X133507376Y-124724176D01*
X133410000Y-124789241D01*
X133312624Y-124724176D01*
X133106067Y-124638617D01*
X132886788Y-124595000D01*
X132663212Y-124595000D01*
X132443933Y-124638617D01*
X132237376Y-124724176D01*
X132051480Y-124848388D01*
X131893388Y-125006480D01*
X131769176Y-125192376D01*
X131683617Y-125398933D01*
X131640000Y-125618212D01*
X131640000Y-125841788D01*
X131683617Y-126061067D01*
X131729888Y-126172774D01*
X131685498Y-126255820D01*
X131649188Y-126375518D01*
X131636928Y-126500000D01*
X128450301Y-126500000D01*
X128470226Y-126451898D01*
X128510000Y-126251939D01*
X128510000Y-126048061D01*
X128470226Y-125848102D01*
X128392205Y-125659744D01*
X128278937Y-125490226D01*
X128134774Y-125346063D01*
X127965256Y-125232795D01*
X127776898Y-125154774D01*
X127576939Y-125115000D01*
X127373061Y-125115000D01*
X127173102Y-125154774D01*
X126984744Y-125232795D01*
X126815226Y-125346063D01*
X126671063Y-125490226D01*
X126557795Y-125659744D01*
X126479774Y-125848102D01*
X126440000Y-126048061D01*
X124339341Y-126048061D01*
X124304494Y-126019463D01*
X124194180Y-125960498D01*
X124074482Y-125924188D01*
X123950000Y-125911928D01*
X123385750Y-125915000D01*
X123227000Y-126073750D01*
X122973000Y-126073750D01*
X122814250Y-125915000D01*
X122250000Y-125911928D01*
X122125518Y-125924188D01*
X122005820Y-125960498D01*
X121895506Y-126019463D01*
X121798815Y-126098815D01*
X121719463Y-126195506D01*
X121660498Y-126305820D01*
X121638487Y-126378380D01*
X121506632Y-126246525D01*
X121263411Y-126084010D01*
X120993158Y-125972068D01*
X120706260Y-125915000D01*
X120413740Y-125915000D01*
X120126842Y-125972068D01*
X119856589Y-126084010D01*
X119613368Y-126246525D01*
X119406525Y-126453368D01*
X119290000Y-126627760D01*
X119173475Y-126453368D01*
X118966632Y-126246525D01*
X118723411Y-126084010D01*
X118453158Y-125972068D01*
X118166260Y-125915000D01*
X117873740Y-125915000D01*
X117586842Y-125972068D01*
X117316589Y-126084010D01*
X117073368Y-126246525D01*
X116866525Y-126453368D01*
X116750000Y-126627760D01*
X116633475Y-126453368D01*
X116426632Y-126246525D01*
X116183411Y-126084010D01*
X115913158Y-125972068D01*
X115626260Y-125915000D01*
X115333740Y-125915000D01*
X115046842Y-125972068D01*
X114776589Y-126084010D01*
X114533368Y-126246525D01*
X114326525Y-126453368D01*
X114164010Y-126696589D01*
X114052068Y-126966842D01*
X113995000Y-127253740D01*
X110696975Y-127253740D01*
X110770226Y-127076898D01*
X110810000Y-126876939D01*
X110810000Y-126673061D01*
X110770226Y-126473102D01*
X110692205Y-126284744D01*
X110578937Y-126115226D01*
X110434774Y-125971063D01*
X110265256Y-125857795D01*
X110076898Y-125779774D01*
X109876939Y-125740000D01*
X109673061Y-125740000D01*
X109473102Y-125779774D01*
X109284744Y-125857795D01*
X109115226Y-125971063D01*
X108971063Y-126115226D01*
X108857795Y-126284744D01*
X108779774Y-126473102D01*
X108740000Y-126673061D01*
X108160000Y-126673061D01*
X108160000Y-117550000D01*
X108286928Y-117550000D01*
X108286928Y-119250000D01*
X108299188Y-119374482D01*
X108335498Y-119494180D01*
X108394463Y-119604494D01*
X108473815Y-119701185D01*
X108570506Y-119780537D01*
X108680820Y-119839502D01*
X108753380Y-119861513D01*
X108621525Y-119993368D01*
X108459010Y-120236589D01*
X108347068Y-120506842D01*
X108290000Y-120793740D01*
X108290000Y-121086260D01*
X108347068Y-121373158D01*
X108459010Y-121643411D01*
X108621525Y-121886632D01*
X108828368Y-122093475D01*
X109071589Y-122255990D01*
X109341842Y-122367932D01*
X109628740Y-122425000D01*
X109921260Y-122425000D01*
X110208158Y-122367932D01*
X110478411Y-122255990D01*
X110721632Y-122093475D01*
X110928475Y-121886632D01*
X111045000Y-121712240D01*
X111161525Y-121886632D01*
X111368368Y-122093475D01*
X111611589Y-122255990D01*
X111881842Y-122367932D01*
X112168740Y-122425000D01*
X112461260Y-122425000D01*
X112570821Y-122403207D01*
X112559744Y-122407795D01*
X112390226Y-122521063D01*
X112246063Y-122665226D01*
X112132795Y-122834744D01*
X112054774Y-123023102D01*
X112015000Y-123223061D01*
X112015000Y-123426939D01*
X112054774Y-123626898D01*
X112132795Y-123815256D01*
X112246063Y-123984774D01*
X112390226Y-124128937D01*
X112559744Y-124242205D01*
X112748102Y-124320226D01*
X112948061Y-124360000D01*
X113151939Y-124360000D01*
X113351898Y-124320226D01*
X113540256Y-124242205D01*
X113709774Y-124128937D01*
X113853937Y-123984774D01*
X113967205Y-123815256D01*
X114045226Y-123626898D01*
X114085000Y-123426939D01*
X114085000Y-123223061D01*
X114045226Y-123023102D01*
X114003788Y-122923061D01*
X137215000Y-122923061D01*
X137215000Y-123126939D01*
X137254774Y-123326898D01*
X137332795Y-123515256D01*
X137446063Y-123684774D01*
X137590226Y-123828937D01*
X137759744Y-123942205D01*
X137948102Y-124020226D01*
X138148061Y-124060000D01*
X138351939Y-124060000D01*
X138551898Y-124020226D01*
X138740256Y-123942205D01*
X138909774Y-123828937D01*
X139053937Y-123684774D01*
X139167205Y-123515256D01*
X139245226Y-123326898D01*
X139285000Y-123126939D01*
X139285000Y-122923061D01*
X139245226Y-122723102D01*
X139167205Y-122534744D01*
X139053937Y-122365226D01*
X138909774Y-122221063D01*
X138740256Y-122107795D01*
X138551898Y-122029774D01*
X138351939Y-121990000D01*
X138148061Y-121990000D01*
X137948102Y-122029774D01*
X137759744Y-122107795D01*
X137590226Y-122221063D01*
X137446063Y-122365226D01*
X137332795Y-122534744D01*
X137254774Y-122723102D01*
X137215000Y-122923061D01*
X114003788Y-122923061D01*
X113967205Y-122834744D01*
X113853937Y-122665226D01*
X113709774Y-122521063D01*
X113540256Y-122407795D01*
X113351898Y-122329774D01*
X113151939Y-122290000D01*
X112948061Y-122290000D01*
X112925441Y-122294499D01*
X113018411Y-122255990D01*
X113261632Y-122093475D01*
X113408216Y-121946891D01*
X140593519Y-121946891D01*
X140690843Y-122221252D01*
X140839822Y-122471355D01*
X141034731Y-122687588D01*
X141268080Y-122861641D01*
X141530901Y-122986825D01*
X141678110Y-123031476D01*
X141908000Y-122910155D01*
X141908000Y-121717000D01*
X142162000Y-121717000D01*
X142162000Y-122910155D01*
X142391890Y-123031476D01*
X142539099Y-122986825D01*
X142801920Y-122861641D01*
X143035269Y-122687588D01*
X143230178Y-122471355D01*
X143305000Y-122345745D01*
X143379822Y-122471355D01*
X143574731Y-122687588D01*
X143808080Y-122861641D01*
X144070901Y-122986825D01*
X144218110Y-123031476D01*
X144448000Y-122910155D01*
X144448000Y-121717000D01*
X144702000Y-121717000D01*
X144702000Y-122910155D01*
X144931890Y-123031476D01*
X145079099Y-122986825D01*
X145341920Y-122861641D01*
X145575269Y-122687588D01*
X145770178Y-122471355D01*
X145845000Y-122345745D01*
X145919822Y-122471355D01*
X146114731Y-122687588D01*
X146348080Y-122861641D01*
X146610901Y-122986825D01*
X146758110Y-123031476D01*
X146988000Y-122910155D01*
X146988000Y-121717000D01*
X144702000Y-121717000D01*
X144448000Y-121717000D01*
X142162000Y-121717000D01*
X141908000Y-121717000D01*
X140714186Y-121717000D01*
X140593519Y-121946891D01*
X113408216Y-121946891D01*
X113468475Y-121886632D01*
X113630990Y-121643411D01*
X113742932Y-121373158D01*
X113800000Y-121086260D01*
X113800000Y-120793740D01*
X113742932Y-120506842D01*
X113630990Y-120236589D01*
X113468475Y-119993368D01*
X113261632Y-119786525D01*
X113087240Y-119670000D01*
X113261632Y-119553475D01*
X113417046Y-119398061D01*
X118565000Y-119398061D01*
X118565000Y-119601939D01*
X118604774Y-119801898D01*
X118682795Y-119990256D01*
X118796063Y-120159774D01*
X118940226Y-120303937D01*
X119109744Y-120417205D01*
X119298102Y-120495226D01*
X119498061Y-120535000D01*
X119701939Y-120535000D01*
X119901898Y-120495226D01*
X120090256Y-120417205D01*
X120259774Y-120303937D01*
X120403937Y-120159774D01*
X120517205Y-119990256D01*
X120595226Y-119801898D01*
X120635000Y-119601939D01*
X120635000Y-119398061D01*
X120595226Y-119198102D01*
X120517205Y-119009744D01*
X120509399Y-118998061D01*
X125415000Y-118998061D01*
X125415000Y-119201939D01*
X125454774Y-119401898D01*
X125532795Y-119590256D01*
X125646063Y-119759774D01*
X125790226Y-119903937D01*
X125959744Y-120017205D01*
X126148102Y-120095226D01*
X126348061Y-120135000D01*
X126551939Y-120135000D01*
X126751898Y-120095226D01*
X126940256Y-120017205D01*
X127109774Y-119903937D01*
X127253937Y-119759774D01*
X127367205Y-119590256D01*
X127445226Y-119401898D01*
X127485000Y-119201939D01*
X127485000Y-118998061D01*
X127445226Y-118798102D01*
X127367205Y-118609744D01*
X127253937Y-118440226D01*
X127236772Y-118423061D01*
X137540000Y-118423061D01*
X137540000Y-118626939D01*
X137579774Y-118826898D01*
X137657795Y-119015256D01*
X137771063Y-119184774D01*
X137915226Y-119328937D01*
X138084744Y-119442205D01*
X138273102Y-119520226D01*
X138473061Y-119560000D01*
X138676939Y-119560000D01*
X138876898Y-119520226D01*
X139065256Y-119442205D01*
X139234774Y-119328937D01*
X139378937Y-119184774D01*
X139492205Y-119015256D01*
X139570226Y-118826898D01*
X139610000Y-118626939D01*
X139610000Y-118423061D01*
X139570226Y-118223102D01*
X139560657Y-118200000D01*
X140546928Y-118200000D01*
X140546928Y-119900000D01*
X140559188Y-120024482D01*
X140595498Y-120144180D01*
X140654463Y-120254494D01*
X140733815Y-120351185D01*
X140830506Y-120430537D01*
X140940820Y-120489502D01*
X141016626Y-120512498D01*
X140839822Y-120708645D01*
X140690843Y-120958748D01*
X140593519Y-121233109D01*
X140714186Y-121463000D01*
X141908000Y-121463000D01*
X141908000Y-121443000D01*
X142162000Y-121443000D01*
X142162000Y-121463000D01*
X144448000Y-121463000D01*
X144448000Y-121443000D01*
X144702000Y-121443000D01*
X144702000Y-121463000D01*
X146988000Y-121463000D01*
X146988000Y-121443000D01*
X147242000Y-121443000D01*
X147242000Y-121463000D01*
X147262000Y-121463000D01*
X147262000Y-121717000D01*
X147242000Y-121717000D01*
X147242000Y-122910155D01*
X147471890Y-123031476D01*
X147619099Y-122986825D01*
X147881920Y-122861641D01*
X148115269Y-122687588D01*
X148310178Y-122471355D01*
X148379805Y-122354466D01*
X148501525Y-122536632D01*
X148708368Y-122743475D01*
X148951589Y-122905990D01*
X149221842Y-123017932D01*
X149508740Y-123075000D01*
X149801260Y-123075000D01*
X150088158Y-123017932D01*
X150358411Y-122905990D01*
X150601632Y-122743475D01*
X150808475Y-122536632D01*
X150925000Y-122362240D01*
X151041525Y-122536632D01*
X151248368Y-122743475D01*
X151491589Y-122905990D01*
X151761842Y-123017932D01*
X152048740Y-123075000D01*
X152341260Y-123075000D01*
X152628158Y-123017932D01*
X152898411Y-122905990D01*
X153141632Y-122743475D01*
X153348475Y-122536632D01*
X153465000Y-122362240D01*
X153581525Y-122536632D01*
X153788368Y-122743475D01*
X154031589Y-122905990D01*
X154301842Y-123017932D01*
X154588740Y-123075000D01*
X154881260Y-123075000D01*
X155168158Y-123017932D01*
X155438411Y-122905990D01*
X155681632Y-122743475D01*
X155888475Y-122536632D01*
X156050990Y-122293411D01*
X156162932Y-122023158D01*
X156220000Y-121736260D01*
X156220000Y-121443740D01*
X156162932Y-121156842D01*
X156050990Y-120886589D01*
X155888475Y-120643368D01*
X155681632Y-120436525D01*
X155507240Y-120320000D01*
X155681632Y-120203475D01*
X155888475Y-119996632D01*
X156050990Y-119753411D01*
X156162932Y-119483158D01*
X156220000Y-119196260D01*
X156220000Y-118903740D01*
X156162932Y-118616842D01*
X156050990Y-118346589D01*
X155888475Y-118103368D01*
X155681632Y-117896525D01*
X155438411Y-117734010D01*
X155168158Y-117622068D01*
X154881260Y-117565000D01*
X154588740Y-117565000D01*
X154301842Y-117622068D01*
X154031589Y-117734010D01*
X153788368Y-117896525D01*
X153581525Y-118103368D01*
X153465000Y-118277760D01*
X153348475Y-118103368D01*
X153141632Y-117896525D01*
X152898411Y-117734010D01*
X152628158Y-117622068D01*
X152341260Y-117565000D01*
X152048740Y-117565000D01*
X151761842Y-117622068D01*
X151491589Y-117734010D01*
X151248368Y-117896525D01*
X151041525Y-118103368D01*
X150925000Y-118277760D01*
X150808475Y-118103368D01*
X150601632Y-117896525D01*
X150358411Y-117734010D01*
X150088158Y-117622068D01*
X149801260Y-117565000D01*
X149508740Y-117565000D01*
X149221842Y-117622068D01*
X148951589Y-117734010D01*
X148708368Y-117896525D01*
X148501525Y-118103368D01*
X148385000Y-118277760D01*
X148268475Y-118103368D01*
X148061632Y-117896525D01*
X147818411Y-117734010D01*
X147548158Y-117622068D01*
X147261260Y-117565000D01*
X146968740Y-117565000D01*
X146681842Y-117622068D01*
X146411589Y-117734010D01*
X146168368Y-117896525D01*
X145961525Y-118103368D01*
X145845000Y-118277760D01*
X145728475Y-118103368D01*
X145521632Y-117896525D01*
X145278411Y-117734010D01*
X145008158Y-117622068D01*
X144721260Y-117565000D01*
X144428740Y-117565000D01*
X144141842Y-117622068D01*
X143871589Y-117734010D01*
X143628368Y-117896525D01*
X143496513Y-118028380D01*
X143474502Y-117955820D01*
X143415537Y-117845506D01*
X143336185Y-117748815D01*
X143239494Y-117669463D01*
X143129180Y-117610498D01*
X143009482Y-117574188D01*
X142885000Y-117561928D01*
X141185000Y-117561928D01*
X141060518Y-117574188D01*
X140940820Y-117610498D01*
X140830506Y-117669463D01*
X140733815Y-117748815D01*
X140654463Y-117845506D01*
X140595498Y-117955820D01*
X140559188Y-118075518D01*
X140546928Y-118200000D01*
X139560657Y-118200000D01*
X139492205Y-118034744D01*
X139378937Y-117865226D01*
X139234774Y-117721063D01*
X139065256Y-117607795D01*
X138876898Y-117529774D01*
X138676939Y-117490000D01*
X138473061Y-117490000D01*
X138273102Y-117529774D01*
X138084744Y-117607795D01*
X137915226Y-117721063D01*
X137771063Y-117865226D01*
X137657795Y-118034744D01*
X137579774Y-118223102D01*
X137540000Y-118423061D01*
X127236772Y-118423061D01*
X127109774Y-118296063D01*
X126940256Y-118182795D01*
X126751898Y-118104774D01*
X126551939Y-118065000D01*
X126348061Y-118065000D01*
X126148102Y-118104774D01*
X125959744Y-118182795D01*
X125790226Y-118296063D01*
X125646063Y-118440226D01*
X125532795Y-118609744D01*
X125454774Y-118798102D01*
X125415000Y-118998061D01*
X120509399Y-118998061D01*
X120403937Y-118840226D01*
X120259774Y-118696063D01*
X120090256Y-118582795D01*
X119901898Y-118504774D01*
X119701939Y-118465000D01*
X119498061Y-118465000D01*
X119298102Y-118504774D01*
X119109744Y-118582795D01*
X118940226Y-118696063D01*
X118796063Y-118840226D01*
X118682795Y-119009744D01*
X118604774Y-119198102D01*
X118565000Y-119398061D01*
X113417046Y-119398061D01*
X113468475Y-119346632D01*
X113630990Y-119103411D01*
X113742932Y-118833158D01*
X113800000Y-118546260D01*
X113800000Y-118253740D01*
X113742932Y-117966842D01*
X113630990Y-117696589D01*
X113468475Y-117453368D01*
X113261632Y-117246525D01*
X113018411Y-117084010D01*
X112748158Y-116972068D01*
X112461260Y-116915000D01*
X112168740Y-116915000D01*
X111881842Y-116972068D01*
X111611589Y-117084010D01*
X111368368Y-117246525D01*
X111236513Y-117378380D01*
X111214502Y-117305820D01*
X111155537Y-117195506D01*
X111076185Y-117098815D01*
X110979494Y-117019463D01*
X110869180Y-116960498D01*
X110749482Y-116924188D01*
X110625000Y-116911928D01*
X108925000Y-116911928D01*
X108800518Y-116924188D01*
X108680820Y-116960498D01*
X108570506Y-117019463D01*
X108473815Y-117098815D01*
X108394463Y-117195506D01*
X108335498Y-117305820D01*
X108299188Y-117425518D01*
X108286928Y-117550000D01*
X108160000Y-117550000D01*
X108160000Y-116248061D01*
X118590000Y-116248061D01*
X118590000Y-116451939D01*
X118629774Y-116651898D01*
X118707795Y-116840256D01*
X118821063Y-117009774D01*
X118965226Y-117153937D01*
X119134744Y-117267205D01*
X119323102Y-117345226D01*
X119523061Y-117385000D01*
X119726939Y-117385000D01*
X119926898Y-117345226D01*
X120115256Y-117267205D01*
X120284774Y-117153937D01*
X120428937Y-117009774D01*
X120542205Y-116840256D01*
X120620226Y-116651898D01*
X120660000Y-116451939D01*
X120660000Y-116273061D01*
X123825000Y-116273061D01*
X123825000Y-116476939D01*
X123864774Y-116676898D01*
X123942795Y-116865256D01*
X124056063Y-117034774D01*
X124200226Y-117178937D01*
X124369744Y-117292205D01*
X124558102Y-117370226D01*
X124758061Y-117410000D01*
X124961939Y-117410000D01*
X125161898Y-117370226D01*
X125350256Y-117292205D01*
X125519774Y-117178937D01*
X125663937Y-117034774D01*
X125777205Y-116865256D01*
X125855226Y-116676898D01*
X125895000Y-116476939D01*
X125895000Y-116273061D01*
X125855226Y-116073102D01*
X125777205Y-115884744D01*
X125663937Y-115715226D01*
X125519774Y-115571063D01*
X125350256Y-115457795D01*
X125161898Y-115379774D01*
X124961939Y-115340000D01*
X124758061Y-115340000D01*
X124558102Y-115379774D01*
X124369744Y-115457795D01*
X124200226Y-115571063D01*
X124056063Y-115715226D01*
X123942795Y-115884744D01*
X123864774Y-116073102D01*
X123825000Y-116273061D01*
X120660000Y-116273061D01*
X120660000Y-116248061D01*
X120620226Y-116048102D01*
X120542205Y-115859744D01*
X120428937Y-115690226D01*
X120284774Y-115546063D01*
X120115256Y-115432795D01*
X119926898Y-115354774D01*
X119726939Y-115315000D01*
X119523061Y-115315000D01*
X119323102Y-115354774D01*
X119134744Y-115432795D01*
X118965226Y-115546063D01*
X118821063Y-115690226D01*
X118707795Y-115859744D01*
X118629774Y-116048102D01*
X118590000Y-116248061D01*
X108160000Y-116248061D01*
X108160000Y-113898061D01*
X108365000Y-113898061D01*
X108365000Y-114101939D01*
X108404774Y-114301898D01*
X108482795Y-114490256D01*
X108596063Y-114659774D01*
X108740226Y-114803937D01*
X108909744Y-114917205D01*
X109098102Y-114995226D01*
X109298061Y-115035000D01*
X109501939Y-115035000D01*
X109701898Y-114995226D01*
X109890256Y-114917205D01*
X110059774Y-114803937D01*
X110203937Y-114659774D01*
X110317205Y-114490256D01*
X110395226Y-114301898D01*
X110435000Y-114101939D01*
X110435000Y-113898061D01*
X110395226Y-113698102D01*
X110317205Y-113509744D01*
X110203937Y-113340226D01*
X110059774Y-113196063D01*
X109890256Y-113082795D01*
X109701898Y-113004774D01*
X109501939Y-112965000D01*
X109298061Y-112965000D01*
X109098102Y-113004774D01*
X108909744Y-113082795D01*
X108740226Y-113196063D01*
X108596063Y-113340226D01*
X108482795Y-113509744D01*
X108404774Y-113698102D01*
X108365000Y-113898061D01*
X108160000Y-113898061D01*
X108160000Y-112898061D01*
X149815000Y-112898061D01*
X149815000Y-113101939D01*
X149854774Y-113301898D01*
X149932795Y-113490256D01*
X150046063Y-113659774D01*
X150190226Y-113803937D01*
X150359744Y-113917205D01*
X150548102Y-113995226D01*
X150748061Y-114035000D01*
X150951939Y-114035000D01*
X151151898Y-113995226D01*
X151340256Y-113917205D01*
X151509774Y-113803937D01*
X151653937Y-113659774D01*
X151767205Y-113490256D01*
X151845226Y-113301898D01*
X151885000Y-113101939D01*
X151885000Y-112898061D01*
X151845226Y-112698102D01*
X151767205Y-112509744D01*
X151709155Y-112422866D01*
X151815226Y-112528937D01*
X151984744Y-112642205D01*
X152173102Y-112720226D01*
X152373061Y-112760000D01*
X152576939Y-112760000D01*
X152776898Y-112720226D01*
X152965256Y-112642205D01*
X153134774Y-112528937D01*
X153278937Y-112384774D01*
X153392205Y-112215256D01*
X153470226Y-112026898D01*
X153510000Y-111826939D01*
X153510000Y-111623061D01*
X153470226Y-111423102D01*
X153392205Y-111234744D01*
X153278937Y-111065226D01*
X153134774Y-110921063D01*
X152965256Y-110807795D01*
X152776898Y-110729774D01*
X152576939Y-110690000D01*
X152373061Y-110690000D01*
X152173102Y-110729774D01*
X151984744Y-110807795D01*
X151815226Y-110921063D01*
X151671063Y-111065226D01*
X151557795Y-111234744D01*
X151479774Y-111423102D01*
X151440000Y-111623061D01*
X151440000Y-111826939D01*
X151479774Y-112026898D01*
X151557795Y-112215256D01*
X151615845Y-112302134D01*
X151509774Y-112196063D01*
X151340256Y-112082795D01*
X151151898Y-112004774D01*
X150951939Y-111965000D01*
X150748061Y-111965000D01*
X150548102Y-112004774D01*
X150359744Y-112082795D01*
X150190226Y-112196063D01*
X150046063Y-112340226D01*
X149932795Y-112509744D01*
X149854774Y-112698102D01*
X149815000Y-112898061D01*
X108160000Y-112898061D01*
X108160000Y-109668061D01*
X117395000Y-109668061D01*
X117395000Y-109871939D01*
X117434774Y-110071898D01*
X117512795Y-110260256D01*
X117626063Y-110429774D01*
X117770226Y-110573937D01*
X117939744Y-110687205D01*
X118128102Y-110765226D01*
X118328061Y-110805000D01*
X118531939Y-110805000D01*
X118731898Y-110765226D01*
X118920256Y-110687205D01*
X119089774Y-110573937D01*
X119140000Y-110523711D01*
X119140000Y-110651939D01*
X119179774Y-110851898D01*
X119257795Y-111040256D01*
X119371063Y-111209774D01*
X119515226Y-111353937D01*
X119684744Y-111467205D01*
X119778218Y-111505924D01*
X119740000Y-111698061D01*
X119740000Y-111901939D01*
X119779774Y-112101898D01*
X119857795Y-112290256D01*
X119971063Y-112459774D01*
X120115226Y-112603937D01*
X120284744Y-112717205D01*
X120473102Y-112795226D01*
X120673061Y-112835000D01*
X120876939Y-112835000D01*
X121076898Y-112795226D01*
X121265256Y-112717205D01*
X121434774Y-112603937D01*
X121578937Y-112459774D01*
X121692205Y-112290256D01*
X121770226Y-112101898D01*
X121810000Y-111901939D01*
X121810000Y-111698061D01*
X121770226Y-111498102D01*
X121692205Y-111309744D01*
X121578937Y-111140226D01*
X121434774Y-110996063D01*
X121400349Y-110973061D01*
X128140000Y-110973061D01*
X128140000Y-111176939D01*
X128179774Y-111376898D01*
X128257795Y-111565256D01*
X128371063Y-111734774D01*
X128515226Y-111878937D01*
X128684744Y-111992205D01*
X128873102Y-112070226D01*
X129073061Y-112110000D01*
X129276939Y-112110000D01*
X129476898Y-112070226D01*
X129665256Y-111992205D01*
X129834774Y-111878937D01*
X129978937Y-111734774D01*
X130092205Y-111565256D01*
X130170226Y-111376898D01*
X130210000Y-111176939D01*
X130210000Y-110973061D01*
X135415000Y-110973061D01*
X135415000Y-111176939D01*
X135454774Y-111376898D01*
X135532795Y-111565256D01*
X135646063Y-111734774D01*
X135790226Y-111878937D01*
X135959744Y-111992205D01*
X136148102Y-112070226D01*
X136348061Y-112110000D01*
X136551939Y-112110000D01*
X136751898Y-112070226D01*
X136940256Y-111992205D01*
X137109774Y-111878937D01*
X137253937Y-111734774D01*
X137367205Y-111565256D01*
X137445226Y-111376898D01*
X137475825Y-111223061D01*
X148415000Y-111223061D01*
X148415000Y-111426939D01*
X148454774Y-111626898D01*
X148532795Y-111815256D01*
X148646063Y-111984774D01*
X148790226Y-112128937D01*
X148959744Y-112242205D01*
X149148102Y-112320226D01*
X149348061Y-112360000D01*
X149551939Y-112360000D01*
X149751898Y-112320226D01*
X149940256Y-112242205D01*
X150109774Y-112128937D01*
X150253937Y-111984774D01*
X150367205Y-111815256D01*
X150445226Y-111626898D01*
X150485000Y-111426939D01*
X150485000Y-111223061D01*
X150445226Y-111023102D01*
X150367205Y-110834744D01*
X150253937Y-110665226D01*
X150109774Y-110521063D01*
X149940256Y-110407795D01*
X149751898Y-110329774D01*
X149551939Y-110290000D01*
X149348061Y-110290000D01*
X149148102Y-110329774D01*
X148959744Y-110407795D01*
X148790226Y-110521063D01*
X148646063Y-110665226D01*
X148532795Y-110834744D01*
X148454774Y-111023102D01*
X148415000Y-111223061D01*
X137475825Y-111223061D01*
X137485000Y-111176939D01*
X137485000Y-110973061D01*
X137445226Y-110773102D01*
X137367205Y-110584744D01*
X137253937Y-110415226D01*
X137109774Y-110271063D01*
X136940256Y-110157795D01*
X136751898Y-110079774D01*
X136551939Y-110040000D01*
X136348061Y-110040000D01*
X136148102Y-110079774D01*
X135959744Y-110157795D01*
X135790226Y-110271063D01*
X135646063Y-110415226D01*
X135532795Y-110584744D01*
X135454774Y-110773102D01*
X135415000Y-110973061D01*
X130210000Y-110973061D01*
X130170226Y-110773102D01*
X130092205Y-110584744D01*
X129978937Y-110415226D01*
X129834774Y-110271063D01*
X129665256Y-110157795D01*
X129476898Y-110079774D01*
X129276939Y-110040000D01*
X129073061Y-110040000D01*
X128873102Y-110079774D01*
X128684744Y-110157795D01*
X128515226Y-110271063D01*
X128371063Y-110415226D01*
X128257795Y-110584744D01*
X128179774Y-110773102D01*
X128140000Y-110973061D01*
X121400349Y-110973061D01*
X121265256Y-110882795D01*
X121171782Y-110844076D01*
X121210000Y-110651939D01*
X121210000Y-110448061D01*
X121170226Y-110248102D01*
X121149328Y-110197651D01*
X121295256Y-110137205D01*
X121464774Y-110023937D01*
X121608937Y-109879774D01*
X121722205Y-109710256D01*
X121800226Y-109521898D01*
X121840000Y-109321939D01*
X121840000Y-109118061D01*
X121800226Y-108918102D01*
X121722205Y-108729744D01*
X121608937Y-108560226D01*
X121464774Y-108416063D01*
X121295256Y-108302795D01*
X121106898Y-108224774D01*
X120906939Y-108185000D01*
X120703061Y-108185000D01*
X120503102Y-108224774D01*
X120314744Y-108302795D01*
X120145226Y-108416063D01*
X120001063Y-108560226D01*
X119887795Y-108729744D01*
X119809774Y-108918102D01*
X119770000Y-109118061D01*
X119770000Y-109321939D01*
X119809774Y-109521898D01*
X119830672Y-109572349D01*
X119684744Y-109632795D01*
X119515226Y-109746063D01*
X119465000Y-109796289D01*
X119465000Y-109668061D01*
X119425226Y-109468102D01*
X119347205Y-109279744D01*
X119233937Y-109110226D01*
X119089774Y-108966063D01*
X118920256Y-108852795D01*
X118731898Y-108774774D01*
X118531939Y-108735000D01*
X118328061Y-108735000D01*
X118128102Y-108774774D01*
X117939744Y-108852795D01*
X117770226Y-108966063D01*
X117626063Y-109110226D01*
X117512795Y-109279744D01*
X117434774Y-109468102D01*
X117395000Y-109668061D01*
X108160000Y-109668061D01*
X108160000Y-107598061D01*
X127765000Y-107598061D01*
X127765000Y-107801939D01*
X127804774Y-108001898D01*
X127882795Y-108190256D01*
X127996063Y-108359774D01*
X128140226Y-108503937D01*
X128309744Y-108617205D01*
X128498102Y-108695226D01*
X128698061Y-108735000D01*
X128901939Y-108735000D01*
X129101898Y-108695226D01*
X129290256Y-108617205D01*
X129459774Y-108503937D01*
X129465650Y-108498061D01*
X137965000Y-108498061D01*
X137965000Y-108701939D01*
X138004774Y-108901898D01*
X138082795Y-109090256D01*
X138196063Y-109259774D01*
X138340226Y-109403937D01*
X138509744Y-109517205D01*
X138698102Y-109595226D01*
X138898061Y-109635000D01*
X139101939Y-109635000D01*
X139301898Y-109595226D01*
X139490256Y-109517205D01*
X139659774Y-109403937D01*
X139803937Y-109259774D01*
X139917205Y-109090256D01*
X139995226Y-108901898D01*
X140035000Y-108701939D01*
X140035000Y-108498061D01*
X139995226Y-108298102D01*
X139917205Y-108109744D01*
X139803937Y-107940226D01*
X139659774Y-107796063D01*
X139490256Y-107682795D01*
X139301898Y-107604774D01*
X139101939Y-107565000D01*
X138898061Y-107565000D01*
X138698102Y-107604774D01*
X138509744Y-107682795D01*
X138340226Y-107796063D01*
X138196063Y-107940226D01*
X138082795Y-108109744D01*
X138004774Y-108298102D01*
X137965000Y-108498061D01*
X129465650Y-108498061D01*
X129603937Y-108359774D01*
X129717205Y-108190256D01*
X129795226Y-108001898D01*
X129835000Y-107801939D01*
X129835000Y-107598061D01*
X129795226Y-107398102D01*
X129717205Y-107209744D01*
X129603937Y-107040226D01*
X129459774Y-106896063D01*
X129290256Y-106782795D01*
X129101898Y-106704774D01*
X128901939Y-106665000D01*
X128698061Y-106665000D01*
X128498102Y-106704774D01*
X128309744Y-106782795D01*
X128140226Y-106896063D01*
X127996063Y-107040226D01*
X127882795Y-107209744D01*
X127804774Y-107398102D01*
X127765000Y-107598061D01*
X108160000Y-107598061D01*
X108160000Y-103198061D01*
X111465000Y-103198061D01*
X111465000Y-103401939D01*
X111504774Y-103601898D01*
X111582795Y-103790256D01*
X111696063Y-103959774D01*
X111840226Y-104103937D01*
X112009744Y-104217205D01*
X112198102Y-104295226D01*
X112398061Y-104335000D01*
X112601939Y-104335000D01*
X112801898Y-104295226D01*
X112990256Y-104217205D01*
X113159774Y-104103937D01*
X113240650Y-104023061D01*
X117790000Y-104023061D01*
X117790000Y-104226939D01*
X117829774Y-104426898D01*
X117907795Y-104615256D01*
X118021063Y-104784774D01*
X118165226Y-104928937D01*
X118334744Y-105042205D01*
X118523102Y-105120226D01*
X118723061Y-105160000D01*
X118869198Y-105160000D01*
X118815226Y-105196063D01*
X118671063Y-105340226D01*
X118557795Y-105509744D01*
X118479774Y-105698102D01*
X118440000Y-105898061D01*
X118440000Y-106101939D01*
X118479774Y-106301898D01*
X118557795Y-106490256D01*
X118671063Y-106659774D01*
X118815226Y-106803937D01*
X118984744Y-106917205D01*
X119173102Y-106995226D01*
X119373061Y-107035000D01*
X119576939Y-107035000D01*
X119776898Y-106995226D01*
X119965256Y-106917205D01*
X120134774Y-106803937D01*
X120278937Y-106659774D01*
X120392205Y-106490256D01*
X120470226Y-106301898D01*
X120510000Y-106101939D01*
X120510000Y-105898061D01*
X120470226Y-105698102D01*
X120392205Y-105509744D01*
X120278937Y-105340226D01*
X120236772Y-105298061D01*
X131215000Y-105298061D01*
X131215000Y-105501939D01*
X131254774Y-105701898D01*
X131332795Y-105890256D01*
X131446063Y-106059774D01*
X131590226Y-106203937D01*
X131759744Y-106317205D01*
X131948102Y-106395226D01*
X132148061Y-106435000D01*
X132351939Y-106435000D01*
X132551898Y-106395226D01*
X132740256Y-106317205D01*
X132909774Y-106203937D01*
X133053937Y-106059774D01*
X133167205Y-105890256D01*
X133245226Y-105701898D01*
X133285000Y-105501939D01*
X133285000Y-105298061D01*
X133245226Y-105098102D01*
X133167205Y-104909744D01*
X133053937Y-104740226D01*
X133011772Y-104698061D01*
X138215000Y-104698061D01*
X138215000Y-104901939D01*
X138254774Y-105101898D01*
X138332795Y-105290256D01*
X138446063Y-105459774D01*
X138590226Y-105603937D01*
X138759744Y-105717205D01*
X138948102Y-105795226D01*
X139148061Y-105835000D01*
X139351939Y-105835000D01*
X139551898Y-105795226D01*
X139740256Y-105717205D01*
X139909774Y-105603937D01*
X140053937Y-105459774D01*
X140167205Y-105290256D01*
X140245226Y-105101898D01*
X140285000Y-104901939D01*
X140285000Y-104698061D01*
X140245226Y-104498102D01*
X140167205Y-104309744D01*
X140053937Y-104140226D01*
X139909774Y-103996063D01*
X139740256Y-103882795D01*
X139551898Y-103804774D01*
X139351939Y-103765000D01*
X139148061Y-103765000D01*
X138948102Y-103804774D01*
X138759744Y-103882795D01*
X138590226Y-103996063D01*
X138446063Y-104140226D01*
X138332795Y-104309744D01*
X138254774Y-104498102D01*
X138215000Y-104698061D01*
X133011772Y-104698061D01*
X132909774Y-104596063D01*
X132740256Y-104482795D01*
X132551898Y-104404774D01*
X132351939Y-104365000D01*
X132148061Y-104365000D01*
X131948102Y-104404774D01*
X131759744Y-104482795D01*
X131590226Y-104596063D01*
X131446063Y-104740226D01*
X131332795Y-104909744D01*
X131254774Y-105098102D01*
X131215000Y-105298061D01*
X120236772Y-105298061D01*
X120134774Y-105196063D01*
X119965256Y-105082795D01*
X119776898Y-105004774D01*
X119576939Y-104965000D01*
X119430802Y-104965000D01*
X119484774Y-104928937D01*
X119628937Y-104784774D01*
X119742205Y-104615256D01*
X119820226Y-104426898D01*
X119860000Y-104226939D01*
X119860000Y-104023061D01*
X119820226Y-103823102D01*
X119742205Y-103634744D01*
X119628937Y-103465226D01*
X119484774Y-103321063D01*
X119315256Y-103207795D01*
X119126898Y-103129774D01*
X118967465Y-103098061D01*
X125265000Y-103098061D01*
X125265000Y-103301939D01*
X125304774Y-103501898D01*
X125382795Y-103690256D01*
X125496063Y-103859774D01*
X125640226Y-104003937D01*
X125809744Y-104117205D01*
X125998102Y-104195226D01*
X126198061Y-104235000D01*
X126401939Y-104235000D01*
X126601898Y-104195226D01*
X126790256Y-104117205D01*
X126959774Y-104003937D01*
X127103937Y-103859774D01*
X127217205Y-103690256D01*
X127295226Y-103501898D01*
X127335000Y-103301939D01*
X127335000Y-103173061D01*
X143865000Y-103173061D01*
X143865000Y-103376939D01*
X143904774Y-103576898D01*
X143982795Y-103765256D01*
X144096063Y-103934774D01*
X144240226Y-104078937D01*
X144409744Y-104192205D01*
X144598102Y-104270226D01*
X144798061Y-104310000D01*
X145001939Y-104310000D01*
X145201898Y-104270226D01*
X145390256Y-104192205D01*
X145559774Y-104078937D01*
X145703937Y-103934774D01*
X145817205Y-103765256D01*
X145895226Y-103576898D01*
X145935000Y-103376939D01*
X145935000Y-103173061D01*
X145905164Y-103023061D01*
X151390000Y-103023061D01*
X151390000Y-103226939D01*
X151429774Y-103426898D01*
X151507795Y-103615256D01*
X151621063Y-103784774D01*
X151765226Y-103928937D01*
X151934744Y-104042205D01*
X152123102Y-104120226D01*
X152323061Y-104160000D01*
X152526939Y-104160000D01*
X152726898Y-104120226D01*
X152915256Y-104042205D01*
X153084774Y-103928937D01*
X153228937Y-103784774D01*
X153342205Y-103615256D01*
X153420226Y-103426898D01*
X153460000Y-103226939D01*
X153460000Y-103023061D01*
X153420226Y-102823102D01*
X153342205Y-102634744D01*
X153228937Y-102465226D01*
X153084774Y-102321063D01*
X152915256Y-102207795D01*
X152726898Y-102129774D01*
X152526939Y-102090000D01*
X152323061Y-102090000D01*
X152123102Y-102129774D01*
X151934744Y-102207795D01*
X151765226Y-102321063D01*
X151621063Y-102465226D01*
X151507795Y-102634744D01*
X151429774Y-102823102D01*
X151390000Y-103023061D01*
X145905164Y-103023061D01*
X145895226Y-102973102D01*
X145817205Y-102784744D01*
X145703937Y-102615226D01*
X145559774Y-102471063D01*
X145390256Y-102357795D01*
X145201898Y-102279774D01*
X145001939Y-102240000D01*
X144798061Y-102240000D01*
X144598102Y-102279774D01*
X144409744Y-102357795D01*
X144240226Y-102471063D01*
X144096063Y-102615226D01*
X143982795Y-102784744D01*
X143904774Y-102973102D01*
X143865000Y-103173061D01*
X127335000Y-103173061D01*
X127335000Y-103098061D01*
X127295226Y-102898102D01*
X127217205Y-102709744D01*
X127103937Y-102540226D01*
X126959774Y-102396063D01*
X126790256Y-102282795D01*
X126601898Y-102204774D01*
X126401939Y-102165000D01*
X126198061Y-102165000D01*
X125998102Y-102204774D01*
X125809744Y-102282795D01*
X125640226Y-102396063D01*
X125496063Y-102540226D01*
X125382795Y-102709744D01*
X125304774Y-102898102D01*
X125265000Y-103098061D01*
X118967465Y-103098061D01*
X118926939Y-103090000D01*
X118723061Y-103090000D01*
X118523102Y-103129774D01*
X118334744Y-103207795D01*
X118165226Y-103321063D01*
X118021063Y-103465226D01*
X117907795Y-103634744D01*
X117829774Y-103823102D01*
X117790000Y-104023061D01*
X113240650Y-104023061D01*
X113303937Y-103959774D01*
X113417205Y-103790256D01*
X113495226Y-103601898D01*
X113535000Y-103401939D01*
X113535000Y-103198061D01*
X113495226Y-102998102D01*
X113417205Y-102809744D01*
X113303937Y-102640226D01*
X113159774Y-102496063D01*
X112990256Y-102382795D01*
X112801898Y-102304774D01*
X112601939Y-102265000D01*
X112398061Y-102265000D01*
X112198102Y-102304774D01*
X112009744Y-102382795D01*
X111840226Y-102496063D01*
X111696063Y-102640226D01*
X111582795Y-102809744D01*
X111504774Y-102998102D01*
X111465000Y-103198061D01*
X108160000Y-103198061D01*
X108160000Y-98560000D01*
X108771111Y-98560000D01*
X108723815Y-98598815D01*
%TA.AperFunction,Conductor*%
D16*
G36*
X108723815Y-98598815D02*
G01*
X108644463Y-98695506D01*
X108585498Y-98805820D01*
X108549188Y-98925518D01*
X108536928Y-99050000D01*
X108536928Y-100750000D01*
X108549188Y-100874482D01*
X108585498Y-100994180D01*
X108644463Y-101104494D01*
X108723815Y-101201185D01*
X108820506Y-101280537D01*
X108930820Y-101339502D01*
X109050518Y-101375812D01*
X109175000Y-101388072D01*
X110875000Y-101388072D01*
X110999482Y-101375812D01*
X111119180Y-101339502D01*
X111229494Y-101280537D01*
X111326185Y-101201185D01*
X111405537Y-101104494D01*
X111464502Y-100994180D01*
X111486513Y-100921620D01*
X111618368Y-101053475D01*
X111861589Y-101215990D01*
X112131842Y-101327932D01*
X112418740Y-101385000D01*
X112711260Y-101385000D01*
X112998158Y-101327932D01*
X113268411Y-101215990D01*
X113511632Y-101053475D01*
X113718475Y-100846632D01*
X113835000Y-100672240D01*
X113951525Y-100846632D01*
X114158368Y-101053475D01*
X114401589Y-101215990D01*
X114671842Y-101327932D01*
X114958740Y-101385000D01*
X115251260Y-101385000D01*
X115538158Y-101327932D01*
X115808411Y-101215990D01*
X116051632Y-101053475D01*
X116258475Y-100846632D01*
X116380195Y-100664466D01*
X116449822Y-100781355D01*
X116644731Y-100997588D01*
X116878080Y-101171641D01*
X117140901Y-101296825D01*
X117288110Y-101341476D01*
X117518000Y-101220155D01*
X117518000Y-100027000D01*
X117772000Y-100027000D01*
X117772000Y-101220155D01*
X118001890Y-101341476D01*
X118149099Y-101296825D01*
X118411920Y-101171641D01*
X118645269Y-100997588D01*
X118840178Y-100781355D01*
X118989157Y-100531252D01*
X119086481Y-100256891D01*
X118965814Y-100027000D01*
X117772000Y-100027000D01*
X117518000Y-100027000D01*
X117498000Y-100027000D01*
X117498000Y-99773000D01*
X117518000Y-99773000D01*
X117518000Y-99753000D01*
X117772000Y-99753000D01*
X117772000Y-99773000D01*
X118965814Y-99773000D01*
X119057637Y-99598061D01*
X119265000Y-99598061D01*
X119265000Y-99801939D01*
X119304774Y-100001898D01*
X119382795Y-100190256D01*
X119496063Y-100359774D01*
X119640226Y-100503937D01*
X119809744Y-100617205D01*
X119998102Y-100695226D01*
X120198061Y-100735000D01*
X120401939Y-100735000D01*
X120601898Y-100695226D01*
X120790256Y-100617205D01*
X120893737Y-100548061D01*
X126365000Y-100548061D01*
X126365000Y-100751939D01*
X126404774Y-100951898D01*
X126482795Y-101140256D01*
X126596063Y-101309774D01*
X126740226Y-101453937D01*
X126909744Y-101567205D01*
X127098102Y-101645226D01*
X127298061Y-101685000D01*
X127501939Y-101685000D01*
X127701898Y-101645226D01*
X127890256Y-101567205D01*
X128059774Y-101453937D01*
X128203937Y-101309774D01*
X128245172Y-101248061D01*
X134565000Y-101248061D01*
X134565000Y-101451939D01*
X134604774Y-101651898D01*
X134682795Y-101840256D01*
X134796063Y-102009774D01*
X134940226Y-102153937D01*
X135109744Y-102267205D01*
X135298102Y-102345226D01*
X135498061Y-102385000D01*
X135701939Y-102385000D01*
X135901898Y-102345226D01*
X136090256Y-102267205D01*
X136259774Y-102153937D01*
X136403937Y-102009774D01*
X136517205Y-101840256D01*
X136595226Y-101651898D01*
X136635000Y-101451939D01*
X136635000Y-101248061D01*
X136595226Y-101048102D01*
X136517205Y-100859744D01*
X136403937Y-100690226D01*
X136259774Y-100546063D01*
X136090256Y-100432795D01*
X135901898Y-100354774D01*
X135701939Y-100315000D01*
X135498061Y-100315000D01*
X135298102Y-100354774D01*
X135109744Y-100432795D01*
X134940226Y-100546063D01*
X134796063Y-100690226D01*
X134682795Y-100859744D01*
X134604774Y-101048102D01*
X134565000Y-101248061D01*
X128245172Y-101248061D01*
X128317205Y-101140256D01*
X128395226Y-100951898D01*
X128435000Y-100751939D01*
X128435000Y-100548061D01*
X128395226Y-100348102D01*
X128333077Y-100198061D01*
X138765000Y-100198061D01*
X138765000Y-100401939D01*
X138804774Y-100601898D01*
X138882795Y-100790256D01*
X138996063Y-100959774D01*
X139140226Y-101103937D01*
X139309744Y-101217205D01*
X139498102Y-101295226D01*
X139698061Y-101335000D01*
X139901939Y-101335000D01*
X140101898Y-101295226D01*
X140290256Y-101217205D01*
X140459774Y-101103937D01*
X140603937Y-100959774D01*
X140717205Y-100790256D01*
X140755393Y-100698061D01*
X146865000Y-100698061D01*
X146865000Y-100901939D01*
X146904774Y-101101898D01*
X146982795Y-101290256D01*
X147096063Y-101459774D01*
X147240226Y-101603937D01*
X147409744Y-101717205D01*
X147598102Y-101795226D01*
X147798061Y-101835000D01*
X148001939Y-101835000D01*
X148201898Y-101795226D01*
X148390256Y-101717205D01*
X148559774Y-101603937D01*
X148703937Y-101459774D01*
X148817205Y-101290256D01*
X148895226Y-101101898D01*
X148935000Y-100901939D01*
X148935000Y-100698061D01*
X148895226Y-100498102D01*
X148884854Y-100473061D01*
X151415000Y-100473061D01*
X151415000Y-100676939D01*
X151454774Y-100876898D01*
X151532795Y-101065256D01*
X151646063Y-101234774D01*
X151790226Y-101378937D01*
X151959744Y-101492205D01*
X152148102Y-101570226D01*
X152348061Y-101610000D01*
X152551939Y-101610000D01*
X152751898Y-101570226D01*
X152940256Y-101492205D01*
X153109774Y-101378937D01*
X153253937Y-101234774D01*
X153367205Y-101065256D01*
X153445226Y-100876898D01*
X153485000Y-100676939D01*
X153485000Y-100473061D01*
X153445226Y-100273102D01*
X153367205Y-100084744D01*
X153253937Y-99915226D01*
X153109774Y-99771063D01*
X152940256Y-99657795D01*
X152751898Y-99579774D01*
X152551939Y-99540000D01*
X152348061Y-99540000D01*
X152148102Y-99579774D01*
X151959744Y-99657795D01*
X151790226Y-99771063D01*
X151646063Y-99915226D01*
X151532795Y-100084744D01*
X151454774Y-100273102D01*
X151415000Y-100473061D01*
X148884854Y-100473061D01*
X148817205Y-100309744D01*
X148703937Y-100140226D01*
X148559774Y-99996063D01*
X148390256Y-99882795D01*
X148201898Y-99804774D01*
X148001939Y-99765000D01*
X147798061Y-99765000D01*
X147598102Y-99804774D01*
X147409744Y-99882795D01*
X147240226Y-99996063D01*
X147096063Y-100140226D01*
X146982795Y-100309744D01*
X146904774Y-100498102D01*
X146865000Y-100698061D01*
X140755393Y-100698061D01*
X140795226Y-100601898D01*
X140835000Y-100401939D01*
X140835000Y-100198061D01*
X140795226Y-99998102D01*
X140717205Y-99809744D01*
X140603937Y-99640226D01*
X140459774Y-99496063D01*
X140290256Y-99382795D01*
X140101898Y-99304774D01*
X139901939Y-99265000D01*
X139698061Y-99265000D01*
X139498102Y-99304774D01*
X139309744Y-99382795D01*
X139140226Y-99496063D01*
X138996063Y-99640226D01*
X138882795Y-99809744D01*
X138804774Y-99998102D01*
X138765000Y-100198061D01*
X128333077Y-100198061D01*
X128317205Y-100159744D01*
X128203937Y-99990226D01*
X128059774Y-99846063D01*
X127890256Y-99732795D01*
X127701898Y-99654774D01*
X127501939Y-99615000D01*
X127298061Y-99615000D01*
X127098102Y-99654774D01*
X126909744Y-99732795D01*
X126740226Y-99846063D01*
X126596063Y-99990226D01*
X126482795Y-100159744D01*
X126404774Y-100348102D01*
X126365000Y-100548061D01*
X120893737Y-100548061D01*
X120959774Y-100503937D01*
X121103937Y-100359774D01*
X121217205Y-100190256D01*
X121295226Y-100001898D01*
X121335000Y-99801939D01*
X121335000Y-99598061D01*
X121295226Y-99398102D01*
X121217205Y-99209744D01*
X121103937Y-99040226D01*
X120959774Y-98896063D01*
X120790256Y-98782795D01*
X120601898Y-98704774D01*
X120401939Y-98665000D01*
X120198061Y-98665000D01*
X119998102Y-98704774D01*
X119809744Y-98782795D01*
X119640226Y-98896063D01*
X119496063Y-99040226D01*
X119382795Y-99209744D01*
X119304774Y-99398102D01*
X119265000Y-99598061D01*
X119057637Y-99598061D01*
X119086481Y-99543109D01*
X118989157Y-99268748D01*
X118840178Y-99018645D01*
X118645269Y-98802412D01*
X118411920Y-98628359D01*
X118268402Y-98560000D01*
X156440001Y-98560000D01*
X156440000Y-114676289D01*
X156334774Y-114571063D01*
X156165256Y-114457795D01*
X155976898Y-114379774D01*
X155776939Y-114340000D01*
X155573061Y-114340000D01*
X155373102Y-114379774D01*
X155184744Y-114457795D01*
X155015226Y-114571063D01*
X154871063Y-114715226D01*
X154757795Y-114884744D01*
X154679774Y-115073102D01*
X154640000Y-115273061D01*
X154640000Y-115476939D01*
X154679774Y-115676898D01*
X154757795Y-115865256D01*
X154871063Y-116034774D01*
X155015226Y-116178937D01*
X155184744Y-116292205D01*
X155373102Y-116370226D01*
X155573061Y-116410000D01*
X155776939Y-116410000D01*
X155976898Y-116370226D01*
X156165256Y-116292205D01*
X156334774Y-116178937D01*
X156440000Y-116073711D01*
X156440000Y-119932418D01*
X156440001Y-119932428D01*
X156440000Y-129340000D01*
X108160000Y-129340000D01*
X108160000Y-126673061D01*
X108740000Y-126673061D01*
X108740000Y-126876939D01*
X108779774Y-127076898D01*
X108857795Y-127265256D01*
X108971063Y-127434774D01*
X109115226Y-127578937D01*
X109284744Y-127692205D01*
X109473102Y-127770226D01*
X109673061Y-127810000D01*
X109876939Y-127810000D01*
X110076898Y-127770226D01*
X110265256Y-127692205D01*
X110434774Y-127578937D01*
X110578937Y-127434774D01*
X110692205Y-127265256D01*
X110696975Y-127253740D01*
X113995000Y-127253740D01*
X113995000Y-127546260D01*
X114052068Y-127833158D01*
X114164010Y-128103411D01*
X114326525Y-128346632D01*
X114533368Y-128553475D01*
X114776589Y-128715990D01*
X115046842Y-128827932D01*
X115333740Y-128885000D01*
X115626260Y-128885000D01*
X115913158Y-128827932D01*
X116183411Y-128715990D01*
X116426632Y-128553475D01*
X116633475Y-128346632D01*
X116750000Y-128172240D01*
X116866525Y-128346632D01*
X117073368Y-128553475D01*
X117316589Y-128715990D01*
X117586842Y-128827932D01*
X117873740Y-128885000D01*
X118166260Y-128885000D01*
X118453158Y-128827932D01*
X118723411Y-128715990D01*
X118966632Y-128553475D01*
X119173475Y-128346632D01*
X119290000Y-128172240D01*
X119406525Y-128346632D01*
X119613368Y-128553475D01*
X119856589Y-128715990D01*
X120126842Y-128827932D01*
X120413740Y-128885000D01*
X120706260Y-128885000D01*
X120993158Y-128827932D01*
X121263411Y-128715990D01*
X121506632Y-128553475D01*
X121638487Y-128421620D01*
X121660498Y-128494180D01*
X121719463Y-128604494D01*
X121798815Y-128701185D01*
X121895506Y-128780537D01*
X122005820Y-128839502D01*
X122125518Y-128875812D01*
X122250000Y-128888072D01*
X122814250Y-128885000D01*
X122973000Y-128726250D01*
X122973000Y-127527000D01*
X123227000Y-127527000D01*
X123227000Y-128726250D01*
X123385750Y-128885000D01*
X123950000Y-128888072D01*
X124074482Y-128875812D01*
X124194180Y-128839502D01*
X124304494Y-128780537D01*
X124401185Y-128701185D01*
X124480537Y-128604494D01*
X124539502Y-128494180D01*
X124575812Y-128374482D01*
X124588072Y-128250000D01*
X145411928Y-128250000D01*
X145424188Y-128374482D01*
X145460498Y-128494180D01*
X145519463Y-128604494D01*
X145598815Y-128701185D01*
X145695506Y-128780537D01*
X145805820Y-128839502D01*
X145925518Y-128875812D01*
X146050000Y-128888072D01*
X146614250Y-128885000D01*
X146773000Y-128726250D01*
X146773000Y-127527000D01*
X145573750Y-127527000D01*
X145415000Y-127685750D01*
X145411928Y-128250000D01*
X124588072Y-128250000D01*
X124585000Y-127685750D01*
X124426250Y-127527000D01*
X123227000Y-127527000D01*
X122973000Y-127527000D01*
X122953000Y-127527000D01*
X122953000Y-127273000D01*
X122973000Y-127273000D01*
X122973000Y-126073750D01*
X123227000Y-126073750D01*
X123227000Y-127273000D01*
X124426250Y-127273000D01*
X124585000Y-127114250D01*
X124588072Y-126550000D01*
X124575812Y-126425518D01*
X124539502Y-126305820D01*
X124480537Y-126195506D01*
X124401185Y-126098815D01*
X124339341Y-126048061D01*
X126440000Y-126048061D01*
X126440000Y-126251939D01*
X126479774Y-126451898D01*
X126557795Y-126640256D01*
X126671063Y-126809774D01*
X126815226Y-126953937D01*
X126984744Y-127067205D01*
X127173102Y-127145226D01*
X127373061Y-127185000D01*
X127576939Y-127185000D01*
X127776898Y-127145226D01*
X127965256Y-127067205D01*
X128134774Y-126953937D01*
X128278937Y-126809774D01*
X128392205Y-126640256D01*
X128450301Y-126500000D01*
X131636928Y-126500000D01*
X131636928Y-127500000D01*
X131649188Y-127624482D01*
X131685498Y-127744180D01*
X131744463Y-127854494D01*
X131823815Y-127951185D01*
X131920506Y-128030537D01*
X132030820Y-128089502D01*
X132150518Y-128125812D01*
X132275000Y-128138072D01*
X133275000Y-128138072D01*
X133399482Y-128125812D01*
X133519180Y-128089502D01*
X133602226Y-128045112D01*
X133713933Y-128091383D01*
X133933212Y-128135000D01*
X134156788Y-128135000D01*
X134376067Y-128091383D01*
X134582624Y-128005824D01*
X134680000Y-127940759D01*
X134777376Y-128005824D01*
X134983933Y-128091383D01*
X135203212Y-128135000D01*
X135426788Y-128135000D01*
X135646067Y-128091383D01*
X135852624Y-128005824D01*
X135950000Y-127940759D01*
X136047376Y-128005824D01*
X136253933Y-128091383D01*
X136473212Y-128135000D01*
X136696788Y-128135000D01*
X136916067Y-128091383D01*
X137122624Y-128005824D01*
X137220000Y-127940759D01*
X137317376Y-128005824D01*
X137523933Y-128091383D01*
X137743212Y-128135000D01*
X137966788Y-128135000D01*
X138186067Y-128091383D01*
X138392624Y-128005824D01*
X138578520Y-127881612D01*
X138736612Y-127723520D01*
X138860824Y-127537624D01*
X138946383Y-127331067D01*
X138990000Y-127111788D01*
X138990000Y-126888212D01*
X138946383Y-126668933D01*
X138860824Y-126462376D01*
X138795759Y-126365000D01*
X138860824Y-126267624D01*
X138946383Y-126061067D01*
X138953942Y-126023061D01*
X141140000Y-126023061D01*
X141140000Y-126226939D01*
X141179774Y-126426898D01*
X141257795Y-126615256D01*
X141371063Y-126784774D01*
X141515226Y-126928937D01*
X141684744Y-127042205D01*
X141873102Y-127120226D01*
X142073061Y-127160000D01*
X142276939Y-127160000D01*
X142476898Y-127120226D01*
X142665256Y-127042205D01*
X142834774Y-126928937D01*
X142978937Y-126784774D01*
X143092205Y-126615256D01*
X143119235Y-126550000D01*
X145411928Y-126550000D01*
X145415000Y-127114250D01*
X145573750Y-127273000D01*
X146773000Y-127273000D01*
X146773000Y-126073750D01*
X147027000Y-126073750D01*
X147027000Y-127273000D01*
X147047000Y-127273000D01*
X147047000Y-127527000D01*
X147027000Y-127527000D01*
X147027000Y-128726250D01*
X147185750Y-128885000D01*
X147750000Y-128888072D01*
X147874482Y-128875812D01*
X147994180Y-128839502D01*
X148104494Y-128780537D01*
X148201185Y-128701185D01*
X148280537Y-128604494D01*
X148339502Y-128494180D01*
X148361513Y-128421620D01*
X148493368Y-128553475D01*
X148736589Y-128715990D01*
X149006842Y-128827932D01*
X149293740Y-128885000D01*
X149586260Y-128885000D01*
X149873158Y-128827932D01*
X150143411Y-128715990D01*
X150386632Y-128553475D01*
X150593475Y-128346632D01*
X150710000Y-128172240D01*
X150826525Y-128346632D01*
X151033368Y-128553475D01*
X151276589Y-128715990D01*
X151546842Y-128827932D01*
X151833740Y-128885000D01*
X152126260Y-128885000D01*
X152413158Y-128827932D01*
X152683411Y-128715990D01*
X152926632Y-128553475D01*
X153133475Y-128346632D01*
X153250000Y-128172240D01*
X153366525Y-128346632D01*
X153573368Y-128553475D01*
X153816589Y-128715990D01*
X154086842Y-128827932D01*
X154373740Y-128885000D01*
X154666260Y-128885000D01*
X154953158Y-128827932D01*
X155223411Y-128715990D01*
X155466632Y-128553475D01*
X155673475Y-128346632D01*
X155835990Y-128103411D01*
X155947932Y-127833158D01*
X156005000Y-127546260D01*
X156005000Y-127253740D01*
X155947932Y-126966842D01*
X155835990Y-126696589D01*
X155673475Y-126453368D01*
X155466632Y-126246525D01*
X155223411Y-126084010D01*
X154953158Y-125972068D01*
X154666260Y-125915000D01*
X154373740Y-125915000D01*
X154086842Y-125972068D01*
X153816589Y-126084010D01*
X153573368Y-126246525D01*
X153366525Y-126453368D01*
X153250000Y-126627760D01*
X153133475Y-126453368D01*
X152926632Y-126246525D01*
X152683411Y-126084010D01*
X152413158Y-125972068D01*
X152126260Y-125915000D01*
X151833740Y-125915000D01*
X151546842Y-125972068D01*
X151276589Y-126084010D01*
X151033368Y-126246525D01*
X150826525Y-126453368D01*
X150710000Y-126627760D01*
X150593475Y-126453368D01*
X150386632Y-126246525D01*
X150143411Y-126084010D01*
X149873158Y-125972068D01*
X149586260Y-125915000D01*
X149293740Y-125915000D01*
X149006842Y-125972068D01*
X148736589Y-126084010D01*
X148493368Y-126246525D01*
X148361513Y-126378380D01*
X148339502Y-126305820D01*
X148280537Y-126195506D01*
X148201185Y-126098815D01*
X148104494Y-126019463D01*
X147994180Y-125960498D01*
X147874482Y-125924188D01*
X147750000Y-125911928D01*
X147185750Y-125915000D01*
X147027000Y-126073750D01*
X146773000Y-126073750D01*
X146614250Y-125915000D01*
X146050000Y-125911928D01*
X145925518Y-125924188D01*
X145805820Y-125960498D01*
X145695506Y-126019463D01*
X145598815Y-126098815D01*
X145519463Y-126195506D01*
X145460498Y-126305820D01*
X145424188Y-126425518D01*
X145411928Y-126550000D01*
X143119235Y-126550000D01*
X143170226Y-126426898D01*
X143210000Y-126226939D01*
X143210000Y-126023061D01*
X143170226Y-125823102D01*
X143092205Y-125634744D01*
X142978937Y-125465226D01*
X142834774Y-125321063D01*
X142665256Y-125207795D01*
X142476898Y-125129774D01*
X142276939Y-125090000D01*
X142073061Y-125090000D01*
X141873102Y-125129774D01*
X141684744Y-125207795D01*
X141515226Y-125321063D01*
X141371063Y-125465226D01*
X141257795Y-125634744D01*
X141179774Y-125823102D01*
X141140000Y-126023061D01*
X138953942Y-126023061D01*
X138990000Y-125841788D01*
X138990000Y-125618212D01*
X138946383Y-125398933D01*
X138860824Y-125192376D01*
X138736612Y-125006480D01*
X138578520Y-124848388D01*
X138392624Y-124724176D01*
X138186067Y-124638617D01*
X137982177Y-124598061D01*
X153865000Y-124598061D01*
X153865000Y-124801939D01*
X153904774Y-125001898D01*
X153982795Y-125190256D01*
X154096063Y-125359774D01*
X154240226Y-125503937D01*
X154409744Y-125617205D01*
X154598102Y-125695226D01*
X154798061Y-125735000D01*
X155001939Y-125735000D01*
X155201898Y-125695226D01*
X155390256Y-125617205D01*
X155559774Y-125503937D01*
X155703937Y-125359774D01*
X155817205Y-125190256D01*
X155895226Y-125001898D01*
X155935000Y-124801939D01*
X155935000Y-124598061D01*
X155895226Y-124398102D01*
X155817205Y-124209744D01*
X155703937Y-124040226D01*
X155559774Y-123896063D01*
X155390256Y-123782795D01*
X155201898Y-123704774D01*
X155001939Y-123665000D01*
X154798061Y-123665000D01*
X154598102Y-123704774D01*
X154409744Y-123782795D01*
X154240226Y-123896063D01*
X154096063Y-124040226D01*
X153982795Y-124209744D01*
X153904774Y-124398102D01*
X153865000Y-124598061D01*
X137982177Y-124598061D01*
X137966788Y-124595000D01*
X137743212Y-124595000D01*
X137523933Y-124638617D01*
X137317376Y-124724176D01*
X137220000Y-124789241D01*
X137122624Y-124724176D01*
X136916067Y-124638617D01*
X136696788Y-124595000D01*
X136473212Y-124595000D01*
X136253933Y-124638617D01*
X136047376Y-124724176D01*
X135950000Y-124789241D01*
X135852624Y-124724176D01*
X135646067Y-124638617D01*
X135426788Y-124595000D01*
X135203212Y-124595000D01*
X134983933Y-124638617D01*
X134777376Y-124724176D01*
X134680000Y-124789241D01*
X134582624Y-124724176D01*
X134376067Y-124638617D01*
X134156788Y-124595000D01*
X133933212Y-124595000D01*
X133713933Y-124638617D01*
X133507376Y-124724176D01*
X133410000Y-124789241D01*
X133312624Y-124724176D01*
X133106067Y-124638617D01*
X132886788Y-124595000D01*
X132663212Y-124595000D01*
X132443933Y-124638617D01*
X132237376Y-124724176D01*
X132051480Y-124848388D01*
X131893388Y-125006480D01*
X131769176Y-125192376D01*
X131683617Y-125398933D01*
X131640000Y-125618212D01*
X131640000Y-125841788D01*
X131683617Y-126061067D01*
X131729888Y-126172774D01*
X131685498Y-126255820D01*
X131649188Y-126375518D01*
X131636928Y-126500000D01*
X128450301Y-126500000D01*
X128470226Y-126451898D01*
X128510000Y-126251939D01*
X128510000Y-126048061D01*
X128470226Y-125848102D01*
X128392205Y-125659744D01*
X128278937Y-125490226D01*
X128134774Y-125346063D01*
X127965256Y-125232795D01*
X127776898Y-125154774D01*
X127576939Y-125115000D01*
X127373061Y-125115000D01*
X127173102Y-125154774D01*
X126984744Y-125232795D01*
X126815226Y-125346063D01*
X126671063Y-125490226D01*
X126557795Y-125659744D01*
X126479774Y-125848102D01*
X126440000Y-126048061D01*
X124339341Y-126048061D01*
X124304494Y-126019463D01*
X124194180Y-125960498D01*
X124074482Y-125924188D01*
X123950000Y-125911928D01*
X123385750Y-125915000D01*
X123227000Y-126073750D01*
X122973000Y-126073750D01*
X122814250Y-125915000D01*
X122250000Y-125911928D01*
X122125518Y-125924188D01*
X122005820Y-125960498D01*
X121895506Y-126019463D01*
X121798815Y-126098815D01*
X121719463Y-126195506D01*
X121660498Y-126305820D01*
X121638487Y-126378380D01*
X121506632Y-126246525D01*
X121263411Y-126084010D01*
X120993158Y-125972068D01*
X120706260Y-125915000D01*
X120413740Y-125915000D01*
X120126842Y-125972068D01*
X119856589Y-126084010D01*
X119613368Y-126246525D01*
X119406525Y-126453368D01*
X119290000Y-126627760D01*
X119173475Y-126453368D01*
X118966632Y-126246525D01*
X118723411Y-126084010D01*
X118453158Y-125972068D01*
X118166260Y-125915000D01*
X117873740Y-125915000D01*
X117586842Y-125972068D01*
X117316589Y-126084010D01*
X117073368Y-126246525D01*
X116866525Y-126453368D01*
X116750000Y-126627760D01*
X116633475Y-126453368D01*
X116426632Y-126246525D01*
X116183411Y-126084010D01*
X115913158Y-125972068D01*
X115626260Y-125915000D01*
X115333740Y-125915000D01*
X115046842Y-125972068D01*
X114776589Y-126084010D01*
X114533368Y-126246525D01*
X114326525Y-126453368D01*
X114164010Y-126696589D01*
X114052068Y-126966842D01*
X113995000Y-127253740D01*
X110696975Y-127253740D01*
X110770226Y-127076898D01*
X110810000Y-126876939D01*
X110810000Y-126673061D01*
X110770226Y-126473102D01*
X110692205Y-126284744D01*
X110578937Y-126115226D01*
X110434774Y-125971063D01*
X110265256Y-125857795D01*
X110076898Y-125779774D01*
X109876939Y-125740000D01*
X109673061Y-125740000D01*
X109473102Y-125779774D01*
X109284744Y-125857795D01*
X109115226Y-125971063D01*
X108971063Y-126115226D01*
X108857795Y-126284744D01*
X108779774Y-126473102D01*
X108740000Y-126673061D01*
X108160000Y-126673061D01*
X108160000Y-117550000D01*
X108286928Y-117550000D01*
X108286928Y-119250000D01*
X108299188Y-119374482D01*
X108335498Y-119494180D01*
X108394463Y-119604494D01*
X108473815Y-119701185D01*
X108570506Y-119780537D01*
X108680820Y-119839502D01*
X108753380Y-119861513D01*
X108621525Y-119993368D01*
X108459010Y-120236589D01*
X108347068Y-120506842D01*
X108290000Y-120793740D01*
X108290000Y-121086260D01*
X108347068Y-121373158D01*
X108459010Y-121643411D01*
X108621525Y-121886632D01*
X108828368Y-122093475D01*
X109071589Y-122255990D01*
X109341842Y-122367932D01*
X109628740Y-122425000D01*
X109921260Y-122425000D01*
X110208158Y-122367932D01*
X110478411Y-122255990D01*
X110721632Y-122093475D01*
X110928475Y-121886632D01*
X111045000Y-121712240D01*
X111161525Y-121886632D01*
X111368368Y-122093475D01*
X111611589Y-122255990D01*
X111881842Y-122367932D01*
X112168740Y-122425000D01*
X112461260Y-122425000D01*
X112570821Y-122403207D01*
X112559744Y-122407795D01*
X112390226Y-122521063D01*
X112246063Y-122665226D01*
X112132795Y-122834744D01*
X112054774Y-123023102D01*
X112015000Y-123223061D01*
X112015000Y-123426939D01*
X112054774Y-123626898D01*
X112132795Y-123815256D01*
X112246063Y-123984774D01*
X112390226Y-124128937D01*
X112559744Y-124242205D01*
X112748102Y-124320226D01*
X112948061Y-124360000D01*
X113151939Y-124360000D01*
X113351898Y-124320226D01*
X113540256Y-124242205D01*
X113709774Y-124128937D01*
X113853937Y-123984774D01*
X113967205Y-123815256D01*
X114045226Y-123626898D01*
X114085000Y-123426939D01*
X114085000Y-123223061D01*
X114045226Y-123023102D01*
X114003788Y-122923061D01*
X137215000Y-122923061D01*
X137215000Y-123126939D01*
X137254774Y-123326898D01*
X137332795Y-123515256D01*
X137446063Y-123684774D01*
X137590226Y-123828937D01*
X137759744Y-123942205D01*
X137948102Y-124020226D01*
X138148061Y-124060000D01*
X138351939Y-124060000D01*
X138551898Y-124020226D01*
X138740256Y-123942205D01*
X138909774Y-123828937D01*
X139053937Y-123684774D01*
X139167205Y-123515256D01*
X139245226Y-123326898D01*
X139285000Y-123126939D01*
X139285000Y-122923061D01*
X139245226Y-122723102D01*
X139167205Y-122534744D01*
X139053937Y-122365226D01*
X138909774Y-122221063D01*
X138740256Y-122107795D01*
X138551898Y-122029774D01*
X138351939Y-121990000D01*
X138148061Y-121990000D01*
X137948102Y-122029774D01*
X137759744Y-122107795D01*
X137590226Y-122221063D01*
X137446063Y-122365226D01*
X137332795Y-122534744D01*
X137254774Y-122723102D01*
X137215000Y-122923061D01*
X114003788Y-122923061D01*
X113967205Y-122834744D01*
X113853937Y-122665226D01*
X113709774Y-122521063D01*
X113540256Y-122407795D01*
X113351898Y-122329774D01*
X113151939Y-122290000D01*
X112948061Y-122290000D01*
X112925441Y-122294499D01*
X113018411Y-122255990D01*
X113261632Y-122093475D01*
X113408216Y-121946891D01*
X140593519Y-121946891D01*
X140690843Y-122221252D01*
X140839822Y-122471355D01*
X141034731Y-122687588D01*
X141268080Y-122861641D01*
X141530901Y-122986825D01*
X141678110Y-123031476D01*
X141908000Y-122910155D01*
X141908000Y-121717000D01*
X142162000Y-121717000D01*
X142162000Y-122910155D01*
X142391890Y-123031476D01*
X142539099Y-122986825D01*
X142801920Y-122861641D01*
X143035269Y-122687588D01*
X143230178Y-122471355D01*
X143305000Y-122345745D01*
X143379822Y-122471355D01*
X143574731Y-122687588D01*
X143808080Y-122861641D01*
X144070901Y-122986825D01*
X144218110Y-123031476D01*
X144448000Y-122910155D01*
X144448000Y-121717000D01*
X144702000Y-121717000D01*
X144702000Y-122910155D01*
X144931890Y-123031476D01*
X145079099Y-122986825D01*
X145341920Y-122861641D01*
X145575269Y-122687588D01*
X145770178Y-122471355D01*
X145845000Y-122345745D01*
X145919822Y-122471355D01*
X146114731Y-122687588D01*
X146348080Y-122861641D01*
X146610901Y-122986825D01*
X146758110Y-123031476D01*
X146988000Y-122910155D01*
X146988000Y-121717000D01*
X144702000Y-121717000D01*
X144448000Y-121717000D01*
X142162000Y-121717000D01*
X141908000Y-121717000D01*
X140714186Y-121717000D01*
X140593519Y-121946891D01*
X113408216Y-121946891D01*
X113468475Y-121886632D01*
X113630990Y-121643411D01*
X113742932Y-121373158D01*
X113800000Y-121086260D01*
X113800000Y-120793740D01*
X113742932Y-120506842D01*
X113630990Y-120236589D01*
X113468475Y-119993368D01*
X113261632Y-119786525D01*
X113087240Y-119670000D01*
X113261632Y-119553475D01*
X113417046Y-119398061D01*
X118565000Y-119398061D01*
X118565000Y-119601939D01*
X118604774Y-119801898D01*
X118682795Y-119990256D01*
X118796063Y-120159774D01*
X118940226Y-120303937D01*
X119109744Y-120417205D01*
X119298102Y-120495226D01*
X119498061Y-120535000D01*
X119701939Y-120535000D01*
X119901898Y-120495226D01*
X120090256Y-120417205D01*
X120259774Y-120303937D01*
X120403937Y-120159774D01*
X120517205Y-119990256D01*
X120595226Y-119801898D01*
X120635000Y-119601939D01*
X120635000Y-119398061D01*
X120595226Y-119198102D01*
X120517205Y-119009744D01*
X120509399Y-118998061D01*
X125415000Y-118998061D01*
X125415000Y-119201939D01*
X125454774Y-119401898D01*
X125532795Y-119590256D01*
X125646063Y-119759774D01*
X125790226Y-119903937D01*
X125959744Y-120017205D01*
X126148102Y-120095226D01*
X126348061Y-120135000D01*
X126551939Y-120135000D01*
X126751898Y-120095226D01*
X126940256Y-120017205D01*
X127109774Y-119903937D01*
X127253937Y-119759774D01*
X127367205Y-119590256D01*
X127445226Y-119401898D01*
X127485000Y-119201939D01*
X127485000Y-118998061D01*
X127445226Y-118798102D01*
X127367205Y-118609744D01*
X127253937Y-118440226D01*
X127236772Y-118423061D01*
X137540000Y-118423061D01*
X137540000Y-118626939D01*
X137579774Y-118826898D01*
X137657795Y-119015256D01*
X137771063Y-119184774D01*
X137915226Y-119328937D01*
X138084744Y-119442205D01*
X138273102Y-119520226D01*
X138473061Y-119560000D01*
X138676939Y-119560000D01*
X138876898Y-119520226D01*
X139065256Y-119442205D01*
X139234774Y-119328937D01*
X139378937Y-119184774D01*
X139492205Y-119015256D01*
X139570226Y-118826898D01*
X139610000Y-118626939D01*
X139610000Y-118423061D01*
X139570226Y-118223102D01*
X139560657Y-118200000D01*
X140546928Y-118200000D01*
X140546928Y-119900000D01*
X140559188Y-120024482D01*
X140595498Y-120144180D01*
X140654463Y-120254494D01*
X140733815Y-120351185D01*
X140830506Y-120430537D01*
X140940820Y-120489502D01*
X141016626Y-120512498D01*
X140839822Y-120708645D01*
X140690843Y-120958748D01*
X140593519Y-121233109D01*
X140714186Y-121463000D01*
X141908000Y-121463000D01*
X141908000Y-121443000D01*
X142162000Y-121443000D01*
X142162000Y-121463000D01*
X144448000Y-121463000D01*
X144448000Y-121443000D01*
X144702000Y-121443000D01*
X144702000Y-121463000D01*
X146988000Y-121463000D01*
X146988000Y-121443000D01*
X147242000Y-121443000D01*
X147242000Y-121463000D01*
X147262000Y-121463000D01*
X147262000Y-121717000D01*
X147242000Y-121717000D01*
X147242000Y-122910155D01*
X147471890Y-123031476D01*
X147619099Y-122986825D01*
X147881920Y-122861641D01*
X148115269Y-122687588D01*
X148310178Y-122471355D01*
X148379805Y-122354466D01*
X148501525Y-122536632D01*
X148708368Y-122743475D01*
X148951589Y-122905990D01*
X149221842Y-123017932D01*
X149508740Y-123075000D01*
X149801260Y-123075000D01*
X150088158Y-123017932D01*
X150358411Y-122905990D01*
X150601632Y-122743475D01*
X150808475Y-122536632D01*
X150925000Y-122362240D01*
X151041525Y-122536632D01*
X151248368Y-122743475D01*
X151491589Y-122905990D01*
X151761842Y-123017932D01*
X152048740Y-123075000D01*
X152341260Y-123075000D01*
X152628158Y-123017932D01*
X152898411Y-122905990D01*
X153141632Y-122743475D01*
X153348475Y-122536632D01*
X153465000Y-122362240D01*
X153581525Y-122536632D01*
X153788368Y-122743475D01*
X154031589Y-122905990D01*
X154301842Y-123017932D01*
X154588740Y-123075000D01*
X154881260Y-123075000D01*
X155168158Y-123017932D01*
X155438411Y-122905990D01*
X155681632Y-122743475D01*
X155888475Y-122536632D01*
X156050990Y-122293411D01*
X156162932Y-122023158D01*
X156220000Y-121736260D01*
X156220000Y-121443740D01*
X156162932Y-121156842D01*
X156050990Y-120886589D01*
X155888475Y-120643368D01*
X155681632Y-120436525D01*
X155507240Y-120320000D01*
X155681632Y-120203475D01*
X155888475Y-119996632D01*
X156050990Y-119753411D01*
X156162932Y-119483158D01*
X156220000Y-119196260D01*
X156220000Y-118903740D01*
X156162932Y-118616842D01*
X156050990Y-118346589D01*
X155888475Y-118103368D01*
X155681632Y-117896525D01*
X155438411Y-117734010D01*
X155168158Y-117622068D01*
X154881260Y-117565000D01*
X154588740Y-117565000D01*
X154301842Y-117622068D01*
X154031589Y-117734010D01*
X153788368Y-117896525D01*
X153581525Y-118103368D01*
X153465000Y-118277760D01*
X153348475Y-118103368D01*
X153141632Y-117896525D01*
X152898411Y-117734010D01*
X152628158Y-117622068D01*
X152341260Y-117565000D01*
X152048740Y-117565000D01*
X151761842Y-117622068D01*
X151491589Y-117734010D01*
X151248368Y-117896525D01*
X151041525Y-118103368D01*
X150925000Y-118277760D01*
X150808475Y-118103368D01*
X150601632Y-117896525D01*
X150358411Y-117734010D01*
X150088158Y-117622068D01*
X149801260Y-117565000D01*
X149508740Y-117565000D01*
X149221842Y-117622068D01*
X148951589Y-117734010D01*
X148708368Y-117896525D01*
X148501525Y-118103368D01*
X148385000Y-118277760D01*
X148268475Y-118103368D01*
X148061632Y-117896525D01*
X147818411Y-117734010D01*
X147548158Y-117622068D01*
X147261260Y-117565000D01*
X146968740Y-117565000D01*
X146681842Y-117622068D01*
X146411589Y-117734010D01*
X146168368Y-117896525D01*
X145961525Y-118103368D01*
X145845000Y-118277760D01*
X145728475Y-118103368D01*
X145521632Y-117896525D01*
X145278411Y-117734010D01*
X145008158Y-117622068D01*
X144721260Y-117565000D01*
X144428740Y-117565000D01*
X144141842Y-117622068D01*
X143871589Y-117734010D01*
X143628368Y-117896525D01*
X143496513Y-118028380D01*
X143474502Y-117955820D01*
X143415537Y-117845506D01*
X143336185Y-117748815D01*
X143239494Y-117669463D01*
X143129180Y-117610498D01*
X143009482Y-117574188D01*
X142885000Y-117561928D01*
X141185000Y-117561928D01*
X141060518Y-117574188D01*
X140940820Y-117610498D01*
X140830506Y-117669463D01*
X140733815Y-117748815D01*
X140654463Y-117845506D01*
X140595498Y-117955820D01*
X140559188Y-118075518D01*
X140546928Y-118200000D01*
X139560657Y-118200000D01*
X139492205Y-118034744D01*
X139378937Y-117865226D01*
X139234774Y-117721063D01*
X139065256Y-117607795D01*
X138876898Y-117529774D01*
X138676939Y-117490000D01*
X138473061Y-117490000D01*
X138273102Y-117529774D01*
X138084744Y-117607795D01*
X137915226Y-117721063D01*
X137771063Y-117865226D01*
X137657795Y-118034744D01*
X137579774Y-118223102D01*
X137540000Y-118423061D01*
X127236772Y-118423061D01*
X127109774Y-118296063D01*
X126940256Y-118182795D01*
X126751898Y-118104774D01*
X126551939Y-118065000D01*
X126348061Y-118065000D01*
X126148102Y-118104774D01*
X125959744Y-118182795D01*
X125790226Y-118296063D01*
X125646063Y-118440226D01*
X125532795Y-118609744D01*
X125454774Y-118798102D01*
X125415000Y-118998061D01*
X120509399Y-118998061D01*
X120403937Y-118840226D01*
X120259774Y-118696063D01*
X120090256Y-118582795D01*
X119901898Y-118504774D01*
X119701939Y-118465000D01*
X119498061Y-118465000D01*
X119298102Y-118504774D01*
X119109744Y-118582795D01*
X118940226Y-118696063D01*
X118796063Y-118840226D01*
X118682795Y-119009744D01*
X118604774Y-119198102D01*
X118565000Y-119398061D01*
X113417046Y-119398061D01*
X113468475Y-119346632D01*
X113630990Y-119103411D01*
X113742932Y-118833158D01*
X113800000Y-118546260D01*
X113800000Y-118253740D01*
X113742932Y-117966842D01*
X113630990Y-117696589D01*
X113468475Y-117453368D01*
X113261632Y-117246525D01*
X113018411Y-117084010D01*
X112748158Y-116972068D01*
X112461260Y-116915000D01*
X112168740Y-116915000D01*
X111881842Y-116972068D01*
X111611589Y-117084010D01*
X111368368Y-117246525D01*
X111236513Y-117378380D01*
X111214502Y-117305820D01*
X111155537Y-117195506D01*
X111076185Y-117098815D01*
X110979494Y-117019463D01*
X110869180Y-116960498D01*
X110749482Y-116924188D01*
X110625000Y-116911928D01*
X108925000Y-116911928D01*
X108800518Y-116924188D01*
X108680820Y-116960498D01*
X108570506Y-117019463D01*
X108473815Y-117098815D01*
X108394463Y-117195506D01*
X108335498Y-117305820D01*
X108299188Y-117425518D01*
X108286928Y-117550000D01*
X108160000Y-117550000D01*
X108160000Y-116248061D01*
X118590000Y-116248061D01*
X118590000Y-116451939D01*
X118629774Y-116651898D01*
X118707795Y-116840256D01*
X118821063Y-117009774D01*
X118965226Y-117153937D01*
X119134744Y-117267205D01*
X119323102Y-117345226D01*
X119523061Y-117385000D01*
X119726939Y-117385000D01*
X119926898Y-117345226D01*
X120115256Y-117267205D01*
X120284774Y-117153937D01*
X120428937Y-117009774D01*
X120542205Y-116840256D01*
X120620226Y-116651898D01*
X120660000Y-116451939D01*
X120660000Y-116273061D01*
X123825000Y-116273061D01*
X123825000Y-116476939D01*
X123864774Y-116676898D01*
X123942795Y-116865256D01*
X124056063Y-117034774D01*
X124200226Y-117178937D01*
X124369744Y-117292205D01*
X124558102Y-117370226D01*
X124758061Y-117410000D01*
X124961939Y-117410000D01*
X125161898Y-117370226D01*
X125350256Y-117292205D01*
X125519774Y-117178937D01*
X125663937Y-117034774D01*
X125777205Y-116865256D01*
X125855226Y-116676898D01*
X125895000Y-116476939D01*
X125895000Y-116273061D01*
X125855226Y-116073102D01*
X125777205Y-115884744D01*
X125663937Y-115715226D01*
X125519774Y-115571063D01*
X125350256Y-115457795D01*
X125161898Y-115379774D01*
X124961939Y-115340000D01*
X124758061Y-115340000D01*
X124558102Y-115379774D01*
X124369744Y-115457795D01*
X124200226Y-115571063D01*
X124056063Y-115715226D01*
X123942795Y-115884744D01*
X123864774Y-116073102D01*
X123825000Y-116273061D01*
X120660000Y-116273061D01*
X120660000Y-116248061D01*
X120620226Y-116048102D01*
X120542205Y-115859744D01*
X120428937Y-115690226D01*
X120284774Y-115546063D01*
X120115256Y-115432795D01*
X119926898Y-115354774D01*
X119726939Y-115315000D01*
X119523061Y-115315000D01*
X119323102Y-115354774D01*
X119134744Y-115432795D01*
X118965226Y-115546063D01*
X118821063Y-115690226D01*
X118707795Y-115859744D01*
X118629774Y-116048102D01*
X118590000Y-116248061D01*
X108160000Y-116248061D01*
X108160000Y-113898061D01*
X108365000Y-113898061D01*
X108365000Y-114101939D01*
X108404774Y-114301898D01*
X108482795Y-114490256D01*
X108596063Y-114659774D01*
X108740226Y-114803937D01*
X108909744Y-114917205D01*
X109098102Y-114995226D01*
X109298061Y-115035000D01*
X109501939Y-115035000D01*
X109701898Y-114995226D01*
X109890256Y-114917205D01*
X110059774Y-114803937D01*
X110203937Y-114659774D01*
X110317205Y-114490256D01*
X110395226Y-114301898D01*
X110435000Y-114101939D01*
X110435000Y-113898061D01*
X110395226Y-113698102D01*
X110317205Y-113509744D01*
X110203937Y-113340226D01*
X110059774Y-113196063D01*
X109890256Y-113082795D01*
X109701898Y-113004774D01*
X109501939Y-112965000D01*
X109298061Y-112965000D01*
X109098102Y-113004774D01*
X108909744Y-113082795D01*
X108740226Y-113196063D01*
X108596063Y-113340226D01*
X108482795Y-113509744D01*
X108404774Y-113698102D01*
X108365000Y-113898061D01*
X108160000Y-113898061D01*
X108160000Y-112898061D01*
X149815000Y-112898061D01*
X149815000Y-113101939D01*
X149854774Y-113301898D01*
X149932795Y-113490256D01*
X150046063Y-113659774D01*
X150190226Y-113803937D01*
X150359744Y-113917205D01*
X150548102Y-113995226D01*
X150748061Y-114035000D01*
X150951939Y-114035000D01*
X151151898Y-113995226D01*
X151340256Y-113917205D01*
X151509774Y-113803937D01*
X151653937Y-113659774D01*
X151767205Y-113490256D01*
X151845226Y-113301898D01*
X151885000Y-113101939D01*
X151885000Y-112898061D01*
X151845226Y-112698102D01*
X151767205Y-112509744D01*
X151709155Y-112422866D01*
X151815226Y-112528937D01*
X151984744Y-112642205D01*
X152173102Y-112720226D01*
X152373061Y-112760000D01*
X152576939Y-112760000D01*
X152776898Y-112720226D01*
X152965256Y-112642205D01*
X153134774Y-112528937D01*
X153278937Y-112384774D01*
X153392205Y-112215256D01*
X153470226Y-112026898D01*
X153510000Y-111826939D01*
X153510000Y-111623061D01*
X153470226Y-111423102D01*
X153392205Y-111234744D01*
X153278937Y-111065226D01*
X153134774Y-110921063D01*
X152965256Y-110807795D01*
X152776898Y-110729774D01*
X152576939Y-110690000D01*
X152373061Y-110690000D01*
X152173102Y-110729774D01*
X151984744Y-110807795D01*
X151815226Y-110921063D01*
X151671063Y-111065226D01*
X151557795Y-111234744D01*
X151479774Y-111423102D01*
X151440000Y-111623061D01*
X151440000Y-111826939D01*
X151479774Y-112026898D01*
X151557795Y-112215256D01*
X151615845Y-112302134D01*
X151509774Y-112196063D01*
X151340256Y-112082795D01*
X151151898Y-112004774D01*
X150951939Y-111965000D01*
X150748061Y-111965000D01*
X150548102Y-112004774D01*
X150359744Y-112082795D01*
X150190226Y-112196063D01*
X150046063Y-112340226D01*
X149932795Y-112509744D01*
X149854774Y-112698102D01*
X149815000Y-112898061D01*
X108160000Y-112898061D01*
X108160000Y-109668061D01*
X117395000Y-109668061D01*
X117395000Y-109871939D01*
X117434774Y-110071898D01*
X117512795Y-110260256D01*
X117626063Y-110429774D01*
X117770226Y-110573937D01*
X117939744Y-110687205D01*
X118128102Y-110765226D01*
X118328061Y-110805000D01*
X118531939Y-110805000D01*
X118731898Y-110765226D01*
X118920256Y-110687205D01*
X119089774Y-110573937D01*
X119140000Y-110523711D01*
X119140000Y-110651939D01*
X119179774Y-110851898D01*
X119257795Y-111040256D01*
X119371063Y-111209774D01*
X119515226Y-111353937D01*
X119684744Y-111467205D01*
X119778218Y-111505924D01*
X119740000Y-111698061D01*
X119740000Y-111901939D01*
X119779774Y-112101898D01*
X119857795Y-112290256D01*
X119971063Y-112459774D01*
X120115226Y-112603937D01*
X120284744Y-112717205D01*
X120473102Y-112795226D01*
X120673061Y-112835000D01*
X120876939Y-112835000D01*
X121076898Y-112795226D01*
X121265256Y-112717205D01*
X121434774Y-112603937D01*
X121578937Y-112459774D01*
X121692205Y-112290256D01*
X121770226Y-112101898D01*
X121810000Y-111901939D01*
X121810000Y-111698061D01*
X121770226Y-111498102D01*
X121692205Y-111309744D01*
X121578937Y-111140226D01*
X121434774Y-110996063D01*
X121400349Y-110973061D01*
X128140000Y-110973061D01*
X128140000Y-111176939D01*
X128179774Y-111376898D01*
X128257795Y-111565256D01*
X128371063Y-111734774D01*
X128515226Y-111878937D01*
X128684744Y-111992205D01*
X128873102Y-112070226D01*
X129073061Y-112110000D01*
X129276939Y-112110000D01*
X129476898Y-112070226D01*
X129665256Y-111992205D01*
X129834774Y-111878937D01*
X129978937Y-111734774D01*
X130092205Y-111565256D01*
X130170226Y-111376898D01*
X130210000Y-111176939D01*
X130210000Y-110973061D01*
X135415000Y-110973061D01*
X135415000Y-111176939D01*
X135454774Y-111376898D01*
X135532795Y-111565256D01*
X135646063Y-111734774D01*
X135790226Y-111878937D01*
X135959744Y-111992205D01*
X136148102Y-112070226D01*
X136348061Y-112110000D01*
X136551939Y-112110000D01*
X136751898Y-112070226D01*
X136940256Y-111992205D01*
X137109774Y-111878937D01*
X137253937Y-111734774D01*
X137367205Y-111565256D01*
X137445226Y-111376898D01*
X137475825Y-111223061D01*
X148415000Y-111223061D01*
X148415000Y-111426939D01*
X148454774Y-111626898D01*
X148532795Y-111815256D01*
X148646063Y-111984774D01*
X148790226Y-112128937D01*
X148959744Y-112242205D01*
X149148102Y-112320226D01*
X149348061Y-112360000D01*
X149551939Y-112360000D01*
X149751898Y-112320226D01*
X149940256Y-112242205D01*
X150109774Y-112128937D01*
X150253937Y-111984774D01*
X150367205Y-111815256D01*
X150445226Y-111626898D01*
X150485000Y-111426939D01*
X150485000Y-111223061D01*
X150445226Y-111023102D01*
X150367205Y-110834744D01*
X150253937Y-110665226D01*
X150109774Y-110521063D01*
X149940256Y-110407795D01*
X149751898Y-110329774D01*
X149551939Y-110290000D01*
X149348061Y-110290000D01*
X149148102Y-110329774D01*
X148959744Y-110407795D01*
X148790226Y-110521063D01*
X148646063Y-110665226D01*
X148532795Y-110834744D01*
X148454774Y-111023102D01*
X148415000Y-111223061D01*
X137475825Y-111223061D01*
X137485000Y-111176939D01*
X137485000Y-110973061D01*
X137445226Y-110773102D01*
X137367205Y-110584744D01*
X137253937Y-110415226D01*
X137109774Y-110271063D01*
X136940256Y-110157795D01*
X136751898Y-110079774D01*
X136551939Y-110040000D01*
X136348061Y-110040000D01*
X136148102Y-110079774D01*
X135959744Y-110157795D01*
X135790226Y-110271063D01*
X135646063Y-110415226D01*
X135532795Y-110584744D01*
X135454774Y-110773102D01*
X135415000Y-110973061D01*
X130210000Y-110973061D01*
X130170226Y-110773102D01*
X130092205Y-110584744D01*
X129978937Y-110415226D01*
X129834774Y-110271063D01*
X129665256Y-110157795D01*
X129476898Y-110079774D01*
X129276939Y-110040000D01*
X129073061Y-110040000D01*
X128873102Y-110079774D01*
X128684744Y-110157795D01*
X128515226Y-110271063D01*
X128371063Y-110415226D01*
X128257795Y-110584744D01*
X128179774Y-110773102D01*
X128140000Y-110973061D01*
X121400349Y-110973061D01*
X121265256Y-110882795D01*
X121171782Y-110844076D01*
X121210000Y-110651939D01*
X121210000Y-110448061D01*
X121170226Y-110248102D01*
X121149328Y-110197651D01*
X121295256Y-110137205D01*
X121464774Y-110023937D01*
X121608937Y-109879774D01*
X121722205Y-109710256D01*
X121800226Y-109521898D01*
X121840000Y-109321939D01*
X121840000Y-109118061D01*
X121800226Y-108918102D01*
X121722205Y-108729744D01*
X121608937Y-108560226D01*
X121464774Y-108416063D01*
X121295256Y-108302795D01*
X121106898Y-108224774D01*
X120906939Y-108185000D01*
X120703061Y-108185000D01*
X120503102Y-108224774D01*
X120314744Y-108302795D01*
X120145226Y-108416063D01*
X120001063Y-108560226D01*
X119887795Y-108729744D01*
X119809774Y-108918102D01*
X119770000Y-109118061D01*
X119770000Y-109321939D01*
X119809774Y-109521898D01*
X119830672Y-109572349D01*
X119684744Y-109632795D01*
X119515226Y-109746063D01*
X119465000Y-109796289D01*
X119465000Y-109668061D01*
X119425226Y-109468102D01*
X119347205Y-109279744D01*
X119233937Y-109110226D01*
X119089774Y-108966063D01*
X118920256Y-108852795D01*
X118731898Y-108774774D01*
X118531939Y-108735000D01*
X118328061Y-108735000D01*
X118128102Y-108774774D01*
X117939744Y-108852795D01*
X117770226Y-108966063D01*
X117626063Y-109110226D01*
X117512795Y-109279744D01*
X117434774Y-109468102D01*
X117395000Y-109668061D01*
X108160000Y-109668061D01*
X108160000Y-107598061D01*
X127765000Y-107598061D01*
X127765000Y-107801939D01*
X127804774Y-108001898D01*
X127882795Y-108190256D01*
X127996063Y-108359774D01*
X128140226Y-108503937D01*
X128309744Y-108617205D01*
X128498102Y-108695226D01*
X128698061Y-108735000D01*
X128901939Y-108735000D01*
X129101898Y-108695226D01*
X129290256Y-108617205D01*
X129459774Y-108503937D01*
X129465650Y-108498061D01*
X137965000Y-108498061D01*
X137965000Y-108701939D01*
X138004774Y-108901898D01*
X138082795Y-109090256D01*
X138196063Y-109259774D01*
X138340226Y-109403937D01*
X138509744Y-109517205D01*
X138698102Y-109595226D01*
X138898061Y-109635000D01*
X139101939Y-109635000D01*
X139301898Y-109595226D01*
X139490256Y-109517205D01*
X139659774Y-109403937D01*
X139803937Y-109259774D01*
X139917205Y-109090256D01*
X139995226Y-108901898D01*
X140035000Y-108701939D01*
X140035000Y-108498061D01*
X139995226Y-108298102D01*
X139917205Y-108109744D01*
X139803937Y-107940226D01*
X139659774Y-107796063D01*
X139490256Y-107682795D01*
X139301898Y-107604774D01*
X139101939Y-107565000D01*
X138898061Y-107565000D01*
X138698102Y-107604774D01*
X138509744Y-107682795D01*
X138340226Y-107796063D01*
X138196063Y-107940226D01*
X138082795Y-108109744D01*
X138004774Y-108298102D01*
X137965000Y-108498061D01*
X129465650Y-108498061D01*
X129603937Y-108359774D01*
X129717205Y-108190256D01*
X129795226Y-108001898D01*
X129835000Y-107801939D01*
X129835000Y-107598061D01*
X129795226Y-107398102D01*
X129717205Y-107209744D01*
X129603937Y-107040226D01*
X129459774Y-106896063D01*
X129290256Y-106782795D01*
X129101898Y-106704774D01*
X128901939Y-106665000D01*
X128698061Y-106665000D01*
X128498102Y-106704774D01*
X128309744Y-106782795D01*
X128140226Y-106896063D01*
X127996063Y-107040226D01*
X127882795Y-107209744D01*
X127804774Y-107398102D01*
X127765000Y-107598061D01*
X108160000Y-107598061D01*
X108160000Y-103198061D01*
X111465000Y-103198061D01*
X111465000Y-103401939D01*
X111504774Y-103601898D01*
X111582795Y-103790256D01*
X111696063Y-103959774D01*
X111840226Y-104103937D01*
X112009744Y-104217205D01*
X112198102Y-104295226D01*
X112398061Y-104335000D01*
X112601939Y-104335000D01*
X112801898Y-104295226D01*
X112990256Y-104217205D01*
X113159774Y-104103937D01*
X113240650Y-104023061D01*
X117790000Y-104023061D01*
X117790000Y-104226939D01*
X117829774Y-104426898D01*
X117907795Y-104615256D01*
X118021063Y-104784774D01*
X118165226Y-104928937D01*
X118334744Y-105042205D01*
X118523102Y-105120226D01*
X118723061Y-105160000D01*
X118869198Y-105160000D01*
X118815226Y-105196063D01*
X118671063Y-105340226D01*
X118557795Y-105509744D01*
X118479774Y-105698102D01*
X118440000Y-105898061D01*
X118440000Y-106101939D01*
X118479774Y-106301898D01*
X118557795Y-106490256D01*
X118671063Y-106659774D01*
X118815226Y-106803937D01*
X118984744Y-106917205D01*
X119173102Y-106995226D01*
X119373061Y-107035000D01*
X119576939Y-107035000D01*
X119776898Y-106995226D01*
X119965256Y-106917205D01*
X120134774Y-106803937D01*
X120278937Y-106659774D01*
X120392205Y-106490256D01*
X120470226Y-106301898D01*
X120510000Y-106101939D01*
X120510000Y-105898061D01*
X120470226Y-105698102D01*
X120392205Y-105509744D01*
X120278937Y-105340226D01*
X120236772Y-105298061D01*
X131215000Y-105298061D01*
X131215000Y-105501939D01*
X131254774Y-105701898D01*
X131332795Y-105890256D01*
X131446063Y-106059774D01*
X131590226Y-106203937D01*
X131759744Y-106317205D01*
X131948102Y-106395226D01*
X132148061Y-106435000D01*
X132351939Y-106435000D01*
X132551898Y-106395226D01*
X132740256Y-106317205D01*
X132909774Y-106203937D01*
X133053937Y-106059774D01*
X133167205Y-105890256D01*
X133245226Y-105701898D01*
X133285000Y-105501939D01*
X133285000Y-105298061D01*
X133245226Y-105098102D01*
X133167205Y-104909744D01*
X133053937Y-104740226D01*
X133011772Y-104698061D01*
X138215000Y-104698061D01*
X138215000Y-104901939D01*
X138254774Y-105101898D01*
X138332795Y-105290256D01*
X138446063Y-105459774D01*
X138590226Y-105603937D01*
X138759744Y-105717205D01*
X138948102Y-105795226D01*
X139148061Y-105835000D01*
X139351939Y-105835000D01*
X139551898Y-105795226D01*
X139740256Y-105717205D01*
X139909774Y-105603937D01*
X140053937Y-105459774D01*
X140167205Y-105290256D01*
X140245226Y-105101898D01*
X140285000Y-104901939D01*
X140285000Y-104698061D01*
X140245226Y-104498102D01*
X140167205Y-104309744D01*
X140053937Y-104140226D01*
X139909774Y-103996063D01*
X139740256Y-103882795D01*
X139551898Y-103804774D01*
X139351939Y-103765000D01*
X139148061Y-103765000D01*
X138948102Y-103804774D01*
X138759744Y-103882795D01*
X138590226Y-103996063D01*
X138446063Y-104140226D01*
X138332795Y-104309744D01*
X138254774Y-104498102D01*
X138215000Y-104698061D01*
X133011772Y-104698061D01*
X132909774Y-104596063D01*
X132740256Y-104482795D01*
X132551898Y-104404774D01*
X132351939Y-104365000D01*
X132148061Y-104365000D01*
X131948102Y-104404774D01*
X131759744Y-104482795D01*
X131590226Y-104596063D01*
X131446063Y-104740226D01*
X131332795Y-104909744D01*
X131254774Y-105098102D01*
X131215000Y-105298061D01*
X120236772Y-105298061D01*
X120134774Y-105196063D01*
X119965256Y-105082795D01*
X119776898Y-105004774D01*
X119576939Y-104965000D01*
X119430802Y-104965000D01*
X119484774Y-104928937D01*
X119628937Y-104784774D01*
X119742205Y-104615256D01*
X119820226Y-104426898D01*
X119860000Y-104226939D01*
X119860000Y-104023061D01*
X119820226Y-103823102D01*
X119742205Y-103634744D01*
X119628937Y-103465226D01*
X119484774Y-103321063D01*
X119315256Y-103207795D01*
X119126898Y-103129774D01*
X118967465Y-103098061D01*
X125265000Y-103098061D01*
X125265000Y-103301939D01*
X125304774Y-103501898D01*
X125382795Y-103690256D01*
X125496063Y-103859774D01*
X125640226Y-104003937D01*
X125809744Y-104117205D01*
X125998102Y-104195226D01*
X126198061Y-104235000D01*
X126401939Y-104235000D01*
X126601898Y-104195226D01*
X126790256Y-104117205D01*
X126959774Y-104003937D01*
X127103937Y-103859774D01*
X127217205Y-103690256D01*
X127295226Y-103501898D01*
X127335000Y-103301939D01*
X127335000Y-103173061D01*
X143865000Y-103173061D01*
X143865000Y-103376939D01*
X143904774Y-103576898D01*
X143982795Y-103765256D01*
X144096063Y-103934774D01*
X144240226Y-104078937D01*
X144409744Y-104192205D01*
X144598102Y-104270226D01*
X144798061Y-104310000D01*
X145001939Y-104310000D01*
X145201898Y-104270226D01*
X145390256Y-104192205D01*
X145559774Y-104078937D01*
X145703937Y-103934774D01*
X145817205Y-103765256D01*
X145895226Y-103576898D01*
X145935000Y-103376939D01*
X145935000Y-103173061D01*
X145905164Y-103023061D01*
X151390000Y-103023061D01*
X151390000Y-103226939D01*
X151429774Y-103426898D01*
X151507795Y-103615256D01*
X151621063Y-103784774D01*
X151765226Y-103928937D01*
X151934744Y-104042205D01*
X152123102Y-104120226D01*
X152323061Y-104160000D01*
X152526939Y-104160000D01*
X152726898Y-104120226D01*
X152915256Y-104042205D01*
X153084774Y-103928937D01*
X153228937Y-103784774D01*
X153342205Y-103615256D01*
X153420226Y-103426898D01*
X153460000Y-103226939D01*
X153460000Y-103023061D01*
X153420226Y-102823102D01*
X153342205Y-102634744D01*
X153228937Y-102465226D01*
X153084774Y-102321063D01*
X152915256Y-102207795D01*
X152726898Y-102129774D01*
X152526939Y-102090000D01*
X152323061Y-102090000D01*
X152123102Y-102129774D01*
X151934744Y-102207795D01*
X151765226Y-102321063D01*
X151621063Y-102465226D01*
X151507795Y-102634744D01*
X151429774Y-102823102D01*
X151390000Y-103023061D01*
X145905164Y-103023061D01*
X145895226Y-102973102D01*
X145817205Y-102784744D01*
X145703937Y-102615226D01*
X145559774Y-102471063D01*
X145390256Y-102357795D01*
X145201898Y-102279774D01*
X145001939Y-102240000D01*
X144798061Y-102240000D01*
X144598102Y-102279774D01*
X144409744Y-102357795D01*
X144240226Y-102471063D01*
X144096063Y-102615226D01*
X143982795Y-102784744D01*
X143904774Y-102973102D01*
X143865000Y-103173061D01*
X127335000Y-103173061D01*
X127335000Y-103098061D01*
X127295226Y-102898102D01*
X127217205Y-102709744D01*
X127103937Y-102540226D01*
X126959774Y-102396063D01*
X126790256Y-102282795D01*
X126601898Y-102204774D01*
X126401939Y-102165000D01*
X126198061Y-102165000D01*
X125998102Y-102204774D01*
X125809744Y-102282795D01*
X125640226Y-102396063D01*
X125496063Y-102540226D01*
X125382795Y-102709744D01*
X125304774Y-102898102D01*
X125265000Y-103098061D01*
X118967465Y-103098061D01*
X118926939Y-103090000D01*
X118723061Y-103090000D01*
X118523102Y-103129774D01*
X118334744Y-103207795D01*
X118165226Y-103321063D01*
X118021063Y-103465226D01*
X117907795Y-103634744D01*
X117829774Y-103823102D01*
X117790000Y-104023061D01*
X113240650Y-104023061D01*
X113303937Y-103959774D01*
X113417205Y-103790256D01*
X113495226Y-103601898D01*
X113535000Y-103401939D01*
X113535000Y-103198061D01*
X113495226Y-102998102D01*
X113417205Y-102809744D01*
X113303937Y-102640226D01*
X113159774Y-102496063D01*
X112990256Y-102382795D01*
X112801898Y-102304774D01*
X112601939Y-102265000D01*
X112398061Y-102265000D01*
X112198102Y-102304774D01*
X112009744Y-102382795D01*
X111840226Y-102496063D01*
X111696063Y-102640226D01*
X111582795Y-102809744D01*
X111504774Y-102998102D01*
X111465000Y-103198061D01*
X108160000Y-103198061D01*
X108160000Y-98560000D01*
X108771111Y-98560000D01*
X108723815Y-98598815D01*
G37*
%TD.AperFunction*%
%TD*%
M02*
