%TF.GenerationSoftware,KiCad,Pcbnew,5.1.9-73d0e3b20d~88~ubuntu20.04.1*%
%TF.CreationDate,2021-02-15T14:30:30+00:00*%
%TF.ProjectId,daughter_board,64617567-6874-4657-925f-626f6172642e,rev?*%
%TF.SameCoordinates,Original*%
%TF.FileFunction,Copper,L4,Bot*%
%TF.FilePolarity,Positive*%
%FSLAX46Y46*%
G04 Gerber Fmt 4.6, Leading zero omitted, Abs format (unit mm)*
G04 Created by KiCad (PCBNEW 5.1.9-73d0e3b20d~88~ubuntu20.04.1) date 2021-02-15 14:30:30*
%MOMM*%
%LPD*%
G01*
G04 APERTURE LIST*
%TA.AperFunction,ComponentPad*%
%ADD10O,1.700000X1.700000*%
%TD*%
%TA.AperFunction,ComponentPad*%
%ADD11R,1.700000X1.700000*%
%TD*%
%TA.AperFunction,SMDPad,CuDef*%
%ADD12R,2.500000X5.100000*%
%TD*%
%TA.AperFunction,SMDPad,CuDef*%
%ADD13C,17.800000*%
%TD*%
%TA.AperFunction,SMDPad,CuDef*%
%ADD14R,1.219200X0.914400*%
%TD*%
%TA.AperFunction,ComponentPad*%
%ADD15O,1.000000X1.000000*%
%TD*%
%TA.AperFunction,ComponentPad*%
%ADD16R,1.000000X1.000000*%
%TD*%
%TA.AperFunction,ViaPad*%
%ADD17C,0.800000*%
%TD*%
%TA.AperFunction,Conductor*%
%ADD18C,0.250000*%
%TD*%
%TA.AperFunction,Conductor*%
%ADD19C,0.500000*%
%TD*%
%TA.AperFunction,Conductor*%
%ADD20C,0.254000*%
%TD*%
%TA.AperFunction,Conductor*%
%ADD21C,0.150000*%
%TD*%
G04 APERTURE END LIST*
%TO.P,C4,2*%
%TO.N,GND*%
%TA.AperFunction,SMDPad,CuDef*%
G36*
G01*
X153975000Y-108725000D02*
X153025000Y-108725000D01*
G75*
G02*
X152775000Y-108475000I0J250000D01*
G01*
X152775000Y-107975000D01*
G75*
G02*
X153025000Y-107725000I250000J0D01*
G01*
X153975000Y-107725000D01*
G75*
G02*
X154225000Y-107975000I0J-250000D01*
G01*
X154225000Y-108475000D01*
G75*
G02*
X153975000Y-108725000I-250000J0D01*
G01*
G37*
%TD.AperFunction*%
%TO.P,C4,1*%
%TO.N,Net-(BT1-Pad2)*%
%TA.AperFunction,SMDPad,CuDef*%
G36*
G01*
X153975000Y-110625000D02*
X153025000Y-110625000D01*
G75*
G02*
X152775000Y-110375000I0J250000D01*
G01*
X152775000Y-109875000D01*
G75*
G02*
X153025000Y-109625000I250000J0D01*
G01*
X153975000Y-109625000D01*
G75*
G02*
X154225000Y-109875000I0J-250000D01*
G01*
X154225000Y-110375000D01*
G75*
G02*
X153975000Y-110625000I-250000J0D01*
G01*
G37*
%TD.AperFunction*%
%TD*%
%TO.P,C1,2*%
%TO.N,GND*%
%TA.AperFunction,SMDPad,CuDef*%
G36*
G01*
X113075000Y-112025000D02*
X112125000Y-112025000D01*
G75*
G02*
X111875000Y-111775000I0J250000D01*
G01*
X111875000Y-111275000D01*
G75*
G02*
X112125000Y-111025000I250000J0D01*
G01*
X113075000Y-111025000D01*
G75*
G02*
X113325000Y-111275000I0J-250000D01*
G01*
X113325000Y-111775000D01*
G75*
G02*
X113075000Y-112025000I-250000J0D01*
G01*
G37*
%TD.AperFunction*%
%TO.P,C1,1*%
%TO.N,VDD*%
%TA.AperFunction,SMDPad,CuDef*%
G36*
G01*
X113075000Y-113925000D02*
X112125000Y-113925000D01*
G75*
G02*
X111875000Y-113675000I0J250000D01*
G01*
X111875000Y-113175000D01*
G75*
G02*
X112125000Y-112925000I250000J0D01*
G01*
X113075000Y-112925000D01*
G75*
G02*
X113325000Y-113175000I0J-250000D01*
G01*
X113325000Y-113675000D01*
G75*
G02*
X113075000Y-113925000I-250000J0D01*
G01*
G37*
%TD.AperFunction*%
%TD*%
D10*
%TO.P,J5,12*%
%TO.N,GND*%
X154735000Y-121590000D03*
%TO.P,J5,11*%
%TO.N,Net-(J5-Pad11)*%
X154735000Y-119050000D03*
%TO.P,J5,10*%
%TO.N,GND*%
X152195000Y-121590000D03*
%TO.P,J5,9*%
%TO.N,Net-(J5-Pad9)*%
X152195000Y-119050000D03*
%TO.P,J5,8*%
%TO.N,GND*%
X149655000Y-121590000D03*
%TO.P,J5,7*%
%TO.N,Net-(J5-Pad7)*%
X149655000Y-119050000D03*
%TO.P,J5,6*%
%TO.N,VDD*%
X147115000Y-121590000D03*
%TO.P,J5,5*%
%TO.N,Net-(J5-Pad5)*%
X147115000Y-119050000D03*
%TO.P,J5,4*%
%TO.N,VDD*%
X144575000Y-121590000D03*
%TO.P,J5,3*%
%TO.N,Net-(J5-Pad3)*%
X144575000Y-119050000D03*
%TO.P,J5,2*%
%TO.N,VDD*%
X142035000Y-121590000D03*
D11*
%TO.P,J5,1*%
%TO.N,Net-(J5-Pad1)*%
X142035000Y-119050000D03*
%TD*%
D12*
%TO.P,BT1,2*%
%TO.N,Net-(BT1-Pad2)*%
X124575000Y-107925000D03*
X147475000Y-107925000D03*
D13*
%TO.P,BT1,1*%
%TO.N,GND*%
X136025000Y-107925000D03*
%TD*%
D10*
%TO.P,J2,4*%
%TO.N,Net-(J2-Pad4)*%
X112315000Y-120940000D03*
%TO.P,J2,3*%
%TO.N,/RLED*%
X109775000Y-120940000D03*
%TO.P,J2,2*%
%TO.N,Net-(J2-Pad2)*%
X112315000Y-118400000D03*
D11*
%TO.P,J2,1*%
%TO.N,/GLED*%
X109775000Y-118400000D03*
%TD*%
D10*
%TO.P,APDS9930,4*%
%TO.N,/SDA*%
X115480000Y-127400000D03*
%TO.P,APDS9930,3*%
%TO.N,/SCL*%
X118020000Y-127400000D03*
%TO.P,APDS9930,2*%
%TO.N,GND*%
X120560000Y-127400000D03*
D11*
%TO.P,APDS9930,1*%
%TO.N,VDD*%
X123100000Y-127400000D03*
%TD*%
%TO.P,C6,2*%
%TO.N,GND*%
%TA.AperFunction,SMDPad,CuDef*%
G36*
G01*
X151975000Y-108725000D02*
X151025000Y-108725000D01*
G75*
G02*
X150775000Y-108475000I0J250000D01*
G01*
X150775000Y-107975000D01*
G75*
G02*
X151025000Y-107725000I250000J0D01*
G01*
X151975000Y-107725000D01*
G75*
G02*
X152225000Y-107975000I0J-250000D01*
G01*
X152225000Y-108475000D01*
G75*
G02*
X151975000Y-108725000I-250000J0D01*
G01*
G37*
%TD.AperFunction*%
%TO.P,C6,1*%
%TO.N,Net-(BT1-Pad2)*%
%TA.AperFunction,SMDPad,CuDef*%
G36*
G01*
X151975000Y-110625000D02*
X151025000Y-110625000D01*
G75*
G02*
X150775000Y-110375000I0J250000D01*
G01*
X150775000Y-109875000D01*
G75*
G02*
X151025000Y-109625000I250000J0D01*
G01*
X151975000Y-109625000D01*
G75*
G02*
X152225000Y-109875000I0J-250000D01*
G01*
X152225000Y-110375000D01*
G75*
G02*
X151975000Y-110625000I-250000J0D01*
G01*
G37*
%TD.AperFunction*%
%TD*%
%TO.P,R9,2*%
%TO.N,VDD*%
%TA.AperFunction,SMDPad,CuDef*%
G36*
G01*
X114725002Y-102900000D02*
X113824998Y-102900000D01*
G75*
G02*
X113575000Y-102650002I0J249998D01*
G01*
X113575000Y-102124998D01*
G75*
G02*
X113824998Y-101875000I249998J0D01*
G01*
X114725002Y-101875000D01*
G75*
G02*
X114975000Y-102124998I0J-249998D01*
G01*
X114975000Y-102650002D01*
G75*
G02*
X114725002Y-102900000I-249998J0D01*
G01*
G37*
%TD.AperFunction*%
%TO.P,R9,1*%
%TO.N,/SDA*%
%TA.AperFunction,SMDPad,CuDef*%
G36*
G01*
X114725002Y-104725000D02*
X113824998Y-104725000D01*
G75*
G02*
X113575000Y-104475002I0J249998D01*
G01*
X113575000Y-103949998D01*
G75*
G02*
X113824998Y-103700000I249998J0D01*
G01*
X114725002Y-103700000D01*
G75*
G02*
X114975000Y-103949998I0J-249998D01*
G01*
X114975000Y-104475002D01*
G75*
G02*
X114725002Y-104725000I-249998J0D01*
G01*
G37*
%TD.AperFunction*%
%TD*%
%TO.P,R8,2*%
%TO.N,VDD*%
%TA.AperFunction,SMDPad,CuDef*%
G36*
G01*
X116900002Y-102900000D02*
X115999998Y-102900000D01*
G75*
G02*
X115750000Y-102650002I0J249998D01*
G01*
X115750000Y-102124998D01*
G75*
G02*
X115999998Y-101875000I249998J0D01*
G01*
X116900002Y-101875000D01*
G75*
G02*
X117150000Y-102124998I0J-249998D01*
G01*
X117150000Y-102650002D01*
G75*
G02*
X116900002Y-102900000I-249998J0D01*
G01*
G37*
%TD.AperFunction*%
%TO.P,R8,1*%
%TO.N,/SCL*%
%TA.AperFunction,SMDPad,CuDef*%
G36*
G01*
X116900002Y-104725000D02*
X115999998Y-104725000D01*
G75*
G02*
X115750000Y-104475002I0J249998D01*
G01*
X115750000Y-103949998D01*
G75*
G02*
X115999998Y-103700000I249998J0D01*
G01*
X116900002Y-103700000D01*
G75*
G02*
X117150000Y-103949998I0J-249998D01*
G01*
X117150000Y-104475002D01*
G75*
G02*
X116900002Y-104725000I-249998J0D01*
G01*
G37*
%TD.AperFunction*%
%TD*%
%TO.P,U1,8*%
%TO.N,VDD*%
%TA.AperFunction,SMDPad,CuDef*%
G36*
G01*
X114470000Y-112550000D02*
X114770000Y-112550000D01*
G75*
G02*
X114920000Y-112700000I0J-150000D01*
G01*
X114920000Y-114050000D01*
G75*
G02*
X114770000Y-114200000I-150000J0D01*
G01*
X114470000Y-114200000D01*
G75*
G02*
X114320000Y-114050000I0J150000D01*
G01*
X114320000Y-112700000D01*
G75*
G02*
X114470000Y-112550000I150000J0D01*
G01*
G37*
%TD.AperFunction*%
%TO.P,U1,7*%
%TO.N,N/C*%
%TA.AperFunction,SMDPad,CuDef*%
G36*
G01*
X115740000Y-112550000D02*
X116040000Y-112550000D01*
G75*
G02*
X116190000Y-112700000I0J-150000D01*
G01*
X116190000Y-114050000D01*
G75*
G02*
X116040000Y-114200000I-150000J0D01*
G01*
X115740000Y-114200000D01*
G75*
G02*
X115590000Y-114050000I0J150000D01*
G01*
X115590000Y-112700000D01*
G75*
G02*
X115740000Y-112550000I150000J0D01*
G01*
G37*
%TD.AperFunction*%
%TO.P,U1,6*%
%TO.N,/SPI_SCLK*%
%TA.AperFunction,SMDPad,CuDef*%
G36*
G01*
X117010000Y-112550000D02*
X117310000Y-112550000D01*
G75*
G02*
X117460000Y-112700000I0J-150000D01*
G01*
X117460000Y-114050000D01*
G75*
G02*
X117310000Y-114200000I-150000J0D01*
G01*
X117010000Y-114200000D01*
G75*
G02*
X116860000Y-114050000I0J150000D01*
G01*
X116860000Y-112700000D01*
G75*
G02*
X117010000Y-112550000I150000J0D01*
G01*
G37*
%TD.AperFunction*%
%TO.P,U1,5*%
%TO.N,/SPI_MOSI*%
%TA.AperFunction,SMDPad,CuDef*%
G36*
G01*
X118280000Y-112550000D02*
X118580000Y-112550000D01*
G75*
G02*
X118730000Y-112700000I0J-150000D01*
G01*
X118730000Y-114050000D01*
G75*
G02*
X118580000Y-114200000I-150000J0D01*
G01*
X118280000Y-114200000D01*
G75*
G02*
X118130000Y-114050000I0J150000D01*
G01*
X118130000Y-112700000D01*
G75*
G02*
X118280000Y-112550000I150000J0D01*
G01*
G37*
%TD.AperFunction*%
%TO.P,U1,4*%
%TO.N,GND*%
%TA.AperFunction,SMDPad,CuDef*%
G36*
G01*
X118280000Y-107300000D02*
X118580000Y-107300000D01*
G75*
G02*
X118730000Y-107450000I0J-150000D01*
G01*
X118730000Y-108800000D01*
G75*
G02*
X118580000Y-108950000I-150000J0D01*
G01*
X118280000Y-108950000D01*
G75*
G02*
X118130000Y-108800000I0J150000D01*
G01*
X118130000Y-107450000D01*
G75*
G02*
X118280000Y-107300000I150000J0D01*
G01*
G37*
%TD.AperFunction*%
%TO.P,U1,3*%
%TO.N,N/C*%
%TA.AperFunction,SMDPad,CuDef*%
G36*
G01*
X117010000Y-107300000D02*
X117310000Y-107300000D01*
G75*
G02*
X117460000Y-107450000I0J-150000D01*
G01*
X117460000Y-108800000D01*
G75*
G02*
X117310000Y-108950000I-150000J0D01*
G01*
X117010000Y-108950000D01*
G75*
G02*
X116860000Y-108800000I0J150000D01*
G01*
X116860000Y-107450000D01*
G75*
G02*
X117010000Y-107300000I150000J0D01*
G01*
G37*
%TD.AperFunction*%
%TO.P,U1,2*%
%TO.N,/SPI_MISO*%
%TA.AperFunction,SMDPad,CuDef*%
G36*
G01*
X115740000Y-107300000D02*
X116040000Y-107300000D01*
G75*
G02*
X116190000Y-107450000I0J-150000D01*
G01*
X116190000Y-108800000D01*
G75*
G02*
X116040000Y-108950000I-150000J0D01*
G01*
X115740000Y-108950000D01*
G75*
G02*
X115590000Y-108800000I0J150000D01*
G01*
X115590000Y-107450000D01*
G75*
G02*
X115740000Y-107300000I150000J0D01*
G01*
G37*
%TD.AperFunction*%
%TO.P,U1,1*%
%TO.N,/FLASH_CS*%
%TA.AperFunction,SMDPad,CuDef*%
G36*
G01*
X114470000Y-107300000D02*
X114770000Y-107300000D01*
G75*
G02*
X114920000Y-107450000I0J-150000D01*
G01*
X114920000Y-108800000D01*
G75*
G02*
X114770000Y-108950000I-150000J0D01*
G01*
X114470000Y-108950000D01*
G75*
G02*
X114320000Y-108800000I0J150000D01*
G01*
X114320000Y-107450000D01*
G75*
G02*
X114470000Y-107300000I150000J0D01*
G01*
G37*
%TD.AperFunction*%
%TD*%
D14*
%TO.P,D5,1*%
%TO.N,Net-(BT1-Pad2)*%
X155250000Y-110188300D03*
%TO.P,D5,2*%
%TO.N,VDD*%
X155250000Y-106911700D03*
%TD*%
D10*
%TO.P,AHT10,4*%
%TO.N,/SDA*%
X154520000Y-127400000D03*
%TO.P,AHT10,3*%
%TO.N,/SCL*%
X151980000Y-127400000D03*
%TO.P,AHT10,2*%
%TO.N,GND*%
X149440000Y-127400000D03*
D11*
%TO.P,AHT10,1*%
%TO.N,VDD*%
X146900000Y-127400000D03*
%TD*%
D15*
%TO.P,J3,10*%
%TO.N,/XDS_RESET*%
X137855000Y-125730000D03*
%TO.P,J3,9*%
%TO.N,GND*%
X137855000Y-127000000D03*
%TO.P,J3,8*%
%TO.N,/XDS_TDI*%
X136585000Y-125730000D03*
%TO.P,J3,7*%
%TO.N,N/C*%
X136585000Y-127000000D03*
%TO.P,J3,6*%
%TO.N,/XDS_TDO*%
X135315000Y-125730000D03*
%TO.P,J3,5*%
%TO.N,GND*%
X135315000Y-127000000D03*
%TO.P,J3,4*%
%TO.N,/XDS_TCK*%
X134045000Y-125730000D03*
%TO.P,J3,3*%
%TO.N,GND*%
X134045000Y-127000000D03*
%TO.P,J3,2*%
%TO.N,/XDS-TMS*%
X132775000Y-125730000D03*
D16*
%TO.P,J3,1*%
%TO.N,VCC*%
X132775000Y-127000000D03*
%TD*%
%TO.P,R3,2*%
%TO.N,/FLASH_CS*%
%TA.AperFunction,SMDPad,CuDef*%
G36*
G01*
X112074998Y-107675000D02*
X112975002Y-107675000D01*
G75*
G02*
X113225000Y-107924998I0J-249998D01*
G01*
X113225000Y-108450002D01*
G75*
G02*
X112975002Y-108700000I-249998J0D01*
G01*
X112074998Y-108700000D01*
G75*
G02*
X111825000Y-108450002I0J249998D01*
G01*
X111825000Y-107924998D01*
G75*
G02*
X112074998Y-107675000I249998J0D01*
G01*
G37*
%TD.AperFunction*%
%TO.P,R3,1*%
%TO.N,VDD*%
%TA.AperFunction,SMDPad,CuDef*%
G36*
G01*
X112074998Y-105850000D02*
X112975002Y-105850000D01*
G75*
G02*
X113225000Y-106099998I0J-249998D01*
G01*
X113225000Y-106625002D01*
G75*
G02*
X112975002Y-106875000I-249998J0D01*
G01*
X112074998Y-106875000D01*
G75*
G02*
X111825000Y-106625002I0J249998D01*
G01*
X111825000Y-106099998D01*
G75*
G02*
X112074998Y-105850000I249998J0D01*
G01*
G37*
%TD.AperFunction*%
%TD*%
%TO.P,R2,2*%
%TO.N,Net-(R2-Pad2)*%
%TA.AperFunction,SMDPad,CuDef*%
G36*
G01*
X128625000Y-118649998D02*
X128625000Y-119550002D01*
G75*
G02*
X128375002Y-119800000I-249998J0D01*
G01*
X127849998Y-119800000D01*
G75*
G02*
X127600000Y-119550002I0J249998D01*
G01*
X127600000Y-118649998D01*
G75*
G02*
X127849998Y-118400000I249998J0D01*
G01*
X128375002Y-118400000D01*
G75*
G02*
X128625000Y-118649998I0J-249998D01*
G01*
G37*
%TD.AperFunction*%
%TO.P,R2,1*%
%TO.N,Net-(R2-Pad1)*%
%TA.AperFunction,SMDPad,CuDef*%
G36*
G01*
X130450000Y-118649998D02*
X130450000Y-119550002D01*
G75*
G02*
X130200002Y-119800000I-249998J0D01*
G01*
X129674998Y-119800000D01*
G75*
G02*
X129425000Y-119550002I0J249998D01*
G01*
X129425000Y-118649998D01*
G75*
G02*
X129674998Y-118400000I249998J0D01*
G01*
X130200002Y-118400000D01*
G75*
G02*
X130450000Y-118649998I0J-249998D01*
G01*
G37*
%TD.AperFunction*%
%TD*%
D10*
%TO.P,J1,4*%
%TO.N,VDD*%
X117645000Y-99900000D03*
%TO.P,J1,3*%
%TO.N,/UART_RXD*%
X115105000Y-99900000D03*
%TO.P,J1,2*%
%TO.N,/UART_TXD*%
X112565000Y-99900000D03*
D11*
%TO.P,J1,1*%
%TO.N,GND*%
X110025000Y-99900000D03*
%TD*%
D17*
%TO.N,/XDS_RESET*%
X150850000Y-113000000D03*
%TO.N,GND*%
X149450000Y-111325000D03*
X119600000Y-119500000D03*
X109775000Y-126775000D03*
X113050000Y-123325000D03*
X127475000Y-126150000D03*
X142175000Y-126125000D03*
X152450000Y-100575000D03*
X152475000Y-111725000D03*
X138250000Y-123025000D03*
X127400000Y-100650000D03*
X112500000Y-103300000D03*
X135600000Y-101350000D03*
X129175000Y-111075000D03*
X136450000Y-111075000D03*
X144900000Y-103275000D03*
X152425000Y-103125000D03*
X132250000Y-105400000D03*
X139250000Y-104800000D03*
X118430000Y-109770000D03*
X109400000Y-114000000D03*
X154900000Y-124700000D03*
X139000000Y-108600000D03*
X128800000Y-107700000D03*
X126300000Y-103200000D03*
X120300000Y-99700000D03*
X147900000Y-100800000D03*
X139800000Y-100300000D03*
%TO.N,Net-(R2-Pad2)*%
X126450000Y-119100000D03*
%TO.N,/SPI_SCLK*%
X120775000Y-111800000D03*
%TO.N,/SPI_MOSI*%
X120175000Y-110550000D03*
%TO.N,/SPI_MISO*%
X120805000Y-109220000D03*
%TO.N,/FLASH_CS*%
X119625000Y-116350000D03*
X124860000Y-116375000D03*
X138575000Y-118525000D03*
%TO.N,/SDA*%
X119475000Y-106000000D03*
%TO.N,/SCL*%
X118825000Y-104125000D03*
%TO.N,VDD*%
X155175000Y-108050000D03*
X114800000Y-115250000D03*
X110500000Y-108400000D03*
X152738300Y-106836700D03*
X149125000Y-103825000D03*
X127111700Y-124188300D03*
%TO.N,Net-(R2-Pad1)*%
X155675000Y-115375000D03*
%TD*%
D18*
%TO.N,/XDS_RESET*%
X154313802Y-113000000D02*
X150850000Y-113000000D01*
X156360001Y-121719801D02*
X156360001Y-115046199D01*
X156360001Y-115046199D02*
X154313802Y-113000000D01*
X154504802Y-123575000D02*
X156360001Y-121719801D01*
X140010000Y-123575000D02*
X154504802Y-123575000D01*
X137855000Y-125730000D02*
X140010000Y-123575000D01*
%TO.N,GND*%
X135300000Y-107925000D02*
X136025000Y-107925000D01*
X136325000Y-107925000D02*
X136025000Y-107925000D01*
X118430000Y-108125000D02*
X118430000Y-109770000D01*
%TO.N,Net-(R2-Pad2)*%
X128112500Y-119100000D02*
X126450000Y-119100000D01*
%TO.N,/SPI_SCLK*%
X120775000Y-111800000D02*
X119575000Y-113000000D01*
X119575000Y-113670198D02*
X119600000Y-113695198D01*
X119575000Y-113000000D02*
X119575000Y-113670198D01*
X119600000Y-113695198D02*
X119600000Y-114350000D01*
X119600000Y-114350000D02*
X118975000Y-114975000D01*
X117160000Y-114200000D02*
X117160000Y-113375000D01*
X117935000Y-114975000D02*
X117160000Y-114200000D01*
X118975000Y-114975000D02*
X117935000Y-114975000D01*
%TO.N,/SPI_MOSI*%
X118430000Y-112295000D02*
X118430000Y-113375000D01*
X120175000Y-110550000D02*
X118430000Y-112295000D01*
%TO.N,/XDS-TMS*%
X132775000Y-125730000D02*
X132775000Y-125675000D01*
%TO.N,/SPI_MISO*%
X115890000Y-108125000D02*
X115890000Y-106985000D01*
X115890000Y-106985000D02*
X116150000Y-106725000D01*
X120805000Y-108654315D02*
X120805000Y-109220000D01*
X118875685Y-106725000D02*
X120805000Y-108654315D01*
X116150000Y-106725000D02*
X118875685Y-106725000D01*
%TO.N,/FLASH_CS*%
X112587500Y-108125000D02*
X112525000Y-108187500D01*
X114620000Y-108125000D02*
X112587500Y-108125000D01*
X124860000Y-116375000D02*
X124860000Y-119485000D01*
X124860000Y-119485000D02*
X126200000Y-120825000D01*
X126200000Y-120825000D02*
X130550000Y-120825000D01*
X130550000Y-120825000D02*
X132850000Y-118525000D01*
X132850000Y-118525000D02*
X138575000Y-118525000D01*
X111185001Y-115560001D02*
X111185001Y-109527499D01*
X112000000Y-116375000D02*
X111185001Y-115560001D01*
X111185001Y-109527499D02*
X112525000Y-108187500D01*
X119600000Y-116375000D02*
X112000000Y-116375000D01*
X119625000Y-116350000D02*
X119600000Y-116375000D01*
%TO.N,/SDA*%
X114275000Y-104325000D02*
X115950000Y-106000000D01*
X114275000Y-104212500D02*
X114275000Y-104325000D01*
X115950000Y-106000000D02*
X119475000Y-106000000D01*
X117190010Y-129110010D02*
X115480000Y-127400000D01*
X152809990Y-129110010D02*
X117190010Y-129110010D01*
X154520000Y-127400000D02*
X152809990Y-129110010D01*
X115555000Y-127325000D02*
X115480000Y-127400000D01*
X115555000Y-126500000D02*
X115555000Y-127325000D01*
X119275000Y-122780000D02*
X115555000Y-126500000D01*
X119320000Y-122780000D02*
X119275000Y-122780000D01*
X121700000Y-120400000D02*
X119320000Y-122780000D01*
X121700000Y-108225000D02*
X121700000Y-120400000D01*
X119475000Y-106000000D02*
X121700000Y-108225000D01*
%TO.N,/SCL*%
X118737500Y-104212500D02*
X118825000Y-104125000D01*
X116450000Y-104212500D02*
X118737500Y-104212500D01*
X122450000Y-120850000D02*
X118095000Y-125205000D01*
X122450000Y-107750000D02*
X122450000Y-120850000D01*
X118825000Y-104125000D02*
X122450000Y-107750000D01*
X118020000Y-127400000D02*
X119320000Y-128700000D01*
X150680000Y-128700000D02*
X151980000Y-127400000D01*
X119320000Y-128700000D02*
X150680000Y-128700000D01*
X118020000Y-126770000D02*
X118095000Y-126695000D01*
X118020000Y-127400000D02*
X118020000Y-126770000D01*
X118095000Y-125205000D02*
X118095000Y-126695000D01*
D19*
%TO.N,VDD*%
X114620000Y-114795000D02*
X114650000Y-114825000D01*
X114620000Y-113375000D02*
X114620000Y-114795000D01*
X114620000Y-115070000D02*
X114800000Y-115250000D01*
X114620000Y-114795000D02*
X114620000Y-115070000D01*
X114275000Y-102387500D02*
X116450000Y-102387500D01*
X116450000Y-101095000D02*
X117645000Y-99900000D01*
X116450000Y-102387500D02*
X116450000Y-101095000D01*
X110500000Y-108400000D02*
X110500000Y-107375000D01*
X111512500Y-106362500D02*
X112525000Y-106362500D01*
X110500000Y-107375000D02*
X111512500Y-106362500D01*
X114620000Y-113375000D02*
X112625000Y-113375000D01*
X155250000Y-107975000D02*
X155175000Y-108050000D01*
X155250000Y-106911700D02*
X155250000Y-107975000D01*
X152813300Y-106911700D02*
X152738300Y-106836700D01*
X155250000Y-106911700D02*
X152813300Y-106911700D01*
%TO.N,Net-(BT1-Pad2)*%
X149280850Y-108344150D02*
X151050000Y-110113300D01*
D18*
X147594150Y-108044150D02*
X147475000Y-107925000D01*
X147894150Y-108344150D02*
X147475000Y-107925000D01*
D19*
X149280850Y-108344150D02*
X147894150Y-108344150D01*
D18*
X151061700Y-110125000D02*
X151050000Y-110113300D01*
X152950000Y-110125000D02*
X151061700Y-110125000D01*
X153050000Y-110250000D02*
X154875000Y-110250000D01*
%TO.N,Net-(R2-Pad1)*%
X129937500Y-119100000D02*
X130900000Y-119100000D01*
X130900000Y-119100000D02*
X132500000Y-117500000D01*
X132500000Y-117500000D02*
X141275000Y-117500000D01*
X141275000Y-117500000D02*
X153550000Y-117500000D01*
X153550000Y-117500000D02*
X155675000Y-115375000D01*
%TD*%
D20*
%TO.N,GND*%
X108723815Y-98598815D02*
X108644463Y-98695506D01*
X108585498Y-98805820D01*
X108549188Y-98925518D01*
X108536928Y-99050000D01*
X108540000Y-99614250D01*
X108698750Y-99773000D01*
X109898000Y-99773000D01*
X109898000Y-99753000D01*
X110152000Y-99753000D01*
X110152000Y-99773000D01*
X110172000Y-99773000D01*
X110172000Y-100027000D01*
X110152000Y-100027000D01*
X110152000Y-101226250D01*
X110310750Y-101385000D01*
X110875000Y-101388072D01*
X110999482Y-101375812D01*
X111119180Y-101339502D01*
X111229494Y-101280537D01*
X111326185Y-101201185D01*
X111405537Y-101104494D01*
X111464502Y-100994180D01*
X111486513Y-100921620D01*
X111618368Y-101053475D01*
X111861589Y-101215990D01*
X112131842Y-101327932D01*
X112418740Y-101385000D01*
X112711260Y-101385000D01*
X112998158Y-101327932D01*
X113268411Y-101215990D01*
X113511632Y-101053475D01*
X113718475Y-100846632D01*
X113835000Y-100672240D01*
X113951525Y-100846632D01*
X114158368Y-101053475D01*
X114401589Y-101215990D01*
X114452138Y-101236928D01*
X113824998Y-101236928D01*
X113651744Y-101253992D01*
X113485148Y-101304528D01*
X113331613Y-101386595D01*
X113197038Y-101497038D01*
X113086595Y-101631613D01*
X113004528Y-101785148D01*
X112953992Y-101951744D01*
X112936928Y-102124998D01*
X112936928Y-102650002D01*
X112953992Y-102823256D01*
X113004528Y-102989852D01*
X113086595Y-103143387D01*
X113197038Y-103277962D01*
X113223891Y-103300000D01*
X113197038Y-103322038D01*
X113086595Y-103456613D01*
X113004528Y-103610148D01*
X112953992Y-103776744D01*
X112936928Y-103949998D01*
X112936928Y-104475002D01*
X112953992Y-104648256D01*
X113004528Y-104814852D01*
X113086595Y-104968387D01*
X113197038Y-105102962D01*
X113331613Y-105213405D01*
X113485148Y-105295472D01*
X113651744Y-105346008D01*
X113824998Y-105363072D01*
X114238271Y-105363072D01*
X115336566Y-106461368D01*
X115326202Y-106473997D01*
X115326201Y-106473998D01*
X115255026Y-106560724D01*
X115184454Y-106692754D01*
X115168247Y-106746183D01*
X115161095Y-106769762D01*
X115071582Y-106721916D01*
X114923745Y-106677071D01*
X114770000Y-106661928D01*
X114470000Y-106661928D01*
X114316255Y-106677071D01*
X114168418Y-106721916D01*
X114032171Y-106794742D01*
X113912749Y-106892749D01*
X113814742Y-107012171D01*
X113741916Y-107148418D01*
X113697071Y-107296255D01*
X113690300Y-107365000D01*
X113658737Y-107365000D01*
X113602962Y-107297038D01*
X113576109Y-107275000D01*
X113602962Y-107252962D01*
X113713405Y-107118387D01*
X113795472Y-106964852D01*
X113846008Y-106798256D01*
X113863072Y-106625002D01*
X113863072Y-106099998D01*
X113846008Y-105926744D01*
X113795472Y-105760148D01*
X113713405Y-105606613D01*
X113602962Y-105472038D01*
X113468387Y-105361595D01*
X113314852Y-105279528D01*
X113148256Y-105228992D01*
X112975002Y-105211928D01*
X112074998Y-105211928D01*
X111901744Y-105228992D01*
X111735148Y-105279528D01*
X111581613Y-105361595D01*
X111447038Y-105472038D01*
X111440228Y-105480336D01*
X111339010Y-105490305D01*
X111172187Y-105540911D01*
X111018441Y-105623089D01*
X111018439Y-105623090D01*
X111018440Y-105623090D01*
X110917453Y-105705968D01*
X110917451Y-105705970D01*
X110883683Y-105733683D01*
X110855970Y-105767451D01*
X109904951Y-106718471D01*
X109871184Y-106746183D01*
X109843471Y-106779951D01*
X109843468Y-106779954D01*
X109760590Y-106880941D01*
X109678412Y-107034687D01*
X109627805Y-107201510D01*
X109610719Y-107375000D01*
X109615001Y-107418478D01*
X109615001Y-107861545D01*
X109582795Y-107909744D01*
X109504774Y-108098102D01*
X109465000Y-108298061D01*
X109465000Y-108501939D01*
X109504774Y-108701898D01*
X109582795Y-108890256D01*
X109696063Y-109059774D01*
X109840226Y-109203937D01*
X110009744Y-109317205D01*
X110198102Y-109395226D01*
X110398061Y-109435000D01*
X110430435Y-109435000D01*
X110428440Y-109455258D01*
X110421325Y-109527499D01*
X110425002Y-109564831D01*
X110425001Y-115522678D01*
X110421325Y-115560001D01*
X110425001Y-115597323D01*
X110425001Y-115597333D01*
X110435998Y-115708986D01*
X110459421Y-115786201D01*
X110479455Y-115852247D01*
X110550027Y-115984277D01*
X110554240Y-115989410D01*
X110645000Y-116100002D01*
X110674003Y-116123804D01*
X111436201Y-116886002D01*
X111459999Y-116915001D01*
X111575724Y-117009974D01*
X111669419Y-117060056D01*
X111611589Y-117084010D01*
X111368368Y-117246525D01*
X111236513Y-117378380D01*
X111214502Y-117305820D01*
X111155537Y-117195506D01*
X111076185Y-117098815D01*
X110979494Y-117019463D01*
X110869180Y-116960498D01*
X110749482Y-116924188D01*
X110625000Y-116911928D01*
X108925000Y-116911928D01*
X108800518Y-116924188D01*
X108680820Y-116960498D01*
X108570506Y-117019463D01*
X108473815Y-117098815D01*
X108394463Y-117195506D01*
X108335498Y-117305820D01*
X108299188Y-117425518D01*
X108286928Y-117550000D01*
X108286928Y-119250000D01*
X108299188Y-119374482D01*
X108335498Y-119494180D01*
X108394463Y-119604494D01*
X108473815Y-119701185D01*
X108570506Y-119780537D01*
X108680820Y-119839502D01*
X108753380Y-119861513D01*
X108621525Y-119993368D01*
X108459010Y-120236589D01*
X108347068Y-120506842D01*
X108290000Y-120793740D01*
X108290000Y-121086260D01*
X108347068Y-121373158D01*
X108459010Y-121643411D01*
X108621525Y-121886632D01*
X108828368Y-122093475D01*
X109071589Y-122255990D01*
X109341842Y-122367932D01*
X109628740Y-122425000D01*
X109921260Y-122425000D01*
X110208158Y-122367932D01*
X110478411Y-122255990D01*
X110721632Y-122093475D01*
X110928475Y-121886632D01*
X111045000Y-121712240D01*
X111161525Y-121886632D01*
X111368368Y-122093475D01*
X111611589Y-122255990D01*
X111881842Y-122367932D01*
X112168740Y-122425000D01*
X112461260Y-122425000D01*
X112748158Y-122367932D01*
X113018411Y-122255990D01*
X113261632Y-122093475D01*
X113468475Y-121886632D01*
X113630990Y-121643411D01*
X113742932Y-121373158D01*
X113800000Y-121086260D01*
X113800000Y-120793740D01*
X113742932Y-120506842D01*
X113630990Y-120236589D01*
X113468475Y-119993368D01*
X113261632Y-119786525D01*
X113087240Y-119670000D01*
X113261632Y-119553475D01*
X113468475Y-119346632D01*
X113630990Y-119103411D01*
X113742932Y-118833158D01*
X113800000Y-118546260D01*
X113800000Y-118253740D01*
X113742932Y-117966842D01*
X113630990Y-117696589D01*
X113468475Y-117453368D01*
X113261632Y-117246525D01*
X113094723Y-117135000D01*
X118946289Y-117135000D01*
X118965226Y-117153937D01*
X119134744Y-117267205D01*
X119323102Y-117345226D01*
X119523061Y-117385000D01*
X119726939Y-117385000D01*
X119926898Y-117345226D01*
X120115256Y-117267205D01*
X120284774Y-117153937D01*
X120428937Y-117009774D01*
X120542205Y-116840256D01*
X120620226Y-116651898D01*
X120660000Y-116451939D01*
X120660000Y-116248061D01*
X120620226Y-116048102D01*
X120542205Y-115859744D01*
X120428937Y-115690226D01*
X120284774Y-115546063D01*
X120115256Y-115432795D01*
X119926898Y-115354774D01*
X119726939Y-115315000D01*
X119709802Y-115315000D01*
X120111008Y-114913795D01*
X120140001Y-114890001D01*
X120163795Y-114861008D01*
X120163799Y-114861004D01*
X120234973Y-114774277D01*
X120234974Y-114774276D01*
X120305546Y-114642247D01*
X120349003Y-114498986D01*
X120360000Y-114387333D01*
X120360000Y-114387324D01*
X120363676Y-114350001D01*
X120360000Y-114312678D01*
X120360000Y-113732520D01*
X120363676Y-113695197D01*
X120360000Y-113657875D01*
X120360000Y-113657865D01*
X120349003Y-113546212D01*
X120335000Y-113500049D01*
X120335000Y-113314801D01*
X120814802Y-112835000D01*
X120876939Y-112835000D01*
X120940000Y-112822456D01*
X120940001Y-120085197D01*
X118913990Y-122111209D01*
X118850724Y-122145026D01*
X118850722Y-122145027D01*
X118850723Y-122145027D01*
X118763996Y-122216201D01*
X118763992Y-122216205D01*
X118734999Y-122239999D01*
X118711205Y-122268992D01*
X115044003Y-125936196D01*
X115014999Y-125959999D01*
X114983594Y-125998266D01*
X114776589Y-126084010D01*
X114533368Y-126246525D01*
X114326525Y-126453368D01*
X114164010Y-126696589D01*
X114052068Y-126966842D01*
X113995000Y-127253740D01*
X113995000Y-127546260D01*
X114052068Y-127833158D01*
X114164010Y-128103411D01*
X114326525Y-128346632D01*
X114533368Y-128553475D01*
X114776589Y-128715990D01*
X115046842Y-128827932D01*
X115333740Y-128885000D01*
X115626260Y-128885000D01*
X115846408Y-128841210D01*
X116345198Y-129340000D01*
X108160000Y-129340000D01*
X108160000Y-100750000D01*
X108536928Y-100750000D01*
X108549188Y-100874482D01*
X108585498Y-100994180D01*
X108644463Y-101104494D01*
X108723815Y-101201185D01*
X108820506Y-101280537D01*
X108930820Y-101339502D01*
X109050518Y-101375812D01*
X109175000Y-101388072D01*
X109739250Y-101385000D01*
X109898000Y-101226250D01*
X109898000Y-100027000D01*
X108698750Y-100027000D01*
X108540000Y-100185750D01*
X108536928Y-100750000D01*
X108160000Y-100750000D01*
X108160000Y-98560000D01*
X108771111Y-98560000D01*
X108723815Y-98598815D01*
%TA.AperFunction,Conductor*%
D21*
G36*
X108723815Y-98598815D02*
G01*
X108644463Y-98695506D01*
X108585498Y-98805820D01*
X108549188Y-98925518D01*
X108536928Y-99050000D01*
X108540000Y-99614250D01*
X108698750Y-99773000D01*
X109898000Y-99773000D01*
X109898000Y-99753000D01*
X110152000Y-99753000D01*
X110152000Y-99773000D01*
X110172000Y-99773000D01*
X110172000Y-100027000D01*
X110152000Y-100027000D01*
X110152000Y-101226250D01*
X110310750Y-101385000D01*
X110875000Y-101388072D01*
X110999482Y-101375812D01*
X111119180Y-101339502D01*
X111229494Y-101280537D01*
X111326185Y-101201185D01*
X111405537Y-101104494D01*
X111464502Y-100994180D01*
X111486513Y-100921620D01*
X111618368Y-101053475D01*
X111861589Y-101215990D01*
X112131842Y-101327932D01*
X112418740Y-101385000D01*
X112711260Y-101385000D01*
X112998158Y-101327932D01*
X113268411Y-101215990D01*
X113511632Y-101053475D01*
X113718475Y-100846632D01*
X113835000Y-100672240D01*
X113951525Y-100846632D01*
X114158368Y-101053475D01*
X114401589Y-101215990D01*
X114452138Y-101236928D01*
X113824998Y-101236928D01*
X113651744Y-101253992D01*
X113485148Y-101304528D01*
X113331613Y-101386595D01*
X113197038Y-101497038D01*
X113086595Y-101631613D01*
X113004528Y-101785148D01*
X112953992Y-101951744D01*
X112936928Y-102124998D01*
X112936928Y-102650002D01*
X112953992Y-102823256D01*
X113004528Y-102989852D01*
X113086595Y-103143387D01*
X113197038Y-103277962D01*
X113223891Y-103300000D01*
X113197038Y-103322038D01*
X113086595Y-103456613D01*
X113004528Y-103610148D01*
X112953992Y-103776744D01*
X112936928Y-103949998D01*
X112936928Y-104475002D01*
X112953992Y-104648256D01*
X113004528Y-104814852D01*
X113086595Y-104968387D01*
X113197038Y-105102962D01*
X113331613Y-105213405D01*
X113485148Y-105295472D01*
X113651744Y-105346008D01*
X113824998Y-105363072D01*
X114238271Y-105363072D01*
X115336566Y-106461368D01*
X115326202Y-106473997D01*
X115326201Y-106473998D01*
X115255026Y-106560724D01*
X115184454Y-106692754D01*
X115168247Y-106746183D01*
X115161095Y-106769762D01*
X115071582Y-106721916D01*
X114923745Y-106677071D01*
X114770000Y-106661928D01*
X114470000Y-106661928D01*
X114316255Y-106677071D01*
X114168418Y-106721916D01*
X114032171Y-106794742D01*
X113912749Y-106892749D01*
X113814742Y-107012171D01*
X113741916Y-107148418D01*
X113697071Y-107296255D01*
X113690300Y-107365000D01*
X113658737Y-107365000D01*
X113602962Y-107297038D01*
X113576109Y-107275000D01*
X113602962Y-107252962D01*
X113713405Y-107118387D01*
X113795472Y-106964852D01*
X113846008Y-106798256D01*
X113863072Y-106625002D01*
X113863072Y-106099998D01*
X113846008Y-105926744D01*
X113795472Y-105760148D01*
X113713405Y-105606613D01*
X113602962Y-105472038D01*
X113468387Y-105361595D01*
X113314852Y-105279528D01*
X113148256Y-105228992D01*
X112975002Y-105211928D01*
X112074998Y-105211928D01*
X111901744Y-105228992D01*
X111735148Y-105279528D01*
X111581613Y-105361595D01*
X111447038Y-105472038D01*
X111440228Y-105480336D01*
X111339010Y-105490305D01*
X111172187Y-105540911D01*
X111018441Y-105623089D01*
X111018439Y-105623090D01*
X111018440Y-105623090D01*
X110917453Y-105705968D01*
X110917451Y-105705970D01*
X110883683Y-105733683D01*
X110855970Y-105767451D01*
X109904951Y-106718471D01*
X109871184Y-106746183D01*
X109843471Y-106779951D01*
X109843468Y-106779954D01*
X109760590Y-106880941D01*
X109678412Y-107034687D01*
X109627805Y-107201510D01*
X109610719Y-107375000D01*
X109615001Y-107418478D01*
X109615001Y-107861545D01*
X109582795Y-107909744D01*
X109504774Y-108098102D01*
X109465000Y-108298061D01*
X109465000Y-108501939D01*
X109504774Y-108701898D01*
X109582795Y-108890256D01*
X109696063Y-109059774D01*
X109840226Y-109203937D01*
X110009744Y-109317205D01*
X110198102Y-109395226D01*
X110398061Y-109435000D01*
X110430435Y-109435000D01*
X110428440Y-109455258D01*
X110421325Y-109527499D01*
X110425002Y-109564831D01*
X110425001Y-115522678D01*
X110421325Y-115560001D01*
X110425001Y-115597323D01*
X110425001Y-115597333D01*
X110435998Y-115708986D01*
X110459421Y-115786201D01*
X110479455Y-115852247D01*
X110550027Y-115984277D01*
X110554240Y-115989410D01*
X110645000Y-116100002D01*
X110674003Y-116123804D01*
X111436201Y-116886002D01*
X111459999Y-116915001D01*
X111575724Y-117009974D01*
X111669419Y-117060056D01*
X111611589Y-117084010D01*
X111368368Y-117246525D01*
X111236513Y-117378380D01*
X111214502Y-117305820D01*
X111155537Y-117195506D01*
X111076185Y-117098815D01*
X110979494Y-117019463D01*
X110869180Y-116960498D01*
X110749482Y-116924188D01*
X110625000Y-116911928D01*
X108925000Y-116911928D01*
X108800518Y-116924188D01*
X108680820Y-116960498D01*
X108570506Y-117019463D01*
X108473815Y-117098815D01*
X108394463Y-117195506D01*
X108335498Y-117305820D01*
X108299188Y-117425518D01*
X108286928Y-117550000D01*
X108286928Y-119250000D01*
X108299188Y-119374482D01*
X108335498Y-119494180D01*
X108394463Y-119604494D01*
X108473815Y-119701185D01*
X108570506Y-119780537D01*
X108680820Y-119839502D01*
X108753380Y-119861513D01*
X108621525Y-119993368D01*
X108459010Y-120236589D01*
X108347068Y-120506842D01*
X108290000Y-120793740D01*
X108290000Y-121086260D01*
X108347068Y-121373158D01*
X108459010Y-121643411D01*
X108621525Y-121886632D01*
X108828368Y-122093475D01*
X109071589Y-122255990D01*
X109341842Y-122367932D01*
X109628740Y-122425000D01*
X109921260Y-122425000D01*
X110208158Y-122367932D01*
X110478411Y-122255990D01*
X110721632Y-122093475D01*
X110928475Y-121886632D01*
X111045000Y-121712240D01*
X111161525Y-121886632D01*
X111368368Y-122093475D01*
X111611589Y-122255990D01*
X111881842Y-122367932D01*
X112168740Y-122425000D01*
X112461260Y-122425000D01*
X112748158Y-122367932D01*
X113018411Y-122255990D01*
X113261632Y-122093475D01*
X113468475Y-121886632D01*
X113630990Y-121643411D01*
X113742932Y-121373158D01*
X113800000Y-121086260D01*
X113800000Y-120793740D01*
X113742932Y-120506842D01*
X113630990Y-120236589D01*
X113468475Y-119993368D01*
X113261632Y-119786525D01*
X113087240Y-119670000D01*
X113261632Y-119553475D01*
X113468475Y-119346632D01*
X113630990Y-119103411D01*
X113742932Y-118833158D01*
X113800000Y-118546260D01*
X113800000Y-118253740D01*
X113742932Y-117966842D01*
X113630990Y-117696589D01*
X113468475Y-117453368D01*
X113261632Y-117246525D01*
X113094723Y-117135000D01*
X118946289Y-117135000D01*
X118965226Y-117153937D01*
X119134744Y-117267205D01*
X119323102Y-117345226D01*
X119523061Y-117385000D01*
X119726939Y-117385000D01*
X119926898Y-117345226D01*
X120115256Y-117267205D01*
X120284774Y-117153937D01*
X120428937Y-117009774D01*
X120542205Y-116840256D01*
X120620226Y-116651898D01*
X120660000Y-116451939D01*
X120660000Y-116248061D01*
X120620226Y-116048102D01*
X120542205Y-115859744D01*
X120428937Y-115690226D01*
X120284774Y-115546063D01*
X120115256Y-115432795D01*
X119926898Y-115354774D01*
X119726939Y-115315000D01*
X119709802Y-115315000D01*
X120111008Y-114913795D01*
X120140001Y-114890001D01*
X120163795Y-114861008D01*
X120163799Y-114861004D01*
X120234973Y-114774277D01*
X120234974Y-114774276D01*
X120305546Y-114642247D01*
X120349003Y-114498986D01*
X120360000Y-114387333D01*
X120360000Y-114387324D01*
X120363676Y-114350001D01*
X120360000Y-114312678D01*
X120360000Y-113732520D01*
X120363676Y-113695197D01*
X120360000Y-113657875D01*
X120360000Y-113657865D01*
X120349003Y-113546212D01*
X120335000Y-113500049D01*
X120335000Y-113314801D01*
X120814802Y-112835000D01*
X120876939Y-112835000D01*
X120940000Y-112822456D01*
X120940001Y-120085197D01*
X118913990Y-122111209D01*
X118850724Y-122145026D01*
X118850722Y-122145027D01*
X118850723Y-122145027D01*
X118763996Y-122216201D01*
X118763992Y-122216205D01*
X118734999Y-122239999D01*
X118711205Y-122268992D01*
X115044003Y-125936196D01*
X115014999Y-125959999D01*
X114983594Y-125998266D01*
X114776589Y-126084010D01*
X114533368Y-126246525D01*
X114326525Y-126453368D01*
X114164010Y-126696589D01*
X114052068Y-126966842D01*
X113995000Y-127253740D01*
X113995000Y-127546260D01*
X114052068Y-127833158D01*
X114164010Y-128103411D01*
X114326525Y-128346632D01*
X114533368Y-128553475D01*
X114776589Y-128715990D01*
X115046842Y-128827932D01*
X115333740Y-128885000D01*
X115626260Y-128885000D01*
X115846408Y-128841210D01*
X116345198Y-129340000D01*
X108160000Y-129340000D01*
X108160000Y-100750000D01*
X108536928Y-100750000D01*
X108549188Y-100874482D01*
X108585498Y-100994180D01*
X108644463Y-101104494D01*
X108723815Y-101201185D01*
X108820506Y-101280537D01*
X108930820Y-101339502D01*
X109050518Y-101375812D01*
X109175000Y-101388072D01*
X109739250Y-101385000D01*
X109898000Y-101226250D01*
X109898000Y-100027000D01*
X108698750Y-100027000D01*
X108540000Y-100185750D01*
X108536928Y-100750000D01*
X108160000Y-100750000D01*
X108160000Y-98560000D01*
X108771111Y-98560000D01*
X108723815Y-98598815D01*
G37*
%TD.AperFunction*%
D20*
X156440000Y-129340000D02*
X153654801Y-129340000D01*
X154153592Y-128841209D01*
X154373740Y-128885000D01*
X154666260Y-128885000D01*
X154953158Y-128827932D01*
X155223411Y-128715990D01*
X155466632Y-128553475D01*
X155673475Y-128346632D01*
X155835990Y-128103411D01*
X155947932Y-127833158D01*
X156005000Y-127546260D01*
X156005000Y-127253740D01*
X155947932Y-126966842D01*
X155835990Y-126696589D01*
X155673475Y-126453368D01*
X155466632Y-126246525D01*
X155223411Y-126084010D01*
X154953158Y-125972068D01*
X154666260Y-125915000D01*
X154373740Y-125915000D01*
X154086842Y-125972068D01*
X153816589Y-126084010D01*
X153573368Y-126246525D01*
X153366525Y-126453368D01*
X153250000Y-126627760D01*
X153133475Y-126453368D01*
X152926632Y-126246525D01*
X152683411Y-126084010D01*
X152413158Y-125972068D01*
X152126260Y-125915000D01*
X151833740Y-125915000D01*
X151546842Y-125972068D01*
X151276589Y-126084010D01*
X151033368Y-126246525D01*
X150826525Y-126453368D01*
X150704805Y-126635534D01*
X150635178Y-126518645D01*
X150440269Y-126302412D01*
X150206920Y-126128359D01*
X149944099Y-126003175D01*
X149796890Y-125958524D01*
X149567000Y-126079845D01*
X149567000Y-127273000D01*
X149587000Y-127273000D01*
X149587000Y-127527000D01*
X149567000Y-127527000D01*
X149567000Y-127547000D01*
X149313000Y-127547000D01*
X149313000Y-127527000D01*
X149293000Y-127527000D01*
X149293000Y-127273000D01*
X149313000Y-127273000D01*
X149313000Y-126079845D01*
X149083110Y-125958524D01*
X148935901Y-126003175D01*
X148673080Y-126128359D01*
X148439731Y-126302412D01*
X148363966Y-126386466D01*
X148339502Y-126305820D01*
X148280537Y-126195506D01*
X148201185Y-126098815D01*
X148104494Y-126019463D01*
X147994180Y-125960498D01*
X147874482Y-125924188D01*
X147750000Y-125911928D01*
X146050000Y-125911928D01*
X145925518Y-125924188D01*
X145805820Y-125960498D01*
X145695506Y-126019463D01*
X145598815Y-126098815D01*
X145519463Y-126195506D01*
X145460498Y-126305820D01*
X145424188Y-126425518D01*
X145411928Y-126550000D01*
X145411928Y-127940000D01*
X138482006Y-127940000D01*
X138597020Y-127858865D01*
X138750318Y-127697601D01*
X138869210Y-127509529D01*
X138949126Y-127301876D01*
X138824129Y-127127000D01*
X137982000Y-127127000D01*
X137982000Y-127147000D01*
X137728000Y-127147000D01*
X137728000Y-127127000D01*
X137716974Y-127127000D01*
X137720000Y-127111788D01*
X137720000Y-126888212D01*
X137716974Y-126873000D01*
X137728000Y-126873000D01*
X137728000Y-126861974D01*
X137743212Y-126865000D01*
X137966788Y-126865000D01*
X137982000Y-126861974D01*
X137982000Y-126873000D01*
X138824129Y-126873000D01*
X138949126Y-126698124D01*
X138869210Y-126490471D01*
X138792744Y-126369512D01*
X138860824Y-126267624D01*
X138946383Y-126061067D01*
X138990000Y-125841788D01*
X138990000Y-125669801D01*
X140324802Y-124335000D01*
X154467480Y-124335000D01*
X154504802Y-124338676D01*
X154542124Y-124335000D01*
X154542135Y-124335000D01*
X154653788Y-124324003D01*
X154797049Y-124280546D01*
X154929078Y-124209974D01*
X155044803Y-124115001D01*
X155068606Y-124085997D01*
X156440001Y-122714603D01*
X156440000Y-129340000D01*
%TA.AperFunction,Conductor*%
D21*
G36*
X156440000Y-129340000D02*
G01*
X153654801Y-129340000D01*
X154153592Y-128841209D01*
X154373740Y-128885000D01*
X154666260Y-128885000D01*
X154953158Y-128827932D01*
X155223411Y-128715990D01*
X155466632Y-128553475D01*
X155673475Y-128346632D01*
X155835990Y-128103411D01*
X155947932Y-127833158D01*
X156005000Y-127546260D01*
X156005000Y-127253740D01*
X155947932Y-126966842D01*
X155835990Y-126696589D01*
X155673475Y-126453368D01*
X155466632Y-126246525D01*
X155223411Y-126084010D01*
X154953158Y-125972068D01*
X154666260Y-125915000D01*
X154373740Y-125915000D01*
X154086842Y-125972068D01*
X153816589Y-126084010D01*
X153573368Y-126246525D01*
X153366525Y-126453368D01*
X153250000Y-126627760D01*
X153133475Y-126453368D01*
X152926632Y-126246525D01*
X152683411Y-126084010D01*
X152413158Y-125972068D01*
X152126260Y-125915000D01*
X151833740Y-125915000D01*
X151546842Y-125972068D01*
X151276589Y-126084010D01*
X151033368Y-126246525D01*
X150826525Y-126453368D01*
X150704805Y-126635534D01*
X150635178Y-126518645D01*
X150440269Y-126302412D01*
X150206920Y-126128359D01*
X149944099Y-126003175D01*
X149796890Y-125958524D01*
X149567000Y-126079845D01*
X149567000Y-127273000D01*
X149587000Y-127273000D01*
X149587000Y-127527000D01*
X149567000Y-127527000D01*
X149567000Y-127547000D01*
X149313000Y-127547000D01*
X149313000Y-127527000D01*
X149293000Y-127527000D01*
X149293000Y-127273000D01*
X149313000Y-127273000D01*
X149313000Y-126079845D01*
X149083110Y-125958524D01*
X148935901Y-126003175D01*
X148673080Y-126128359D01*
X148439731Y-126302412D01*
X148363966Y-126386466D01*
X148339502Y-126305820D01*
X148280537Y-126195506D01*
X148201185Y-126098815D01*
X148104494Y-126019463D01*
X147994180Y-125960498D01*
X147874482Y-125924188D01*
X147750000Y-125911928D01*
X146050000Y-125911928D01*
X145925518Y-125924188D01*
X145805820Y-125960498D01*
X145695506Y-126019463D01*
X145598815Y-126098815D01*
X145519463Y-126195506D01*
X145460498Y-126305820D01*
X145424188Y-126425518D01*
X145411928Y-126550000D01*
X145411928Y-127940000D01*
X138482006Y-127940000D01*
X138597020Y-127858865D01*
X138750318Y-127697601D01*
X138869210Y-127509529D01*
X138949126Y-127301876D01*
X138824129Y-127127000D01*
X137982000Y-127127000D01*
X137982000Y-127147000D01*
X137728000Y-127147000D01*
X137728000Y-127127000D01*
X137716974Y-127127000D01*
X137720000Y-127111788D01*
X137720000Y-126888212D01*
X137716974Y-126873000D01*
X137728000Y-126873000D01*
X137728000Y-126861974D01*
X137743212Y-126865000D01*
X137966788Y-126865000D01*
X137982000Y-126861974D01*
X137982000Y-126873000D01*
X138824129Y-126873000D01*
X138949126Y-126698124D01*
X138869210Y-126490471D01*
X138792744Y-126369512D01*
X138860824Y-126267624D01*
X138946383Y-126061067D01*
X138990000Y-125841788D01*
X138990000Y-125669801D01*
X140324802Y-124335000D01*
X154467480Y-124335000D01*
X154504802Y-124338676D01*
X154542124Y-124335000D01*
X154542135Y-124335000D01*
X154653788Y-124324003D01*
X154797049Y-124280546D01*
X154929078Y-124209974D01*
X155044803Y-124115001D01*
X155068606Y-124085997D01*
X156440001Y-122714603D01*
X156440000Y-129340000D01*
G37*
%TD.AperFunction*%
D20*
X132589946Y-98980808D02*
X130911024Y-99822814D01*
X130496590Y-100099730D01*
X129452775Y-101173170D01*
X136025000Y-107745395D01*
X142597225Y-101173170D01*
X141553410Y-100099730D01*
X139920549Y-99171551D01*
X138137984Y-98579762D01*
X137979674Y-98560000D01*
X156440001Y-98560000D01*
X156440001Y-106193293D01*
X156390137Y-106100006D01*
X156310785Y-106003315D01*
X156214094Y-105923963D01*
X156103780Y-105864998D01*
X155984082Y-105828688D01*
X155859600Y-105816428D01*
X154640400Y-105816428D01*
X154515918Y-105828688D01*
X154396220Y-105864998D01*
X154285906Y-105923963D01*
X154189215Y-106003315D01*
X154170023Y-106026700D01*
X153389000Y-106026700D01*
X153228556Y-105919495D01*
X153040198Y-105841474D01*
X152840239Y-105801700D01*
X152636361Y-105801700D01*
X152436402Y-105841474D01*
X152248044Y-105919495D01*
X152078526Y-106032763D01*
X151934363Y-106176926D01*
X151821095Y-106346444D01*
X151743074Y-106534802D01*
X151703300Y-106734761D01*
X151703300Y-106938639D01*
X151742091Y-107133659D01*
X151627000Y-107248750D01*
X151627000Y-108098000D01*
X153373000Y-108098000D01*
X153373000Y-108078000D01*
X153627000Y-108078000D01*
X153627000Y-108098000D01*
X153647000Y-108098000D01*
X153647000Y-108352000D01*
X153627000Y-108352000D01*
X153627000Y-108372000D01*
X153373000Y-108372000D01*
X153373000Y-108352000D01*
X151627000Y-108352000D01*
X151627000Y-108372000D01*
X151373000Y-108372000D01*
X151373000Y-108352000D01*
X151353000Y-108352000D01*
X151353000Y-108098000D01*
X151373000Y-108098000D01*
X151373000Y-107248750D01*
X151214250Y-107090000D01*
X150775000Y-107086928D01*
X150650518Y-107099188D01*
X150530820Y-107135498D01*
X150420506Y-107194463D01*
X150323815Y-107273815D01*
X150244463Y-107370506D01*
X150185498Y-107480820D01*
X150149188Y-107600518D01*
X150136928Y-107725000D01*
X150140000Y-107939250D01*
X150298748Y-108097998D01*
X150286276Y-108097998D01*
X149937384Y-107749106D01*
X149909667Y-107715333D01*
X149774909Y-107604739D01*
X149621163Y-107522561D01*
X149454340Y-107471955D01*
X149363072Y-107462966D01*
X149363072Y-105375000D01*
X149350812Y-105250518D01*
X149314502Y-105130820D01*
X149255537Y-105020506D01*
X149176185Y-104923815D01*
X149098426Y-104860000D01*
X149226939Y-104860000D01*
X149426898Y-104820226D01*
X149615256Y-104742205D01*
X149784774Y-104628937D01*
X149928937Y-104484774D01*
X150042205Y-104315256D01*
X150120226Y-104126898D01*
X150160000Y-103926939D01*
X150160000Y-103723061D01*
X150120226Y-103523102D01*
X150042205Y-103334744D01*
X149928937Y-103165226D01*
X149784774Y-103021063D01*
X149615256Y-102907795D01*
X149426898Y-102829774D01*
X149226939Y-102790000D01*
X149023061Y-102790000D01*
X148823102Y-102829774D01*
X148634744Y-102907795D01*
X148465226Y-103021063D01*
X148321063Y-103165226D01*
X148207795Y-103334744D01*
X148129774Y-103523102D01*
X148090000Y-103723061D01*
X148090000Y-103926939D01*
X148129774Y-104126898D01*
X148207795Y-104315256D01*
X148321063Y-104484774D01*
X148465226Y-104628937D01*
X148626846Y-104736928D01*
X146225000Y-104736928D01*
X146100518Y-104749188D01*
X145980820Y-104785498D01*
X145870506Y-104844463D01*
X145773815Y-104923815D01*
X145694463Y-105020506D01*
X145635498Y-105130820D01*
X145599188Y-105250518D01*
X145586928Y-105375000D01*
X145586928Y-107953345D01*
X145467478Y-106300875D01*
X144969192Y-104489946D01*
X144127186Y-102811024D01*
X143850270Y-102396590D01*
X142776830Y-101352775D01*
X136204605Y-107925000D01*
X142776830Y-114497225D01*
X143850270Y-113453410D01*
X144778449Y-111820549D01*
X145370238Y-110037984D01*
X145586928Y-108302119D01*
X145586928Y-110475000D01*
X145599188Y-110599482D01*
X145635498Y-110719180D01*
X145694463Y-110829494D01*
X145773815Y-110926185D01*
X145870506Y-111005537D01*
X145980820Y-111064502D01*
X146100518Y-111100812D01*
X146225000Y-111113072D01*
X148725000Y-111113072D01*
X148849482Y-111100812D01*
X148969180Y-111064502D01*
X149079494Y-111005537D01*
X149176185Y-110926185D01*
X149255537Y-110829494D01*
X149314502Y-110719180D01*
X149350812Y-110599482D01*
X149363072Y-110475000D01*
X149363072Y-109677950D01*
X150145319Y-110460198D01*
X150153992Y-110548254D01*
X150204528Y-110714850D01*
X150286595Y-110868386D01*
X150397038Y-111002962D01*
X150531614Y-111113405D01*
X150685150Y-111195472D01*
X150851746Y-111246008D01*
X151025000Y-111263072D01*
X151975000Y-111263072D01*
X152148254Y-111246008D01*
X152314850Y-111195472D01*
X152468386Y-111113405D01*
X152500000Y-111087460D01*
X152531614Y-111113405D01*
X152685150Y-111195472D01*
X152851746Y-111246008D01*
X153025000Y-111263072D01*
X153975000Y-111263072D01*
X154148254Y-111246008D01*
X154314850Y-111195472D01*
X154318558Y-111193490D01*
X154396220Y-111235002D01*
X154515918Y-111271312D01*
X154640400Y-111283572D01*
X155859600Y-111283572D01*
X155984082Y-111271312D01*
X156103780Y-111235002D01*
X156214094Y-111176037D01*
X156310785Y-111096685D01*
X156390137Y-110999994D01*
X156440000Y-110906708D01*
X156440000Y-114051396D01*
X154877606Y-112489002D01*
X154853803Y-112459999D01*
X154738078Y-112365026D01*
X154606049Y-112294454D01*
X154462788Y-112250997D01*
X154351135Y-112240000D01*
X154351124Y-112240000D01*
X154313802Y-112236324D01*
X154276480Y-112240000D01*
X151553711Y-112240000D01*
X151509774Y-112196063D01*
X151340256Y-112082795D01*
X151151898Y-112004774D01*
X150951939Y-111965000D01*
X150748061Y-111965000D01*
X150548102Y-112004774D01*
X150359744Y-112082795D01*
X150190226Y-112196063D01*
X150046063Y-112340226D01*
X149932795Y-112509744D01*
X149854774Y-112698102D01*
X149815000Y-112898061D01*
X149815000Y-113101939D01*
X149854774Y-113301898D01*
X149932795Y-113490256D01*
X150046063Y-113659774D01*
X150190226Y-113803937D01*
X150359744Y-113917205D01*
X150548102Y-113995226D01*
X150748061Y-114035000D01*
X150951939Y-114035000D01*
X151151898Y-113995226D01*
X151340256Y-113917205D01*
X151509774Y-113803937D01*
X151553711Y-113760000D01*
X153999001Y-113760000D01*
X154912644Y-114673645D01*
X154871063Y-114715226D01*
X154757795Y-114884744D01*
X154679774Y-115073102D01*
X154640000Y-115273061D01*
X154640000Y-115335198D01*
X153235199Y-116740000D01*
X139717657Y-116740000D01*
X141138976Y-116027186D01*
X141553410Y-115750270D01*
X142597225Y-114676830D01*
X136025000Y-108104605D01*
X129452775Y-114676830D01*
X130496590Y-115750270D01*
X132129451Y-116678449D01*
X132349427Y-116751478D01*
X132207753Y-116794454D01*
X132075724Y-116865026D01*
X131959999Y-116959999D01*
X131936201Y-116988997D01*
X130861858Y-118063341D01*
X130827962Y-118022038D01*
X130693387Y-117911595D01*
X130539852Y-117829528D01*
X130373256Y-117778992D01*
X130200002Y-117761928D01*
X129674998Y-117761928D01*
X129501744Y-117778992D01*
X129335148Y-117829528D01*
X129181613Y-117911595D01*
X129047038Y-118022038D01*
X129025000Y-118048891D01*
X129002962Y-118022038D01*
X128868387Y-117911595D01*
X128714852Y-117829528D01*
X128548256Y-117778992D01*
X128375002Y-117761928D01*
X127849998Y-117761928D01*
X127676744Y-117778992D01*
X127510148Y-117829528D01*
X127356613Y-117911595D01*
X127222038Y-118022038D01*
X127111595Y-118156613D01*
X127056193Y-118260262D01*
X126940256Y-118182795D01*
X126751898Y-118104774D01*
X126551939Y-118065000D01*
X126348061Y-118065000D01*
X126148102Y-118104774D01*
X125959744Y-118182795D01*
X125790226Y-118296063D01*
X125646063Y-118440226D01*
X125620000Y-118479232D01*
X125620000Y-117078711D01*
X125663937Y-117034774D01*
X125777205Y-116865256D01*
X125855226Y-116676898D01*
X125895000Y-116476939D01*
X125895000Y-116273061D01*
X125855226Y-116073102D01*
X125777205Y-115884744D01*
X125663937Y-115715226D01*
X125519774Y-115571063D01*
X125350256Y-115457795D01*
X125161898Y-115379774D01*
X124961939Y-115340000D01*
X124758061Y-115340000D01*
X124558102Y-115379774D01*
X124369744Y-115457795D01*
X124200226Y-115571063D01*
X124056063Y-115715226D01*
X123942795Y-115884744D01*
X123864774Y-116073102D01*
X123825000Y-116273061D01*
X123825000Y-116476939D01*
X123864774Y-116676898D01*
X123942795Y-116865256D01*
X124056063Y-117034774D01*
X124100000Y-117078711D01*
X124100001Y-119447668D01*
X124096324Y-119485000D01*
X124100001Y-119522333D01*
X124110998Y-119633986D01*
X124120042Y-119663799D01*
X124154454Y-119777246D01*
X124225026Y-119909276D01*
X124279560Y-119975725D01*
X124320000Y-120025001D01*
X124348998Y-120048799D01*
X125636201Y-121336003D01*
X125659999Y-121365001D01*
X125775724Y-121459974D01*
X125907753Y-121530546D01*
X126051014Y-121574003D01*
X126162667Y-121585000D01*
X126162676Y-121585000D01*
X126199999Y-121588676D01*
X126237322Y-121585000D01*
X130512678Y-121585000D01*
X130550000Y-121588676D01*
X130587322Y-121585000D01*
X130587333Y-121585000D01*
X130698986Y-121574003D01*
X130842247Y-121530546D01*
X130974276Y-121459974D01*
X131090001Y-121365001D01*
X131113804Y-121335997D01*
X133164802Y-119285000D01*
X137871289Y-119285000D01*
X137915226Y-119328937D01*
X138084744Y-119442205D01*
X138273102Y-119520226D01*
X138473061Y-119560000D01*
X138676939Y-119560000D01*
X138876898Y-119520226D01*
X139065256Y-119442205D01*
X139234774Y-119328937D01*
X139378937Y-119184774D01*
X139492205Y-119015256D01*
X139570226Y-118826898D01*
X139610000Y-118626939D01*
X139610000Y-118423061D01*
X139577565Y-118260000D01*
X140546928Y-118260000D01*
X140546928Y-119900000D01*
X140559188Y-120024482D01*
X140595498Y-120144180D01*
X140654463Y-120254494D01*
X140733815Y-120351185D01*
X140830506Y-120430537D01*
X140940820Y-120489502D01*
X141013380Y-120511513D01*
X140881525Y-120643368D01*
X140719010Y-120886589D01*
X140607068Y-121156842D01*
X140550000Y-121443740D01*
X140550000Y-121736260D01*
X140607068Y-122023158D01*
X140719010Y-122293411D01*
X140881525Y-122536632D01*
X141088368Y-122743475D01*
X141195413Y-122815000D01*
X140047322Y-122815000D01*
X140009999Y-122811324D01*
X139972676Y-122815000D01*
X139972667Y-122815000D01*
X139861014Y-122825997D01*
X139717753Y-122869454D01*
X139585724Y-122940026D01*
X139469999Y-123034999D01*
X139446201Y-123063997D01*
X137915199Y-124595000D01*
X137743212Y-124595000D01*
X137523933Y-124638617D01*
X137317376Y-124724176D01*
X137220000Y-124789241D01*
X137122624Y-124724176D01*
X136916067Y-124638617D01*
X136696788Y-124595000D01*
X136473212Y-124595000D01*
X136253933Y-124638617D01*
X136047376Y-124724176D01*
X135950000Y-124789241D01*
X135852624Y-124724176D01*
X135646067Y-124638617D01*
X135426788Y-124595000D01*
X135203212Y-124595000D01*
X134983933Y-124638617D01*
X134777376Y-124724176D01*
X134680000Y-124789241D01*
X134582624Y-124724176D01*
X134376067Y-124638617D01*
X134156788Y-124595000D01*
X133933212Y-124595000D01*
X133713933Y-124638617D01*
X133507376Y-124724176D01*
X133410000Y-124789241D01*
X133312624Y-124724176D01*
X133106067Y-124638617D01*
X132886788Y-124595000D01*
X132663212Y-124595000D01*
X132443933Y-124638617D01*
X132237376Y-124724176D01*
X132051480Y-124848388D01*
X131893388Y-125006480D01*
X131769176Y-125192376D01*
X131683617Y-125398933D01*
X131640000Y-125618212D01*
X131640000Y-125841788D01*
X131683617Y-126061067D01*
X131729888Y-126172774D01*
X131685498Y-126255820D01*
X131649188Y-126375518D01*
X131636928Y-126500000D01*
X131636928Y-127500000D01*
X131649188Y-127624482D01*
X131685498Y-127744180D01*
X131744463Y-127854494D01*
X131814636Y-127940000D01*
X124588072Y-127940000D01*
X124588072Y-126550000D01*
X124575812Y-126425518D01*
X124539502Y-126305820D01*
X124480537Y-126195506D01*
X124401185Y-126098815D01*
X124304494Y-126019463D01*
X124194180Y-125960498D01*
X124074482Y-125924188D01*
X123950000Y-125911928D01*
X122250000Y-125911928D01*
X122125518Y-125924188D01*
X122005820Y-125960498D01*
X121895506Y-126019463D01*
X121798815Y-126098815D01*
X121719463Y-126195506D01*
X121660498Y-126305820D01*
X121636034Y-126386466D01*
X121560269Y-126302412D01*
X121326920Y-126128359D01*
X121064099Y-126003175D01*
X120916890Y-125958524D01*
X120687000Y-126079845D01*
X120687000Y-127273000D01*
X120707000Y-127273000D01*
X120707000Y-127527000D01*
X120687000Y-127527000D01*
X120687000Y-127547000D01*
X120433000Y-127547000D01*
X120433000Y-127527000D01*
X120413000Y-127527000D01*
X120413000Y-127273000D01*
X120433000Y-127273000D01*
X120433000Y-126079845D01*
X120203110Y-125958524D01*
X120055901Y-126003175D01*
X119793080Y-126128359D01*
X119559731Y-126302412D01*
X119364822Y-126518645D01*
X119295195Y-126635534D01*
X119173475Y-126453368D01*
X118966632Y-126246525D01*
X118855000Y-126171935D01*
X118855000Y-125519801D01*
X120288440Y-124086361D01*
X126076700Y-124086361D01*
X126076700Y-124290239D01*
X126116474Y-124490198D01*
X126194495Y-124678556D01*
X126307763Y-124848074D01*
X126451926Y-124992237D01*
X126621444Y-125105505D01*
X126809802Y-125183526D01*
X127009761Y-125223300D01*
X127213639Y-125223300D01*
X127413598Y-125183526D01*
X127601956Y-125105505D01*
X127771474Y-124992237D01*
X127915637Y-124848074D01*
X128028905Y-124678556D01*
X128106926Y-124490198D01*
X128146700Y-124290239D01*
X128146700Y-124086361D01*
X128106926Y-123886402D01*
X128028905Y-123698044D01*
X127915637Y-123528526D01*
X127771474Y-123384363D01*
X127601956Y-123271095D01*
X127413598Y-123193074D01*
X127213639Y-123153300D01*
X127009761Y-123153300D01*
X126809802Y-123193074D01*
X126621444Y-123271095D01*
X126451926Y-123384363D01*
X126307763Y-123528526D01*
X126194495Y-123698044D01*
X126116474Y-123886402D01*
X126076700Y-124086361D01*
X120288440Y-124086361D01*
X122961003Y-121413799D01*
X122990001Y-121390001D01*
X123016332Y-121357917D01*
X123084974Y-121274277D01*
X123155546Y-121142247D01*
X123199003Y-120998986D01*
X123210000Y-120887333D01*
X123210000Y-120887324D01*
X123213676Y-120850001D01*
X123210000Y-120812678D01*
X123210000Y-111101746D01*
X123325000Y-111113072D01*
X125825000Y-111113072D01*
X125949482Y-111100812D01*
X126069180Y-111064502D01*
X126179494Y-111005537D01*
X126276185Y-110926185D01*
X126355537Y-110829494D01*
X126414502Y-110719180D01*
X126450812Y-110599482D01*
X126463072Y-110475000D01*
X126463072Y-107896655D01*
X126582522Y-109549125D01*
X127080808Y-111360054D01*
X127922814Y-113038976D01*
X128199730Y-113453410D01*
X129273170Y-114497225D01*
X135845395Y-107925000D01*
X129273170Y-101352775D01*
X128199730Y-102396590D01*
X127271551Y-104029451D01*
X126679762Y-105812016D01*
X126463072Y-107547881D01*
X126463072Y-105375000D01*
X126450812Y-105250518D01*
X126414502Y-105130820D01*
X126355537Y-105020506D01*
X126276185Y-104923815D01*
X126179494Y-104844463D01*
X126069180Y-104785498D01*
X125949482Y-104749188D01*
X125825000Y-104736928D01*
X123325000Y-104736928D01*
X123200518Y-104749188D01*
X123080820Y-104785498D01*
X122970506Y-104844463D01*
X122873815Y-104923815D01*
X122794463Y-105020506D01*
X122735498Y-105130820D01*
X122699188Y-105250518D01*
X122686928Y-105375000D01*
X122686928Y-106912126D01*
X119860000Y-104085199D01*
X119860000Y-104023061D01*
X119820226Y-103823102D01*
X119742205Y-103634744D01*
X119628937Y-103465226D01*
X119484774Y-103321063D01*
X119315256Y-103207795D01*
X119126898Y-103129774D01*
X118926939Y-103090000D01*
X118723061Y-103090000D01*
X118523102Y-103129774D01*
X118334744Y-103207795D01*
X118165226Y-103321063D01*
X118033789Y-103452500D01*
X117635030Y-103452500D01*
X117527962Y-103322038D01*
X117501109Y-103300000D01*
X117527962Y-103277962D01*
X117638405Y-103143387D01*
X117720472Y-102989852D01*
X117771008Y-102823256D01*
X117788072Y-102650002D01*
X117788072Y-102124998D01*
X117771008Y-101951744D01*
X117720472Y-101785148D01*
X117638405Y-101631613D01*
X117527962Y-101497038D01*
X117402502Y-101394076D01*
X117426039Y-101370539D01*
X117498740Y-101385000D01*
X117791260Y-101385000D01*
X118078158Y-101327932D01*
X118348411Y-101215990D01*
X118591632Y-101053475D01*
X118798475Y-100846632D01*
X118960990Y-100603411D01*
X119072932Y-100333158D01*
X119130000Y-100046260D01*
X119130000Y-99753740D01*
X119072932Y-99466842D01*
X118960990Y-99196589D01*
X118798475Y-98953368D01*
X118591632Y-98746525D01*
X118348411Y-98584010D01*
X118290445Y-98560000D01*
X134119295Y-98560000D01*
X132589946Y-98980808D01*
%TA.AperFunction,Conductor*%
D21*
G36*
X132589946Y-98980808D02*
G01*
X130911024Y-99822814D01*
X130496590Y-100099730D01*
X129452775Y-101173170D01*
X136025000Y-107745395D01*
X142597225Y-101173170D01*
X141553410Y-100099730D01*
X139920549Y-99171551D01*
X138137984Y-98579762D01*
X137979674Y-98560000D01*
X156440001Y-98560000D01*
X156440001Y-106193293D01*
X156390137Y-106100006D01*
X156310785Y-106003315D01*
X156214094Y-105923963D01*
X156103780Y-105864998D01*
X155984082Y-105828688D01*
X155859600Y-105816428D01*
X154640400Y-105816428D01*
X154515918Y-105828688D01*
X154396220Y-105864998D01*
X154285906Y-105923963D01*
X154189215Y-106003315D01*
X154170023Y-106026700D01*
X153389000Y-106026700D01*
X153228556Y-105919495D01*
X153040198Y-105841474D01*
X152840239Y-105801700D01*
X152636361Y-105801700D01*
X152436402Y-105841474D01*
X152248044Y-105919495D01*
X152078526Y-106032763D01*
X151934363Y-106176926D01*
X151821095Y-106346444D01*
X151743074Y-106534802D01*
X151703300Y-106734761D01*
X151703300Y-106938639D01*
X151742091Y-107133659D01*
X151627000Y-107248750D01*
X151627000Y-108098000D01*
X153373000Y-108098000D01*
X153373000Y-108078000D01*
X153627000Y-108078000D01*
X153627000Y-108098000D01*
X153647000Y-108098000D01*
X153647000Y-108352000D01*
X153627000Y-108352000D01*
X153627000Y-108372000D01*
X153373000Y-108372000D01*
X153373000Y-108352000D01*
X151627000Y-108352000D01*
X151627000Y-108372000D01*
X151373000Y-108372000D01*
X151373000Y-108352000D01*
X151353000Y-108352000D01*
X151353000Y-108098000D01*
X151373000Y-108098000D01*
X151373000Y-107248750D01*
X151214250Y-107090000D01*
X150775000Y-107086928D01*
X150650518Y-107099188D01*
X150530820Y-107135498D01*
X150420506Y-107194463D01*
X150323815Y-107273815D01*
X150244463Y-107370506D01*
X150185498Y-107480820D01*
X150149188Y-107600518D01*
X150136928Y-107725000D01*
X150140000Y-107939250D01*
X150298748Y-108097998D01*
X150286276Y-108097998D01*
X149937384Y-107749106D01*
X149909667Y-107715333D01*
X149774909Y-107604739D01*
X149621163Y-107522561D01*
X149454340Y-107471955D01*
X149363072Y-107462966D01*
X149363072Y-105375000D01*
X149350812Y-105250518D01*
X149314502Y-105130820D01*
X149255537Y-105020506D01*
X149176185Y-104923815D01*
X149098426Y-104860000D01*
X149226939Y-104860000D01*
X149426898Y-104820226D01*
X149615256Y-104742205D01*
X149784774Y-104628937D01*
X149928937Y-104484774D01*
X150042205Y-104315256D01*
X150120226Y-104126898D01*
X150160000Y-103926939D01*
X150160000Y-103723061D01*
X150120226Y-103523102D01*
X150042205Y-103334744D01*
X149928937Y-103165226D01*
X149784774Y-103021063D01*
X149615256Y-102907795D01*
X149426898Y-102829774D01*
X149226939Y-102790000D01*
X149023061Y-102790000D01*
X148823102Y-102829774D01*
X148634744Y-102907795D01*
X148465226Y-103021063D01*
X148321063Y-103165226D01*
X148207795Y-103334744D01*
X148129774Y-103523102D01*
X148090000Y-103723061D01*
X148090000Y-103926939D01*
X148129774Y-104126898D01*
X148207795Y-104315256D01*
X148321063Y-104484774D01*
X148465226Y-104628937D01*
X148626846Y-104736928D01*
X146225000Y-104736928D01*
X146100518Y-104749188D01*
X145980820Y-104785498D01*
X145870506Y-104844463D01*
X145773815Y-104923815D01*
X145694463Y-105020506D01*
X145635498Y-105130820D01*
X145599188Y-105250518D01*
X145586928Y-105375000D01*
X145586928Y-107953345D01*
X145467478Y-106300875D01*
X144969192Y-104489946D01*
X144127186Y-102811024D01*
X143850270Y-102396590D01*
X142776830Y-101352775D01*
X136204605Y-107925000D01*
X142776830Y-114497225D01*
X143850270Y-113453410D01*
X144778449Y-111820549D01*
X145370238Y-110037984D01*
X145586928Y-108302119D01*
X145586928Y-110475000D01*
X145599188Y-110599482D01*
X145635498Y-110719180D01*
X145694463Y-110829494D01*
X145773815Y-110926185D01*
X145870506Y-111005537D01*
X145980820Y-111064502D01*
X146100518Y-111100812D01*
X146225000Y-111113072D01*
X148725000Y-111113072D01*
X148849482Y-111100812D01*
X148969180Y-111064502D01*
X149079494Y-111005537D01*
X149176185Y-110926185D01*
X149255537Y-110829494D01*
X149314502Y-110719180D01*
X149350812Y-110599482D01*
X149363072Y-110475000D01*
X149363072Y-109677950D01*
X150145319Y-110460198D01*
X150153992Y-110548254D01*
X150204528Y-110714850D01*
X150286595Y-110868386D01*
X150397038Y-111002962D01*
X150531614Y-111113405D01*
X150685150Y-111195472D01*
X150851746Y-111246008D01*
X151025000Y-111263072D01*
X151975000Y-111263072D01*
X152148254Y-111246008D01*
X152314850Y-111195472D01*
X152468386Y-111113405D01*
X152500000Y-111087460D01*
X152531614Y-111113405D01*
X152685150Y-111195472D01*
X152851746Y-111246008D01*
X153025000Y-111263072D01*
X153975000Y-111263072D01*
X154148254Y-111246008D01*
X154314850Y-111195472D01*
X154318558Y-111193490D01*
X154396220Y-111235002D01*
X154515918Y-111271312D01*
X154640400Y-111283572D01*
X155859600Y-111283572D01*
X155984082Y-111271312D01*
X156103780Y-111235002D01*
X156214094Y-111176037D01*
X156310785Y-111096685D01*
X156390137Y-110999994D01*
X156440000Y-110906708D01*
X156440000Y-114051396D01*
X154877606Y-112489002D01*
X154853803Y-112459999D01*
X154738078Y-112365026D01*
X154606049Y-112294454D01*
X154462788Y-112250997D01*
X154351135Y-112240000D01*
X154351124Y-112240000D01*
X154313802Y-112236324D01*
X154276480Y-112240000D01*
X151553711Y-112240000D01*
X151509774Y-112196063D01*
X151340256Y-112082795D01*
X151151898Y-112004774D01*
X150951939Y-111965000D01*
X150748061Y-111965000D01*
X150548102Y-112004774D01*
X150359744Y-112082795D01*
X150190226Y-112196063D01*
X150046063Y-112340226D01*
X149932795Y-112509744D01*
X149854774Y-112698102D01*
X149815000Y-112898061D01*
X149815000Y-113101939D01*
X149854774Y-113301898D01*
X149932795Y-113490256D01*
X150046063Y-113659774D01*
X150190226Y-113803937D01*
X150359744Y-113917205D01*
X150548102Y-113995226D01*
X150748061Y-114035000D01*
X150951939Y-114035000D01*
X151151898Y-113995226D01*
X151340256Y-113917205D01*
X151509774Y-113803937D01*
X151553711Y-113760000D01*
X153999001Y-113760000D01*
X154912644Y-114673645D01*
X154871063Y-114715226D01*
X154757795Y-114884744D01*
X154679774Y-115073102D01*
X154640000Y-115273061D01*
X154640000Y-115335198D01*
X153235199Y-116740000D01*
X139717657Y-116740000D01*
X141138976Y-116027186D01*
X141553410Y-115750270D01*
X142597225Y-114676830D01*
X136025000Y-108104605D01*
X129452775Y-114676830D01*
X130496590Y-115750270D01*
X132129451Y-116678449D01*
X132349427Y-116751478D01*
X132207753Y-116794454D01*
X132075724Y-116865026D01*
X131959999Y-116959999D01*
X131936201Y-116988997D01*
X130861858Y-118063341D01*
X130827962Y-118022038D01*
X130693387Y-117911595D01*
X130539852Y-117829528D01*
X130373256Y-117778992D01*
X130200002Y-117761928D01*
X129674998Y-117761928D01*
X129501744Y-117778992D01*
X129335148Y-117829528D01*
X129181613Y-117911595D01*
X129047038Y-118022038D01*
X129025000Y-118048891D01*
X129002962Y-118022038D01*
X128868387Y-117911595D01*
X128714852Y-117829528D01*
X128548256Y-117778992D01*
X128375002Y-117761928D01*
X127849998Y-117761928D01*
X127676744Y-117778992D01*
X127510148Y-117829528D01*
X127356613Y-117911595D01*
X127222038Y-118022038D01*
X127111595Y-118156613D01*
X127056193Y-118260262D01*
X126940256Y-118182795D01*
X126751898Y-118104774D01*
X126551939Y-118065000D01*
X126348061Y-118065000D01*
X126148102Y-118104774D01*
X125959744Y-118182795D01*
X125790226Y-118296063D01*
X125646063Y-118440226D01*
X125620000Y-118479232D01*
X125620000Y-117078711D01*
X125663937Y-117034774D01*
X125777205Y-116865256D01*
X125855226Y-116676898D01*
X125895000Y-116476939D01*
X125895000Y-116273061D01*
X125855226Y-116073102D01*
X125777205Y-115884744D01*
X125663937Y-115715226D01*
X125519774Y-115571063D01*
X125350256Y-115457795D01*
X125161898Y-115379774D01*
X124961939Y-115340000D01*
X124758061Y-115340000D01*
X124558102Y-115379774D01*
X124369744Y-115457795D01*
X124200226Y-115571063D01*
X124056063Y-115715226D01*
X123942795Y-115884744D01*
X123864774Y-116073102D01*
X123825000Y-116273061D01*
X123825000Y-116476939D01*
X123864774Y-116676898D01*
X123942795Y-116865256D01*
X124056063Y-117034774D01*
X124100000Y-117078711D01*
X124100001Y-119447668D01*
X124096324Y-119485000D01*
X124100001Y-119522333D01*
X124110998Y-119633986D01*
X124120042Y-119663799D01*
X124154454Y-119777246D01*
X124225026Y-119909276D01*
X124279560Y-119975725D01*
X124320000Y-120025001D01*
X124348998Y-120048799D01*
X125636201Y-121336003D01*
X125659999Y-121365001D01*
X125775724Y-121459974D01*
X125907753Y-121530546D01*
X126051014Y-121574003D01*
X126162667Y-121585000D01*
X126162676Y-121585000D01*
X126199999Y-121588676D01*
X126237322Y-121585000D01*
X130512678Y-121585000D01*
X130550000Y-121588676D01*
X130587322Y-121585000D01*
X130587333Y-121585000D01*
X130698986Y-121574003D01*
X130842247Y-121530546D01*
X130974276Y-121459974D01*
X131090001Y-121365001D01*
X131113804Y-121335997D01*
X133164802Y-119285000D01*
X137871289Y-119285000D01*
X137915226Y-119328937D01*
X138084744Y-119442205D01*
X138273102Y-119520226D01*
X138473061Y-119560000D01*
X138676939Y-119560000D01*
X138876898Y-119520226D01*
X139065256Y-119442205D01*
X139234774Y-119328937D01*
X139378937Y-119184774D01*
X139492205Y-119015256D01*
X139570226Y-118826898D01*
X139610000Y-118626939D01*
X139610000Y-118423061D01*
X139577565Y-118260000D01*
X140546928Y-118260000D01*
X140546928Y-119900000D01*
X140559188Y-120024482D01*
X140595498Y-120144180D01*
X140654463Y-120254494D01*
X140733815Y-120351185D01*
X140830506Y-120430537D01*
X140940820Y-120489502D01*
X141013380Y-120511513D01*
X140881525Y-120643368D01*
X140719010Y-120886589D01*
X140607068Y-121156842D01*
X140550000Y-121443740D01*
X140550000Y-121736260D01*
X140607068Y-122023158D01*
X140719010Y-122293411D01*
X140881525Y-122536632D01*
X141088368Y-122743475D01*
X141195413Y-122815000D01*
X140047322Y-122815000D01*
X140009999Y-122811324D01*
X139972676Y-122815000D01*
X139972667Y-122815000D01*
X139861014Y-122825997D01*
X139717753Y-122869454D01*
X139585724Y-122940026D01*
X139469999Y-123034999D01*
X139446201Y-123063997D01*
X137915199Y-124595000D01*
X137743212Y-124595000D01*
X137523933Y-124638617D01*
X137317376Y-124724176D01*
X137220000Y-124789241D01*
X137122624Y-124724176D01*
X136916067Y-124638617D01*
X136696788Y-124595000D01*
X136473212Y-124595000D01*
X136253933Y-124638617D01*
X136047376Y-124724176D01*
X135950000Y-124789241D01*
X135852624Y-124724176D01*
X135646067Y-124638617D01*
X135426788Y-124595000D01*
X135203212Y-124595000D01*
X134983933Y-124638617D01*
X134777376Y-124724176D01*
X134680000Y-124789241D01*
X134582624Y-124724176D01*
X134376067Y-124638617D01*
X134156788Y-124595000D01*
X133933212Y-124595000D01*
X133713933Y-124638617D01*
X133507376Y-124724176D01*
X133410000Y-124789241D01*
X133312624Y-124724176D01*
X133106067Y-124638617D01*
X132886788Y-124595000D01*
X132663212Y-124595000D01*
X132443933Y-124638617D01*
X132237376Y-124724176D01*
X132051480Y-124848388D01*
X131893388Y-125006480D01*
X131769176Y-125192376D01*
X131683617Y-125398933D01*
X131640000Y-125618212D01*
X131640000Y-125841788D01*
X131683617Y-126061067D01*
X131729888Y-126172774D01*
X131685498Y-126255820D01*
X131649188Y-126375518D01*
X131636928Y-126500000D01*
X131636928Y-127500000D01*
X131649188Y-127624482D01*
X131685498Y-127744180D01*
X131744463Y-127854494D01*
X131814636Y-127940000D01*
X124588072Y-127940000D01*
X124588072Y-126550000D01*
X124575812Y-126425518D01*
X124539502Y-126305820D01*
X124480537Y-126195506D01*
X124401185Y-126098815D01*
X124304494Y-126019463D01*
X124194180Y-125960498D01*
X124074482Y-125924188D01*
X123950000Y-125911928D01*
X122250000Y-125911928D01*
X122125518Y-125924188D01*
X122005820Y-125960498D01*
X121895506Y-126019463D01*
X121798815Y-126098815D01*
X121719463Y-126195506D01*
X121660498Y-126305820D01*
X121636034Y-126386466D01*
X121560269Y-126302412D01*
X121326920Y-126128359D01*
X121064099Y-126003175D01*
X120916890Y-125958524D01*
X120687000Y-126079845D01*
X120687000Y-127273000D01*
X120707000Y-127273000D01*
X120707000Y-127527000D01*
X120687000Y-127527000D01*
X120687000Y-127547000D01*
X120433000Y-127547000D01*
X120433000Y-127527000D01*
X120413000Y-127527000D01*
X120413000Y-127273000D01*
X120433000Y-127273000D01*
X120433000Y-126079845D01*
X120203110Y-125958524D01*
X120055901Y-126003175D01*
X119793080Y-126128359D01*
X119559731Y-126302412D01*
X119364822Y-126518645D01*
X119295195Y-126635534D01*
X119173475Y-126453368D01*
X118966632Y-126246525D01*
X118855000Y-126171935D01*
X118855000Y-125519801D01*
X120288440Y-124086361D01*
X126076700Y-124086361D01*
X126076700Y-124290239D01*
X126116474Y-124490198D01*
X126194495Y-124678556D01*
X126307763Y-124848074D01*
X126451926Y-124992237D01*
X126621444Y-125105505D01*
X126809802Y-125183526D01*
X127009761Y-125223300D01*
X127213639Y-125223300D01*
X127413598Y-125183526D01*
X127601956Y-125105505D01*
X127771474Y-124992237D01*
X127915637Y-124848074D01*
X128028905Y-124678556D01*
X128106926Y-124490198D01*
X128146700Y-124290239D01*
X128146700Y-124086361D01*
X128106926Y-123886402D01*
X128028905Y-123698044D01*
X127915637Y-123528526D01*
X127771474Y-123384363D01*
X127601956Y-123271095D01*
X127413598Y-123193074D01*
X127213639Y-123153300D01*
X127009761Y-123153300D01*
X126809802Y-123193074D01*
X126621444Y-123271095D01*
X126451926Y-123384363D01*
X126307763Y-123528526D01*
X126194495Y-123698044D01*
X126116474Y-123886402D01*
X126076700Y-124086361D01*
X120288440Y-124086361D01*
X122961003Y-121413799D01*
X122990001Y-121390001D01*
X123016332Y-121357917D01*
X123084974Y-121274277D01*
X123155546Y-121142247D01*
X123199003Y-120998986D01*
X123210000Y-120887333D01*
X123210000Y-120887324D01*
X123213676Y-120850001D01*
X123210000Y-120812678D01*
X123210000Y-111101746D01*
X123325000Y-111113072D01*
X125825000Y-111113072D01*
X125949482Y-111100812D01*
X126069180Y-111064502D01*
X126179494Y-111005537D01*
X126276185Y-110926185D01*
X126355537Y-110829494D01*
X126414502Y-110719180D01*
X126450812Y-110599482D01*
X126463072Y-110475000D01*
X126463072Y-107896655D01*
X126582522Y-109549125D01*
X127080808Y-111360054D01*
X127922814Y-113038976D01*
X128199730Y-113453410D01*
X129273170Y-114497225D01*
X135845395Y-107925000D01*
X129273170Y-101352775D01*
X128199730Y-102396590D01*
X127271551Y-104029451D01*
X126679762Y-105812016D01*
X126463072Y-107547881D01*
X126463072Y-105375000D01*
X126450812Y-105250518D01*
X126414502Y-105130820D01*
X126355537Y-105020506D01*
X126276185Y-104923815D01*
X126179494Y-104844463D01*
X126069180Y-104785498D01*
X125949482Y-104749188D01*
X125825000Y-104736928D01*
X123325000Y-104736928D01*
X123200518Y-104749188D01*
X123080820Y-104785498D01*
X122970506Y-104844463D01*
X122873815Y-104923815D01*
X122794463Y-105020506D01*
X122735498Y-105130820D01*
X122699188Y-105250518D01*
X122686928Y-105375000D01*
X122686928Y-106912126D01*
X119860000Y-104085199D01*
X119860000Y-104023061D01*
X119820226Y-103823102D01*
X119742205Y-103634744D01*
X119628937Y-103465226D01*
X119484774Y-103321063D01*
X119315256Y-103207795D01*
X119126898Y-103129774D01*
X118926939Y-103090000D01*
X118723061Y-103090000D01*
X118523102Y-103129774D01*
X118334744Y-103207795D01*
X118165226Y-103321063D01*
X118033789Y-103452500D01*
X117635030Y-103452500D01*
X117527962Y-103322038D01*
X117501109Y-103300000D01*
X117527962Y-103277962D01*
X117638405Y-103143387D01*
X117720472Y-102989852D01*
X117771008Y-102823256D01*
X117788072Y-102650002D01*
X117788072Y-102124998D01*
X117771008Y-101951744D01*
X117720472Y-101785148D01*
X117638405Y-101631613D01*
X117527962Y-101497038D01*
X117402502Y-101394076D01*
X117426039Y-101370539D01*
X117498740Y-101385000D01*
X117791260Y-101385000D01*
X118078158Y-101327932D01*
X118348411Y-101215990D01*
X118591632Y-101053475D01*
X118798475Y-100846632D01*
X118960990Y-100603411D01*
X119072932Y-100333158D01*
X119130000Y-100046260D01*
X119130000Y-99753740D01*
X119072932Y-99466842D01*
X118960990Y-99196589D01*
X118798475Y-98953368D01*
X118591632Y-98746525D01*
X118348411Y-98584010D01*
X118290445Y-98560000D01*
X134119295Y-98560000D01*
X132589946Y-98980808D01*
G37*
%TD.AperFunction*%
D20*
X135442000Y-126873000D02*
X135453026Y-126873000D01*
X135450000Y-126888212D01*
X135450000Y-127111788D01*
X135453026Y-127127000D01*
X135442000Y-127127000D01*
X135442000Y-127147000D01*
X135188000Y-127147000D01*
X135188000Y-127127000D01*
X134172000Y-127127000D01*
X134172000Y-127147000D01*
X133918000Y-127147000D01*
X133918000Y-127127000D01*
X133913072Y-127127000D01*
X133913072Y-126873000D01*
X133918000Y-126873000D01*
X133918000Y-126861974D01*
X133933212Y-126865000D01*
X134156788Y-126865000D01*
X134172000Y-126861974D01*
X134172000Y-126873000D01*
X135188000Y-126873000D01*
X135188000Y-126861974D01*
X135203212Y-126865000D01*
X135426788Y-126865000D01*
X135442000Y-126861974D01*
X135442000Y-126873000D01*
%TA.AperFunction,Conductor*%
D21*
G36*
X135442000Y-126873000D02*
G01*
X135453026Y-126873000D01*
X135450000Y-126888212D01*
X135450000Y-127111788D01*
X135453026Y-127127000D01*
X135442000Y-127127000D01*
X135442000Y-127147000D01*
X135188000Y-127147000D01*
X135188000Y-127127000D01*
X134172000Y-127127000D01*
X134172000Y-127147000D01*
X133918000Y-127147000D01*
X133918000Y-127127000D01*
X133913072Y-127127000D01*
X133913072Y-126873000D01*
X133918000Y-126873000D01*
X133918000Y-126861974D01*
X133933212Y-126865000D01*
X134156788Y-126865000D01*
X134172000Y-126861974D01*
X134172000Y-126873000D01*
X135188000Y-126873000D01*
X135188000Y-126861974D01*
X135203212Y-126865000D01*
X135426788Y-126865000D01*
X135442000Y-126861974D01*
X135442000Y-126873000D01*
G37*
%TD.AperFunction*%
D20*
X149782000Y-121463000D02*
X152068000Y-121463000D01*
X152068000Y-121443000D01*
X152322000Y-121443000D01*
X152322000Y-121463000D01*
X154608000Y-121463000D01*
X154608000Y-121443000D01*
X154862000Y-121443000D01*
X154862000Y-121463000D01*
X154882000Y-121463000D01*
X154882000Y-121717000D01*
X154862000Y-121717000D01*
X154862000Y-121737000D01*
X154608000Y-121737000D01*
X154608000Y-121717000D01*
X152322000Y-121717000D01*
X152322000Y-121737000D01*
X152068000Y-121737000D01*
X152068000Y-121717000D01*
X149782000Y-121717000D01*
X149782000Y-121737000D01*
X149528000Y-121737000D01*
X149528000Y-121717000D01*
X149508000Y-121717000D01*
X149508000Y-121463000D01*
X149528000Y-121463000D01*
X149528000Y-121443000D01*
X149782000Y-121443000D01*
X149782000Y-121463000D01*
%TA.AperFunction,Conductor*%
D21*
G36*
X149782000Y-121463000D02*
G01*
X152068000Y-121463000D01*
X152068000Y-121443000D01*
X152322000Y-121443000D01*
X152322000Y-121463000D01*
X154608000Y-121463000D01*
X154608000Y-121443000D01*
X154862000Y-121443000D01*
X154862000Y-121463000D01*
X154882000Y-121463000D01*
X154882000Y-121717000D01*
X154862000Y-121717000D01*
X154862000Y-121737000D01*
X154608000Y-121737000D01*
X154608000Y-121717000D01*
X152322000Y-121717000D01*
X152322000Y-121737000D01*
X152068000Y-121737000D01*
X152068000Y-121717000D01*
X149782000Y-121717000D01*
X149782000Y-121737000D01*
X149528000Y-121737000D01*
X149528000Y-121717000D01*
X149508000Y-121717000D01*
X149508000Y-121463000D01*
X149528000Y-121463000D01*
X149528000Y-121443000D01*
X149782000Y-121443000D01*
X149782000Y-121463000D01*
G37*
%TD.AperFunction*%
D20*
X118557000Y-107998000D02*
X118577000Y-107998000D01*
X118577000Y-108252000D01*
X118557000Y-108252000D01*
X118557000Y-109426250D01*
X118715750Y-109585000D01*
X118730000Y-109588072D01*
X118854482Y-109575812D01*
X118974180Y-109539502D01*
X119084494Y-109480537D01*
X119181185Y-109401185D01*
X119260537Y-109304494D01*
X119319502Y-109194180D01*
X119355812Y-109074482D01*
X119368072Y-108950000D01*
X119365000Y-108410750D01*
X119206252Y-108252002D01*
X119327885Y-108252002D01*
X119863728Y-108787846D01*
X119809774Y-108918102D01*
X119770000Y-109118061D01*
X119770000Y-109321939D01*
X119809774Y-109521898D01*
X119830672Y-109572349D01*
X119684744Y-109632795D01*
X119515226Y-109746063D01*
X119371063Y-109890226D01*
X119257795Y-110059744D01*
X119179774Y-110248102D01*
X119140000Y-110448061D01*
X119140000Y-110510198D01*
X117919003Y-111731196D01*
X117889999Y-111754999D01*
X117844246Y-111810750D01*
X117795026Y-111870724D01*
X117773002Y-111911928D01*
X117724454Y-112002754D01*
X117716756Y-112028133D01*
X117611582Y-111971916D01*
X117463745Y-111927071D01*
X117310000Y-111911928D01*
X117010000Y-111911928D01*
X116856255Y-111927071D01*
X116708418Y-111971916D01*
X116572171Y-112044742D01*
X116525000Y-112083454D01*
X116477829Y-112044742D01*
X116341582Y-111971916D01*
X116193745Y-111927071D01*
X116040000Y-111911928D01*
X115740000Y-111911928D01*
X115586255Y-111927071D01*
X115438418Y-111971916D01*
X115302171Y-112044742D01*
X115255000Y-112083454D01*
X115207829Y-112044742D01*
X115071582Y-111971916D01*
X114923745Y-111927071D01*
X114770000Y-111911928D01*
X114470000Y-111911928D01*
X114316255Y-111927071D01*
X114168418Y-111971916D01*
X114032171Y-112044742D01*
X113954880Y-112108173D01*
X113963072Y-112025000D01*
X113960000Y-111810750D01*
X113801250Y-111652000D01*
X112727000Y-111652000D01*
X112727000Y-111672000D01*
X112473000Y-111672000D01*
X112473000Y-111652000D01*
X112453000Y-111652000D01*
X112453000Y-111398000D01*
X112473000Y-111398000D01*
X112473000Y-110548750D01*
X112727000Y-110548750D01*
X112727000Y-111398000D01*
X113801250Y-111398000D01*
X113960000Y-111239250D01*
X113963072Y-111025000D01*
X113950812Y-110900518D01*
X113914502Y-110780820D01*
X113855537Y-110670506D01*
X113776185Y-110573815D01*
X113679494Y-110494463D01*
X113569180Y-110435498D01*
X113449482Y-110399188D01*
X113325000Y-110386928D01*
X112885750Y-110390000D01*
X112727000Y-110548750D01*
X112473000Y-110548750D01*
X112314250Y-110390000D01*
X111945001Y-110387418D01*
X111945001Y-109842300D01*
X112449230Y-109338072D01*
X112975002Y-109338072D01*
X113148256Y-109321008D01*
X113314852Y-109270472D01*
X113468387Y-109188405D01*
X113602962Y-109077962D01*
X113699185Y-108960714D01*
X113741916Y-109101582D01*
X113814742Y-109237829D01*
X113912749Y-109357251D01*
X114032171Y-109455258D01*
X114168418Y-109528084D01*
X114316255Y-109572929D01*
X114470000Y-109588072D01*
X114770000Y-109588072D01*
X114923745Y-109572929D01*
X115071582Y-109528084D01*
X115207829Y-109455258D01*
X115255000Y-109416546D01*
X115302171Y-109455258D01*
X115438418Y-109528084D01*
X115586255Y-109572929D01*
X115740000Y-109588072D01*
X116040000Y-109588072D01*
X116193745Y-109572929D01*
X116341582Y-109528084D01*
X116477829Y-109455258D01*
X116525000Y-109416546D01*
X116572171Y-109455258D01*
X116708418Y-109528084D01*
X116856255Y-109572929D01*
X117010000Y-109588072D01*
X117310000Y-109588072D01*
X117463745Y-109572929D01*
X117611582Y-109528084D01*
X117745936Y-109456270D01*
X117775506Y-109480537D01*
X117885820Y-109539502D01*
X118005518Y-109575812D01*
X118130000Y-109588072D01*
X118144250Y-109585000D01*
X118303000Y-109426250D01*
X118303000Y-108252000D01*
X118283000Y-108252000D01*
X118283000Y-107998000D01*
X118303000Y-107998000D01*
X118303000Y-107978000D01*
X118557000Y-107978000D01*
X118557000Y-107998000D01*
%TA.AperFunction,Conductor*%
D21*
G36*
X118557000Y-107998000D02*
G01*
X118577000Y-107998000D01*
X118577000Y-108252000D01*
X118557000Y-108252000D01*
X118557000Y-109426250D01*
X118715750Y-109585000D01*
X118730000Y-109588072D01*
X118854482Y-109575812D01*
X118974180Y-109539502D01*
X119084494Y-109480537D01*
X119181185Y-109401185D01*
X119260537Y-109304494D01*
X119319502Y-109194180D01*
X119355812Y-109074482D01*
X119368072Y-108950000D01*
X119365000Y-108410750D01*
X119206252Y-108252002D01*
X119327885Y-108252002D01*
X119863728Y-108787846D01*
X119809774Y-108918102D01*
X119770000Y-109118061D01*
X119770000Y-109321939D01*
X119809774Y-109521898D01*
X119830672Y-109572349D01*
X119684744Y-109632795D01*
X119515226Y-109746063D01*
X119371063Y-109890226D01*
X119257795Y-110059744D01*
X119179774Y-110248102D01*
X119140000Y-110448061D01*
X119140000Y-110510198D01*
X117919003Y-111731196D01*
X117889999Y-111754999D01*
X117844246Y-111810750D01*
X117795026Y-111870724D01*
X117773002Y-111911928D01*
X117724454Y-112002754D01*
X117716756Y-112028133D01*
X117611582Y-111971916D01*
X117463745Y-111927071D01*
X117310000Y-111911928D01*
X117010000Y-111911928D01*
X116856255Y-111927071D01*
X116708418Y-111971916D01*
X116572171Y-112044742D01*
X116525000Y-112083454D01*
X116477829Y-112044742D01*
X116341582Y-111971916D01*
X116193745Y-111927071D01*
X116040000Y-111911928D01*
X115740000Y-111911928D01*
X115586255Y-111927071D01*
X115438418Y-111971916D01*
X115302171Y-112044742D01*
X115255000Y-112083454D01*
X115207829Y-112044742D01*
X115071582Y-111971916D01*
X114923745Y-111927071D01*
X114770000Y-111911928D01*
X114470000Y-111911928D01*
X114316255Y-111927071D01*
X114168418Y-111971916D01*
X114032171Y-112044742D01*
X113954880Y-112108173D01*
X113963072Y-112025000D01*
X113960000Y-111810750D01*
X113801250Y-111652000D01*
X112727000Y-111652000D01*
X112727000Y-111672000D01*
X112473000Y-111672000D01*
X112473000Y-111652000D01*
X112453000Y-111652000D01*
X112453000Y-111398000D01*
X112473000Y-111398000D01*
X112473000Y-110548750D01*
X112727000Y-110548750D01*
X112727000Y-111398000D01*
X113801250Y-111398000D01*
X113960000Y-111239250D01*
X113963072Y-111025000D01*
X113950812Y-110900518D01*
X113914502Y-110780820D01*
X113855537Y-110670506D01*
X113776185Y-110573815D01*
X113679494Y-110494463D01*
X113569180Y-110435498D01*
X113449482Y-110399188D01*
X113325000Y-110386928D01*
X112885750Y-110390000D01*
X112727000Y-110548750D01*
X112473000Y-110548750D01*
X112314250Y-110390000D01*
X111945001Y-110387418D01*
X111945001Y-109842300D01*
X112449230Y-109338072D01*
X112975002Y-109338072D01*
X113148256Y-109321008D01*
X113314852Y-109270472D01*
X113468387Y-109188405D01*
X113602962Y-109077962D01*
X113699185Y-108960714D01*
X113741916Y-109101582D01*
X113814742Y-109237829D01*
X113912749Y-109357251D01*
X114032171Y-109455258D01*
X114168418Y-109528084D01*
X114316255Y-109572929D01*
X114470000Y-109588072D01*
X114770000Y-109588072D01*
X114923745Y-109572929D01*
X115071582Y-109528084D01*
X115207829Y-109455258D01*
X115255000Y-109416546D01*
X115302171Y-109455258D01*
X115438418Y-109528084D01*
X115586255Y-109572929D01*
X115740000Y-109588072D01*
X116040000Y-109588072D01*
X116193745Y-109572929D01*
X116341582Y-109528084D01*
X116477829Y-109455258D01*
X116525000Y-109416546D01*
X116572171Y-109455258D01*
X116708418Y-109528084D01*
X116856255Y-109572929D01*
X117010000Y-109588072D01*
X117310000Y-109588072D01*
X117463745Y-109572929D01*
X117611582Y-109528084D01*
X117745936Y-109456270D01*
X117775506Y-109480537D01*
X117885820Y-109539502D01*
X118005518Y-109575812D01*
X118130000Y-109588072D01*
X118144250Y-109585000D01*
X118303000Y-109426250D01*
X118303000Y-108252000D01*
X118283000Y-108252000D01*
X118283000Y-107998000D01*
X118303000Y-107998000D01*
X118303000Y-107978000D01*
X118557000Y-107978000D01*
X118557000Y-107998000D01*
G37*
%TD.AperFunction*%
%TD*%
M02*
