%TF.GenerationSoftware,KiCad,Pcbnew,5.1.9-73d0e3b20d~88~ubuntu20.04.1*%
%TF.CreationDate,2021-02-15T14:30:30+00:00*%
%TF.ProjectId,daughter_board,64617567-6874-4657-925f-626f6172642e,rev?*%
%TF.SameCoordinates,Original*%
%TF.FileFunction,Copper,L2,Inr*%
%TF.FilePolarity,Positive*%
%FSLAX46Y46*%
G04 Gerber Fmt 4.6, Leading zero omitted, Abs format (unit mm)*
G04 Created by KiCad (PCBNEW 5.1.9-73d0e3b20d~88~ubuntu20.04.1) date 2021-02-15 14:30:30*
%MOMM*%
%LPD*%
G01*
G04 APERTURE LIST*
%TA.AperFunction,ComponentPad*%
%ADD10O,1.700000X1.700000*%
%TD*%
%TA.AperFunction,ComponentPad*%
%ADD11R,1.700000X1.700000*%
%TD*%
%TA.AperFunction,ComponentPad*%
%ADD12O,1.000000X1.000000*%
%TD*%
%TA.AperFunction,ComponentPad*%
%ADD13R,1.000000X1.000000*%
%TD*%
%TA.AperFunction,ViaPad*%
%ADD14C,0.800000*%
%TD*%
%TA.AperFunction,Conductor*%
%ADD15C,0.254000*%
%TD*%
%TA.AperFunction,Conductor*%
%ADD16C,0.150000*%
%TD*%
G04 APERTURE END LIST*
D10*
%TO.N,GND*%
%TO.C,J5*%
X154735000Y-121590000D03*
%TO.N,Net-(J5-Pad11)*%
X154735000Y-119050000D03*
%TO.N,GND*%
X152195000Y-121590000D03*
%TO.N,Net-(J5-Pad9)*%
X152195000Y-119050000D03*
%TO.N,GND*%
X149655000Y-121590000D03*
%TO.N,Net-(J5-Pad7)*%
X149655000Y-119050000D03*
%TO.N,VDD*%
X147115000Y-121590000D03*
%TO.N,Net-(J5-Pad5)*%
X147115000Y-119050000D03*
%TO.N,VDD*%
X144575000Y-121590000D03*
%TO.N,Net-(J5-Pad3)*%
X144575000Y-119050000D03*
%TO.N,VDD*%
X142035000Y-121590000D03*
D11*
%TO.N,Net-(J5-Pad1)*%
X142035000Y-119050000D03*
%TD*%
D10*
%TO.N,Net-(J2-Pad4)*%
%TO.C,J2*%
X112315000Y-120940000D03*
%TO.N,/RLED*%
X109775000Y-120940000D03*
%TO.N,Net-(J2-Pad2)*%
X112315000Y-118400000D03*
D11*
%TO.N,/GLED*%
X109775000Y-118400000D03*
%TD*%
D10*
%TO.N,/SDA*%
%TO.C,APDS9930*%
X115480000Y-127400000D03*
%TO.N,/SCL*%
X118020000Y-127400000D03*
%TO.N,GND*%
X120560000Y-127400000D03*
D11*
%TO.N,VDD*%
X123100000Y-127400000D03*
%TD*%
D10*
%TO.N,/SDA*%
%TO.C,AHT10*%
X154520000Y-127400000D03*
%TO.N,/SCL*%
X151980000Y-127400000D03*
%TO.N,GND*%
X149440000Y-127400000D03*
D11*
%TO.N,VDD*%
X146900000Y-127400000D03*
%TD*%
D12*
%TO.N,/XDS_RESET*%
%TO.C,J3*%
X137855000Y-125730000D03*
%TO.N,GND*%
X137855000Y-127000000D03*
%TO.N,/XDS_TDI*%
X136585000Y-125730000D03*
%TO.N,N/C*%
X136585000Y-127000000D03*
%TO.N,/XDS_TDO*%
X135315000Y-125730000D03*
%TO.N,GND*%
X135315000Y-127000000D03*
%TO.N,/XDS_TCK*%
X134045000Y-125730000D03*
%TO.N,GND*%
X134045000Y-127000000D03*
%TO.N,/XDS-TMS*%
X132775000Y-125730000D03*
D13*
%TO.N,VCC*%
X132775000Y-127000000D03*
%TD*%
D10*
%TO.N,VDD*%
%TO.C,J1*%
X117645000Y-99900000D03*
%TO.N,/UART_RXD*%
X115105000Y-99900000D03*
%TO.N,/UART_TXD*%
X112565000Y-99900000D03*
D11*
%TO.N,GND*%
X110025000Y-99900000D03*
%TD*%
D14*
%TO.N,/XDS_RESET*%
X150850000Y-113000000D03*
%TO.N,GND*%
X149450000Y-111325000D03*
X119600000Y-119500000D03*
X109775000Y-126775000D03*
X113050000Y-123325000D03*
X127475000Y-126150000D03*
X142175000Y-126125000D03*
X152450000Y-100575000D03*
X152475000Y-111725000D03*
X138250000Y-123025000D03*
X127400000Y-100650000D03*
X112500000Y-103300000D03*
X135600000Y-101350000D03*
X129175000Y-111075000D03*
X136450000Y-111075000D03*
X144900000Y-103275000D03*
X152425000Y-103125000D03*
X132250000Y-105400000D03*
X139250000Y-104800000D03*
X118430000Y-109770000D03*
X109400000Y-114000000D03*
X154900000Y-124700000D03*
X139000000Y-108600000D03*
X128800000Y-107700000D03*
X126300000Y-103200000D03*
X120300000Y-99700000D03*
X147900000Y-100800000D03*
X139800000Y-100300000D03*
%TO.N,Net-(R2-Pad2)*%
X126450000Y-119100000D03*
%TO.N,/SPI_SCLK*%
X120775000Y-111800000D03*
%TO.N,/SPI_MOSI*%
X120175000Y-110550000D03*
%TO.N,/SPI_MISO*%
X120805000Y-109220000D03*
%TO.N,/FLASH_CS*%
X119625000Y-116350000D03*
X124860000Y-116375000D03*
X138575000Y-118525000D03*
%TO.N,/SDA*%
X119475000Y-106000000D03*
%TO.N,/SCL*%
X118825000Y-104125000D03*
%TO.N,VDD*%
X155175000Y-108050000D03*
X114800000Y-115250000D03*
X110500000Y-108400000D03*
X152738300Y-106836700D03*
X149125000Y-103825000D03*
X127111700Y-124188300D03*
%TO.N,Net-(R2-Pad1)*%
X155675000Y-115375000D03*
%TD*%
D15*
%TO.N,GND*%
X108723815Y-98598815D02*
X108644463Y-98695506D01*
X108585498Y-98805820D01*
X108549188Y-98925518D01*
X108536928Y-99050000D01*
X108540000Y-99614250D01*
X108698750Y-99773000D01*
X109898000Y-99773000D01*
X109898000Y-99753000D01*
X110152000Y-99753000D01*
X110152000Y-99773000D01*
X110172000Y-99773000D01*
X110172000Y-100027000D01*
X110152000Y-100027000D01*
X110152000Y-101226250D01*
X110310750Y-101385000D01*
X110875000Y-101388072D01*
X110999482Y-101375812D01*
X111119180Y-101339502D01*
X111229494Y-101280537D01*
X111326185Y-101201185D01*
X111405537Y-101104494D01*
X111464502Y-100994180D01*
X111486513Y-100921620D01*
X111618368Y-101053475D01*
X111861589Y-101215990D01*
X112131842Y-101327932D01*
X112418740Y-101385000D01*
X112711260Y-101385000D01*
X112998158Y-101327932D01*
X113268411Y-101215990D01*
X113511632Y-101053475D01*
X113718475Y-100846632D01*
X113835000Y-100672240D01*
X113951525Y-100846632D01*
X114158368Y-101053475D01*
X114401589Y-101215990D01*
X114671842Y-101327932D01*
X114958740Y-101385000D01*
X115251260Y-101385000D01*
X115538158Y-101327932D01*
X115808411Y-101215990D01*
X116051632Y-101053475D01*
X116258475Y-100846632D01*
X116375000Y-100672240D01*
X116491525Y-100846632D01*
X116698368Y-101053475D01*
X116941589Y-101215990D01*
X117211842Y-101327932D01*
X117498740Y-101385000D01*
X117791260Y-101385000D01*
X118078158Y-101327932D01*
X118348411Y-101215990D01*
X118591632Y-101053475D01*
X118798475Y-100846632D01*
X118960990Y-100603411D01*
X119072932Y-100333158D01*
X119130000Y-100046260D01*
X119130000Y-99753740D01*
X119072932Y-99466842D01*
X118960990Y-99196589D01*
X118798475Y-98953368D01*
X118591632Y-98746525D01*
X118348411Y-98584010D01*
X118290445Y-98560000D01*
X156440001Y-98560000D01*
X156440000Y-114676289D01*
X156334774Y-114571063D01*
X156165256Y-114457795D01*
X155976898Y-114379774D01*
X155776939Y-114340000D01*
X155573061Y-114340000D01*
X155373102Y-114379774D01*
X155184744Y-114457795D01*
X155015226Y-114571063D01*
X154871063Y-114715226D01*
X154757795Y-114884744D01*
X154679774Y-115073102D01*
X154640000Y-115273061D01*
X154640000Y-115476939D01*
X154679774Y-115676898D01*
X154757795Y-115865256D01*
X154871063Y-116034774D01*
X155015226Y-116178937D01*
X155184744Y-116292205D01*
X155373102Y-116370226D01*
X155573061Y-116410000D01*
X155776939Y-116410000D01*
X155976898Y-116370226D01*
X156165256Y-116292205D01*
X156334774Y-116178937D01*
X156440000Y-116073711D01*
X156440000Y-119932418D01*
X156440001Y-119932428D01*
X156440000Y-129340000D01*
X108160000Y-129340000D01*
X108160000Y-127253740D01*
X113995000Y-127253740D01*
X113995000Y-127546260D01*
X114052068Y-127833158D01*
X114164010Y-128103411D01*
X114326525Y-128346632D01*
X114533368Y-128553475D01*
X114776589Y-128715990D01*
X115046842Y-128827932D01*
X115333740Y-128885000D01*
X115626260Y-128885000D01*
X115913158Y-128827932D01*
X116183411Y-128715990D01*
X116426632Y-128553475D01*
X116633475Y-128346632D01*
X116750000Y-128172240D01*
X116866525Y-128346632D01*
X117073368Y-128553475D01*
X117316589Y-128715990D01*
X117586842Y-128827932D01*
X117873740Y-128885000D01*
X118166260Y-128885000D01*
X118453158Y-128827932D01*
X118723411Y-128715990D01*
X118966632Y-128553475D01*
X119173475Y-128346632D01*
X119295195Y-128164466D01*
X119364822Y-128281355D01*
X119559731Y-128497588D01*
X119793080Y-128671641D01*
X120055901Y-128796825D01*
X120203110Y-128841476D01*
X120433000Y-128720155D01*
X120433000Y-127527000D01*
X120413000Y-127527000D01*
X120413000Y-127273000D01*
X120433000Y-127273000D01*
X120433000Y-126079845D01*
X120687000Y-126079845D01*
X120687000Y-127273000D01*
X120707000Y-127273000D01*
X120707000Y-127527000D01*
X120687000Y-127527000D01*
X120687000Y-128720155D01*
X120916890Y-128841476D01*
X121064099Y-128796825D01*
X121326920Y-128671641D01*
X121560269Y-128497588D01*
X121636034Y-128413534D01*
X121660498Y-128494180D01*
X121719463Y-128604494D01*
X121798815Y-128701185D01*
X121895506Y-128780537D01*
X122005820Y-128839502D01*
X122125518Y-128875812D01*
X122250000Y-128888072D01*
X123950000Y-128888072D01*
X124074482Y-128875812D01*
X124194180Y-128839502D01*
X124304494Y-128780537D01*
X124401185Y-128701185D01*
X124480537Y-128604494D01*
X124539502Y-128494180D01*
X124575812Y-128374482D01*
X124588072Y-128250000D01*
X124588072Y-126550000D01*
X124583148Y-126500000D01*
X131636928Y-126500000D01*
X131636928Y-127500000D01*
X131649188Y-127624482D01*
X131685498Y-127744180D01*
X131744463Y-127854494D01*
X131823815Y-127951185D01*
X131920506Y-128030537D01*
X132030820Y-128089502D01*
X132150518Y-128125812D01*
X132275000Y-128138072D01*
X133275000Y-128138072D01*
X133399482Y-128125812D01*
X133519180Y-128089502D01*
X133608180Y-128041930D01*
X133688136Y-128077446D01*
X133743126Y-128094119D01*
X133918000Y-127967954D01*
X133918000Y-127127000D01*
X134172000Y-127127000D01*
X134172000Y-127967954D01*
X134346874Y-128094119D01*
X134401864Y-128077446D01*
X134605206Y-127987123D01*
X134680000Y-127934361D01*
X134754794Y-127987123D01*
X134958136Y-128077446D01*
X135013126Y-128094119D01*
X135188000Y-127967954D01*
X135188000Y-127127000D01*
X134172000Y-127127000D01*
X133918000Y-127127000D01*
X133913072Y-127127000D01*
X133913072Y-126873000D01*
X133918000Y-126873000D01*
X133918000Y-126861974D01*
X133933212Y-126865000D01*
X134156788Y-126865000D01*
X134172000Y-126861974D01*
X134172000Y-126873000D01*
X135188000Y-126873000D01*
X135188000Y-126861974D01*
X135203212Y-126865000D01*
X135426788Y-126865000D01*
X135442000Y-126861974D01*
X135442000Y-126873000D01*
X135453026Y-126873000D01*
X135450000Y-126888212D01*
X135450000Y-127111788D01*
X135453026Y-127127000D01*
X135442000Y-127127000D01*
X135442000Y-127967954D01*
X135616874Y-128094119D01*
X135671864Y-128077446D01*
X135875206Y-127987123D01*
X135945342Y-127937647D01*
X136047376Y-128005824D01*
X136253933Y-128091383D01*
X136473212Y-128135000D01*
X136696788Y-128135000D01*
X136916067Y-128091383D01*
X137122624Y-128005824D01*
X137224658Y-127937647D01*
X137294794Y-127987123D01*
X137498136Y-128077446D01*
X137553126Y-128094119D01*
X137728000Y-127967954D01*
X137728000Y-127127000D01*
X137982000Y-127127000D01*
X137982000Y-127967954D01*
X138156874Y-128094119D01*
X138211864Y-128077446D01*
X138415206Y-127987123D01*
X138597020Y-127858865D01*
X138750318Y-127697601D01*
X138869210Y-127509529D01*
X138949126Y-127301876D01*
X138824129Y-127127000D01*
X137982000Y-127127000D01*
X137728000Y-127127000D01*
X137716974Y-127127000D01*
X137720000Y-127111788D01*
X137720000Y-126888212D01*
X137716974Y-126873000D01*
X137728000Y-126873000D01*
X137728000Y-126861974D01*
X137743212Y-126865000D01*
X137966788Y-126865000D01*
X137982000Y-126861974D01*
X137982000Y-126873000D01*
X138824129Y-126873000D01*
X138949126Y-126698124D01*
X138892120Y-126550000D01*
X145411928Y-126550000D01*
X145411928Y-128250000D01*
X145424188Y-128374482D01*
X145460498Y-128494180D01*
X145519463Y-128604494D01*
X145598815Y-128701185D01*
X145695506Y-128780537D01*
X145805820Y-128839502D01*
X145925518Y-128875812D01*
X146050000Y-128888072D01*
X147750000Y-128888072D01*
X147874482Y-128875812D01*
X147994180Y-128839502D01*
X148104494Y-128780537D01*
X148201185Y-128701185D01*
X148280537Y-128604494D01*
X148339502Y-128494180D01*
X148363966Y-128413534D01*
X148439731Y-128497588D01*
X148673080Y-128671641D01*
X148935901Y-128796825D01*
X149083110Y-128841476D01*
X149313000Y-128720155D01*
X149313000Y-127527000D01*
X149293000Y-127527000D01*
X149293000Y-127273000D01*
X149313000Y-127273000D01*
X149313000Y-126079845D01*
X149567000Y-126079845D01*
X149567000Y-127273000D01*
X149587000Y-127273000D01*
X149587000Y-127527000D01*
X149567000Y-127527000D01*
X149567000Y-128720155D01*
X149796890Y-128841476D01*
X149944099Y-128796825D01*
X150206920Y-128671641D01*
X150440269Y-128497588D01*
X150635178Y-128281355D01*
X150704805Y-128164466D01*
X150826525Y-128346632D01*
X151033368Y-128553475D01*
X151276589Y-128715990D01*
X151546842Y-128827932D01*
X151833740Y-128885000D01*
X152126260Y-128885000D01*
X152413158Y-128827932D01*
X152683411Y-128715990D01*
X152926632Y-128553475D01*
X153133475Y-128346632D01*
X153250000Y-128172240D01*
X153366525Y-128346632D01*
X153573368Y-128553475D01*
X153816589Y-128715990D01*
X154086842Y-128827932D01*
X154373740Y-128885000D01*
X154666260Y-128885000D01*
X154953158Y-128827932D01*
X155223411Y-128715990D01*
X155466632Y-128553475D01*
X155673475Y-128346632D01*
X155835990Y-128103411D01*
X155947932Y-127833158D01*
X156005000Y-127546260D01*
X156005000Y-127253740D01*
X155947932Y-126966842D01*
X155835990Y-126696589D01*
X155673475Y-126453368D01*
X155466632Y-126246525D01*
X155223411Y-126084010D01*
X154953158Y-125972068D01*
X154666260Y-125915000D01*
X154373740Y-125915000D01*
X154086842Y-125972068D01*
X153816589Y-126084010D01*
X153573368Y-126246525D01*
X153366525Y-126453368D01*
X153250000Y-126627760D01*
X153133475Y-126453368D01*
X152926632Y-126246525D01*
X152683411Y-126084010D01*
X152413158Y-125972068D01*
X152126260Y-125915000D01*
X151833740Y-125915000D01*
X151546842Y-125972068D01*
X151276589Y-126084010D01*
X151033368Y-126246525D01*
X150826525Y-126453368D01*
X150704805Y-126635534D01*
X150635178Y-126518645D01*
X150440269Y-126302412D01*
X150206920Y-126128359D01*
X149944099Y-126003175D01*
X149796890Y-125958524D01*
X149567000Y-126079845D01*
X149313000Y-126079845D01*
X149083110Y-125958524D01*
X148935901Y-126003175D01*
X148673080Y-126128359D01*
X148439731Y-126302412D01*
X148363966Y-126386466D01*
X148339502Y-126305820D01*
X148280537Y-126195506D01*
X148201185Y-126098815D01*
X148104494Y-126019463D01*
X147994180Y-125960498D01*
X147874482Y-125924188D01*
X147750000Y-125911928D01*
X146050000Y-125911928D01*
X145925518Y-125924188D01*
X145805820Y-125960498D01*
X145695506Y-126019463D01*
X145598815Y-126098815D01*
X145519463Y-126195506D01*
X145460498Y-126305820D01*
X145424188Y-126425518D01*
X145411928Y-126550000D01*
X138892120Y-126550000D01*
X138869210Y-126490471D01*
X138792744Y-126369512D01*
X138860824Y-126267624D01*
X138946383Y-126061067D01*
X138990000Y-125841788D01*
X138990000Y-125618212D01*
X138946383Y-125398933D01*
X138860824Y-125192376D01*
X138736612Y-125006480D01*
X138578520Y-124848388D01*
X138392624Y-124724176D01*
X138186067Y-124638617D01*
X137966788Y-124595000D01*
X137743212Y-124595000D01*
X137523933Y-124638617D01*
X137317376Y-124724176D01*
X137220000Y-124789241D01*
X137122624Y-124724176D01*
X136916067Y-124638617D01*
X136696788Y-124595000D01*
X136473212Y-124595000D01*
X136253933Y-124638617D01*
X136047376Y-124724176D01*
X135950000Y-124789241D01*
X135852624Y-124724176D01*
X135646067Y-124638617D01*
X135426788Y-124595000D01*
X135203212Y-124595000D01*
X134983933Y-124638617D01*
X134777376Y-124724176D01*
X134680000Y-124789241D01*
X134582624Y-124724176D01*
X134376067Y-124638617D01*
X134156788Y-124595000D01*
X133933212Y-124595000D01*
X133713933Y-124638617D01*
X133507376Y-124724176D01*
X133410000Y-124789241D01*
X133312624Y-124724176D01*
X133106067Y-124638617D01*
X132886788Y-124595000D01*
X132663212Y-124595000D01*
X132443933Y-124638617D01*
X132237376Y-124724176D01*
X132051480Y-124848388D01*
X131893388Y-125006480D01*
X131769176Y-125192376D01*
X131683617Y-125398933D01*
X131640000Y-125618212D01*
X131640000Y-125841788D01*
X131683617Y-126061067D01*
X131729888Y-126172774D01*
X131685498Y-126255820D01*
X131649188Y-126375518D01*
X131636928Y-126500000D01*
X124583148Y-126500000D01*
X124575812Y-126425518D01*
X124539502Y-126305820D01*
X124480537Y-126195506D01*
X124401185Y-126098815D01*
X124304494Y-126019463D01*
X124194180Y-125960498D01*
X124074482Y-125924188D01*
X123950000Y-125911928D01*
X122250000Y-125911928D01*
X122125518Y-125924188D01*
X122005820Y-125960498D01*
X121895506Y-126019463D01*
X121798815Y-126098815D01*
X121719463Y-126195506D01*
X121660498Y-126305820D01*
X121636034Y-126386466D01*
X121560269Y-126302412D01*
X121326920Y-126128359D01*
X121064099Y-126003175D01*
X120916890Y-125958524D01*
X120687000Y-126079845D01*
X120433000Y-126079845D01*
X120203110Y-125958524D01*
X120055901Y-126003175D01*
X119793080Y-126128359D01*
X119559731Y-126302412D01*
X119364822Y-126518645D01*
X119295195Y-126635534D01*
X119173475Y-126453368D01*
X118966632Y-126246525D01*
X118723411Y-126084010D01*
X118453158Y-125972068D01*
X118166260Y-125915000D01*
X117873740Y-125915000D01*
X117586842Y-125972068D01*
X117316589Y-126084010D01*
X117073368Y-126246525D01*
X116866525Y-126453368D01*
X116750000Y-126627760D01*
X116633475Y-126453368D01*
X116426632Y-126246525D01*
X116183411Y-126084010D01*
X115913158Y-125972068D01*
X115626260Y-125915000D01*
X115333740Y-125915000D01*
X115046842Y-125972068D01*
X114776589Y-126084010D01*
X114533368Y-126246525D01*
X114326525Y-126453368D01*
X114164010Y-126696589D01*
X114052068Y-126966842D01*
X113995000Y-127253740D01*
X108160000Y-127253740D01*
X108160000Y-124086361D01*
X126076700Y-124086361D01*
X126076700Y-124290239D01*
X126116474Y-124490198D01*
X126194495Y-124678556D01*
X126307763Y-124848074D01*
X126451926Y-124992237D01*
X126621444Y-125105505D01*
X126809802Y-125183526D01*
X127009761Y-125223300D01*
X127213639Y-125223300D01*
X127413598Y-125183526D01*
X127601956Y-125105505D01*
X127771474Y-124992237D01*
X127915637Y-124848074D01*
X128028905Y-124678556D01*
X128106926Y-124490198D01*
X128146700Y-124290239D01*
X128146700Y-124086361D01*
X128106926Y-123886402D01*
X128028905Y-123698044D01*
X127915637Y-123528526D01*
X127771474Y-123384363D01*
X127601956Y-123271095D01*
X127413598Y-123193074D01*
X127213639Y-123153300D01*
X127009761Y-123153300D01*
X126809802Y-123193074D01*
X126621444Y-123271095D01*
X126451926Y-123384363D01*
X126307763Y-123528526D01*
X126194495Y-123698044D01*
X126116474Y-123886402D01*
X126076700Y-124086361D01*
X108160000Y-124086361D01*
X108160000Y-117550000D01*
X108286928Y-117550000D01*
X108286928Y-119250000D01*
X108299188Y-119374482D01*
X108335498Y-119494180D01*
X108394463Y-119604494D01*
X108473815Y-119701185D01*
X108570506Y-119780537D01*
X108680820Y-119839502D01*
X108753380Y-119861513D01*
X108621525Y-119993368D01*
X108459010Y-120236589D01*
X108347068Y-120506842D01*
X108290000Y-120793740D01*
X108290000Y-121086260D01*
X108347068Y-121373158D01*
X108459010Y-121643411D01*
X108621525Y-121886632D01*
X108828368Y-122093475D01*
X109071589Y-122255990D01*
X109341842Y-122367932D01*
X109628740Y-122425000D01*
X109921260Y-122425000D01*
X110208158Y-122367932D01*
X110478411Y-122255990D01*
X110721632Y-122093475D01*
X110928475Y-121886632D01*
X111045000Y-121712240D01*
X111161525Y-121886632D01*
X111368368Y-122093475D01*
X111611589Y-122255990D01*
X111881842Y-122367932D01*
X112168740Y-122425000D01*
X112461260Y-122425000D01*
X112748158Y-122367932D01*
X113018411Y-122255990D01*
X113261632Y-122093475D01*
X113468475Y-121886632D01*
X113630990Y-121643411D01*
X113742932Y-121373158D01*
X113800000Y-121086260D01*
X113800000Y-120793740D01*
X113742932Y-120506842D01*
X113630990Y-120236589D01*
X113468475Y-119993368D01*
X113261632Y-119786525D01*
X113087240Y-119670000D01*
X113261632Y-119553475D01*
X113468475Y-119346632D01*
X113630990Y-119103411D01*
X113674627Y-118998061D01*
X125415000Y-118998061D01*
X125415000Y-119201939D01*
X125454774Y-119401898D01*
X125532795Y-119590256D01*
X125646063Y-119759774D01*
X125790226Y-119903937D01*
X125959744Y-120017205D01*
X126148102Y-120095226D01*
X126348061Y-120135000D01*
X126551939Y-120135000D01*
X126751898Y-120095226D01*
X126940256Y-120017205D01*
X127109774Y-119903937D01*
X127253937Y-119759774D01*
X127367205Y-119590256D01*
X127445226Y-119401898D01*
X127485000Y-119201939D01*
X127485000Y-118998061D01*
X127445226Y-118798102D01*
X127367205Y-118609744D01*
X127253937Y-118440226D01*
X127236772Y-118423061D01*
X137540000Y-118423061D01*
X137540000Y-118626939D01*
X137579774Y-118826898D01*
X137657795Y-119015256D01*
X137771063Y-119184774D01*
X137915226Y-119328937D01*
X138084744Y-119442205D01*
X138273102Y-119520226D01*
X138473061Y-119560000D01*
X138676939Y-119560000D01*
X138876898Y-119520226D01*
X139065256Y-119442205D01*
X139234774Y-119328937D01*
X139378937Y-119184774D01*
X139492205Y-119015256D01*
X139570226Y-118826898D01*
X139610000Y-118626939D01*
X139610000Y-118423061D01*
X139570226Y-118223102D01*
X139560657Y-118200000D01*
X140546928Y-118200000D01*
X140546928Y-119900000D01*
X140559188Y-120024482D01*
X140595498Y-120144180D01*
X140654463Y-120254494D01*
X140733815Y-120351185D01*
X140830506Y-120430537D01*
X140940820Y-120489502D01*
X141013380Y-120511513D01*
X140881525Y-120643368D01*
X140719010Y-120886589D01*
X140607068Y-121156842D01*
X140550000Y-121443740D01*
X140550000Y-121736260D01*
X140607068Y-122023158D01*
X140719010Y-122293411D01*
X140881525Y-122536632D01*
X141088368Y-122743475D01*
X141331589Y-122905990D01*
X141601842Y-123017932D01*
X141888740Y-123075000D01*
X142181260Y-123075000D01*
X142468158Y-123017932D01*
X142738411Y-122905990D01*
X142981632Y-122743475D01*
X143188475Y-122536632D01*
X143305000Y-122362240D01*
X143421525Y-122536632D01*
X143628368Y-122743475D01*
X143871589Y-122905990D01*
X144141842Y-123017932D01*
X144428740Y-123075000D01*
X144721260Y-123075000D01*
X145008158Y-123017932D01*
X145278411Y-122905990D01*
X145521632Y-122743475D01*
X145728475Y-122536632D01*
X145845000Y-122362240D01*
X145961525Y-122536632D01*
X146168368Y-122743475D01*
X146411589Y-122905990D01*
X146681842Y-123017932D01*
X146968740Y-123075000D01*
X147261260Y-123075000D01*
X147548158Y-123017932D01*
X147818411Y-122905990D01*
X148061632Y-122743475D01*
X148268475Y-122536632D01*
X148390195Y-122354466D01*
X148459822Y-122471355D01*
X148654731Y-122687588D01*
X148888080Y-122861641D01*
X149150901Y-122986825D01*
X149298110Y-123031476D01*
X149528000Y-122910155D01*
X149528000Y-121717000D01*
X149782000Y-121717000D01*
X149782000Y-122910155D01*
X150011890Y-123031476D01*
X150159099Y-122986825D01*
X150421920Y-122861641D01*
X150655269Y-122687588D01*
X150850178Y-122471355D01*
X150925000Y-122345745D01*
X150999822Y-122471355D01*
X151194731Y-122687588D01*
X151428080Y-122861641D01*
X151690901Y-122986825D01*
X151838110Y-123031476D01*
X152068000Y-122910155D01*
X152068000Y-121717000D01*
X152322000Y-121717000D01*
X152322000Y-122910155D01*
X152551890Y-123031476D01*
X152699099Y-122986825D01*
X152961920Y-122861641D01*
X153195269Y-122687588D01*
X153390178Y-122471355D01*
X153465000Y-122345745D01*
X153539822Y-122471355D01*
X153734731Y-122687588D01*
X153968080Y-122861641D01*
X154230901Y-122986825D01*
X154378110Y-123031476D01*
X154608000Y-122910155D01*
X154608000Y-121717000D01*
X154862000Y-121717000D01*
X154862000Y-122910155D01*
X155091890Y-123031476D01*
X155239099Y-122986825D01*
X155501920Y-122861641D01*
X155735269Y-122687588D01*
X155930178Y-122471355D01*
X156079157Y-122221252D01*
X156176481Y-121946891D01*
X156055814Y-121717000D01*
X154862000Y-121717000D01*
X154608000Y-121717000D01*
X152322000Y-121717000D01*
X152068000Y-121717000D01*
X149782000Y-121717000D01*
X149528000Y-121717000D01*
X149508000Y-121717000D01*
X149508000Y-121463000D01*
X149528000Y-121463000D01*
X149528000Y-121443000D01*
X149782000Y-121443000D01*
X149782000Y-121463000D01*
X152068000Y-121463000D01*
X152068000Y-121443000D01*
X152322000Y-121443000D01*
X152322000Y-121463000D01*
X154608000Y-121463000D01*
X154608000Y-121443000D01*
X154862000Y-121443000D01*
X154862000Y-121463000D01*
X156055814Y-121463000D01*
X156176481Y-121233109D01*
X156079157Y-120958748D01*
X155930178Y-120708645D01*
X155735269Y-120492412D01*
X155505594Y-120321100D01*
X155681632Y-120203475D01*
X155888475Y-119996632D01*
X156050990Y-119753411D01*
X156162932Y-119483158D01*
X156220000Y-119196260D01*
X156220000Y-118903740D01*
X156162932Y-118616842D01*
X156050990Y-118346589D01*
X155888475Y-118103368D01*
X155681632Y-117896525D01*
X155438411Y-117734010D01*
X155168158Y-117622068D01*
X154881260Y-117565000D01*
X154588740Y-117565000D01*
X154301842Y-117622068D01*
X154031589Y-117734010D01*
X153788368Y-117896525D01*
X153581525Y-118103368D01*
X153465000Y-118277760D01*
X153348475Y-118103368D01*
X153141632Y-117896525D01*
X152898411Y-117734010D01*
X152628158Y-117622068D01*
X152341260Y-117565000D01*
X152048740Y-117565000D01*
X151761842Y-117622068D01*
X151491589Y-117734010D01*
X151248368Y-117896525D01*
X151041525Y-118103368D01*
X150925000Y-118277760D01*
X150808475Y-118103368D01*
X150601632Y-117896525D01*
X150358411Y-117734010D01*
X150088158Y-117622068D01*
X149801260Y-117565000D01*
X149508740Y-117565000D01*
X149221842Y-117622068D01*
X148951589Y-117734010D01*
X148708368Y-117896525D01*
X148501525Y-118103368D01*
X148385000Y-118277760D01*
X148268475Y-118103368D01*
X148061632Y-117896525D01*
X147818411Y-117734010D01*
X147548158Y-117622068D01*
X147261260Y-117565000D01*
X146968740Y-117565000D01*
X146681842Y-117622068D01*
X146411589Y-117734010D01*
X146168368Y-117896525D01*
X145961525Y-118103368D01*
X145845000Y-118277760D01*
X145728475Y-118103368D01*
X145521632Y-117896525D01*
X145278411Y-117734010D01*
X145008158Y-117622068D01*
X144721260Y-117565000D01*
X144428740Y-117565000D01*
X144141842Y-117622068D01*
X143871589Y-117734010D01*
X143628368Y-117896525D01*
X143496513Y-118028380D01*
X143474502Y-117955820D01*
X143415537Y-117845506D01*
X143336185Y-117748815D01*
X143239494Y-117669463D01*
X143129180Y-117610498D01*
X143009482Y-117574188D01*
X142885000Y-117561928D01*
X141185000Y-117561928D01*
X141060518Y-117574188D01*
X140940820Y-117610498D01*
X140830506Y-117669463D01*
X140733815Y-117748815D01*
X140654463Y-117845506D01*
X140595498Y-117955820D01*
X140559188Y-118075518D01*
X140546928Y-118200000D01*
X139560657Y-118200000D01*
X139492205Y-118034744D01*
X139378937Y-117865226D01*
X139234774Y-117721063D01*
X139065256Y-117607795D01*
X138876898Y-117529774D01*
X138676939Y-117490000D01*
X138473061Y-117490000D01*
X138273102Y-117529774D01*
X138084744Y-117607795D01*
X137915226Y-117721063D01*
X137771063Y-117865226D01*
X137657795Y-118034744D01*
X137579774Y-118223102D01*
X137540000Y-118423061D01*
X127236772Y-118423061D01*
X127109774Y-118296063D01*
X126940256Y-118182795D01*
X126751898Y-118104774D01*
X126551939Y-118065000D01*
X126348061Y-118065000D01*
X126148102Y-118104774D01*
X125959744Y-118182795D01*
X125790226Y-118296063D01*
X125646063Y-118440226D01*
X125532795Y-118609744D01*
X125454774Y-118798102D01*
X125415000Y-118998061D01*
X113674627Y-118998061D01*
X113742932Y-118833158D01*
X113800000Y-118546260D01*
X113800000Y-118253740D01*
X113742932Y-117966842D01*
X113630990Y-117696589D01*
X113468475Y-117453368D01*
X113261632Y-117246525D01*
X113018411Y-117084010D01*
X112748158Y-116972068D01*
X112461260Y-116915000D01*
X112168740Y-116915000D01*
X111881842Y-116972068D01*
X111611589Y-117084010D01*
X111368368Y-117246525D01*
X111236513Y-117378380D01*
X111214502Y-117305820D01*
X111155537Y-117195506D01*
X111076185Y-117098815D01*
X110979494Y-117019463D01*
X110869180Y-116960498D01*
X110749482Y-116924188D01*
X110625000Y-116911928D01*
X108925000Y-116911928D01*
X108800518Y-116924188D01*
X108680820Y-116960498D01*
X108570506Y-117019463D01*
X108473815Y-117098815D01*
X108394463Y-117195506D01*
X108335498Y-117305820D01*
X108299188Y-117425518D01*
X108286928Y-117550000D01*
X108160000Y-117550000D01*
X108160000Y-115148061D01*
X113765000Y-115148061D01*
X113765000Y-115351939D01*
X113804774Y-115551898D01*
X113882795Y-115740256D01*
X113996063Y-115909774D01*
X114140226Y-116053937D01*
X114309744Y-116167205D01*
X114498102Y-116245226D01*
X114698061Y-116285000D01*
X114901939Y-116285000D01*
X115087645Y-116248061D01*
X118590000Y-116248061D01*
X118590000Y-116451939D01*
X118629774Y-116651898D01*
X118707795Y-116840256D01*
X118821063Y-117009774D01*
X118965226Y-117153937D01*
X119134744Y-117267205D01*
X119323102Y-117345226D01*
X119523061Y-117385000D01*
X119726939Y-117385000D01*
X119926898Y-117345226D01*
X120115256Y-117267205D01*
X120284774Y-117153937D01*
X120428937Y-117009774D01*
X120542205Y-116840256D01*
X120620226Y-116651898D01*
X120660000Y-116451939D01*
X120660000Y-116273061D01*
X123825000Y-116273061D01*
X123825000Y-116476939D01*
X123864774Y-116676898D01*
X123942795Y-116865256D01*
X124056063Y-117034774D01*
X124200226Y-117178937D01*
X124369744Y-117292205D01*
X124558102Y-117370226D01*
X124758061Y-117410000D01*
X124961939Y-117410000D01*
X125161898Y-117370226D01*
X125350256Y-117292205D01*
X125519774Y-117178937D01*
X125663937Y-117034774D01*
X125777205Y-116865256D01*
X125855226Y-116676898D01*
X125895000Y-116476939D01*
X125895000Y-116273061D01*
X125855226Y-116073102D01*
X125777205Y-115884744D01*
X125663937Y-115715226D01*
X125519774Y-115571063D01*
X125350256Y-115457795D01*
X125161898Y-115379774D01*
X124961939Y-115340000D01*
X124758061Y-115340000D01*
X124558102Y-115379774D01*
X124369744Y-115457795D01*
X124200226Y-115571063D01*
X124056063Y-115715226D01*
X123942795Y-115884744D01*
X123864774Y-116073102D01*
X123825000Y-116273061D01*
X120660000Y-116273061D01*
X120660000Y-116248061D01*
X120620226Y-116048102D01*
X120542205Y-115859744D01*
X120428937Y-115690226D01*
X120284774Y-115546063D01*
X120115256Y-115432795D01*
X119926898Y-115354774D01*
X119726939Y-115315000D01*
X119523061Y-115315000D01*
X119323102Y-115354774D01*
X119134744Y-115432795D01*
X118965226Y-115546063D01*
X118821063Y-115690226D01*
X118707795Y-115859744D01*
X118629774Y-116048102D01*
X118590000Y-116248061D01*
X115087645Y-116248061D01*
X115101898Y-116245226D01*
X115290256Y-116167205D01*
X115459774Y-116053937D01*
X115603937Y-115909774D01*
X115717205Y-115740256D01*
X115795226Y-115551898D01*
X115835000Y-115351939D01*
X115835000Y-115148061D01*
X115795226Y-114948102D01*
X115717205Y-114759744D01*
X115603937Y-114590226D01*
X115459774Y-114446063D01*
X115290256Y-114332795D01*
X115101898Y-114254774D01*
X114901939Y-114215000D01*
X114698061Y-114215000D01*
X114498102Y-114254774D01*
X114309744Y-114332795D01*
X114140226Y-114446063D01*
X113996063Y-114590226D01*
X113882795Y-114759744D01*
X113804774Y-114948102D01*
X113765000Y-115148061D01*
X108160000Y-115148061D01*
X108160000Y-112898061D01*
X149815000Y-112898061D01*
X149815000Y-113101939D01*
X149854774Y-113301898D01*
X149932795Y-113490256D01*
X150046063Y-113659774D01*
X150190226Y-113803937D01*
X150359744Y-113917205D01*
X150548102Y-113995226D01*
X150748061Y-114035000D01*
X150951939Y-114035000D01*
X151151898Y-113995226D01*
X151340256Y-113917205D01*
X151509774Y-113803937D01*
X151653937Y-113659774D01*
X151767205Y-113490256D01*
X151845226Y-113301898D01*
X151885000Y-113101939D01*
X151885000Y-112898061D01*
X151845226Y-112698102D01*
X151767205Y-112509744D01*
X151653937Y-112340226D01*
X151509774Y-112196063D01*
X151340256Y-112082795D01*
X151151898Y-112004774D01*
X150951939Y-111965000D01*
X150748061Y-111965000D01*
X150548102Y-112004774D01*
X150359744Y-112082795D01*
X150190226Y-112196063D01*
X150046063Y-112340226D01*
X149932795Y-112509744D01*
X149854774Y-112698102D01*
X149815000Y-112898061D01*
X108160000Y-112898061D01*
X108160000Y-110448061D01*
X119140000Y-110448061D01*
X119140000Y-110651939D01*
X119179774Y-110851898D01*
X119257795Y-111040256D01*
X119371063Y-111209774D01*
X119515226Y-111353937D01*
X119684744Y-111467205D01*
X119778218Y-111505924D01*
X119740000Y-111698061D01*
X119740000Y-111901939D01*
X119779774Y-112101898D01*
X119857795Y-112290256D01*
X119971063Y-112459774D01*
X120115226Y-112603937D01*
X120284744Y-112717205D01*
X120473102Y-112795226D01*
X120673061Y-112835000D01*
X120876939Y-112835000D01*
X121076898Y-112795226D01*
X121265256Y-112717205D01*
X121434774Y-112603937D01*
X121578937Y-112459774D01*
X121692205Y-112290256D01*
X121770226Y-112101898D01*
X121810000Y-111901939D01*
X121810000Y-111698061D01*
X121770226Y-111498102D01*
X121692205Y-111309744D01*
X121578937Y-111140226D01*
X121434774Y-110996063D01*
X121265256Y-110882795D01*
X121171782Y-110844076D01*
X121210000Y-110651939D01*
X121210000Y-110448061D01*
X121170226Y-110248102D01*
X121149328Y-110197651D01*
X121295256Y-110137205D01*
X121464774Y-110023937D01*
X121608937Y-109879774D01*
X121722205Y-109710256D01*
X121800226Y-109521898D01*
X121840000Y-109321939D01*
X121840000Y-109118061D01*
X121800226Y-108918102D01*
X121722205Y-108729744D01*
X121608937Y-108560226D01*
X121464774Y-108416063D01*
X121295256Y-108302795D01*
X121106898Y-108224774D01*
X120906939Y-108185000D01*
X120703061Y-108185000D01*
X120503102Y-108224774D01*
X120314744Y-108302795D01*
X120145226Y-108416063D01*
X120001063Y-108560226D01*
X119887795Y-108729744D01*
X119809774Y-108918102D01*
X119770000Y-109118061D01*
X119770000Y-109321939D01*
X119809774Y-109521898D01*
X119830672Y-109572349D01*
X119684744Y-109632795D01*
X119515226Y-109746063D01*
X119371063Y-109890226D01*
X119257795Y-110059744D01*
X119179774Y-110248102D01*
X119140000Y-110448061D01*
X108160000Y-110448061D01*
X108160000Y-108298061D01*
X109465000Y-108298061D01*
X109465000Y-108501939D01*
X109504774Y-108701898D01*
X109582795Y-108890256D01*
X109696063Y-109059774D01*
X109840226Y-109203937D01*
X110009744Y-109317205D01*
X110198102Y-109395226D01*
X110398061Y-109435000D01*
X110601939Y-109435000D01*
X110801898Y-109395226D01*
X110990256Y-109317205D01*
X111159774Y-109203937D01*
X111303937Y-109059774D01*
X111417205Y-108890256D01*
X111495226Y-108701898D01*
X111535000Y-108501939D01*
X111535000Y-108298061D01*
X111495226Y-108098102D01*
X111433077Y-107948061D01*
X154140000Y-107948061D01*
X154140000Y-108151939D01*
X154179774Y-108351898D01*
X154257795Y-108540256D01*
X154371063Y-108709774D01*
X154515226Y-108853937D01*
X154684744Y-108967205D01*
X154873102Y-109045226D01*
X155073061Y-109085000D01*
X155276939Y-109085000D01*
X155476898Y-109045226D01*
X155665256Y-108967205D01*
X155834774Y-108853937D01*
X155978937Y-108709774D01*
X156092205Y-108540256D01*
X156170226Y-108351898D01*
X156210000Y-108151939D01*
X156210000Y-107948061D01*
X156170226Y-107748102D01*
X156092205Y-107559744D01*
X155978937Y-107390226D01*
X155834774Y-107246063D01*
X155665256Y-107132795D01*
X155476898Y-107054774D01*
X155276939Y-107015000D01*
X155073061Y-107015000D01*
X154873102Y-107054774D01*
X154684744Y-107132795D01*
X154515226Y-107246063D01*
X154371063Y-107390226D01*
X154257795Y-107559744D01*
X154179774Y-107748102D01*
X154140000Y-107948061D01*
X111433077Y-107948061D01*
X111417205Y-107909744D01*
X111303937Y-107740226D01*
X111159774Y-107596063D01*
X110990256Y-107482795D01*
X110801898Y-107404774D01*
X110601939Y-107365000D01*
X110398061Y-107365000D01*
X110198102Y-107404774D01*
X110009744Y-107482795D01*
X109840226Y-107596063D01*
X109696063Y-107740226D01*
X109582795Y-107909744D01*
X109504774Y-108098102D01*
X109465000Y-108298061D01*
X108160000Y-108298061D01*
X108160000Y-104023061D01*
X117790000Y-104023061D01*
X117790000Y-104226939D01*
X117829774Y-104426898D01*
X117907795Y-104615256D01*
X118021063Y-104784774D01*
X118165226Y-104928937D01*
X118334744Y-105042205D01*
X118523102Y-105120226D01*
X118723061Y-105160000D01*
X118869198Y-105160000D01*
X118815226Y-105196063D01*
X118671063Y-105340226D01*
X118557795Y-105509744D01*
X118479774Y-105698102D01*
X118440000Y-105898061D01*
X118440000Y-106101939D01*
X118479774Y-106301898D01*
X118557795Y-106490256D01*
X118671063Y-106659774D01*
X118815226Y-106803937D01*
X118984744Y-106917205D01*
X119173102Y-106995226D01*
X119373061Y-107035000D01*
X119576939Y-107035000D01*
X119776898Y-106995226D01*
X119965256Y-106917205D01*
X120134774Y-106803937D01*
X120203950Y-106734761D01*
X151703300Y-106734761D01*
X151703300Y-106938639D01*
X151743074Y-107138598D01*
X151821095Y-107326956D01*
X151934363Y-107496474D01*
X152078526Y-107640637D01*
X152248044Y-107753905D01*
X152436402Y-107831926D01*
X152636361Y-107871700D01*
X152840239Y-107871700D01*
X153040198Y-107831926D01*
X153228556Y-107753905D01*
X153398074Y-107640637D01*
X153542237Y-107496474D01*
X153655505Y-107326956D01*
X153733526Y-107138598D01*
X153773300Y-106938639D01*
X153773300Y-106734761D01*
X153733526Y-106534802D01*
X153655505Y-106346444D01*
X153542237Y-106176926D01*
X153398074Y-106032763D01*
X153228556Y-105919495D01*
X153040198Y-105841474D01*
X152840239Y-105801700D01*
X152636361Y-105801700D01*
X152436402Y-105841474D01*
X152248044Y-105919495D01*
X152078526Y-106032763D01*
X151934363Y-106176926D01*
X151821095Y-106346444D01*
X151743074Y-106534802D01*
X151703300Y-106734761D01*
X120203950Y-106734761D01*
X120278937Y-106659774D01*
X120392205Y-106490256D01*
X120470226Y-106301898D01*
X120510000Y-106101939D01*
X120510000Y-105898061D01*
X120470226Y-105698102D01*
X120392205Y-105509744D01*
X120278937Y-105340226D01*
X120134774Y-105196063D01*
X119965256Y-105082795D01*
X119776898Y-105004774D01*
X119576939Y-104965000D01*
X119430802Y-104965000D01*
X119484774Y-104928937D01*
X119628937Y-104784774D01*
X119742205Y-104615256D01*
X119820226Y-104426898D01*
X119860000Y-104226939D01*
X119860000Y-104023061D01*
X119820226Y-103823102D01*
X119778788Y-103723061D01*
X148090000Y-103723061D01*
X148090000Y-103926939D01*
X148129774Y-104126898D01*
X148207795Y-104315256D01*
X148321063Y-104484774D01*
X148465226Y-104628937D01*
X148634744Y-104742205D01*
X148823102Y-104820226D01*
X149023061Y-104860000D01*
X149226939Y-104860000D01*
X149426898Y-104820226D01*
X149615256Y-104742205D01*
X149784774Y-104628937D01*
X149928937Y-104484774D01*
X150042205Y-104315256D01*
X150120226Y-104126898D01*
X150160000Y-103926939D01*
X150160000Y-103723061D01*
X150120226Y-103523102D01*
X150042205Y-103334744D01*
X149928937Y-103165226D01*
X149784774Y-103021063D01*
X149615256Y-102907795D01*
X149426898Y-102829774D01*
X149226939Y-102790000D01*
X149023061Y-102790000D01*
X148823102Y-102829774D01*
X148634744Y-102907795D01*
X148465226Y-103021063D01*
X148321063Y-103165226D01*
X148207795Y-103334744D01*
X148129774Y-103523102D01*
X148090000Y-103723061D01*
X119778788Y-103723061D01*
X119742205Y-103634744D01*
X119628937Y-103465226D01*
X119484774Y-103321063D01*
X119315256Y-103207795D01*
X119126898Y-103129774D01*
X118926939Y-103090000D01*
X118723061Y-103090000D01*
X118523102Y-103129774D01*
X118334744Y-103207795D01*
X118165226Y-103321063D01*
X118021063Y-103465226D01*
X117907795Y-103634744D01*
X117829774Y-103823102D01*
X117790000Y-104023061D01*
X108160000Y-104023061D01*
X108160000Y-100750000D01*
X108536928Y-100750000D01*
X108549188Y-100874482D01*
X108585498Y-100994180D01*
X108644463Y-101104494D01*
X108723815Y-101201185D01*
X108820506Y-101280537D01*
X108930820Y-101339502D01*
X109050518Y-101375812D01*
X109175000Y-101388072D01*
X109739250Y-101385000D01*
X109898000Y-101226250D01*
X109898000Y-100027000D01*
X108698750Y-100027000D01*
X108540000Y-100185750D01*
X108536928Y-100750000D01*
X108160000Y-100750000D01*
X108160000Y-98560000D01*
X108771111Y-98560000D01*
X108723815Y-98598815D01*
%TA.AperFunction,Conductor*%
D16*
G36*
X108723815Y-98598815D02*
G01*
X108644463Y-98695506D01*
X108585498Y-98805820D01*
X108549188Y-98925518D01*
X108536928Y-99050000D01*
X108540000Y-99614250D01*
X108698750Y-99773000D01*
X109898000Y-99773000D01*
X109898000Y-99753000D01*
X110152000Y-99753000D01*
X110152000Y-99773000D01*
X110172000Y-99773000D01*
X110172000Y-100027000D01*
X110152000Y-100027000D01*
X110152000Y-101226250D01*
X110310750Y-101385000D01*
X110875000Y-101388072D01*
X110999482Y-101375812D01*
X111119180Y-101339502D01*
X111229494Y-101280537D01*
X111326185Y-101201185D01*
X111405537Y-101104494D01*
X111464502Y-100994180D01*
X111486513Y-100921620D01*
X111618368Y-101053475D01*
X111861589Y-101215990D01*
X112131842Y-101327932D01*
X112418740Y-101385000D01*
X112711260Y-101385000D01*
X112998158Y-101327932D01*
X113268411Y-101215990D01*
X113511632Y-101053475D01*
X113718475Y-100846632D01*
X113835000Y-100672240D01*
X113951525Y-100846632D01*
X114158368Y-101053475D01*
X114401589Y-101215990D01*
X114671842Y-101327932D01*
X114958740Y-101385000D01*
X115251260Y-101385000D01*
X115538158Y-101327932D01*
X115808411Y-101215990D01*
X116051632Y-101053475D01*
X116258475Y-100846632D01*
X116375000Y-100672240D01*
X116491525Y-100846632D01*
X116698368Y-101053475D01*
X116941589Y-101215990D01*
X117211842Y-101327932D01*
X117498740Y-101385000D01*
X117791260Y-101385000D01*
X118078158Y-101327932D01*
X118348411Y-101215990D01*
X118591632Y-101053475D01*
X118798475Y-100846632D01*
X118960990Y-100603411D01*
X119072932Y-100333158D01*
X119130000Y-100046260D01*
X119130000Y-99753740D01*
X119072932Y-99466842D01*
X118960990Y-99196589D01*
X118798475Y-98953368D01*
X118591632Y-98746525D01*
X118348411Y-98584010D01*
X118290445Y-98560000D01*
X156440001Y-98560000D01*
X156440000Y-114676289D01*
X156334774Y-114571063D01*
X156165256Y-114457795D01*
X155976898Y-114379774D01*
X155776939Y-114340000D01*
X155573061Y-114340000D01*
X155373102Y-114379774D01*
X155184744Y-114457795D01*
X155015226Y-114571063D01*
X154871063Y-114715226D01*
X154757795Y-114884744D01*
X154679774Y-115073102D01*
X154640000Y-115273061D01*
X154640000Y-115476939D01*
X154679774Y-115676898D01*
X154757795Y-115865256D01*
X154871063Y-116034774D01*
X155015226Y-116178937D01*
X155184744Y-116292205D01*
X155373102Y-116370226D01*
X155573061Y-116410000D01*
X155776939Y-116410000D01*
X155976898Y-116370226D01*
X156165256Y-116292205D01*
X156334774Y-116178937D01*
X156440000Y-116073711D01*
X156440000Y-119932418D01*
X156440001Y-119932428D01*
X156440000Y-129340000D01*
X108160000Y-129340000D01*
X108160000Y-127253740D01*
X113995000Y-127253740D01*
X113995000Y-127546260D01*
X114052068Y-127833158D01*
X114164010Y-128103411D01*
X114326525Y-128346632D01*
X114533368Y-128553475D01*
X114776589Y-128715990D01*
X115046842Y-128827932D01*
X115333740Y-128885000D01*
X115626260Y-128885000D01*
X115913158Y-128827932D01*
X116183411Y-128715990D01*
X116426632Y-128553475D01*
X116633475Y-128346632D01*
X116750000Y-128172240D01*
X116866525Y-128346632D01*
X117073368Y-128553475D01*
X117316589Y-128715990D01*
X117586842Y-128827932D01*
X117873740Y-128885000D01*
X118166260Y-128885000D01*
X118453158Y-128827932D01*
X118723411Y-128715990D01*
X118966632Y-128553475D01*
X119173475Y-128346632D01*
X119295195Y-128164466D01*
X119364822Y-128281355D01*
X119559731Y-128497588D01*
X119793080Y-128671641D01*
X120055901Y-128796825D01*
X120203110Y-128841476D01*
X120433000Y-128720155D01*
X120433000Y-127527000D01*
X120413000Y-127527000D01*
X120413000Y-127273000D01*
X120433000Y-127273000D01*
X120433000Y-126079845D01*
X120687000Y-126079845D01*
X120687000Y-127273000D01*
X120707000Y-127273000D01*
X120707000Y-127527000D01*
X120687000Y-127527000D01*
X120687000Y-128720155D01*
X120916890Y-128841476D01*
X121064099Y-128796825D01*
X121326920Y-128671641D01*
X121560269Y-128497588D01*
X121636034Y-128413534D01*
X121660498Y-128494180D01*
X121719463Y-128604494D01*
X121798815Y-128701185D01*
X121895506Y-128780537D01*
X122005820Y-128839502D01*
X122125518Y-128875812D01*
X122250000Y-128888072D01*
X123950000Y-128888072D01*
X124074482Y-128875812D01*
X124194180Y-128839502D01*
X124304494Y-128780537D01*
X124401185Y-128701185D01*
X124480537Y-128604494D01*
X124539502Y-128494180D01*
X124575812Y-128374482D01*
X124588072Y-128250000D01*
X124588072Y-126550000D01*
X124583148Y-126500000D01*
X131636928Y-126500000D01*
X131636928Y-127500000D01*
X131649188Y-127624482D01*
X131685498Y-127744180D01*
X131744463Y-127854494D01*
X131823815Y-127951185D01*
X131920506Y-128030537D01*
X132030820Y-128089502D01*
X132150518Y-128125812D01*
X132275000Y-128138072D01*
X133275000Y-128138072D01*
X133399482Y-128125812D01*
X133519180Y-128089502D01*
X133608180Y-128041930D01*
X133688136Y-128077446D01*
X133743126Y-128094119D01*
X133918000Y-127967954D01*
X133918000Y-127127000D01*
X134172000Y-127127000D01*
X134172000Y-127967954D01*
X134346874Y-128094119D01*
X134401864Y-128077446D01*
X134605206Y-127987123D01*
X134680000Y-127934361D01*
X134754794Y-127987123D01*
X134958136Y-128077446D01*
X135013126Y-128094119D01*
X135188000Y-127967954D01*
X135188000Y-127127000D01*
X134172000Y-127127000D01*
X133918000Y-127127000D01*
X133913072Y-127127000D01*
X133913072Y-126873000D01*
X133918000Y-126873000D01*
X133918000Y-126861974D01*
X133933212Y-126865000D01*
X134156788Y-126865000D01*
X134172000Y-126861974D01*
X134172000Y-126873000D01*
X135188000Y-126873000D01*
X135188000Y-126861974D01*
X135203212Y-126865000D01*
X135426788Y-126865000D01*
X135442000Y-126861974D01*
X135442000Y-126873000D01*
X135453026Y-126873000D01*
X135450000Y-126888212D01*
X135450000Y-127111788D01*
X135453026Y-127127000D01*
X135442000Y-127127000D01*
X135442000Y-127967954D01*
X135616874Y-128094119D01*
X135671864Y-128077446D01*
X135875206Y-127987123D01*
X135945342Y-127937647D01*
X136047376Y-128005824D01*
X136253933Y-128091383D01*
X136473212Y-128135000D01*
X136696788Y-128135000D01*
X136916067Y-128091383D01*
X137122624Y-128005824D01*
X137224658Y-127937647D01*
X137294794Y-127987123D01*
X137498136Y-128077446D01*
X137553126Y-128094119D01*
X137728000Y-127967954D01*
X137728000Y-127127000D01*
X137982000Y-127127000D01*
X137982000Y-127967954D01*
X138156874Y-128094119D01*
X138211864Y-128077446D01*
X138415206Y-127987123D01*
X138597020Y-127858865D01*
X138750318Y-127697601D01*
X138869210Y-127509529D01*
X138949126Y-127301876D01*
X138824129Y-127127000D01*
X137982000Y-127127000D01*
X137728000Y-127127000D01*
X137716974Y-127127000D01*
X137720000Y-127111788D01*
X137720000Y-126888212D01*
X137716974Y-126873000D01*
X137728000Y-126873000D01*
X137728000Y-126861974D01*
X137743212Y-126865000D01*
X137966788Y-126865000D01*
X137982000Y-126861974D01*
X137982000Y-126873000D01*
X138824129Y-126873000D01*
X138949126Y-126698124D01*
X138892120Y-126550000D01*
X145411928Y-126550000D01*
X145411928Y-128250000D01*
X145424188Y-128374482D01*
X145460498Y-128494180D01*
X145519463Y-128604494D01*
X145598815Y-128701185D01*
X145695506Y-128780537D01*
X145805820Y-128839502D01*
X145925518Y-128875812D01*
X146050000Y-128888072D01*
X147750000Y-128888072D01*
X147874482Y-128875812D01*
X147994180Y-128839502D01*
X148104494Y-128780537D01*
X148201185Y-128701185D01*
X148280537Y-128604494D01*
X148339502Y-128494180D01*
X148363966Y-128413534D01*
X148439731Y-128497588D01*
X148673080Y-128671641D01*
X148935901Y-128796825D01*
X149083110Y-128841476D01*
X149313000Y-128720155D01*
X149313000Y-127527000D01*
X149293000Y-127527000D01*
X149293000Y-127273000D01*
X149313000Y-127273000D01*
X149313000Y-126079845D01*
X149567000Y-126079845D01*
X149567000Y-127273000D01*
X149587000Y-127273000D01*
X149587000Y-127527000D01*
X149567000Y-127527000D01*
X149567000Y-128720155D01*
X149796890Y-128841476D01*
X149944099Y-128796825D01*
X150206920Y-128671641D01*
X150440269Y-128497588D01*
X150635178Y-128281355D01*
X150704805Y-128164466D01*
X150826525Y-128346632D01*
X151033368Y-128553475D01*
X151276589Y-128715990D01*
X151546842Y-128827932D01*
X151833740Y-128885000D01*
X152126260Y-128885000D01*
X152413158Y-128827932D01*
X152683411Y-128715990D01*
X152926632Y-128553475D01*
X153133475Y-128346632D01*
X153250000Y-128172240D01*
X153366525Y-128346632D01*
X153573368Y-128553475D01*
X153816589Y-128715990D01*
X154086842Y-128827932D01*
X154373740Y-128885000D01*
X154666260Y-128885000D01*
X154953158Y-128827932D01*
X155223411Y-128715990D01*
X155466632Y-128553475D01*
X155673475Y-128346632D01*
X155835990Y-128103411D01*
X155947932Y-127833158D01*
X156005000Y-127546260D01*
X156005000Y-127253740D01*
X155947932Y-126966842D01*
X155835990Y-126696589D01*
X155673475Y-126453368D01*
X155466632Y-126246525D01*
X155223411Y-126084010D01*
X154953158Y-125972068D01*
X154666260Y-125915000D01*
X154373740Y-125915000D01*
X154086842Y-125972068D01*
X153816589Y-126084010D01*
X153573368Y-126246525D01*
X153366525Y-126453368D01*
X153250000Y-126627760D01*
X153133475Y-126453368D01*
X152926632Y-126246525D01*
X152683411Y-126084010D01*
X152413158Y-125972068D01*
X152126260Y-125915000D01*
X151833740Y-125915000D01*
X151546842Y-125972068D01*
X151276589Y-126084010D01*
X151033368Y-126246525D01*
X150826525Y-126453368D01*
X150704805Y-126635534D01*
X150635178Y-126518645D01*
X150440269Y-126302412D01*
X150206920Y-126128359D01*
X149944099Y-126003175D01*
X149796890Y-125958524D01*
X149567000Y-126079845D01*
X149313000Y-126079845D01*
X149083110Y-125958524D01*
X148935901Y-126003175D01*
X148673080Y-126128359D01*
X148439731Y-126302412D01*
X148363966Y-126386466D01*
X148339502Y-126305820D01*
X148280537Y-126195506D01*
X148201185Y-126098815D01*
X148104494Y-126019463D01*
X147994180Y-125960498D01*
X147874482Y-125924188D01*
X147750000Y-125911928D01*
X146050000Y-125911928D01*
X145925518Y-125924188D01*
X145805820Y-125960498D01*
X145695506Y-126019463D01*
X145598815Y-126098815D01*
X145519463Y-126195506D01*
X145460498Y-126305820D01*
X145424188Y-126425518D01*
X145411928Y-126550000D01*
X138892120Y-126550000D01*
X138869210Y-126490471D01*
X138792744Y-126369512D01*
X138860824Y-126267624D01*
X138946383Y-126061067D01*
X138990000Y-125841788D01*
X138990000Y-125618212D01*
X138946383Y-125398933D01*
X138860824Y-125192376D01*
X138736612Y-125006480D01*
X138578520Y-124848388D01*
X138392624Y-124724176D01*
X138186067Y-124638617D01*
X137966788Y-124595000D01*
X137743212Y-124595000D01*
X137523933Y-124638617D01*
X137317376Y-124724176D01*
X137220000Y-124789241D01*
X137122624Y-124724176D01*
X136916067Y-124638617D01*
X136696788Y-124595000D01*
X136473212Y-124595000D01*
X136253933Y-124638617D01*
X136047376Y-124724176D01*
X135950000Y-124789241D01*
X135852624Y-124724176D01*
X135646067Y-124638617D01*
X135426788Y-124595000D01*
X135203212Y-124595000D01*
X134983933Y-124638617D01*
X134777376Y-124724176D01*
X134680000Y-124789241D01*
X134582624Y-124724176D01*
X134376067Y-124638617D01*
X134156788Y-124595000D01*
X133933212Y-124595000D01*
X133713933Y-124638617D01*
X133507376Y-124724176D01*
X133410000Y-124789241D01*
X133312624Y-124724176D01*
X133106067Y-124638617D01*
X132886788Y-124595000D01*
X132663212Y-124595000D01*
X132443933Y-124638617D01*
X132237376Y-124724176D01*
X132051480Y-124848388D01*
X131893388Y-125006480D01*
X131769176Y-125192376D01*
X131683617Y-125398933D01*
X131640000Y-125618212D01*
X131640000Y-125841788D01*
X131683617Y-126061067D01*
X131729888Y-126172774D01*
X131685498Y-126255820D01*
X131649188Y-126375518D01*
X131636928Y-126500000D01*
X124583148Y-126500000D01*
X124575812Y-126425518D01*
X124539502Y-126305820D01*
X124480537Y-126195506D01*
X124401185Y-126098815D01*
X124304494Y-126019463D01*
X124194180Y-125960498D01*
X124074482Y-125924188D01*
X123950000Y-125911928D01*
X122250000Y-125911928D01*
X122125518Y-125924188D01*
X122005820Y-125960498D01*
X121895506Y-126019463D01*
X121798815Y-126098815D01*
X121719463Y-126195506D01*
X121660498Y-126305820D01*
X121636034Y-126386466D01*
X121560269Y-126302412D01*
X121326920Y-126128359D01*
X121064099Y-126003175D01*
X120916890Y-125958524D01*
X120687000Y-126079845D01*
X120433000Y-126079845D01*
X120203110Y-125958524D01*
X120055901Y-126003175D01*
X119793080Y-126128359D01*
X119559731Y-126302412D01*
X119364822Y-126518645D01*
X119295195Y-126635534D01*
X119173475Y-126453368D01*
X118966632Y-126246525D01*
X118723411Y-126084010D01*
X118453158Y-125972068D01*
X118166260Y-125915000D01*
X117873740Y-125915000D01*
X117586842Y-125972068D01*
X117316589Y-126084010D01*
X117073368Y-126246525D01*
X116866525Y-126453368D01*
X116750000Y-126627760D01*
X116633475Y-126453368D01*
X116426632Y-126246525D01*
X116183411Y-126084010D01*
X115913158Y-125972068D01*
X115626260Y-125915000D01*
X115333740Y-125915000D01*
X115046842Y-125972068D01*
X114776589Y-126084010D01*
X114533368Y-126246525D01*
X114326525Y-126453368D01*
X114164010Y-126696589D01*
X114052068Y-126966842D01*
X113995000Y-127253740D01*
X108160000Y-127253740D01*
X108160000Y-124086361D01*
X126076700Y-124086361D01*
X126076700Y-124290239D01*
X126116474Y-124490198D01*
X126194495Y-124678556D01*
X126307763Y-124848074D01*
X126451926Y-124992237D01*
X126621444Y-125105505D01*
X126809802Y-125183526D01*
X127009761Y-125223300D01*
X127213639Y-125223300D01*
X127413598Y-125183526D01*
X127601956Y-125105505D01*
X127771474Y-124992237D01*
X127915637Y-124848074D01*
X128028905Y-124678556D01*
X128106926Y-124490198D01*
X128146700Y-124290239D01*
X128146700Y-124086361D01*
X128106926Y-123886402D01*
X128028905Y-123698044D01*
X127915637Y-123528526D01*
X127771474Y-123384363D01*
X127601956Y-123271095D01*
X127413598Y-123193074D01*
X127213639Y-123153300D01*
X127009761Y-123153300D01*
X126809802Y-123193074D01*
X126621444Y-123271095D01*
X126451926Y-123384363D01*
X126307763Y-123528526D01*
X126194495Y-123698044D01*
X126116474Y-123886402D01*
X126076700Y-124086361D01*
X108160000Y-124086361D01*
X108160000Y-117550000D01*
X108286928Y-117550000D01*
X108286928Y-119250000D01*
X108299188Y-119374482D01*
X108335498Y-119494180D01*
X108394463Y-119604494D01*
X108473815Y-119701185D01*
X108570506Y-119780537D01*
X108680820Y-119839502D01*
X108753380Y-119861513D01*
X108621525Y-119993368D01*
X108459010Y-120236589D01*
X108347068Y-120506842D01*
X108290000Y-120793740D01*
X108290000Y-121086260D01*
X108347068Y-121373158D01*
X108459010Y-121643411D01*
X108621525Y-121886632D01*
X108828368Y-122093475D01*
X109071589Y-122255990D01*
X109341842Y-122367932D01*
X109628740Y-122425000D01*
X109921260Y-122425000D01*
X110208158Y-122367932D01*
X110478411Y-122255990D01*
X110721632Y-122093475D01*
X110928475Y-121886632D01*
X111045000Y-121712240D01*
X111161525Y-121886632D01*
X111368368Y-122093475D01*
X111611589Y-122255990D01*
X111881842Y-122367932D01*
X112168740Y-122425000D01*
X112461260Y-122425000D01*
X112748158Y-122367932D01*
X113018411Y-122255990D01*
X113261632Y-122093475D01*
X113468475Y-121886632D01*
X113630990Y-121643411D01*
X113742932Y-121373158D01*
X113800000Y-121086260D01*
X113800000Y-120793740D01*
X113742932Y-120506842D01*
X113630990Y-120236589D01*
X113468475Y-119993368D01*
X113261632Y-119786525D01*
X113087240Y-119670000D01*
X113261632Y-119553475D01*
X113468475Y-119346632D01*
X113630990Y-119103411D01*
X113674627Y-118998061D01*
X125415000Y-118998061D01*
X125415000Y-119201939D01*
X125454774Y-119401898D01*
X125532795Y-119590256D01*
X125646063Y-119759774D01*
X125790226Y-119903937D01*
X125959744Y-120017205D01*
X126148102Y-120095226D01*
X126348061Y-120135000D01*
X126551939Y-120135000D01*
X126751898Y-120095226D01*
X126940256Y-120017205D01*
X127109774Y-119903937D01*
X127253937Y-119759774D01*
X127367205Y-119590256D01*
X127445226Y-119401898D01*
X127485000Y-119201939D01*
X127485000Y-118998061D01*
X127445226Y-118798102D01*
X127367205Y-118609744D01*
X127253937Y-118440226D01*
X127236772Y-118423061D01*
X137540000Y-118423061D01*
X137540000Y-118626939D01*
X137579774Y-118826898D01*
X137657795Y-119015256D01*
X137771063Y-119184774D01*
X137915226Y-119328937D01*
X138084744Y-119442205D01*
X138273102Y-119520226D01*
X138473061Y-119560000D01*
X138676939Y-119560000D01*
X138876898Y-119520226D01*
X139065256Y-119442205D01*
X139234774Y-119328937D01*
X139378937Y-119184774D01*
X139492205Y-119015256D01*
X139570226Y-118826898D01*
X139610000Y-118626939D01*
X139610000Y-118423061D01*
X139570226Y-118223102D01*
X139560657Y-118200000D01*
X140546928Y-118200000D01*
X140546928Y-119900000D01*
X140559188Y-120024482D01*
X140595498Y-120144180D01*
X140654463Y-120254494D01*
X140733815Y-120351185D01*
X140830506Y-120430537D01*
X140940820Y-120489502D01*
X141013380Y-120511513D01*
X140881525Y-120643368D01*
X140719010Y-120886589D01*
X140607068Y-121156842D01*
X140550000Y-121443740D01*
X140550000Y-121736260D01*
X140607068Y-122023158D01*
X140719010Y-122293411D01*
X140881525Y-122536632D01*
X141088368Y-122743475D01*
X141331589Y-122905990D01*
X141601842Y-123017932D01*
X141888740Y-123075000D01*
X142181260Y-123075000D01*
X142468158Y-123017932D01*
X142738411Y-122905990D01*
X142981632Y-122743475D01*
X143188475Y-122536632D01*
X143305000Y-122362240D01*
X143421525Y-122536632D01*
X143628368Y-122743475D01*
X143871589Y-122905990D01*
X144141842Y-123017932D01*
X144428740Y-123075000D01*
X144721260Y-123075000D01*
X145008158Y-123017932D01*
X145278411Y-122905990D01*
X145521632Y-122743475D01*
X145728475Y-122536632D01*
X145845000Y-122362240D01*
X145961525Y-122536632D01*
X146168368Y-122743475D01*
X146411589Y-122905990D01*
X146681842Y-123017932D01*
X146968740Y-123075000D01*
X147261260Y-123075000D01*
X147548158Y-123017932D01*
X147818411Y-122905990D01*
X148061632Y-122743475D01*
X148268475Y-122536632D01*
X148390195Y-122354466D01*
X148459822Y-122471355D01*
X148654731Y-122687588D01*
X148888080Y-122861641D01*
X149150901Y-122986825D01*
X149298110Y-123031476D01*
X149528000Y-122910155D01*
X149528000Y-121717000D01*
X149782000Y-121717000D01*
X149782000Y-122910155D01*
X150011890Y-123031476D01*
X150159099Y-122986825D01*
X150421920Y-122861641D01*
X150655269Y-122687588D01*
X150850178Y-122471355D01*
X150925000Y-122345745D01*
X150999822Y-122471355D01*
X151194731Y-122687588D01*
X151428080Y-122861641D01*
X151690901Y-122986825D01*
X151838110Y-123031476D01*
X152068000Y-122910155D01*
X152068000Y-121717000D01*
X152322000Y-121717000D01*
X152322000Y-122910155D01*
X152551890Y-123031476D01*
X152699099Y-122986825D01*
X152961920Y-122861641D01*
X153195269Y-122687588D01*
X153390178Y-122471355D01*
X153465000Y-122345745D01*
X153539822Y-122471355D01*
X153734731Y-122687588D01*
X153968080Y-122861641D01*
X154230901Y-122986825D01*
X154378110Y-123031476D01*
X154608000Y-122910155D01*
X154608000Y-121717000D01*
X154862000Y-121717000D01*
X154862000Y-122910155D01*
X155091890Y-123031476D01*
X155239099Y-122986825D01*
X155501920Y-122861641D01*
X155735269Y-122687588D01*
X155930178Y-122471355D01*
X156079157Y-122221252D01*
X156176481Y-121946891D01*
X156055814Y-121717000D01*
X154862000Y-121717000D01*
X154608000Y-121717000D01*
X152322000Y-121717000D01*
X152068000Y-121717000D01*
X149782000Y-121717000D01*
X149528000Y-121717000D01*
X149508000Y-121717000D01*
X149508000Y-121463000D01*
X149528000Y-121463000D01*
X149528000Y-121443000D01*
X149782000Y-121443000D01*
X149782000Y-121463000D01*
X152068000Y-121463000D01*
X152068000Y-121443000D01*
X152322000Y-121443000D01*
X152322000Y-121463000D01*
X154608000Y-121463000D01*
X154608000Y-121443000D01*
X154862000Y-121443000D01*
X154862000Y-121463000D01*
X156055814Y-121463000D01*
X156176481Y-121233109D01*
X156079157Y-120958748D01*
X155930178Y-120708645D01*
X155735269Y-120492412D01*
X155505594Y-120321100D01*
X155681632Y-120203475D01*
X155888475Y-119996632D01*
X156050990Y-119753411D01*
X156162932Y-119483158D01*
X156220000Y-119196260D01*
X156220000Y-118903740D01*
X156162932Y-118616842D01*
X156050990Y-118346589D01*
X155888475Y-118103368D01*
X155681632Y-117896525D01*
X155438411Y-117734010D01*
X155168158Y-117622068D01*
X154881260Y-117565000D01*
X154588740Y-117565000D01*
X154301842Y-117622068D01*
X154031589Y-117734010D01*
X153788368Y-117896525D01*
X153581525Y-118103368D01*
X153465000Y-118277760D01*
X153348475Y-118103368D01*
X153141632Y-117896525D01*
X152898411Y-117734010D01*
X152628158Y-117622068D01*
X152341260Y-117565000D01*
X152048740Y-117565000D01*
X151761842Y-117622068D01*
X151491589Y-117734010D01*
X151248368Y-117896525D01*
X151041525Y-118103368D01*
X150925000Y-118277760D01*
X150808475Y-118103368D01*
X150601632Y-117896525D01*
X150358411Y-117734010D01*
X150088158Y-117622068D01*
X149801260Y-117565000D01*
X149508740Y-117565000D01*
X149221842Y-117622068D01*
X148951589Y-117734010D01*
X148708368Y-117896525D01*
X148501525Y-118103368D01*
X148385000Y-118277760D01*
X148268475Y-118103368D01*
X148061632Y-117896525D01*
X147818411Y-117734010D01*
X147548158Y-117622068D01*
X147261260Y-117565000D01*
X146968740Y-117565000D01*
X146681842Y-117622068D01*
X146411589Y-117734010D01*
X146168368Y-117896525D01*
X145961525Y-118103368D01*
X145845000Y-118277760D01*
X145728475Y-118103368D01*
X145521632Y-117896525D01*
X145278411Y-117734010D01*
X145008158Y-117622068D01*
X144721260Y-117565000D01*
X144428740Y-117565000D01*
X144141842Y-117622068D01*
X143871589Y-117734010D01*
X143628368Y-117896525D01*
X143496513Y-118028380D01*
X143474502Y-117955820D01*
X143415537Y-117845506D01*
X143336185Y-117748815D01*
X143239494Y-117669463D01*
X143129180Y-117610498D01*
X143009482Y-117574188D01*
X142885000Y-117561928D01*
X141185000Y-117561928D01*
X141060518Y-117574188D01*
X140940820Y-117610498D01*
X140830506Y-117669463D01*
X140733815Y-117748815D01*
X140654463Y-117845506D01*
X140595498Y-117955820D01*
X140559188Y-118075518D01*
X140546928Y-118200000D01*
X139560657Y-118200000D01*
X139492205Y-118034744D01*
X139378937Y-117865226D01*
X139234774Y-117721063D01*
X139065256Y-117607795D01*
X138876898Y-117529774D01*
X138676939Y-117490000D01*
X138473061Y-117490000D01*
X138273102Y-117529774D01*
X138084744Y-117607795D01*
X137915226Y-117721063D01*
X137771063Y-117865226D01*
X137657795Y-118034744D01*
X137579774Y-118223102D01*
X137540000Y-118423061D01*
X127236772Y-118423061D01*
X127109774Y-118296063D01*
X126940256Y-118182795D01*
X126751898Y-118104774D01*
X126551939Y-118065000D01*
X126348061Y-118065000D01*
X126148102Y-118104774D01*
X125959744Y-118182795D01*
X125790226Y-118296063D01*
X125646063Y-118440226D01*
X125532795Y-118609744D01*
X125454774Y-118798102D01*
X125415000Y-118998061D01*
X113674627Y-118998061D01*
X113742932Y-118833158D01*
X113800000Y-118546260D01*
X113800000Y-118253740D01*
X113742932Y-117966842D01*
X113630990Y-117696589D01*
X113468475Y-117453368D01*
X113261632Y-117246525D01*
X113018411Y-117084010D01*
X112748158Y-116972068D01*
X112461260Y-116915000D01*
X112168740Y-116915000D01*
X111881842Y-116972068D01*
X111611589Y-117084010D01*
X111368368Y-117246525D01*
X111236513Y-117378380D01*
X111214502Y-117305820D01*
X111155537Y-117195506D01*
X111076185Y-117098815D01*
X110979494Y-117019463D01*
X110869180Y-116960498D01*
X110749482Y-116924188D01*
X110625000Y-116911928D01*
X108925000Y-116911928D01*
X108800518Y-116924188D01*
X108680820Y-116960498D01*
X108570506Y-117019463D01*
X108473815Y-117098815D01*
X108394463Y-117195506D01*
X108335498Y-117305820D01*
X108299188Y-117425518D01*
X108286928Y-117550000D01*
X108160000Y-117550000D01*
X108160000Y-115148061D01*
X113765000Y-115148061D01*
X113765000Y-115351939D01*
X113804774Y-115551898D01*
X113882795Y-115740256D01*
X113996063Y-115909774D01*
X114140226Y-116053937D01*
X114309744Y-116167205D01*
X114498102Y-116245226D01*
X114698061Y-116285000D01*
X114901939Y-116285000D01*
X115087645Y-116248061D01*
X118590000Y-116248061D01*
X118590000Y-116451939D01*
X118629774Y-116651898D01*
X118707795Y-116840256D01*
X118821063Y-117009774D01*
X118965226Y-117153937D01*
X119134744Y-117267205D01*
X119323102Y-117345226D01*
X119523061Y-117385000D01*
X119726939Y-117385000D01*
X119926898Y-117345226D01*
X120115256Y-117267205D01*
X120284774Y-117153937D01*
X120428937Y-117009774D01*
X120542205Y-116840256D01*
X120620226Y-116651898D01*
X120660000Y-116451939D01*
X120660000Y-116273061D01*
X123825000Y-116273061D01*
X123825000Y-116476939D01*
X123864774Y-116676898D01*
X123942795Y-116865256D01*
X124056063Y-117034774D01*
X124200226Y-117178937D01*
X124369744Y-117292205D01*
X124558102Y-117370226D01*
X124758061Y-117410000D01*
X124961939Y-117410000D01*
X125161898Y-117370226D01*
X125350256Y-117292205D01*
X125519774Y-117178937D01*
X125663937Y-117034774D01*
X125777205Y-116865256D01*
X125855226Y-116676898D01*
X125895000Y-116476939D01*
X125895000Y-116273061D01*
X125855226Y-116073102D01*
X125777205Y-115884744D01*
X125663937Y-115715226D01*
X125519774Y-115571063D01*
X125350256Y-115457795D01*
X125161898Y-115379774D01*
X124961939Y-115340000D01*
X124758061Y-115340000D01*
X124558102Y-115379774D01*
X124369744Y-115457795D01*
X124200226Y-115571063D01*
X124056063Y-115715226D01*
X123942795Y-115884744D01*
X123864774Y-116073102D01*
X123825000Y-116273061D01*
X120660000Y-116273061D01*
X120660000Y-116248061D01*
X120620226Y-116048102D01*
X120542205Y-115859744D01*
X120428937Y-115690226D01*
X120284774Y-115546063D01*
X120115256Y-115432795D01*
X119926898Y-115354774D01*
X119726939Y-115315000D01*
X119523061Y-115315000D01*
X119323102Y-115354774D01*
X119134744Y-115432795D01*
X118965226Y-115546063D01*
X118821063Y-115690226D01*
X118707795Y-115859744D01*
X118629774Y-116048102D01*
X118590000Y-116248061D01*
X115087645Y-116248061D01*
X115101898Y-116245226D01*
X115290256Y-116167205D01*
X115459774Y-116053937D01*
X115603937Y-115909774D01*
X115717205Y-115740256D01*
X115795226Y-115551898D01*
X115835000Y-115351939D01*
X115835000Y-115148061D01*
X115795226Y-114948102D01*
X115717205Y-114759744D01*
X115603937Y-114590226D01*
X115459774Y-114446063D01*
X115290256Y-114332795D01*
X115101898Y-114254774D01*
X114901939Y-114215000D01*
X114698061Y-114215000D01*
X114498102Y-114254774D01*
X114309744Y-114332795D01*
X114140226Y-114446063D01*
X113996063Y-114590226D01*
X113882795Y-114759744D01*
X113804774Y-114948102D01*
X113765000Y-115148061D01*
X108160000Y-115148061D01*
X108160000Y-112898061D01*
X149815000Y-112898061D01*
X149815000Y-113101939D01*
X149854774Y-113301898D01*
X149932795Y-113490256D01*
X150046063Y-113659774D01*
X150190226Y-113803937D01*
X150359744Y-113917205D01*
X150548102Y-113995226D01*
X150748061Y-114035000D01*
X150951939Y-114035000D01*
X151151898Y-113995226D01*
X151340256Y-113917205D01*
X151509774Y-113803937D01*
X151653937Y-113659774D01*
X151767205Y-113490256D01*
X151845226Y-113301898D01*
X151885000Y-113101939D01*
X151885000Y-112898061D01*
X151845226Y-112698102D01*
X151767205Y-112509744D01*
X151653937Y-112340226D01*
X151509774Y-112196063D01*
X151340256Y-112082795D01*
X151151898Y-112004774D01*
X150951939Y-111965000D01*
X150748061Y-111965000D01*
X150548102Y-112004774D01*
X150359744Y-112082795D01*
X150190226Y-112196063D01*
X150046063Y-112340226D01*
X149932795Y-112509744D01*
X149854774Y-112698102D01*
X149815000Y-112898061D01*
X108160000Y-112898061D01*
X108160000Y-110448061D01*
X119140000Y-110448061D01*
X119140000Y-110651939D01*
X119179774Y-110851898D01*
X119257795Y-111040256D01*
X119371063Y-111209774D01*
X119515226Y-111353937D01*
X119684744Y-111467205D01*
X119778218Y-111505924D01*
X119740000Y-111698061D01*
X119740000Y-111901939D01*
X119779774Y-112101898D01*
X119857795Y-112290256D01*
X119971063Y-112459774D01*
X120115226Y-112603937D01*
X120284744Y-112717205D01*
X120473102Y-112795226D01*
X120673061Y-112835000D01*
X120876939Y-112835000D01*
X121076898Y-112795226D01*
X121265256Y-112717205D01*
X121434774Y-112603937D01*
X121578937Y-112459774D01*
X121692205Y-112290256D01*
X121770226Y-112101898D01*
X121810000Y-111901939D01*
X121810000Y-111698061D01*
X121770226Y-111498102D01*
X121692205Y-111309744D01*
X121578937Y-111140226D01*
X121434774Y-110996063D01*
X121265256Y-110882795D01*
X121171782Y-110844076D01*
X121210000Y-110651939D01*
X121210000Y-110448061D01*
X121170226Y-110248102D01*
X121149328Y-110197651D01*
X121295256Y-110137205D01*
X121464774Y-110023937D01*
X121608937Y-109879774D01*
X121722205Y-109710256D01*
X121800226Y-109521898D01*
X121840000Y-109321939D01*
X121840000Y-109118061D01*
X121800226Y-108918102D01*
X121722205Y-108729744D01*
X121608937Y-108560226D01*
X121464774Y-108416063D01*
X121295256Y-108302795D01*
X121106898Y-108224774D01*
X120906939Y-108185000D01*
X120703061Y-108185000D01*
X120503102Y-108224774D01*
X120314744Y-108302795D01*
X120145226Y-108416063D01*
X120001063Y-108560226D01*
X119887795Y-108729744D01*
X119809774Y-108918102D01*
X119770000Y-109118061D01*
X119770000Y-109321939D01*
X119809774Y-109521898D01*
X119830672Y-109572349D01*
X119684744Y-109632795D01*
X119515226Y-109746063D01*
X119371063Y-109890226D01*
X119257795Y-110059744D01*
X119179774Y-110248102D01*
X119140000Y-110448061D01*
X108160000Y-110448061D01*
X108160000Y-108298061D01*
X109465000Y-108298061D01*
X109465000Y-108501939D01*
X109504774Y-108701898D01*
X109582795Y-108890256D01*
X109696063Y-109059774D01*
X109840226Y-109203937D01*
X110009744Y-109317205D01*
X110198102Y-109395226D01*
X110398061Y-109435000D01*
X110601939Y-109435000D01*
X110801898Y-109395226D01*
X110990256Y-109317205D01*
X111159774Y-109203937D01*
X111303937Y-109059774D01*
X111417205Y-108890256D01*
X111495226Y-108701898D01*
X111535000Y-108501939D01*
X111535000Y-108298061D01*
X111495226Y-108098102D01*
X111433077Y-107948061D01*
X154140000Y-107948061D01*
X154140000Y-108151939D01*
X154179774Y-108351898D01*
X154257795Y-108540256D01*
X154371063Y-108709774D01*
X154515226Y-108853937D01*
X154684744Y-108967205D01*
X154873102Y-109045226D01*
X155073061Y-109085000D01*
X155276939Y-109085000D01*
X155476898Y-109045226D01*
X155665256Y-108967205D01*
X155834774Y-108853937D01*
X155978937Y-108709774D01*
X156092205Y-108540256D01*
X156170226Y-108351898D01*
X156210000Y-108151939D01*
X156210000Y-107948061D01*
X156170226Y-107748102D01*
X156092205Y-107559744D01*
X155978937Y-107390226D01*
X155834774Y-107246063D01*
X155665256Y-107132795D01*
X155476898Y-107054774D01*
X155276939Y-107015000D01*
X155073061Y-107015000D01*
X154873102Y-107054774D01*
X154684744Y-107132795D01*
X154515226Y-107246063D01*
X154371063Y-107390226D01*
X154257795Y-107559744D01*
X154179774Y-107748102D01*
X154140000Y-107948061D01*
X111433077Y-107948061D01*
X111417205Y-107909744D01*
X111303937Y-107740226D01*
X111159774Y-107596063D01*
X110990256Y-107482795D01*
X110801898Y-107404774D01*
X110601939Y-107365000D01*
X110398061Y-107365000D01*
X110198102Y-107404774D01*
X110009744Y-107482795D01*
X109840226Y-107596063D01*
X109696063Y-107740226D01*
X109582795Y-107909744D01*
X109504774Y-108098102D01*
X109465000Y-108298061D01*
X108160000Y-108298061D01*
X108160000Y-104023061D01*
X117790000Y-104023061D01*
X117790000Y-104226939D01*
X117829774Y-104426898D01*
X117907795Y-104615256D01*
X118021063Y-104784774D01*
X118165226Y-104928937D01*
X118334744Y-105042205D01*
X118523102Y-105120226D01*
X118723061Y-105160000D01*
X118869198Y-105160000D01*
X118815226Y-105196063D01*
X118671063Y-105340226D01*
X118557795Y-105509744D01*
X118479774Y-105698102D01*
X118440000Y-105898061D01*
X118440000Y-106101939D01*
X118479774Y-106301898D01*
X118557795Y-106490256D01*
X118671063Y-106659774D01*
X118815226Y-106803937D01*
X118984744Y-106917205D01*
X119173102Y-106995226D01*
X119373061Y-107035000D01*
X119576939Y-107035000D01*
X119776898Y-106995226D01*
X119965256Y-106917205D01*
X120134774Y-106803937D01*
X120203950Y-106734761D01*
X151703300Y-106734761D01*
X151703300Y-106938639D01*
X151743074Y-107138598D01*
X151821095Y-107326956D01*
X151934363Y-107496474D01*
X152078526Y-107640637D01*
X152248044Y-107753905D01*
X152436402Y-107831926D01*
X152636361Y-107871700D01*
X152840239Y-107871700D01*
X153040198Y-107831926D01*
X153228556Y-107753905D01*
X153398074Y-107640637D01*
X153542237Y-107496474D01*
X153655505Y-107326956D01*
X153733526Y-107138598D01*
X153773300Y-106938639D01*
X153773300Y-106734761D01*
X153733526Y-106534802D01*
X153655505Y-106346444D01*
X153542237Y-106176926D01*
X153398074Y-106032763D01*
X153228556Y-105919495D01*
X153040198Y-105841474D01*
X152840239Y-105801700D01*
X152636361Y-105801700D01*
X152436402Y-105841474D01*
X152248044Y-105919495D01*
X152078526Y-106032763D01*
X151934363Y-106176926D01*
X151821095Y-106346444D01*
X151743074Y-106534802D01*
X151703300Y-106734761D01*
X120203950Y-106734761D01*
X120278937Y-106659774D01*
X120392205Y-106490256D01*
X120470226Y-106301898D01*
X120510000Y-106101939D01*
X120510000Y-105898061D01*
X120470226Y-105698102D01*
X120392205Y-105509744D01*
X120278937Y-105340226D01*
X120134774Y-105196063D01*
X119965256Y-105082795D01*
X119776898Y-105004774D01*
X119576939Y-104965000D01*
X119430802Y-104965000D01*
X119484774Y-104928937D01*
X119628937Y-104784774D01*
X119742205Y-104615256D01*
X119820226Y-104426898D01*
X119860000Y-104226939D01*
X119860000Y-104023061D01*
X119820226Y-103823102D01*
X119778788Y-103723061D01*
X148090000Y-103723061D01*
X148090000Y-103926939D01*
X148129774Y-104126898D01*
X148207795Y-104315256D01*
X148321063Y-104484774D01*
X148465226Y-104628937D01*
X148634744Y-104742205D01*
X148823102Y-104820226D01*
X149023061Y-104860000D01*
X149226939Y-104860000D01*
X149426898Y-104820226D01*
X149615256Y-104742205D01*
X149784774Y-104628937D01*
X149928937Y-104484774D01*
X150042205Y-104315256D01*
X150120226Y-104126898D01*
X150160000Y-103926939D01*
X150160000Y-103723061D01*
X150120226Y-103523102D01*
X150042205Y-103334744D01*
X149928937Y-103165226D01*
X149784774Y-103021063D01*
X149615256Y-102907795D01*
X149426898Y-102829774D01*
X149226939Y-102790000D01*
X149023061Y-102790000D01*
X148823102Y-102829774D01*
X148634744Y-102907795D01*
X148465226Y-103021063D01*
X148321063Y-103165226D01*
X148207795Y-103334744D01*
X148129774Y-103523102D01*
X148090000Y-103723061D01*
X119778788Y-103723061D01*
X119742205Y-103634744D01*
X119628937Y-103465226D01*
X119484774Y-103321063D01*
X119315256Y-103207795D01*
X119126898Y-103129774D01*
X118926939Y-103090000D01*
X118723061Y-103090000D01*
X118523102Y-103129774D01*
X118334744Y-103207795D01*
X118165226Y-103321063D01*
X118021063Y-103465226D01*
X117907795Y-103634744D01*
X117829774Y-103823102D01*
X117790000Y-104023061D01*
X108160000Y-104023061D01*
X108160000Y-100750000D01*
X108536928Y-100750000D01*
X108549188Y-100874482D01*
X108585498Y-100994180D01*
X108644463Y-101104494D01*
X108723815Y-101201185D01*
X108820506Y-101280537D01*
X108930820Y-101339502D01*
X109050518Y-101375812D01*
X109175000Y-101388072D01*
X109739250Y-101385000D01*
X109898000Y-101226250D01*
X109898000Y-100027000D01*
X108698750Y-100027000D01*
X108540000Y-100185750D01*
X108536928Y-100750000D01*
X108160000Y-100750000D01*
X108160000Y-98560000D01*
X108771111Y-98560000D01*
X108723815Y-98598815D01*
G37*
%TD.AperFunction*%
%TD*%
M02*
