%TF.GenerationSoftware,KiCad,Pcbnew,5.1.9-73d0e3b20d~88~ubuntu20.04.1*%
%TF.CreationDate,2021-02-15T14:30:30+00:00*%
%TF.ProjectId,daughter_board,64617567-6874-4657-925f-626f6172642e,rev?*%
%TF.SameCoordinates,Original*%
%TF.FileFunction,Soldermask,Top*%
%TF.FilePolarity,Negative*%
%FSLAX46Y46*%
G04 Gerber Fmt 4.6, Leading zero omitted, Abs format (unit mm)*
G04 Created by KiCad (PCBNEW 5.1.9-73d0e3b20d~88~ubuntu20.04.1) date 2021-02-15 14:30:30*
%MOMM*%
%LPD*%
G01*
G04 APERTURE LIST*
%ADD10R,1.500000X1.000000*%
%ADD11R,1.000000X1.500000*%
%ADD12O,1.700000X1.700000*%
%ADD13R,1.700000X1.700000*%
%ADD14R,1.050000X1.400000*%
%ADD15R,0.914400X1.219200*%
%ADD16O,1.000000X1.000000*%
%ADD17R,1.000000X1.000000*%
%ADD18R,3.000000X0.800000*%
%ADD19R,0.800000X3.000000*%
G04 APERTURE END LIST*
D10*
%TO.C,D3*%
X125000000Y-120750000D03*
X127500000Y-120750000D03*
%TD*%
D11*
%TO.C,D2*%
X117950000Y-120650000D03*
X117950000Y-123150000D03*
%TD*%
%TO.C,D1*%
X117900000Y-118800000D03*
X117900000Y-116300000D03*
%TD*%
%TO.C,STEMMA1*%
G36*
G01*
X110375001Y-105725000D02*
X109074999Y-105725000D01*
G75*
G02*
X108825000Y-105475001I0J249999D01*
G01*
X108825000Y-104774999D01*
G75*
G02*
X109074999Y-104525000I249999J0D01*
G01*
X110375001Y-104525000D01*
G75*
G02*
X110625000Y-104774999I0J-249999D01*
G01*
X110625000Y-105475001D01*
G75*
G02*
X110375001Y-105725000I-249999J0D01*
G01*
G37*
G36*
G01*
X110375001Y-111325000D02*
X109074999Y-111325000D01*
G75*
G02*
X108825000Y-111075001I0J249999D01*
G01*
X108825000Y-110374999D01*
G75*
G02*
X109074999Y-110125000I249999J0D01*
G01*
X110375001Y-110125000D01*
G75*
G02*
X110625000Y-110374999I0J-249999D01*
G01*
X110625000Y-111075001D01*
G75*
G02*
X110375001Y-111325000I-249999J0D01*
G01*
G37*
G36*
G01*
X112875000Y-106725000D02*
X111625000Y-106725000D01*
G75*
G02*
X111475000Y-106575000I0J150000D01*
G01*
X111475000Y-106275000D01*
G75*
G02*
X111625000Y-106125000I150000J0D01*
G01*
X112875000Y-106125000D01*
G75*
G02*
X113025000Y-106275000I0J-150000D01*
G01*
X113025000Y-106575000D01*
G75*
G02*
X112875000Y-106725000I-150000J0D01*
G01*
G37*
G36*
G01*
X112875000Y-107725000D02*
X111625000Y-107725000D01*
G75*
G02*
X111475000Y-107575000I0J150000D01*
G01*
X111475000Y-107275000D01*
G75*
G02*
X111625000Y-107125000I150000J0D01*
G01*
X112875000Y-107125000D01*
G75*
G02*
X113025000Y-107275000I0J-150000D01*
G01*
X113025000Y-107575000D01*
G75*
G02*
X112875000Y-107725000I-150000J0D01*
G01*
G37*
G36*
G01*
X112875000Y-108725000D02*
X111625000Y-108725000D01*
G75*
G02*
X111475000Y-108575000I0J150000D01*
G01*
X111475000Y-108275000D01*
G75*
G02*
X111625000Y-108125000I150000J0D01*
G01*
X112875000Y-108125000D01*
G75*
G02*
X113025000Y-108275000I0J-150000D01*
G01*
X113025000Y-108575000D01*
G75*
G02*
X112875000Y-108725000I-150000J0D01*
G01*
G37*
G36*
G01*
X112875000Y-109725000D02*
X111625000Y-109725000D01*
G75*
G02*
X111475000Y-109575000I0J150000D01*
G01*
X111475000Y-109275000D01*
G75*
G02*
X111625000Y-109125000I150000J0D01*
G01*
X112875000Y-109125000D01*
G75*
G02*
X113025000Y-109275000I0J-150000D01*
G01*
X113025000Y-109575000D01*
G75*
G02*
X112875000Y-109725000I-150000J0D01*
G01*
G37*
%TD*%
D12*
%TO.C,J5*%
X154735000Y-121590000D03*
X154735000Y-119050000D03*
X152195000Y-121590000D03*
X152195000Y-119050000D03*
X149655000Y-121590000D03*
X149655000Y-119050000D03*
X147115000Y-121590000D03*
X147115000Y-119050000D03*
X144575000Y-121590000D03*
X144575000Y-119050000D03*
X142035000Y-121590000D03*
D13*
X142035000Y-119050000D03*
%TD*%
D12*
%TO.C,J2*%
X112315000Y-120940000D03*
X109775000Y-120940000D03*
X112315000Y-118400000D03*
D13*
X109775000Y-118400000D03*
%TD*%
D12*
%TO.C,APDS9930*%
X115480000Y-127400000D03*
X118020000Y-127400000D03*
X120560000Y-127400000D03*
D13*
X123100000Y-127400000D03*
%TD*%
%TO.C,R1*%
G36*
G01*
X149550000Y-105149998D02*
X149550000Y-106050002D01*
G75*
G02*
X149300002Y-106300000I-249998J0D01*
G01*
X148774998Y-106300000D01*
G75*
G02*
X148525000Y-106050002I0J249998D01*
G01*
X148525000Y-105149998D01*
G75*
G02*
X148774998Y-104900000I249998J0D01*
G01*
X149300002Y-104900000D01*
G75*
G02*
X149550000Y-105149998I0J-249998D01*
G01*
G37*
G36*
G01*
X151375000Y-105149998D02*
X151375000Y-106050002D01*
G75*
G02*
X151125002Y-106300000I-249998J0D01*
G01*
X150599998Y-106300000D01*
G75*
G02*
X150350000Y-106050002I0J249998D01*
G01*
X150350000Y-105149998D01*
G75*
G02*
X150599998Y-104900000I249998J0D01*
G01*
X151125002Y-104900000D01*
G75*
G02*
X151375000Y-105149998I0J-249998D01*
G01*
G37*
%TD*%
%TO.C,C3*%
G36*
G01*
X149450000Y-107300000D02*
X149450000Y-108250000D01*
G75*
G02*
X149200000Y-108500000I-250000J0D01*
G01*
X148700000Y-108500000D01*
G75*
G02*
X148450000Y-108250000I0J250000D01*
G01*
X148450000Y-107300000D01*
G75*
G02*
X148700000Y-107050000I250000J0D01*
G01*
X149200000Y-107050000D01*
G75*
G02*
X149450000Y-107300000I0J-250000D01*
G01*
G37*
G36*
G01*
X151350000Y-107300000D02*
X151350000Y-108250000D01*
G75*
G02*
X151100000Y-108500000I-250000J0D01*
G01*
X150600000Y-108500000D01*
G75*
G02*
X150350000Y-108250000I0J250000D01*
G01*
X150350000Y-107300000D01*
G75*
G02*
X150600000Y-107050000I250000J0D01*
G01*
X151100000Y-107050000D01*
G75*
G02*
X151350000Y-107300000I0J-250000D01*
G01*
G37*
%TD*%
D14*
%TO.C,SW2*%
X154750000Y-104800000D03*
X154750000Y-101200000D03*
X156200000Y-104800000D03*
X156200000Y-101200000D03*
%TD*%
%TO.C,SW1*%
X154750000Y-113325000D03*
X154750000Y-109725000D03*
X156200000Y-113325000D03*
X156200000Y-109725000D03*
%TD*%
%TO.C,FB1*%
G36*
G01*
X148725000Y-101912500D02*
X148725000Y-102387500D01*
G75*
G02*
X148487500Y-102625000I-237500J0D01*
G01*
X147987500Y-102625000D01*
G75*
G02*
X147750000Y-102387500I0J237500D01*
G01*
X147750000Y-101912500D01*
G75*
G02*
X147987500Y-101675000I237500J0D01*
G01*
X148487500Y-101675000D01*
G75*
G02*
X148725000Y-101912500I0J-237500D01*
G01*
G37*
G36*
G01*
X150550000Y-101912500D02*
X150550000Y-102387500D01*
G75*
G02*
X150312500Y-102625000I-237500J0D01*
G01*
X149812500Y-102625000D01*
G75*
G02*
X149575000Y-102387500I0J237500D01*
G01*
X149575000Y-101912500D01*
G75*
G02*
X149812500Y-101675000I237500J0D01*
G01*
X150312500Y-101675000D01*
G75*
G02*
X150550000Y-101912500I0J-237500D01*
G01*
G37*
%TD*%
D15*
%TO.C,D4*%
X130388300Y-122775000D03*
X127111700Y-122775000D03*
%TD*%
D12*
%TO.C,AHT10*%
X154520000Y-127400000D03*
X151980000Y-127400000D03*
X149440000Y-127400000D03*
D13*
X146900000Y-127400000D03*
%TD*%
D16*
%TO.C,J3*%
X137855000Y-125730000D03*
X137855000Y-127000000D03*
X136585000Y-125730000D03*
X136585000Y-127000000D03*
X135315000Y-125730000D03*
X135315000Y-127000000D03*
X134045000Y-125730000D03*
X134045000Y-127000000D03*
X132775000Y-125730000D03*
D17*
X132775000Y-127000000D03*
%TD*%
%TO.C,R7*%
G36*
G01*
X130750000Y-121175002D02*
X130750000Y-120274998D01*
G75*
G02*
X130999998Y-120025000I249998J0D01*
G01*
X131525002Y-120025000D01*
G75*
G02*
X131775000Y-120274998I0J-249998D01*
G01*
X131775000Y-121175002D01*
G75*
G02*
X131525002Y-121425000I-249998J0D01*
G01*
X130999998Y-121425000D01*
G75*
G02*
X130750000Y-121175002I0J249998D01*
G01*
G37*
G36*
G01*
X128925000Y-121175002D02*
X128925000Y-120274998D01*
G75*
G02*
X129174998Y-120025000I249998J0D01*
G01*
X129700002Y-120025000D01*
G75*
G02*
X129950000Y-120274998I0J-249998D01*
G01*
X129950000Y-121175002D01*
G75*
G02*
X129700002Y-121425000I-249998J0D01*
G01*
X129174998Y-121425000D01*
G75*
G02*
X128925000Y-121175002I0J249998D01*
G01*
G37*
%TD*%
%TO.C,R6*%
G36*
G01*
X115750002Y-121000000D02*
X114849998Y-121000000D01*
G75*
G02*
X114600000Y-120750002I0J249998D01*
G01*
X114600000Y-120224998D01*
G75*
G02*
X114849998Y-119975000I249998J0D01*
G01*
X115750002Y-119975000D01*
G75*
G02*
X116000000Y-120224998I0J-249998D01*
G01*
X116000000Y-120750002D01*
G75*
G02*
X115750002Y-121000000I-249998J0D01*
G01*
G37*
G36*
G01*
X115750002Y-122825000D02*
X114849998Y-122825000D01*
G75*
G02*
X114600000Y-122575002I0J249998D01*
G01*
X114600000Y-122049998D01*
G75*
G02*
X114849998Y-121800000I249998J0D01*
G01*
X115750002Y-121800000D01*
G75*
G02*
X116000000Y-122049998I0J-249998D01*
G01*
X116000000Y-122575002D01*
G75*
G02*
X115750002Y-122825000I-249998J0D01*
G01*
G37*
%TD*%
%TO.C,R5*%
G36*
G01*
X114799998Y-118100000D02*
X115700002Y-118100000D01*
G75*
G02*
X115950000Y-118349998I0J-249998D01*
G01*
X115950000Y-118875002D01*
G75*
G02*
X115700002Y-119125000I-249998J0D01*
G01*
X114799998Y-119125000D01*
G75*
G02*
X114550000Y-118875002I0J249998D01*
G01*
X114550000Y-118349998D01*
G75*
G02*
X114799998Y-118100000I249998J0D01*
G01*
G37*
G36*
G01*
X114799998Y-116275000D02*
X115700002Y-116275000D01*
G75*
G02*
X115950000Y-116524998I0J-249998D01*
G01*
X115950000Y-117050002D01*
G75*
G02*
X115700002Y-117300000I-249998J0D01*
G01*
X114799998Y-117300000D01*
G75*
G02*
X114550000Y-117050002I0J249998D01*
G01*
X114550000Y-116524998D01*
G75*
G02*
X114799998Y-116275000I249998J0D01*
G01*
G37*
%TD*%
%TO.C,R4*%
G36*
G01*
X149550000Y-99024998D02*
X149550000Y-99925002D01*
G75*
G02*
X149300002Y-100175000I-249998J0D01*
G01*
X148774998Y-100175000D01*
G75*
G02*
X148525000Y-99925002I0J249998D01*
G01*
X148525000Y-99024998D01*
G75*
G02*
X148774998Y-98775000I249998J0D01*
G01*
X149300002Y-98775000D01*
G75*
G02*
X149550000Y-99024998I0J-249998D01*
G01*
G37*
G36*
G01*
X151375000Y-99024998D02*
X151375000Y-99925002D01*
G75*
G02*
X151125002Y-100175000I-249998J0D01*
G01*
X150599998Y-100175000D01*
G75*
G02*
X150350000Y-99925002I0J249998D01*
G01*
X150350000Y-99024998D01*
G75*
G02*
X150599998Y-98775000I249998J0D01*
G01*
X151125002Y-98775000D01*
G75*
G02*
X151375000Y-99024998I0J-249998D01*
G01*
G37*
%TD*%
D12*
%TO.C,J1*%
X117645000Y-99900000D03*
X115105000Y-99900000D03*
X112565000Y-99900000D03*
D13*
X110025000Y-99900000D03*
%TD*%
%TO.C,C2*%
G36*
G01*
X146850000Y-100800000D02*
X145900000Y-100800000D01*
G75*
G02*
X145650000Y-100550000I0J250000D01*
G01*
X145650000Y-100050000D01*
G75*
G02*
X145900000Y-99800000I250000J0D01*
G01*
X146850000Y-99800000D01*
G75*
G02*
X147100000Y-100050000I0J-250000D01*
G01*
X147100000Y-100550000D01*
G75*
G02*
X146850000Y-100800000I-250000J0D01*
G01*
G37*
G36*
G01*
X146850000Y-102700000D02*
X145900000Y-102700000D01*
G75*
G02*
X145650000Y-102450000I0J250000D01*
G01*
X145650000Y-101950000D01*
G75*
G02*
X145900000Y-101700000I250000J0D01*
G01*
X146850000Y-101700000D01*
G75*
G02*
X147100000Y-101950000I0J-250000D01*
G01*
X147100000Y-102450000D01*
G75*
G02*
X146850000Y-102700000I-250000J0D01*
G01*
G37*
%TD*%
D18*
%TO.C,U3*%
X142340000Y-99060000D03*
X142340000Y-100330000D03*
X142340000Y-101600000D03*
X142340000Y-102870000D03*
X142340000Y-104140000D03*
X142340000Y-105410000D03*
X142340000Y-106680000D03*
X142340000Y-107950000D03*
X142340000Y-109220000D03*
X142340000Y-110490000D03*
X123350000Y-114300000D03*
D19*
X127140000Y-115900000D03*
D18*
X123350000Y-113030000D03*
D19*
X128410000Y-115900000D03*
D18*
X123350000Y-111760000D03*
D19*
X129680000Y-115900000D03*
D18*
X123350000Y-110490000D03*
D19*
X130950000Y-115900000D03*
D18*
X123350000Y-109220000D03*
D19*
X138570000Y-115900000D03*
D18*
X123350000Y-107950000D03*
D19*
X132220000Y-115900000D03*
D18*
X123350000Y-106680000D03*
D19*
X133490000Y-115900000D03*
D18*
X123350000Y-105410000D03*
D19*
X134760000Y-115900000D03*
D18*
X123350000Y-104140000D03*
D19*
X136030000Y-115900000D03*
D18*
X123350000Y-102870000D03*
D19*
X137300000Y-115900000D03*
D18*
X123350000Y-101600000D03*
X142350000Y-114300000D03*
X123350000Y-100330000D03*
X142350000Y-113030000D03*
X123350000Y-99060000D03*
X142350000Y-111760000D03*
%TD*%
M02*
