%TF.GenerationSoftware,KiCad,Pcbnew,5.1.9-73d0e3b20d~88~ubuntu20.04.1*%
%TF.CreationDate,2021-02-15T14:30:30+00:00*%
%TF.ProjectId,daughter_board,64617567-6874-4657-925f-626f6172642e,rev?*%
%TF.SameCoordinates,Original*%
%TF.FileFunction,Paste,Bot*%
%TF.FilePolarity,Positive*%
%FSLAX46Y46*%
G04 Gerber Fmt 4.6, Leading zero omitted, Abs format (unit mm)*
G04 Created by KiCad (PCBNEW 5.1.9-73d0e3b20d~88~ubuntu20.04.1) date 2021-02-15 14:30:30*
%MOMM*%
%LPD*%
G01*
G04 APERTURE LIST*
%ADD10R,2.500000X5.100000*%
%ADD11C,17.800000*%
%ADD12R,1.219200X0.914400*%
G04 APERTURE END LIST*
%TO.C,C4*%
G36*
G01*
X153975000Y-108725000D02*
X153025000Y-108725000D01*
G75*
G02*
X152775000Y-108475000I0J250000D01*
G01*
X152775000Y-107975000D01*
G75*
G02*
X153025000Y-107725000I250000J0D01*
G01*
X153975000Y-107725000D01*
G75*
G02*
X154225000Y-107975000I0J-250000D01*
G01*
X154225000Y-108475000D01*
G75*
G02*
X153975000Y-108725000I-250000J0D01*
G01*
G37*
G36*
G01*
X153975000Y-110625000D02*
X153025000Y-110625000D01*
G75*
G02*
X152775000Y-110375000I0J250000D01*
G01*
X152775000Y-109875000D01*
G75*
G02*
X153025000Y-109625000I250000J0D01*
G01*
X153975000Y-109625000D01*
G75*
G02*
X154225000Y-109875000I0J-250000D01*
G01*
X154225000Y-110375000D01*
G75*
G02*
X153975000Y-110625000I-250000J0D01*
G01*
G37*
%TD*%
%TO.C,C1*%
G36*
G01*
X113075000Y-112025000D02*
X112125000Y-112025000D01*
G75*
G02*
X111875000Y-111775000I0J250000D01*
G01*
X111875000Y-111275000D01*
G75*
G02*
X112125000Y-111025000I250000J0D01*
G01*
X113075000Y-111025000D01*
G75*
G02*
X113325000Y-111275000I0J-250000D01*
G01*
X113325000Y-111775000D01*
G75*
G02*
X113075000Y-112025000I-250000J0D01*
G01*
G37*
G36*
G01*
X113075000Y-113925000D02*
X112125000Y-113925000D01*
G75*
G02*
X111875000Y-113675000I0J250000D01*
G01*
X111875000Y-113175000D01*
G75*
G02*
X112125000Y-112925000I250000J0D01*
G01*
X113075000Y-112925000D01*
G75*
G02*
X113325000Y-113175000I0J-250000D01*
G01*
X113325000Y-113675000D01*
G75*
G02*
X113075000Y-113925000I-250000J0D01*
G01*
G37*
%TD*%
D10*
%TO.C,BT1*%
X124575000Y-107925000D03*
X147475000Y-107925000D03*
D11*
X136025000Y-107925000D03*
%TD*%
%TO.C,C6*%
G36*
G01*
X151975000Y-108725000D02*
X151025000Y-108725000D01*
G75*
G02*
X150775000Y-108475000I0J250000D01*
G01*
X150775000Y-107975000D01*
G75*
G02*
X151025000Y-107725000I250000J0D01*
G01*
X151975000Y-107725000D01*
G75*
G02*
X152225000Y-107975000I0J-250000D01*
G01*
X152225000Y-108475000D01*
G75*
G02*
X151975000Y-108725000I-250000J0D01*
G01*
G37*
G36*
G01*
X151975000Y-110625000D02*
X151025000Y-110625000D01*
G75*
G02*
X150775000Y-110375000I0J250000D01*
G01*
X150775000Y-109875000D01*
G75*
G02*
X151025000Y-109625000I250000J0D01*
G01*
X151975000Y-109625000D01*
G75*
G02*
X152225000Y-109875000I0J-250000D01*
G01*
X152225000Y-110375000D01*
G75*
G02*
X151975000Y-110625000I-250000J0D01*
G01*
G37*
%TD*%
%TO.C,R9*%
G36*
G01*
X114725002Y-102900000D02*
X113824998Y-102900000D01*
G75*
G02*
X113575000Y-102650002I0J249998D01*
G01*
X113575000Y-102124998D01*
G75*
G02*
X113824998Y-101875000I249998J0D01*
G01*
X114725002Y-101875000D01*
G75*
G02*
X114975000Y-102124998I0J-249998D01*
G01*
X114975000Y-102650002D01*
G75*
G02*
X114725002Y-102900000I-249998J0D01*
G01*
G37*
G36*
G01*
X114725002Y-104725000D02*
X113824998Y-104725000D01*
G75*
G02*
X113575000Y-104475002I0J249998D01*
G01*
X113575000Y-103949998D01*
G75*
G02*
X113824998Y-103700000I249998J0D01*
G01*
X114725002Y-103700000D01*
G75*
G02*
X114975000Y-103949998I0J-249998D01*
G01*
X114975000Y-104475002D01*
G75*
G02*
X114725002Y-104725000I-249998J0D01*
G01*
G37*
%TD*%
%TO.C,R8*%
G36*
G01*
X116900002Y-102900000D02*
X115999998Y-102900000D01*
G75*
G02*
X115750000Y-102650002I0J249998D01*
G01*
X115750000Y-102124998D01*
G75*
G02*
X115999998Y-101875000I249998J0D01*
G01*
X116900002Y-101875000D01*
G75*
G02*
X117150000Y-102124998I0J-249998D01*
G01*
X117150000Y-102650002D01*
G75*
G02*
X116900002Y-102900000I-249998J0D01*
G01*
G37*
G36*
G01*
X116900002Y-104725000D02*
X115999998Y-104725000D01*
G75*
G02*
X115750000Y-104475002I0J249998D01*
G01*
X115750000Y-103949998D01*
G75*
G02*
X115999998Y-103700000I249998J0D01*
G01*
X116900002Y-103700000D01*
G75*
G02*
X117150000Y-103949998I0J-249998D01*
G01*
X117150000Y-104475002D01*
G75*
G02*
X116900002Y-104725000I-249998J0D01*
G01*
G37*
%TD*%
%TO.C,U1*%
G36*
G01*
X114470000Y-112550000D02*
X114770000Y-112550000D01*
G75*
G02*
X114920000Y-112700000I0J-150000D01*
G01*
X114920000Y-114050000D01*
G75*
G02*
X114770000Y-114200000I-150000J0D01*
G01*
X114470000Y-114200000D01*
G75*
G02*
X114320000Y-114050000I0J150000D01*
G01*
X114320000Y-112700000D01*
G75*
G02*
X114470000Y-112550000I150000J0D01*
G01*
G37*
G36*
G01*
X115740000Y-112550000D02*
X116040000Y-112550000D01*
G75*
G02*
X116190000Y-112700000I0J-150000D01*
G01*
X116190000Y-114050000D01*
G75*
G02*
X116040000Y-114200000I-150000J0D01*
G01*
X115740000Y-114200000D01*
G75*
G02*
X115590000Y-114050000I0J150000D01*
G01*
X115590000Y-112700000D01*
G75*
G02*
X115740000Y-112550000I150000J0D01*
G01*
G37*
G36*
G01*
X117010000Y-112550000D02*
X117310000Y-112550000D01*
G75*
G02*
X117460000Y-112700000I0J-150000D01*
G01*
X117460000Y-114050000D01*
G75*
G02*
X117310000Y-114200000I-150000J0D01*
G01*
X117010000Y-114200000D01*
G75*
G02*
X116860000Y-114050000I0J150000D01*
G01*
X116860000Y-112700000D01*
G75*
G02*
X117010000Y-112550000I150000J0D01*
G01*
G37*
G36*
G01*
X118280000Y-112550000D02*
X118580000Y-112550000D01*
G75*
G02*
X118730000Y-112700000I0J-150000D01*
G01*
X118730000Y-114050000D01*
G75*
G02*
X118580000Y-114200000I-150000J0D01*
G01*
X118280000Y-114200000D01*
G75*
G02*
X118130000Y-114050000I0J150000D01*
G01*
X118130000Y-112700000D01*
G75*
G02*
X118280000Y-112550000I150000J0D01*
G01*
G37*
G36*
G01*
X118280000Y-107300000D02*
X118580000Y-107300000D01*
G75*
G02*
X118730000Y-107450000I0J-150000D01*
G01*
X118730000Y-108800000D01*
G75*
G02*
X118580000Y-108950000I-150000J0D01*
G01*
X118280000Y-108950000D01*
G75*
G02*
X118130000Y-108800000I0J150000D01*
G01*
X118130000Y-107450000D01*
G75*
G02*
X118280000Y-107300000I150000J0D01*
G01*
G37*
G36*
G01*
X117010000Y-107300000D02*
X117310000Y-107300000D01*
G75*
G02*
X117460000Y-107450000I0J-150000D01*
G01*
X117460000Y-108800000D01*
G75*
G02*
X117310000Y-108950000I-150000J0D01*
G01*
X117010000Y-108950000D01*
G75*
G02*
X116860000Y-108800000I0J150000D01*
G01*
X116860000Y-107450000D01*
G75*
G02*
X117010000Y-107300000I150000J0D01*
G01*
G37*
G36*
G01*
X115740000Y-107300000D02*
X116040000Y-107300000D01*
G75*
G02*
X116190000Y-107450000I0J-150000D01*
G01*
X116190000Y-108800000D01*
G75*
G02*
X116040000Y-108950000I-150000J0D01*
G01*
X115740000Y-108950000D01*
G75*
G02*
X115590000Y-108800000I0J150000D01*
G01*
X115590000Y-107450000D01*
G75*
G02*
X115740000Y-107300000I150000J0D01*
G01*
G37*
G36*
G01*
X114470000Y-107300000D02*
X114770000Y-107300000D01*
G75*
G02*
X114920000Y-107450000I0J-150000D01*
G01*
X114920000Y-108800000D01*
G75*
G02*
X114770000Y-108950000I-150000J0D01*
G01*
X114470000Y-108950000D01*
G75*
G02*
X114320000Y-108800000I0J150000D01*
G01*
X114320000Y-107450000D01*
G75*
G02*
X114470000Y-107300000I150000J0D01*
G01*
G37*
%TD*%
D12*
%TO.C,D5*%
X155250000Y-110188300D03*
X155250000Y-106911700D03*
%TD*%
%TO.C,R3*%
G36*
G01*
X112074998Y-107675000D02*
X112975002Y-107675000D01*
G75*
G02*
X113225000Y-107924998I0J-249998D01*
G01*
X113225000Y-108450002D01*
G75*
G02*
X112975002Y-108700000I-249998J0D01*
G01*
X112074998Y-108700000D01*
G75*
G02*
X111825000Y-108450002I0J249998D01*
G01*
X111825000Y-107924998D01*
G75*
G02*
X112074998Y-107675000I249998J0D01*
G01*
G37*
G36*
G01*
X112074998Y-105850000D02*
X112975002Y-105850000D01*
G75*
G02*
X113225000Y-106099998I0J-249998D01*
G01*
X113225000Y-106625002D01*
G75*
G02*
X112975002Y-106875000I-249998J0D01*
G01*
X112074998Y-106875000D01*
G75*
G02*
X111825000Y-106625002I0J249998D01*
G01*
X111825000Y-106099998D01*
G75*
G02*
X112074998Y-105850000I249998J0D01*
G01*
G37*
%TD*%
%TO.C,R2*%
G36*
G01*
X128625000Y-118649998D02*
X128625000Y-119550002D01*
G75*
G02*
X128375002Y-119800000I-249998J0D01*
G01*
X127849998Y-119800000D01*
G75*
G02*
X127600000Y-119550002I0J249998D01*
G01*
X127600000Y-118649998D01*
G75*
G02*
X127849998Y-118400000I249998J0D01*
G01*
X128375002Y-118400000D01*
G75*
G02*
X128625000Y-118649998I0J-249998D01*
G01*
G37*
G36*
G01*
X130450000Y-118649998D02*
X130450000Y-119550002D01*
G75*
G02*
X130200002Y-119800000I-249998J0D01*
G01*
X129674998Y-119800000D01*
G75*
G02*
X129425000Y-119550002I0J249998D01*
G01*
X129425000Y-118649998D01*
G75*
G02*
X129674998Y-118400000I249998J0D01*
G01*
X130200002Y-118400000D01*
G75*
G02*
X130450000Y-118649998I0J-249998D01*
G01*
G37*
%TD*%
M02*
