M48
; DRILL file {KiCad 5.1.9-73d0e3b20d~88~ubuntu20.04.1} date Mon Feb 15 14:30:24 2021
; FORMAT={-:-/ absolute / inch / decimal}
; #@! TF.CreationDate,2021-02-15T14:30:24+00:00
; #@! TF.GenerationSoftware,Kicad,Pcbnew,5.1.9-73d0e3b20d~88~ubuntu20.04.1
; #@! TF.FileFunction,Plated,1,4,PTH
FMAT,2
INCH
T1C0.0157
T2C0.0256
T3C0.0394
%
G90
G05
T1
X4.3071Y-4.4882
X4.3219Y-4.9911
X4.3504Y-4.2677
X4.4291Y-4.0669
X4.4508Y-4.8553
X4.5197Y-4.5374
X4.6626Y-4.3217
X4.6781Y-4.0994
X4.7037Y-4.1732
X4.7087Y-4.7047
X4.7096Y-4.5807
X4.7313Y-4.3524
X4.7362Y-3.9252
X4.7549Y-4.4016
X4.7561Y-4.3
X4.9157Y-4.5817
X4.9724Y-4.063
X4.9783Y-4.689
X5.0044Y-4.8893
X5.0157Y-3.9626
X5.0187Y-4.9665
X5.0709Y-4.2402
X5.0856Y-4.373
X5.2067Y-4.1496
X5.3386Y-3.9902
X5.372Y-4.373
X5.4429Y-4.8435
X5.4557Y-4.6663
X5.4724Y-4.2756
X5.4823Y-4.126
X5.5039Y-3.9488
X5.5974Y-4.9656
X5.7047Y-4.0659
X5.8228Y-3.9685
X5.8711Y-4.0876
X5.8839Y-4.3829
X5.939Y-4.4488
X6.001Y-4.06
X6.002Y-3.9596
X6.003Y-4.3986
X6.0133Y-4.2062
X6.0984Y-4.9094
X6.1093Y-4.2539
X6.1289Y-4.5423
T2
X5.2274Y-4.95
X5.2274Y-5.0
X5.2774Y-4.95
X5.2774Y-5.0
X5.3274Y-4.95
X5.3274Y-5.0
X5.3774Y-4.95
X5.3774Y-5.0
X5.4274Y-4.95
X5.4274Y-5.0
T3
X4.3219Y-4.6614
X4.3219Y-4.7614
X4.3317Y-3.9331
X4.4219Y-4.6614
X4.4219Y-4.7614
X4.4317Y-3.9331
X4.5317Y-3.9331
X4.5465Y-5.0157
X4.6317Y-3.9331
X4.6465Y-5.0157
X4.7465Y-5.0157
X4.8465Y-5.0157
X5.5919Y-4.687
X5.5919Y-4.787
X5.6919Y-4.687
X5.6919Y-4.787
X5.7835Y-5.0157
X5.7919Y-4.687
X5.7919Y-4.787
X5.8835Y-5.0157
X5.8919Y-4.687
X5.8919Y-4.787
X5.9835Y-5.0157
X5.9919Y-4.687
X5.9919Y-4.787
X6.0835Y-5.0157
X6.0919Y-4.687
X6.0919Y-4.787
T0
M30
